<svg width="24" height="25" viewBox="0 0 24 25" fill="none" xmlns="http://www.w3.org/2000/svg">
<path d="M18 9.08398H6C5.44772 9.08398 5 9.5317 5 10.084V18.084C5 18.6363 5.44772 19.084 6 19.084H18C18.5523 19.084 19 18.6363 19 18.084V10.084C19 9.5317 18.5523 9.08398 18 9.08398Z" stroke="#51AF4E" stroke-width="2" stroke-linecap="round" stroke-linejoin="round"/>
<path d="M10 14.084H14" stroke="#51AF4E" stroke-width="2" stroke-linecap="round" stroke-linejoin="round"/>
<path d="M19.274 6.08398H4.72594C4.40909 6.08398 4.11098 6.23415 3.92238 6.48876L3.18164 7.48876C2.69278 8.14872 3.16389 9.08398 3.9852 9.08398H20.0148C20.8361 9.08398 21.3072 8.14872 20.8183 7.48876L20.0776 6.48876C19.889 6.23415 19.5909 6.08398 19.274 6.08398Z" stroke="#51AF4E" stroke-width="2" stroke-linecap="round" stroke-linejoin="round"/>
</svg>
