<svg width="19" height="19" viewBox="0 0 19 19" fill="none" xmlns="http://www.w3.org/2000/svg">
<path d="M11.75 13.5723H7.25V14.3223C7.25 15.5649 8.25736 16.5723 9.5 16.5723C10.7426 16.5723 11.75 15.5649 11.75 14.3223V13.5723Z" stroke="#51AF4E" stroke-width="2" stroke-linecap="round" stroke-linejoin="round"/>
<path d="M16.25 5.32227C16.25 6.97912 14.9069 8.32227 13.25 8.32227C11.5931 8.32227 10.25 6.97912 10.25 5.32227C10.25 3.66541 11.5931 2.32227 13.25 2.32227C14.9069 2.32227 16.25 3.66541 16.25 5.32227Z" stroke="#51AF4E" stroke-width="2" stroke-linecap="round" stroke-linejoin="round"/>
<path d="M11.0351 3.30026C10.5496 3.15202 10.0341 3.07227 9.5 3.07227C6.6005 3.07227 4.25 5.42277 4.25 8.32225V11.1141C4.25 11.2474 4.19705 11.3752 4.10279 11.4695L3.71967 11.8526C3.57902 11.9933 3.5 12.184 3.5 12.3829V12.8223C3.5 13.2365 3.83579 13.5723 4.25 13.5723H14.75C15.1642 13.5723 15.5 13.2365 15.5 12.8223V12.3829C15.5 12.184 15.4209 11.9933 15.2803 11.8526L14.8972 11.4695C14.8029 11.3752 14.75 11.2474 14.75 11.1141V8.32225C14.75 8.18992 14.7451 8.05873 14.7352 7.92939" stroke="#51AF4E" stroke-width="2" stroke-linecap="round" stroke-linejoin="round"/>
</svg>
