<svg width="25" height="24" viewBox="0 0 25 24" fill="none" xmlns="http://www.w3.org/2000/svg">
<path d="M7.49585 20C7.49585 18.3431 9.73443 17 12.4958 17C15.2573 17 17.4958 18.3431 17.4958 20" stroke="#51AF4E" stroke-width="2" stroke-linecap="round" stroke-linejoin="round"/>
<path d="M18.4958 14.2495C20.2618 14.7124 21.4958 15.7697 21.4958 16.9999" stroke="#51AF4E" stroke-width="2" stroke-linecap="round" stroke-linejoin="round"/>
<path d="M6.49585 14.2495C4.72994 14.7124 3.49585 15.7697 3.49585 16.9999" stroke="#51AF4E" stroke-width="2" stroke-linecap="round" stroke-linejoin="round"/>
<path d="M12.4958 14C14.1527 14 15.4958 12.6569 15.4958 11C15.4958 9.34315 14.1527 8 12.4958 8C10.839 8 9.49585 9.34315 9.49585 11C9.49585 12.6569 10.839 14 12.4958 14Z" stroke="#51AF4E" stroke-width="2" stroke-linecap="round" stroke-linejoin="round"/>
<path d="M18.4958 10.2361C19.1096 9.68679 19.4958 8.8885 19.4958 8C19.4958 6.34315 18.1527 5 16.4958 5C15.7275 5 15.0266 5.28885 14.4958 5.76389" stroke="#51AF4E" stroke-width="2" stroke-linecap="round" stroke-linejoin="round"/>
<path d="M6.49585 10.2361C5.8821 9.68679 5.49585 8.8885 5.49585 8C5.49585 6.34315 6.839 5 8.49585 5C9.2642 5 9.96509 5.28885 10.4958 5.76389" stroke="#51AF4E" stroke-width="2" stroke-linecap="round" stroke-linejoin="round"/>
</svg>
