<svg width="25" height="25" viewBox="0 0 25 25" fill="none" xmlns="http://www.w3.org/2000/svg">
<path d="M7.86908 3.61719H5.11788C4.07145 3.61719 3.22314 4.46549 3.22314 5.51192C3.22314 14.4066 10.4337 21.6172 19.3284 21.6172C20.3748 21.6172 21.2231 20.7689 21.2231 19.7225V16.9713C21.2231 16.1534 20.7252 15.418 19.9659 15.1143L17.3303 14.06C16.6482 13.7872 15.8715 13.9103 15.3071 14.3805L14.6262 14.9479C13.8316 15.6101 12.6631 15.5571 11.9317 14.8257L10.0146 12.9087C9.28319 12.1772 9.23018 11.0087 9.8924 10.2141L10.4598 9.53322C10.9301 8.96887 11.0531 8.19214 10.7803 7.51007L9.72603 4.87441C9.42231 4.11509 8.68689 3.61719 7.86908 3.61719Z" stroke="#51AF4E" stroke-width="2" stroke-linecap="round" stroke-linejoin="round"/>
</svg>
