<svg width="24" height="25" viewBox="0 0 24 25" fill="none" xmlns="http://www.w3.org/2000/svg">
<path d="M20 5.1582H4C3.44772 5.1582 3 5.60592 3 6.1582V18.1582C3 18.7105 3.44772 19.1582 4 19.1582H20C20.5523 19.1582 21 18.7105 21 18.1582V6.1582C21 5.60592 20.5523 5.1582 20 5.1582Z" stroke="#51AF4E" stroke-width="2" stroke-linecap="round" stroke-linejoin="round"/>
<path d="M12.7007 10.2886C12.7007 10.1028 12.6269 9.92455 12.4954 9.79314C12.364 9.66172 12.1858 9.58789 11.9999 9.58789C11.8141 9.58789 11.6358 9.66172 11.5044 9.79314C11.373 9.92455 11.2992 10.1028 11.2992 10.2886V10.9436L10.732 10.6166C10.5717 10.5312 10.3845 10.5114 10.2098 10.5614C10.0352 10.6114 9.88679 10.7272 9.79591 10.8845C9.70503 11.0418 9.67878 11.2282 9.72269 11.4045C9.7666 11.5808 9.87724 11.7331 10.0313 11.8294L10.5984 12.1564L10.0313 12.4843C9.87021 12.5773 9.75265 12.7304 9.70446 12.91C9.65628 13.0896 9.68141 13.281 9.77434 13.442C9.86726 13.6031 10.0204 13.7207 10.2 13.7689C10.3796 13.817 10.571 13.7919 10.732 13.699L11.2992 13.371V14.026C11.2992 14.2118 11.373 14.3901 11.5044 14.5215C11.6358 14.6529 11.8141 14.7267 11.9999 14.7267C12.1858 14.7267 12.364 14.6529 12.4954 14.5215C12.6269 14.3901 12.7007 14.2118 12.7007 14.026V13.372L13.2678 13.699C13.4289 13.7919 13.6203 13.817 13.7999 13.7689C13.9795 13.7207 14.1326 13.6031 14.2255 13.442C14.3184 13.281 14.3436 13.0896 14.2954 12.91C14.2472 12.7304 14.1296 12.5773 13.9686 12.4843L13.4014 12.1573L13.9686 11.8303C14.1296 11.7374 14.2472 11.5843 14.2954 11.4047C14.3436 11.2251 14.3184 11.0337 14.2255 10.8726C14.1326 10.7115 13.9795 10.594 13.7999 10.5458C13.6203 10.4976 13.4289 10.5227 13.2678 10.6157L12.7007 10.9427V10.2886ZM7.07877 9.58789C7.26462 9.58789 7.44286 9.66172 7.57428 9.79314C7.7057 9.92455 7.77953 10.1028 7.77953 10.2886V10.9427L8.34573 10.6157C8.50681 10.5227 8.69819 10.4976 8.8778 10.5458C9.0574 10.594 9.21051 10.7115 9.30343 10.8726C9.39636 11.0337 9.42149 11.2251 9.3733 11.4047C9.32512 11.5843 9.20756 11.7374 9.04649 11.8303L8.47934 12.1573L9.04649 12.4843C9.12624 12.5303 9.19615 12.5916 9.25223 12.6647C9.3083 12.7377 9.34945 12.821 9.3733 12.91C9.39716 12.9989 9.40327 13.0917 9.39128 13.183C9.3793 13.2742 9.34944 13.3623 9.30343 13.442C9.25742 13.5218 9.19615 13.5917 9.12312 13.6478C9.05009 13.7038 8.96673 13.745 8.8778 13.7689C8.78887 13.7927 8.69611 13.7988 8.60482 13.7868C8.51352 13.7748 8.42549 13.745 8.34573 13.699L7.77953 13.372V14.026C7.77953 14.2118 7.7057 14.3901 7.57428 14.5215C7.44286 14.6529 7.26462 14.7267 7.07877 14.7267C6.89292 14.7267 6.71468 14.6529 6.58327 14.5215C6.45185 14.3901 6.37802 14.2118 6.37802 14.026V13.371L5.80994 13.698C5.64961 13.7834 5.46238 13.8032 5.28774 13.7532C5.1131 13.7032 4.9647 13.5874 4.87382 13.4301C4.78294 13.2728 4.75669 13.0864 4.8006 12.9101C4.84451 12.7339 4.95515 12.5815 5.10919 12.4853L5.67633 12.1573L5.10919 11.8303C5.02943 11.7843 4.95952 11.723 4.90345 11.65C4.84737 11.577 4.80623 11.4936 4.78237 11.4047C4.75851 11.3157 4.7524 11.223 4.76439 11.1317C4.77638 11.0404 4.80623 10.9524 4.85225 10.8726C4.89826 10.7929 4.95953 10.7229 5.03256 10.6669C5.10559 10.6108 5.18895 10.5696 5.27788 10.5458C5.36681 10.5219 5.45957 10.5158 5.55086 10.5278C5.64215 10.5398 5.73019 10.5697 5.80994 10.6157L6.37802 10.9436V10.2886C6.37802 10.1028 6.45185 9.92455 6.58327 9.79314C6.71468 9.66172 6.89292 9.58789 7.07877 9.58789ZM17.6228 10.2886C17.6228 10.1028 17.5489 9.92455 17.4175 9.79314C17.2861 9.66172 17.1079 9.58789 16.922 9.58789C16.7362 9.58789 16.5579 9.66172 16.4265 9.79314C16.2951 9.92455 16.2213 10.1028 16.2213 10.2886V10.9436L15.6541 10.6166C15.4938 10.5312 15.3066 10.5114 15.1319 10.5614C14.9573 10.6114 14.8089 10.7272 14.718 10.8845C14.6271 11.0418 14.6009 11.2282 14.6448 11.4045C14.6887 11.5808 14.7993 11.7331 14.9534 11.8294L15.5205 12.1564L14.9524 12.4843C14.7914 12.5773 14.6738 12.7304 14.6256 12.91C14.5774 13.0896 14.6026 13.281 14.6955 13.442C14.7884 13.6031 14.9415 13.7207 15.1211 13.7689C15.3007 13.817 15.4921 13.7919 15.6532 13.699L16.2213 13.371V14.026C16.2213 14.2118 16.2951 14.3901 16.4265 14.5215C16.5579 14.6529 16.7362 14.7267 16.922 14.7267C17.1079 14.7267 17.2861 14.6529 17.4175 14.5215C17.5489 14.3901 17.6228 14.2118 17.6228 14.026V13.372L18.1899 13.699C18.351 13.7919 18.5424 13.817 18.722 13.7689C18.9016 13.7207 19.0547 13.6031 19.1476 13.442C19.2405 13.281 19.2657 13.0896 19.2175 12.91C19.1693 12.7304 19.0517 12.5773 18.8907 12.4843L18.3235 12.1573L18.8907 11.8303C19.0517 11.7374 19.1693 11.5843 19.2175 11.4047C19.2657 11.2251 19.2405 11.0337 19.1476 10.8726C19.0547 10.7115 18.9016 10.594 18.722 10.5458C18.5424 10.4976 18.351 10.5227 18.1899 10.6157L17.6228 10.9427V10.2886Z" fill="#51AF4E"/>
</svg>
