<svg width="24" height="25" viewBox="0 0 24 25" fill="none" xmlns="http://www.w3.org/2000/svg">
<path fill-rule="evenodd" clip-rule="evenodd" d="M3 15.4941C3 14.9419 3.44772 14.4941 4 14.4941H20C20.5523 14.4941 21 14.9419 21 15.4941C21 16.0464 20.5523 16.4941 20 16.4941H4C3.44772 16.4941 3 16.0464 3 15.4941Z" fill="#51AF4E"/>
<path d="M12.7499 8.1582C12.7499 7.95929 12.6709 7.76853 12.5303 7.62787C12.3896 7.48722 12.1988 7.4082 11.9999 7.4082C11.801 7.4082 11.6103 7.48722 11.4696 7.62787C11.3289 7.76853 11.2499 7.95929 11.2499 8.1582V8.8592L10.6429 8.5092C10.4713 8.41782 10.2709 8.39665 10.084 8.45014C9.89712 8.50364 9.73828 8.62763 9.64102 8.79597C9.54375 8.9643 9.51565 9.16383 9.56265 9.35248C9.60964 9.54114 9.72806 9.70417 9.89293 9.8072L10.4999 10.1572L9.89293 10.5082C9.72054 10.6077 9.59472 10.7715 9.54314 10.9637C9.49157 11.156 9.51847 11.3608 9.61793 11.5332C9.71738 11.7056 9.88125 11.8314 10.0735 11.883C10.2657 11.9346 10.4705 11.9077 10.6429 11.8082L11.2499 11.4572V12.1582C11.2499 12.3571 11.3289 12.5479 11.4696 12.6885C11.6103 12.8292 11.801 12.9082 11.9999 12.9082C12.1988 12.9082 12.3896 12.8292 12.5303 12.6885C12.6709 12.5479 12.7499 12.3571 12.7499 12.1582V11.4582L13.3569 11.8082C13.5293 11.9077 13.7342 11.9346 13.9264 11.883C14.1186 11.8314 14.2825 11.7056 14.3819 11.5332C14.4814 11.3608 14.5083 11.156 14.4567 10.9637C14.4051 10.7715 14.2793 10.6077 14.1069 10.5082L13.4999 10.1582L14.1069 9.8082C14.2793 9.70875 14.4051 9.54488 14.4567 9.35266C14.5083 9.16043 14.4814 8.95559 14.3819 8.7832C14.2825 8.61081 14.1186 8.48499 13.9264 8.43342C13.7342 8.38185 13.5293 8.40875 13.3569 8.5082L12.7499 8.8582V8.1582ZM6.73293 7.4082C6.93184 7.4082 7.12261 7.48722 7.26326 7.62787C7.40391 7.76853 7.48293 7.95929 7.48293 8.1582V8.8582L8.08893 8.5082C8.26132 8.40875 8.46616 8.38185 8.65838 8.43342C8.85061 8.48499 9.01447 8.61081 9.11393 8.7832C9.21339 8.95559 9.24029 9.16043 9.18871 9.35266C9.13714 9.54488 9.01132 9.70875 8.83893 9.8082L8.23193 10.1582L8.83893 10.5082C8.92429 10.5574 8.99911 10.623 9.05913 10.7012C9.11914 10.7794 9.16318 10.8686 9.18871 10.9637C9.21425 11.0589 9.22079 11.1582 9.20796 11.2559C9.19512 11.3536 9.16317 11.4478 9.11393 11.5332C9.06468 11.6186 8.99911 11.6934 8.92094 11.7534C8.84278 11.8134 8.75356 11.8575 8.65838 11.883C8.5632 11.9085 8.46392 11.9151 8.36622 11.9022C8.26851 11.8894 8.17429 11.8574 8.08893 11.8082L7.48293 11.4582V12.1582C7.48293 12.3571 7.40391 12.5479 7.26326 12.6885C7.12261 12.8292 6.93184 12.9082 6.73293 12.9082C6.53402 12.9082 6.34325 12.8292 6.2026 12.6885C6.06195 12.5479 5.98293 12.3571 5.98293 12.1582V11.4572L5.37493 11.8072C5.20333 11.8986 5.00294 11.9198 4.81603 11.8663C4.62912 11.8128 4.47029 11.6888 4.37302 11.5204C4.27575 11.3521 4.24765 11.1526 4.29465 10.9639C4.34164 10.7753 4.46006 10.6122 4.62493 10.5092L5.23193 10.1582L4.62493 9.8082C4.53957 9.75896 4.46475 9.69338 4.40473 9.61522C4.34471 9.53706 4.30068 9.44784 4.27514 9.35266C4.24961 9.25748 4.24307 9.1582 4.2559 9.06049C4.26873 8.96279 4.30068 8.86856 4.34993 8.7832C4.39917 8.69784 4.46475 8.62302 4.54291 8.563C4.62108 8.50299 4.71029 8.45895 4.80547 8.43342C4.90065 8.40788 4.99993 8.40134 5.09764 8.41418C5.19535 8.42701 5.28957 8.45896 5.37493 8.5082L5.98293 8.8592V8.1582C5.98293 7.95929 6.06195 7.76853 6.2026 7.62787C6.34325 7.48722 6.53402 7.4082 6.73293 7.4082ZM18.0179 8.1582C18.0179 7.95929 17.9389 7.76853 17.7983 7.62787C17.6576 7.48722 17.4668 7.4082 17.2679 7.4082C17.069 7.4082 16.8783 7.48722 16.7376 7.62787C16.5969 7.76853 16.5179 7.95929 16.5179 8.1582V8.8592L15.9109 8.5092C15.7393 8.41782 15.5389 8.39665 15.352 8.45014C15.1651 8.50364 15.0063 8.62763 14.909 8.79597C14.8118 8.9643 14.7837 9.16383 14.8306 9.35248C14.8776 9.54114 14.9961 9.70417 15.1609 9.8072L15.7679 10.1572L15.1599 10.5082C14.9875 10.6077 14.8617 10.7715 14.8101 10.9637C14.7586 11.156 14.7855 11.3608 14.8849 11.5332C14.9844 11.7056 15.1482 11.8314 15.3405 11.883C15.5327 11.9346 15.7375 11.9077 15.9099 11.8082L16.5179 11.4572V12.1582C16.5179 12.3571 16.5969 12.5479 16.7376 12.6885C16.8783 12.8292 17.069 12.9082 17.2679 12.9082C17.4668 12.9082 17.6576 12.8292 17.7983 12.6885C17.9389 12.5479 18.0179 12.3571 18.0179 12.1582V11.4582L18.6249 11.8082C18.7973 11.9077 19.0022 11.9346 19.1944 11.883C19.3866 11.8314 19.5505 11.7056 19.6499 11.5332C19.7494 11.3608 19.7763 11.156 19.7247 10.9637C19.6731 10.7715 19.5473 10.6077 19.3749 10.5082L18.7679 10.1582L19.3749 9.8082C19.5473 9.70875 19.6731 9.54488 19.7247 9.35266C19.7763 9.16043 19.7494 8.95559 19.6499 8.7832C19.5505 8.61081 19.3866 8.48499 19.1944 8.43342C19.0022 8.38185 18.7973 8.40875 18.6249 8.5082L18.0179 8.8582V8.1582Z" fill="#51AF4E"/>
</svg>
