<svg width="25" height="24" viewBox="0 0 25 24" fill="none" xmlns="http://www.w3.org/2000/svg">
<path d="M18.4594 7.03616C16.8991 6.25563 14.8411 5.84375 12.4959 5.84375C10.1506 5.84375 8.09269 6.25563 6.53237 7.03616C4.91929 7.84233 3.99438 9.01055 3.99438 10.2411V13.7589C3.99438 14.9894 4.91929 16.1577 6.53237 16.9638C8.09269 17.7444 10.1543 18.1563 12.4959 18.1563C14.8374 18.1563 16.8991 17.7444 18.4594 16.9638C20.0717 16.1577 20.9974 14.9894 20.9974 13.7589V10.2411C20.9974 9.01055 20.0725 7.84233 18.4594 7.03616ZM7.31949 8.60893C8.61743 7.96033 10.4555 7.60268 12.4959 7.60268C14.5362 7.60268 16.3743 7.96033 17.6723 8.60893C18.6382 9.09191 19.2384 9.71779 19.2384 10.2411C19.2384 10.7644 18.6382 11.3902 17.6723 11.8732C16.3743 12.5218 14.5362 12.8795 12.4959 12.8795C10.4555 12.8795 8.61743 12.5218 7.31949 11.8732C6.35355 11.3902 5.75331 10.7644 5.75331 10.2411C5.75331 9.71779 6.35355 9.09191 7.31949 8.60893ZM16.3069 15.9122C15.3501 16.1756 14.3668 16.3305 13.3753 16.3739V14.6149C14.3632 14.5746 15.3449 14.4394 16.3069 14.2111V15.9122ZM8.68486 14.2148C9.64684 14.4431 10.6285 14.5783 11.6164 14.6186V16.3775C10.625 16.3341 9.64162 16.1793 8.68486 15.9158V14.2148ZM5.75331 13.7589V12.9923C6.00288 13.1603 6.26311 13.3118 6.53237 13.446C6.65989 13.5097 6.79181 13.5706 6.92593 13.6292V15.1734C6.19305 14.7293 5.75331 14.2067 5.75331 13.7589ZM18.0658 15.1734V13.6292C18.1999 13.5706 18.3319 13.5097 18.4594 13.446C18.7286 13.3118 18.9889 13.1603 19.2384 12.9923V13.7589C19.2384 14.2067 18.7987 14.7293 18.0658 15.1734Z" fill="#51AF4E"/>
</svg>
