<svg width="25" height="25" viewBox="0 0 25 25" fill="none" xmlns="http://www.w3.org/2000/svg">
<path d="M18.2231 21.6172H6.22315C5.67086 21.6172 5.22315 21.1695 5.22315 20.6172L5.22314 4.61719C5.22314 4.0649 5.67086 3.61719 6.22314 3.61719L13.7862 3.61719C14.0648 3.61719 14.3307 3.73338 14.52 3.93778L18.9569 8.72965C19.1281 8.9145 19.2231 9.15714 19.2231 9.40906L19.2231 20.6172C19.2231 21.1695 18.7754 21.6172 18.2231 21.6172Z" stroke="#51AF4E" stroke-width="2" stroke-linecap="round" stroke-linejoin="round"/>
<path d="M9.22314 17.6172H15.2231" stroke="#51AF4E" stroke-width="2" stroke-linecap="round" stroke-linejoin="round"/>
<path d="M9.22314 14.6172H15.2231" stroke="#51AF4E" stroke-width="2" stroke-linecap="round" stroke-linejoin="round"/>
<path d="M19.2231 9.61719L14.2231 9.61719C13.6709 9.61719 13.2231 9.16947 13.2231 8.61719L13.2231 3.61719" stroke="#51AF4E" stroke-width="2" stroke-linecap="round" stroke-linejoin="round"/>
</svg>
