<svg width="24" height="25" viewBox="0 0 24 25" fill="none" xmlns="http://www.w3.org/2000/svg">
<path d="M20.1604 7.21129L12.5001 2.78864C12.1907 2.61 11.8095 2.61001 11.5001 2.78864L3.83984 7.21129C3.53044 7.38992 3.33984 7.72005 3.33984 8.07731V16.9226C3.33984 17.2799 3.53044 17.61 3.83984 17.7886L11.5001 22.2113C11.8095 22.3899 12.1907 22.3899 12.5001 22.2113L20.1604 17.7886C20.4698 17.61 20.6604 17.2799 20.6604 16.9226V8.07731C20.6604 7.72005 20.4698 7.38992 20.1604 7.21129Z" stroke="#51AF4E" stroke-width="2" stroke-linecap="round" stroke-linejoin="round"/>
<path d="M12 15.5C13.6569 15.5 15 14.1569 15 12.5C15 10.8431 13.6569 9.5 12 9.5C10.3431 9.5 9 10.8431 9 12.5C9 14.1569 10.3431 15.5 12 15.5Z" stroke="#51AF4E" stroke-width="2" stroke-linecap="round" stroke-linejoin="round"/>
</svg>
