<svg width="25" height="24" viewBox="0 0 25 24" fill="none" xmlns="http://www.w3.org/2000/svg">
<path fill-rule="evenodd" clip-rule="evenodd" d="M5.04982 16.0647C5.04866 15.7622 5.11631 15.4635 5.24763 15.191C5.65975 14.3668 6.8219 13.9299 7.78625 13.7321C8.48173 13.5837 9.18682 13.4846 9.89626 13.4354C11.2097 13.32 12.5308 13.32 13.8443 13.4354C14.5537 13.4851 15.2587 13.5843 15.9543 13.7321C16.9187 13.9299 18.0808 14.3256 18.4929 15.191C18.757 15.7464 18.757 16.3912 18.4929 16.9466C18.0808 17.812 16.9187 18.2077 15.9543 18.3972C15.2596 18.5518 14.5543 18.6538 13.8443 18.7022C12.7752 18.7928 11.7012 18.8094 10.6298 18.7517C10.3826 18.7517 10.1435 18.7517 9.89626 18.7022C9.18891 18.6543 8.48627 18.5524 7.79449 18.3972C6.8219 18.2077 5.66799 17.812 5.24763 16.9466C5.11698 16.671 5.0494 16.3697 5.04982 16.0647Z" fill="#51AF4E" fill-opacity="0.2" stroke="#51AF4E" stroke-width="1.5" stroke-linecap="round" stroke-linejoin="round"/>
<path d="M15.078 5.77831C15.078 7.54762 13.6437 8.98192 11.8744 8.98192C10.1051 8.98192 8.67078 7.54762 8.67078 5.77831C8.67078 4.00901 10.1051 2.57471 11.8744 2.57471C13.6437 2.57471 15.078 4.00901 15.078 5.77831Z" fill="#51AF4E" fill-opacity="0.2" stroke="#51AF4E" stroke-width="1.5"/>
</svg>
