<svg width="281" height="262" viewBox="0 0 281 262" fill="none" xmlns="http://www.w3.org/2000/svg">
<g opacity="0.3">
<path d="M280.65 131.242C280.587 130.166 280.247 129.118 279.657 128.184C279.068 127.25 278.244 126.456 277.255 125.866L109.234 37.4581C108.18 36.9692 107.015 36.7144 105.833 36.7144C104.65 36.7144 103.485 36.9692 102.431 37.4581L98.5903 39.4771C97.5983 40.0657 96.7726 40.8593 96.1804 41.7935C95.5882 42.7277 95.2462 43.776 95.1821 44.8533V166.569C95.2482 167.646 95.5911 168.694 96.1831 169.628C96.7751 170.562 97.5997 171.356 98.5903 171.946L266.598 260.354C267.656 260.837 268.823 261.089 270.006 261.089C271.189 261.089 272.356 260.837 273.414 260.354L277.294 258.287C278.28 257.693 279.101 256.898 279.69 255.965C280.279 255.032 280.622 253.986 280.689 252.911L280.65 131.242Z" fill="#51AF4E" fill-opacity="0.2"/>
<g opacity="0.5">
<path d="M280.65 131.242C280.587 130.166 280.247 129.118 279.657 128.184C279.068 127.25 278.244 126.456 277.255 125.866L109.234 37.4581C108.18 36.9692 107.015 36.7144 105.833 36.7144C104.65 36.7144 103.485 36.9692 102.431 37.4581L98.5903 39.4771C97.5983 40.0657 96.7726 40.8593 96.1804 41.7935C95.5882 42.7277 95.2462 43.776 95.1821 44.8533V166.569C95.2482 167.646 95.5911 168.694 96.1831 169.628C96.7751 170.562 97.5997 171.356 98.5903 171.946L266.598 260.354C267.656 260.837 268.823 261.089 270.006 261.089C271.189 261.089 272.356 260.837 273.414 260.354L277.294 258.287C278.28 257.693 279.101 256.898 279.69 255.965C280.279 255.032 280.622 253.986 280.689 252.911L280.65 131.242Z" fill="#51AF4E" fill-opacity="0.2"/>
</g>
<path d="M279.667 128.184L269.993 133.261L96.1785 41.7948C96.7547 40.8528 97.5791 40.0563 98.5773 39.4771L102.431 37.47C103.483 36.9754 104.649 36.7174 105.833 36.7174C107.016 36.7174 108.183 36.9754 109.234 37.47L277.294 125.866C278.29 126.44 279.107 127.238 279.667 128.184Z" fill="#51AF4E" fill-opacity="0.2"/>
<path opacity="0.6" d="M279.667 128.184L269.993 133.261L96.1785 41.7948C96.7547 40.8528 97.5791 40.0563 98.5773 39.4771L102.431 37.47C103.483 36.9754 104.649 36.7174 105.833 36.7174C107.016 36.7174 108.183 36.9754 109.234 37.47L277.294 125.866C278.29 126.44 279.107 127.238 279.667 128.184Z" fill="#51AF4E" fill-opacity="0.2"/>
<path opacity="0.1" d="M280.663 131.23V252.947C280.599 254.015 280.261 255.055 279.676 255.982C279.091 256.91 278.275 257.699 277.294 258.287L273.467 260.318C273.164 260.469 272.848 260.597 272.523 260.7C272.067 260.837 271.597 260.933 271.12 260.987C270.225 261.09 269.318 261.062 268.433 260.903L267.778 260.736C267.637 260.701 267.501 260.653 267.371 260.593C267.628 260.695 267.904 260.747 268.184 260.747C268.464 260.747 268.74 260.695 268.997 260.593C269.361 260.373 269.651 260.066 269.836 259.706C270.021 259.345 270.094 258.945 270.045 258.55V136.845C270.081 136.293 269.93 135.745 269.614 135.273C269.298 134.801 268.831 134.428 268.276 134.205L270.045 133.261L279.719 128.184C280.306 129.112 280.631 130.159 280.663 131.23Z" fill="#51AF4E"/>
<path opacity="0.4" d="M269.993 133.261L189.312 160.739C186.52 161.69 183.457 161.746 180.626 160.896C177.795 160.047 175.366 158.344 173.74 156.068L160.776 137.98L96.1653 41.7949L158.193 138.649L95.169 166.617C95.2283 167.718 95.5936 168.787 96.2308 169.724L158.403 138.936L173.464 160.895C175.135 163.332 177.714 165.139 180.729 165.984C183.743 166.829 186.991 166.655 189.876 165.494L200.598 161.181L268.944 260.604C269.308 260.385 269.599 260.078 269.784 259.717C269.969 259.357 270.041 258.957 269.993 258.562V256.531L200.926 161.05L269.993 133.261Z" fill="#51AF4E" fill-opacity="0.2"/>
<path opacity="0.05" d="M269.993 133.261L189.312 160.739C186.52 161.69 183.457 161.746 180.626 160.896C177.795 160.047 175.366 158.344 173.74 156.068L160.776 137.98L96.1653 41.7949L158.193 138.649L95.169 166.617C95.2283 167.718 95.5936 168.787 96.2308 169.724L158.403 138.936L173.464 160.895C175.135 163.332 177.714 165.139 180.729 165.984C183.743 166.829 186.991 166.655 189.876 165.494L200.598 161.181L268.944 260.604C269.308 260.385 269.599 260.078 269.784 259.717C269.969 259.357 270.041 258.957 269.993 258.562V256.531L200.926 161.05L269.993 133.261Z" fill="#51AF4E"/>
</g>
<path d="M231.96 131.242C231.897 130.166 231.557 129.118 230.968 128.184C230.378 127.25 229.555 126.456 228.565 125.866L60.5442 37.4581C59.4905 36.9692 58.325 36.7144 57.1426 36.7144C55.9603 36.7144 54.7947 36.9692 53.741 37.4581L49.9003 39.4771C48.9083 40.0657 48.0826 40.8593 47.4904 41.7935C46.8983 42.7277 46.5562 43.776 46.4922 44.8533V166.569C46.5583 167.646 46.9012 168.694 47.4932 169.628C48.0852 170.562 48.9098 171.356 49.9003 171.946L217.908 260.354C218.966 260.837 220.133 261.089 221.316 261.089C222.499 261.089 223.666 260.837 224.724 260.354L228.604 258.287C229.59 257.693 230.411 256.898 231 255.965C231.589 255.032 231.932 253.986 231.999 252.911L231.96 131.242Z" fill="#51AF4E" fill-opacity="0.2"/>
<g opacity="0.5">
<path d="M231.96 131.242C231.897 130.166 231.557 129.118 230.968 128.184C230.378 127.25 229.555 126.456 228.565 125.866L60.5442 37.4581C59.4905 36.9692 58.325 36.7144 57.1426 36.7144C55.9603 36.7144 54.7947 36.9692 53.741 37.4581L49.9003 39.4771C48.9083 40.0657 48.0826 40.8593 47.4904 41.7935C46.8983 42.7277 46.5562 43.776 46.4922 44.8533V166.569C46.5583 167.646 46.9012 168.694 47.4932 169.628C48.0852 170.562 48.9098 171.356 49.9003 171.946L217.908 260.354C218.966 260.837 220.133 261.089 221.316 261.089C222.499 261.089 223.666 260.837 224.724 260.354L228.604 258.287C229.59 257.693 230.411 256.898 231 255.965C231.589 255.032 231.932 253.986 231.999 252.911L231.96 131.242Z" fill="#51AF4E" fill-opacity="0.2"/>
</g>
<path d="M230.977 128.184L221.303 133.261L47.4887 41.7948C48.0649 40.8528 48.8893 40.0563 49.8875 39.4771L53.7413 37.47C54.7931 36.9754 55.9594 36.7174 57.1429 36.7174C58.3264 36.7174 59.4927 36.9754 60.5445 37.47L228.605 125.866C229.601 126.44 230.418 127.238 230.977 128.184Z" fill="#51AF4E" fill-opacity="0.2"/>
<path opacity="0.6" d="M230.977 128.184L221.303 133.261L47.4887 41.7948C48.0649 40.8528 48.8893 40.0563 49.8875 39.4771L53.7413 37.47C54.7931 36.9754 55.9594 36.7174 57.1429 36.7174C58.3264 36.7174 59.4927 36.9754 60.5445 37.47L228.605 125.866C229.601 126.44 230.418 127.238 230.977 128.184Z" fill="#51AF4E" fill-opacity="0.2"/>
<path opacity="0.1" d="M231.973 131.23V252.947C231.91 254.015 231.572 255.055 230.987 255.982C230.401 256.91 229.585 257.699 228.604 258.287L224.777 260.318C224.474 260.469 224.159 260.597 223.833 260.7C223.377 260.837 222.907 260.933 222.43 260.987C221.536 261.09 220.628 261.062 219.743 260.903L219.088 260.736C218.948 260.701 218.811 260.653 218.682 260.593C218.938 260.695 219.215 260.747 219.494 260.747C219.774 260.747 220.051 260.695 220.307 260.593C220.671 260.373 220.962 260.066 221.147 259.706C221.332 259.345 221.404 258.945 221.356 258.55V136.845C221.391 136.293 221.241 135.745 220.924 135.273C220.608 134.801 220.141 134.428 219.586 134.205L221.356 133.261L231.029 128.184C231.617 129.112 231.941 130.159 231.973 131.23Z" fill="#51AF4E"/>
<path opacity="0.4" d="M221.303 133.261L140.622 160.739C137.83 161.69 134.767 161.746 131.936 160.896C129.105 160.047 126.676 158.344 125.05 156.068L112.086 137.98L47.4753 41.7949L109.503 138.649L46.4791 166.617C46.5383 167.718 46.9037 168.787 47.5408 169.724L109.713 138.936L124.774 160.895C126.445 163.332 129.024 165.139 132.039 165.984C135.053 166.829 138.301 166.655 141.186 165.494L151.908 161.181L220.254 260.604C220.618 260.385 220.909 260.078 221.094 259.717C221.279 259.357 221.351 258.957 221.303 258.562V256.531L152.236 161.05L221.303 133.261Z" fill="#51AF4E" fill-opacity="0.2"/>
<path opacity="0.05" d="M221.303 133.261L140.622 160.739C137.83 161.69 134.767 161.746 131.936 160.896C129.105 160.047 126.676 158.344 125.05 156.068L112.086 137.98L47.4753 41.7949L109.503 138.649L46.4791 166.617C46.5383 167.718 46.9037 168.787 47.5408 169.724L109.713 138.936L124.774 160.895C126.445 163.332 129.024 165.139 132.039 165.984C135.053 166.829 138.301 166.655 141.186 165.494L151.908 161.181L220.254 260.604C220.618 260.385 220.909 260.078 221.094 259.717C221.279 259.357 221.351 258.957 221.303 258.562V256.531L152.236 161.05L221.303 133.261Z" fill="#51AF4E"/>
<path d="M182.809 134.124L10.6276 43.5293L3.95903 47.0349C3.08524 47.5585 2.36201 48.2582 1.84364 49.0751C1.32607 49.8908 1.02626 50.8018 0.964615 51.736V167.814C1.02434 168.748 1.32327 169.66 1.84096 170.475C2.35944 171.292 3.08359 171.992 3.95869 172.514L170.118 259.938C171.052 260.365 172.084 260.589 173.133 260.589C174.183 260.589 175.216 260.365 176.15 259.938L179.789 258.027C180.663 257.503 181.386 256.804 181.905 255.987L182.326 256.254L181.905 255.987C182.422 255.171 182.722 254.26 182.784 253.326L182.809 134.124Z" fill="#51AF4E" fill-opacity="0.2" stroke="#51AF4E"/>
<path opacity="0.2" d="M182.809 134.124L10.6276 43.5293L3.95903 47.0349C3.08524 47.5585 2.36201 48.2582 1.84364 49.0751C1.32607 49.8908 1.02626 50.8018 0.964615 51.736V167.814C1.02434 168.748 1.32327 169.66 1.84096 170.475C2.35944 171.292 3.08359 171.992 3.95869 172.514L170.118 259.938C171.052 260.365 172.084 260.589 173.133 260.589C174.183 260.589 175.216 260.365 176.15 259.938L179.789 258.027C180.663 257.503 181.386 256.804 181.905 255.987L182.326 256.254L181.905 255.987C182.422 255.171 182.722 254.26 182.784 253.326L182.809 134.124Z" fill="#51AF4E" stroke="#51AF4E"/>
<path d="M13.7872 31.4178L11.9619 32.3822L12.3166 32.5619L11.9804 33.0352C11.468 33.7566 11.1924 34.5901 11.1795 35.4402V42.6549L180.72 134.646L182.809 133.513V126.318C182.699 124.129 181.975 121.999 180.702 120.131L95.7073 7.00002C95.1205 6.28101 94.2952 5.74093 93.3428 5.46377C92.3899 5.18649 91.3646 5.18852 90.4133 5.46939L14.4258 31.1426L14.42 31.1445C14.2014 31.2154 13.9916 31.3059 13.7939 31.4143L13.7872 31.4178Z" fill="#51AF4E" fill-opacity="0.2" stroke="#51AF4E"/>
<path opacity="0.1" d="M93.4715 7.36188C93.61 7.50138 93.739 7.64931 93.8576 7.80487L93.8596 7.8076L178.88 120.955L178.885 120.962L178.89 120.97C179.5 121.843 179.989 122.783 180.346 123.767L182.037 122.858C181.883 122.433 181.708 122.014 181.513 121.604C181.401 121.376 181.291 121.165 181.17 120.956L181.109 120.855L181.105 120.849L181.101 120.842C180.978 120.625 180.839 120.415 180.685 120.214L180.683 120.211L95.6779 7.06642C95.6776 7.06598 95.6772 7.06555 95.6769 7.06511C95.5688 6.92382 95.4482 6.79006 95.3162 6.66523L95.129 6.50928L93.4715 7.36188Z" fill="#51AF4E" stroke="#51AF4E"/>
<path opacity="0.35" d="M90.3123 5.7325C91.1443 5.87543 91.9318 6.18758 92.6166 6.64687L94.1715 5.81072C93.7234 5.58335 93.2349 5.42156 92.7241 5.33404C91.9359 5.19899 91.1232 5.24574 90.3611 5.46936L89.7818 5.66497C89.9593 5.67977 90.1363 5.70227 90.3123 5.7325Z" fill="#51AF4E" fill-opacity="0.2" stroke="#51AF4E"/>
<path d="M95.6738 6.21987L95.2207 5.84229" stroke="#51AF4E"/>
<g opacity="0.2">
<mask id="path-21-inside-1_2992_31098" fill="white">
<path d="M96.1008 6.69185C95.9694 6.5265 95.8267 6.36885 95.6736 6.21985C95.8329 6.36381 95.976 6.52194 96.1008 6.69185Z"/>
</mask>
<path d="M96.1008 6.69185C95.9694 6.5265 95.8267 6.36885 95.6736 6.21985C95.8329 6.36381 95.976 6.52194 96.1008 6.69185Z" fill="#51AF4E"/>
<path d="M96.1008 6.69185L96.9068 6.09988L95.3179 7.31399L96.1008 6.69185ZM95.6736 6.21985L94.9762 6.9366L96.344 5.47789L95.6736 6.21985ZM95.3179 7.31399C95.2133 7.18237 95.0993 7.05628 94.9762 6.9366L96.3709 5.5031C96.5542 5.68141 96.7255 5.87062 96.8837 6.06971L95.3179 7.31399ZM96.344 5.47789C96.5525 5.66628 96.7412 5.8745 96.9068 6.09988L95.2949 7.28382C95.2108 7.16937 95.1133 7.06133 95.0031 6.9618L96.344 5.47789Z" fill="#51AF4E" mask="url(#path-21-inside-1_2992_31098)"/>
</g>
<path d="M180.169 127.711C180.056 125.523 179.337 123.394 178.073 121.522L93.0657 8.39116C92.4848 7.67041 91.662 7.12918 90.7106 6.85365C89.7588 6.57798 88.7346 6.58478 87.7876 6.87281C87.7852 6.87351 87.7829 6.87422 87.7806 6.87493L11.7955 32.6022C10.8506 32.9691 10.0434 33.567 9.46089 34.3227C8.87993 35.0765 8.54477 35.9579 8.48694 36.8675V44.0546L180.169 134.387V127.711Z" fill="#51AF4E" fill-opacity="0.2" stroke="#51AF4E"/>
<path opacity="0.05" d="M180.155 134.363V127.682C180.127 126.71 179.957 125.746 179.65 124.814L9.07561 34.8402C8.71472 35.458 8.51347 36.1412 8.48645 36.8382L8.47403 44.0314L180.155 134.363Z" fill="#51AF4E" stroke="#51AF4E"/>
<path d="M15.8632 4.84391L15.8661 4.8711V4.89845V159.518C15.9165 160.313 16.1697 161.088 16.6089 161.783C17.0486 162.479 17.6634 163.076 18.4076 163.523L160.057 238.032L160.077 238.042L160.096 238.054C160.31 238.193 160.565 238.28 160.833 238.304C161.095 238.328 161.357 238.29 161.595 238.197L166.808 235.447C167.013 235.311 167.17 235.133 167.269 234.933C167.37 234.728 167.407 234.505 167.381 234.287L167.377 234.257V234.226V79.6651C167.327 78.8699 167.073 78.0936 166.632 77.3986C166.19 76.7023 165.572 76.1062 164.824 75.6614L23.199 1.10478L23.1762 1.09279L23.1548 1.07852C22.9431 0.937561 22.6903 0.847874 22.422 0.822296C22.1611 0.797429 21.8987 0.834442 21.6611 0.927998L16.4274 3.67547C16.2279 3.81513 16.0748 3.99466 15.9778 4.19433C15.8776 4.40055 15.839 4.62396 15.8632 4.84391Z" fill="white" stroke="#51AF4E"/>
<path d="M161.365 80.162C160.926 79.4661 160.311 78.8692 159.566 78.4219L17.93 3.86583L17.9246 3.86291C17.2678 3.50683 16.7511 3.522 16.4329 3.68811C16.129 3.84677 15.8665 4.21717 15.8665 4.89832V159.518C15.9169 160.313 16.17 161.088 16.6092 161.783C17.049 162.479 17.6638 163.076 18.4081 163.523L160.037 238.087C160.038 238.088 160.04 238.088 160.041 238.089C160.72 238.431 161.236 238.408 161.549 238.237C161.848 238.074 162.108 237.696 162.108 236.987V82.4263C162.058 81.6321 161.805 80.8568 161.365 80.162Z" fill="white" stroke="#51AF4E"/>
<path d="M166.865 77.8329L162.493 80.1293C162.877 80.8465 163.092 81.6338 163.121 82.4402L163.121 82.449V82.4579V237.002C163.132 237.139 163.13 237.275 163.116 237.41L166.797 235.481C167.005 235.346 167.164 235.167 167.264 234.967C167.367 234.762 167.406 234.539 167.381 234.32L167.377 234.291V234.262V79.6942C167.353 79.0485 167.178 78.4144 166.865 77.8329Z" fill="white" stroke="#51AF4E"/>
<path d="M173.644 258.792L94.9996 152.055L94.9947 152.048L94.9901 152.041C93.4759 149.839 91.1368 148.195 88.3906 147.421C86.0877 146.772 83.6343 146.773 81.3498 147.408C82.8391 147.339 84.3418 147.507 85.7896 147.914C88.7463 148.745 91.2862 150.522 92.9356 152.932L169.804 257.024L172.551 258.469L172.569 258.479L172.586 258.49C172.836 258.649 173.129 258.75 173.438 258.782C173.507 258.789 173.576 258.792 173.644 258.792Z" fill="#51AF4E" fill-opacity="0.2" stroke="#51AF4E"/>
<path opacity="0.4" d="M100.309 163.58L169.803 257.024L172.551 258.469L172.567 258.478L172.583 258.488C172.835 258.645 173.128 258.745 173.438 258.777C173.505 258.784 173.572 258.787 173.638 258.787L102.254 162.487L100.309 163.58Z" fill="#51AF4E" fill-opacity="0.2" stroke="#51AF4E"/>
<path opacity="0.4" d="M92.6816 152.574L94.6331 151.539C93.1176 149.568 90.9142 148.1 88.3604 147.386C86.0359 146.737 83.5596 146.75 81.2609 147.409C82.7797 147.329 84.314 147.494 85.7911 147.909C88.6004 148.699 91.0328 150.344 92.6816 152.574Z" fill="#51AF4E" fill-opacity="0.2" stroke="#51AF4E"/>
<path d="M2.08963 48.8309C1.89258 49.0893 1.71799 49.3599 1.56685 49.6401C1.74948 49.6854 1.92584 49.7667 2.08745 49.8668L2.09645 49.8724L2.10522 49.8784C2.46713 50.1245 2.78557 50.4231 3.04745 50.7638C3.04808 50.7646 3.04871 50.7654 3.04933 50.7662L3.40793 51.2214L3.41443 51.2297L3.42058 51.2382L74.4266 149.616L85.0156 163.061C85.6368 163.772 86.4625 164.321 87.4078 164.643C88.3537 164.966 89.3797 165.05 90.3751 164.884L91.7075 164.595C91.0283 164.568 90.3544 164.444 89.7112 164.225C88.6021 163.846 87.622 163.196 86.8806 162.339L86.8731 162.33L86.866 162.321L76.2627 148.87L76.2562 148.861L76.25 148.853L4.89671 50.0179C4.72188 49.8042 4.50186 49.6201 4.24681 49.4773L3.4426 49.0271L4.25847 48.5984L9.59055 45.7967L8.07744 45.0037L4.04654 47.119C3.27321 47.5677 2.60864 48.1503 2.08963 48.8309ZM95.2862 163.82L99.4899 162.91L169.308 139.506L168.854 139.262L102.073 161.613L102.069 161.614L95.2862 163.82Z" fill="#51AF4E" fill-opacity="0.2" stroke="#51AF4E"/>
<path opacity="0.4" d="M92.1374 164.502C91.2834 164.531 90.4279 164.406 89.6206 164.13C88.5114 163.751 87.5314 163.101 86.79 162.245L86.7825 162.236L86.7755 162.227L76.527 149.235L74.801 150.091L85.0156 163.061C85.6368 163.772 86.4625 164.321 87.4078 164.643C88.3537 164.966 89.3797 165.05 90.3751 164.884L92.1374 164.502Z" fill="#51AF4E" fill-opacity="0.2" stroke="#51AF4E"/>
<path opacity="0.1" d="M2.0723 48.7624C1.88162 49.0281 1.71417 49.3056 1.57092 49.5925C1.77223 49.6344 1.96664 49.7224 2.14296 49.8339L2.15 49.8384L2.15689 49.843C2.51871 50.0891 2.83707 50.3876 3.0989 50.7282C3.09959 50.7291 3.10027 50.73 3.10095 50.7309L3.45955 51.1861L3.46606 51.1943L3.47221 51.2029L74.2344 149.255L75.913 148.405L4.80452 49.9098C4.6335 49.6963 4.41496 49.5132 4.15991 49.3734L3.3431 48.9256L4.16769 48.4923L9.49979 45.6906L7.98666 44.8976L3.96207 47.0095C3.20862 47.4766 2.56704 48.073 2.0723 48.7624Z" fill="#51AF4E" stroke="#51AF4E"/>
<path d="M182.771 253.326V134.65L168.532 142.137L168.558 259.128L170.104 259.938C171.038 260.365 172.071 260.589 173.12 260.589C174.169 260.589 175.202 260.365 176.136 259.938L179.776 258.027C180.65 257.503 181.373 256.804 181.891 255.987C182.409 255.171 182.709 254.26 182.771 253.326Z" fill="#51AF4E" fill-opacity="0.2" stroke="#51AF4E"/>
<path opacity="0.15" d="M182.771 253.326V134.65L168.532 142.137L168.558 259.128L170.104 259.938C171.038 260.365 172.071 260.589 173.12 260.589C174.169 260.589 175.202 260.365 176.136 259.938L179.776 258.027C180.65 257.503 181.373 256.804 181.891 255.987C182.409 255.171 182.709 254.26 182.771 253.326Z" fill="#51AF4E" stroke="#51AF4E"/>
<path d="M172.788 260.023C172.619 260.27 172.387 260.476 172.111 260.622C171.75 260.756 171.358 260.804 170.971 260.763C170.584 260.721 170.215 260.592 169.897 260.386L172.788 260.023ZM172.788 260.023C172.957 259.777 173.058 259.496 173.082 259.206L172.788 260.023ZM171.024 260.266C171.323 260.297 171.626 260.262 171.905 260.165C172.1 260.056 172.26 259.91 172.376 259.741L172.788 260.023L172.376 259.741C172.497 259.564 172.567 259.367 172.583 259.167C172.595 259.016 172.595 258.865 172.583 258.714L172.582 258.695V258.675V142.566V142.548L172.583 142.531C172.606 142.205 172.541 141.877 172.393 141.574C172.244 141.271 172.015 141 171.719 140.789C171.424 140.577 171.073 140.431 170.697 140.367C170.324 140.304 169.94 140.324 169.578 140.424L99.6782 163.855L99.6521 163.863L99.6251 163.869L90.4719 165.851L90.4607 165.854L90.4493 165.856C89.2878 166.052 88.0892 165.956 86.9812 165.578C85.873 165.199 84.8931 164.551 84.1499 163.697L84.1419 163.688L84.1343 163.678L73.5311 150.215L73.5246 150.206L73.5184 150.198L2.5125 51.8201L2.15646 51.3681L2.15065 51.3607L2.14513 51.3531C1.89134 51.0048 1.66693 50.7926 1.49187 50.6818C1.31514 50.5699 1.24294 50.5922 1.24141 50.5926C1.23773 50.5938 1.22337 50.5984 1.19919 50.6243C1.17299 50.6522 1.13605 50.7047 1.0988 50.7961C1.02263 50.983 0.964859 51.2838 0.964859 51.7195V167.807C1.00356 168.769 1.31972 169.709 1.88635 170.531L1.89169 170.538L1.89674 170.546C2.33438 171.235 2.92111 171.84 3.62434 172.324L3.71458 172.365L3.75883 172.385L3.79836 172.414C3.84674 172.448 3.89755 172.48 3.95058 172.509C3.9516 172.51 3.95262 172.51 3.95364 172.511L170.13 259.944L170.15 259.954L170.169 259.967C170.419 260.128 170.713 260.232 171.024 260.266Z" fill="#51AF4E" fill-opacity="0.2" stroke="#51AF4E"/>
<path d="M1.88583 170.53L1.89164 170.539L1.89709 170.547C2.33578 171.242 2.93069 171.849 3.64633 172.328L3.74805 172.39L3.75365 172.393L3.95736 172.513L24.7812 183.435L71.5135 151.053L1.0001 168.249C1.10497 169.055 1.40575 169.835 1.88583 170.53Z" fill="#51AF4E" fill-opacity="0.2" stroke="#51AF4E"/>
<path opacity="0.2" d="M1.88583 170.53L1.89164 170.539L1.89709 170.547C2.33578 171.242 2.93069 171.849 3.64633 172.328L3.74805 172.39L3.75365 172.393L3.95736 172.513L24.7812 183.435L71.5135 151.053L1.0001 168.249C1.10497 169.055 1.40575 169.835 1.88583 170.53Z" fill="#51AF4E" stroke="#51AF4E"/>
<path d="M172.65 258.738L172.646 258.707V258.676V256.914L100.497 165.316L113.13 229.943L170.155 259.956L170.175 259.966L170.193 259.978C170.443 260.139 170.737 260.242 171.048 260.273C171.345 260.303 171.644 260.267 171.919 260.17C172.176 260.01 172.375 259.795 172.502 259.55C172.635 259.294 172.685 259.014 172.65 258.738Z" fill="#51AF4E" fill-opacity="0.2" stroke="#51AF4E"/>
<path opacity="0.15" d="M172.65 258.738L172.646 258.707V258.675V256.917L95.3121 152.366L93.3261 153.336L172.236 259.916C172.344 259.805 172.434 259.682 172.502 259.55L172.946 259.78L172.502 259.55C172.635 259.294 172.685 259.013 172.65 258.738Z" fill="#51AF4E" stroke="#51AF4E"/>
<path d="M171.237 260.272L92.126 153.425L92.1207 153.417L92.1156 153.41C90.5926 151.191 88.2356 149.536 85.4689 148.762C82.7018 147.988 79.7208 148.148 77.0751 149.213L77.0523 149.222L77.0288 149.229L2.29106 171.097C2.67 171.565 3.12631 171.98 3.64639 172.328L3.74049 172.386L170.13 259.944L170.149 259.954L170.167 259.966C170.417 260.127 170.711 260.23 171.022 260.261C171.094 260.269 171.166 260.272 171.237 260.272Z" fill="#51AF4E" fill-opacity="0.2" stroke="#51AF4E"/>
<path opacity="0.15" d="M181.22 127.681L181.22 127.69V127.698V134.366L182.809 133.512V126.303C182.779 125.456 182.645 124.616 182.408 123.798L180.718 124.707C181.017 125.675 181.186 126.674 181.22 127.681Z" fill="#51AF4E" stroke="#51AF4E"/>
<path d="M173.884 138.218L173.885 138.217L179.618 135.208L178.126 134.4L169.888 138.675L171.45 139.499L173.884 138.218Z" fill="#51AF4E" fill-opacity="0.2" stroke="#51AF4E"/>
<path opacity="0.1" d="M168.923 139.163L168.888 139.181L168.851 139.193L103.013 161.217L103.342 161.658L163.987 141.302L163.989 141.301L169.398 139.45L169.433 139.438L169.469 139.431C169.999 139.332 170.546 139.332 171.076 139.431L171.098 139.435L171.119 139.441L171.433 139.529L173.923 138.218L173.924 138.217L179.651 135.211L178.127 134.399L168.923 139.163Z" fill="#51AF4E" stroke="#51AF4E"/>
</svg>
