<svg width="222" height="167" viewBox="0 0 222 167" fill="none" xmlns="http://www.w3.org/2000/svg">
<path d="M105.134 125.341L88.0489 92.9631L38.6448 118.984L55.8131 149.552L105.134 125.341Z" fill="#FBFBFB"/>
<path d="M74.2182 125.16L49.4856 120.562L71.9346 122.603L72.2639 122.633L72.4204 122.342L83.3601 101.972L83.7344 102.064L74.2182 125.16Z" fill="#51AF4E" stroke="#211F42"/>
<path opacity="0.5" d="M74.2182 125.16L49.4856 120.562L71.9346 122.603L72.2639 122.633L72.4204 122.342L83.3601 101.972L83.7344 102.064L74.2182 125.16Z" fill="#FBFBFB" stroke="#211F42"/>
<path d="M38.8187 118.877L55.8131 149.552L105.134 125.341L87.8403 93.1728L38.8187 118.877Z" stroke="#211F42" stroke-linecap="round" stroke-linejoin="round"/>
<path d="M90.9039 89.8396C93.5528 92.4119 93.5528 96.5825 90.9039 99.1549C88.255 101.727 83.9602 101.727 81.3113 99.1549C78.6624 96.5825 78.6624 92.412 81.3113 89.8396C83.9602 87.2673 88.255 87.2673 90.9039 89.8396Z" fill="#51AF4E" stroke="#211F42"/>
<path opacity="0.3" d="M90.9039 89.8396C93.5528 92.4119 93.5528 96.5825 90.9039 99.1549C88.255 101.727 83.9602 101.727 81.3113 99.1549C78.6624 96.5825 78.6624 92.412 81.3113 89.8396C83.9602 87.2673 88.255 87.2673 90.9039 89.8396Z" fill="#211F42" stroke="#211F42"/>
<path d="M86.1081 101.792C90.1345 101.792 93.3984 98.6227 93.3984 94.7128C93.3984 90.8029 90.1345 87.6333 86.1081 87.6333C82.0818 87.6333 78.8179 90.8029 78.8179 94.7128C78.8179 98.6227 82.0818 101.792 86.1081 101.792Z" stroke="#211F42" stroke-linecap="round" stroke-linejoin="round"/>
<path d="M92.8984 92.7399C92.8984 96.36 89.8722 99.3195 86.1081 99.3195C82.3441 99.3195 79.3179 96.36 79.3179 92.7399C79.3179 89.1199 82.344 86.1605 86.1081 86.1605C89.8722 86.1605 92.8984 89.1199 92.8984 92.7399Z" fill="#51AF4E" stroke="#211F42"/>
<path d="M166.44 51.3306H201.341C202.231 51.3306 202.927 52.0278 202.927 52.8572V71.7246C202.927 72.554 202.231 73.2512 201.341 73.2512H166.44C165.55 73.2512 164.854 72.554 164.854 71.7246V52.8572C164.854 52.0278 165.55 51.3306 166.44 51.3306Z" fill="#FBFBFB" stroke="#211F42"/>
<path d="M201.034 54.3164H166.927V55.8634H201.034V54.3164Z" fill="#51AF4E"/>
<path d="M201.034 57.8898H166.927V59.4367H201.034V57.8898Z" fill="#51AF4E"/>
<path d="M201.034 61.4632H166.927V63.0102H201.034V61.4632Z" fill="#51AF4E"/>
<path d="M201.034 65.037H166.927V66.584H201.034V65.037Z" fill="#51AF4E"/>
<path d="M201.034 68.6105H166.927V70.1574H201.034V68.6105Z" fill="#51AF4E"/>
<path d="M162.211 69.4551C156.646 72.4612 151.442 75.8658 146.963 80.2094C136.528 90.3018 131.387 104.251 124.007 116.586C116.401 129.219 106.322 140.283 94.3376 149.153C82.0039 158.273 67.3956 165.042 51.9037 166.129C36.4119 167.217 20.0783 162.022 9.98463 150.592C-0.109061 139.162 -2.59944 121.342 5.92211 108.798C12.948 98.4621 26.8747 93.0039 39.3614 95.6925C44.2308 96.7395 48.7873 98.8877 53.2741 101.016L60.2305 104.299" stroke="#211F42" stroke-linecap="round" stroke-linejoin="round" stroke-dasharray="2 5"/>
<path d="M183.4 4.07072C190.356 0.848462 198.655 -0.0770136 205.939 2.44945C213.222 4.97591 219.253 11.1907 220.505 18.6013C221.583 24.9917 219.114 31.5916 215.121 36.7661C212.041 40.576 208.393 43.9183 204.297 46.6828" stroke="#211F42" stroke-linecap="round" stroke-linejoin="round" stroke-dasharray="2 5"/>
</svg>
