<svg width="277" height="331" viewBox="0 0 277 331" fill="none" xmlns="http://www.w3.org/2000/svg">
<path d="M121.288 90.6606C121.658 89.9823 122.097 89.3449 122.6 88.7587L122.773 88.5512C123.78 87.4532 124.943 86.5095 126.224 85.7503L137.719 79.1112C139.795 77.946 142.027 77.0844 144.346 76.5523C145.735 76.2466 147.142 76.0272 148.557 75.8953V41.8004C148.557 24.6837 155.012 11.1634 166.265 4.66249C177.518 -1.83837 190.428 -0.731866 203.648 7.01384C228.225 21.2258 247.451 55.9086 247.451 85.9578V126.208L270.371 139.452C271.052 139.845 271.699 140.296 272.304 140.8L272.925 141.284C273.863 142.036 274.629 142.981 275.171 144.055C275.713 145.128 276.018 146.306 276.066 147.509V285.583C276.054 286.178 275.973 286.77 275.825 287.346C275.102 289.671 273.571 291.659 271.51 292.948L270.233 293.778L264.606 297.028L258.704 300.486C256.399 301.763 253.905 302.662 251.317 303.149C244.255 304.712 236.869 303.759 230.434 300.452L126.086 240.111C124.473 239.395 123.08 238.262 122.048 236.827C121.017 235.393 120.385 233.71 120.218 231.951V93.9455C120.3 92.7792 120.668 91.651 121.288 90.6606ZM225.014 85.9578C225.014 63.9655 210.103 36.7864 192.464 26.5856C186.458 23.1277 181.073 22.2287 177.656 24.2342C173.617 26.551 171.236 33.121 171.236 41.8004V82.0504L200.887 99.3399L225.049 113.171L225.014 85.9578Z" fill="#51AF4E" fill-opacity="0.2"/>
<path d="M108.31 100.031C108.474 98.2708 109.104 96.586 110.136 95.1512C111.167 93.7165 112.563 92.5839 114.178 91.8707L125.673 85.1969C130.049 82.9569 134.893 81.7889 139.808 81.7889C144.722 81.7889 149.566 82.9569 153.943 85.1969L258.29 145.537C259.906 146.259 261.301 147.399 262.332 148.839C263.363 150.279 263.993 151.968 264.158 153.733V291.807C264.004 293.574 263.378 295.268 262.345 296.71C261.313 298.152 259.912 299.289 258.29 300.002L246.796 306.676C242.412 308.892 237.571 310.046 232.661 310.046C227.751 310.046 222.909 308.892 218.526 306.676L114.178 246.301C112.565 245.584 111.171 244.451 110.14 243.017C109.109 241.583 108.477 239.9 108.31 238.14V100.031Z" fill="#51AF4E" fill-opacity="0.2"/>
<path opacity="0.4" d="M246.796 168.74L258.29 161.825C266.126 157.329 266.126 149.999 258.29 145.469L153.943 85.1284C149.566 82.8883 144.722 81.7203 139.807 81.7203C134.893 81.7203 130.049 82.8883 125.672 85.1284L114.178 91.8021C106.377 96.2974 106.377 103.628 114.178 108.123L218.353 168.74C222.759 170.985 227.632 172.154 232.574 172.154C237.517 172.154 242.39 170.985 246.796 168.74Z" fill="#51AF4E" fill-opacity="0.2"/>
<path opacity="0.1" d="M232.643 171.956V310.03C237.578 310.104 242.449 308.914 246.796 306.572L258.325 300.14C259.947 299.423 261.346 298.279 262.373 296.83C263.4 295.382 264.017 293.682 264.158 291.91V153.733C264.001 155.491 263.378 157.174 262.352 158.609C261.326 160.044 259.935 161.178 258.325 161.893L246.796 168.567C242.449 170.899 237.573 172.067 232.643 171.956Z" fill="#3B8339"/>
<path d="M156.705 240.25L181.626 254.67L177.76 209.509C180.729 207.919 182.627 204.046 182.627 198.479C182.627 188.52 176.621 176.971 169.165 172.683C161.71 168.395 155.704 172.925 155.704 183.056C155.856 188.941 157.534 194.684 160.571 199.724L156.705 240.25Z" fill="#51AF4E"/>
<path d="M156.704 240.25L179.279 227.214L181.626 254.67L156.704 240.25Z" fill="#3B8339"/>
<path d="M169.166 172.682C174.592 176.35 178.638 181.73 180.66 187.966L160.571 199.585C157.534 194.546 155.857 188.802 155.704 182.918C155.704 172.924 161.71 168.36 169.166 172.682Z" fill="#3B8339"/>
<path d="M136.511 103.041V47.7143C136.511 30.4248 142.965 17.0772 154.218 10.5764C165.471 4.0755 178.381 5.21663 191.601 12.9278C216.178 27.1397 235.404 61.8225 235.404 91.8717V147.371C235.304 148.385 234.929 149.352 234.321 150.168C233.713 150.985 232.894 151.62 231.953 152.005C229.484 153.248 226.759 153.896 223.996 153.896C221.233 153.896 218.508 153.248 216.04 152.005C215.098 151.62 214.279 150.985 213.671 150.168C213.063 149.352 212.688 148.385 212.588 147.371V92.0446C212.588 70.0524 197.676 42.8732 180.038 32.6724C174.032 29.2145 168.612 28.35 165.195 30.321C161.191 32.6378 158.775 39.2078 158.775 47.8872V103.214C158.666 104.216 158.287 105.171 157.679 105.975C157.072 106.778 156.257 107.402 155.323 107.778C152.854 109.022 150.13 109.67 147.366 109.67C144.603 109.67 141.879 109.022 139.41 107.778C138.484 107.389 137.677 106.763 137.071 105.961C136.465 105.16 136.081 104.212 135.958 103.214L136.511 103.041Z" fill="#51AF4E"/>
<path d="M127.487 249.096L118.21 243.731L114.541 239.253L123.818 244.618L127.487 249.096Z" fill="#51AF4E" fill-opacity="0.2"/>
<path opacity="0.4" d="M127.487 249.096L118.21 243.731L114.541 239.253L123.818 244.618L127.487 249.096Z" fill="#3B8339"/>
<path d="M102.248 263.692L92.9708 258.327L85.2114 251.441L94.4889 256.807L102.248 263.692Z" fill="#51AF4E" fill-opacity="0.2"/>
<path opacity="0.4" d="M102.248 263.692L92.9708 258.327L85.2114 251.441L94.4889 256.807L102.248 263.692Z" fill="#3B8339"/>
<path d="M23.2626 282.238C21.0669 285.186 19.7377 288.691 19.4251 292.356C21.6033 289.398 22.9306 285.898 23.2626 282.238ZM1.69241 282.512C4.81302 261.221 16.2202 240.267 29.8412 232.283C36.3776 228.502 42.4924 228.375 47.2577 231.206L55.9869 236.254L56.493 236.55C56.8824 236.761 57.2559 237.001 57.6105 237.268C58.3573 237.758 59.0626 238.309 59.719 238.915L60.0142 239.19C60.2883 239.465 60.5624 239.781 60.8154 240.077C61.0685 240.373 61.4691 240.838 61.7432 241.218C62.3729 242.05 62.9436 242.925 63.4511 243.837C63.7041 244.302 63.9783 244.787 64.2102 245.294L140.518 201.169L149.795 206.513V212.449L148.994 212.892L148.256 213.336V214.582L149.795 215.469V218.912L138.578 242.675L127.487 249.012L123.818 244.534L114.035 250.406L108.426 260.038L102.227 263.608L94.4886 256.722L84.9791 262.235L81.7742 275.436L65.8337 284.667C65.0238 288.032 64.017 291.347 62.8186 294.595L62.4601 295.63C57.1466 309.571 48.7125 321.526 39.2663 327.039C38.1165 327.699 36.9183 328.271 35.6819 328.75C35.0263 329.01 34.3577 329.235 33.6787 329.426C33.0956 329.59 32.5044 329.724 31.9076 329.827C30.0401 330.176 28.1243 330.176 26.2568 329.827L25.4766 329.637C25.107 329.574 24.7462 329.467 24.4013 329.32L23.5789 329.003C23.2811 328.892 22.9921 328.757 22.7144 328.602L21.9342 328.201L21.5336 327.968L21.3439 327.863L12.5935 322.814C5.55104 318.717 0.97551 308.367 0.97551 293.729C0.967941 289.953 1.24286 286.183 1.79787 282.449L1.69241 282.512Z" fill="#51AF4E" fill-opacity="0.2"/>
<path d="M26.0884 300.192C29.7361 298.08 32.7092 291.743 32.7092 286.145C32.7092 280.548 29.7361 277.696 26.0884 279.809C22.4407 281.921 19.4466 288.258 19.4466 293.876C19.4466 299.495 22.4196 302.304 26.0884 300.192ZM11.0546 287.877C14.1752 266.586 25.6035 245.527 39.2245 237.648C45.5501 234.015 51.3485 233.74 56.0927 236.254L56.5987 236.549C56.9882 236.761 57.3617 237.001 57.7163 237.268C58.4631 237.758 59.1683 238.309 59.8248 238.915L60.12 239.19C60.3941 239.464 60.6682 239.781 60.9212 240.077C61.1742 240.373 61.5748 240.837 61.8489 241.218C62.4786 242.05 63.0493 242.925 63.5568 243.837C63.8099 244.301 64.084 244.787 64.3159 245.294C65.6849 248.168 66.6771 251.206 67.2679 254.335L149.774 206.513V212.449L148.973 212.892L148.235 213.336V214.582L149.774 215.469V218.912L138.557 242.675L127.466 249.012L123.797 244.534L114.014 250.406L108.405 260.038L102.206 263.608L94.4678 256.722L84.9584 262.235L81.7534 275.436L65.813 284.667C65.003 288.032 63.9962 291.347 62.7978 294.594L62.4393 295.629C57.1258 309.57 48.6917 321.526 39.2456 327.039C38.0958 327.699 36.8975 328.271 35.6611 328.75C35.0056 329.01 34.3369 329.235 33.658 329.426C33.0748 329.589 32.4837 329.723 31.8868 329.827C30.0193 330.176 28.1035 330.176 26.236 329.827L25.4559 329.637C25.0864 329.573 24.7255 329.467 24.3805 329.32L23.5582 329.003C23.2604 328.891 22.9714 328.757 22.6937 328.602L21.9135 328.201L21.5129 327.968L21.3231 327.863C14.5758 323.638 10.2323 313.394 10.2323 299.094C10.2389 295.34 10.5136 291.592 11.0546 287.877Z" fill="#51AF4E" fill-opacity="0.2"/>
<path opacity="0.4" d="M19.4461 293.791C19.4461 299.452 22.4191 302.24 26.0668 300.128C29.7146 298.016 32.7087 291.679 32.7087 286.081C32.7087 280.484 29.7357 277.632 26.0668 279.745C24.9779 280.383 24.025 281.23 23.2625 282.237C22.9401 285.9 21.6119 289.402 19.425 292.355C19.4012 292.834 19.4082 293.313 19.4461 293.791Z" fill="#3B8339"/>
<path opacity="0.4" d="M0.933289 293.792C0.933289 308.43 5.5088 318.78 12.5513 322.878L21.3016 327.926C14.5544 323.702 10.2108 313.457 10.2108 299.157C10.2213 295.382 10.5031 291.612 11.0542 287.878C14.1748 266.586 25.603 245.527 39.2241 237.648C45.5497 234.015 51.3481 233.74 56.0923 236.254L47.363 231.206C42.5134 228.375 36.483 228.502 29.9466 232.283C16.3255 240.204 4.91841 261.326 1.79779 282.449C1.2255 286.203 0.936508 289.995 0.933289 293.792Z" fill="#51AF4E"/>
<path d="M10.2111 299.157C10.2111 313.457 14.5547 323.66 21.302 327.926L12.5516 322.878C5.50917 318.78 0.933649 308.43 0.933649 293.792C0.933649 293.243 0.933649 292.694 0.933649 292.166L10.19 297.531C10.2322 298.059 10.2111 298.608 10.2111 299.157Z" fill="#51AF4E" fill-opacity="0.2"/>
<path opacity="0.1" d="M10.2111 299.157C10.2111 313.457 14.5547 323.66 21.302 327.926L12.5516 322.878C5.50917 318.78 0.933649 308.43 0.933649 293.792C0.933649 293.243 0.933649 292.694 0.933649 292.166L10.19 297.531C10.2322 298.059 10.2111 298.608 10.2111 299.157Z" fill="#3B8339"/>
<path opacity="0.15" d="M66.8248 260.418V263.438L149.795 215.469L148.256 214.582V213.314L66.8248 260.418Z" fill="#3B8339"/>
<path opacity="0.15" d="M66.8248 261.685V263.439L149.795 215.469L148.256 214.582V214.561L66.8248 261.685Z" fill="#3B8339"/>
<path opacity="0.15" d="M30.7271 322.962C33.8687 322.876 36.9315 321.958 39.604 320.301C53.1407 312.464 64.1472 289.187 64.1472 268.403C64.1472 256.278 60.4783 247.28 54.0895 243.52C49.6194 240.943 44.3482 241.26 38.8238 244.45C25.3082 252.286 14.3017 275.563 14.3017 296.348C14.3017 308.472 17.9705 317.47 24.3593 321.23C26.288 322.37 28.4877 322.969 30.7271 322.962ZM47.5953 243.351C49.5641 243.347 51.4989 243.865 53.204 244.851C59.0235 248.209 62.4815 257.018 62.4815 268.403C62.4815 288.702 51.9388 311.366 38.7184 318.949C33.7001 321.864 28.977 322.181 25.0129 319.9C19.1934 316.541 15.7354 307.733 15.7354 296.348C15.7354 276.049 26.2781 253.363 39.4986 245.801C41.9663 244.268 44.7977 243.422 47.7007 243.351H47.5953Z" fill="#3B8339"/>
<path opacity="0.5" d="M64.2105 245.294C65.5795 248.168 66.5717 251.207 67.1624 254.335L149.774 206.513L140.497 201.169L64.2105 245.294Z" fill="#51AF4E"/>
</svg>
