<svg width="165" height="73" viewBox="0 0 165 73" fill="none" xmlns="http://www.w3.org/2000/svg">
<path d="M127.393 7.02113C126.699 13.0012 123.161 17.0458 120.577 19.2592C120.535 13.0742 120.421 8.50485 120.185 6.69103C119.547 1.7534 117.389 0.888184 114.93 0.888184C112.408 0.888184 110.379 3.41781 110.421 6.49992C110.324 10.9476 110.463 21.497 110.681 34.1312C109.216 31.9119 108.306 29.3722 108.028 26.7265C107.386 20.4719 100.792 21.6047 101.229 28.0817C101.576 33.3598 104.101 40.7715 110.851 43.5409C110.997 51.3869 111.156 59.6151 111.299 67.4194H120.317C120.421 53.7323 120.587 38.1584 120.591 26.0976C130.563 24.7077 133.817 15.1555 134.75 8.65775C135.756 1.68043 128.191 0.234927 127.393 7.02113Z" fill="#51AF4E"/>
<path opacity="0.2" d="M127.393 7.02113C126.699 13.0012 123.161 17.0458 120.577 19.2592C120.535 13.0742 120.421 8.50485 120.185 6.69103C119.547 1.7534 117.389 0.888184 114.93 0.888184C112.408 0.888184 110.379 3.41781 110.421 6.49992C110.324 10.9476 110.463 21.497 110.681 34.1312C109.216 31.9119 108.306 29.3722 108.028 26.7265C107.386 20.4719 100.792 21.6047 101.229 28.0817C101.576 33.3598 104.101 40.7715 110.851 43.5409C110.997 51.3869 111.156 59.6151 111.299 67.4194H120.317C120.421 53.7323 120.587 38.1584 120.591 26.0976C130.563 24.7077 133.817 15.1555 134.75 8.65775C135.756 1.68043 128.191 0.234927 127.393 7.02113Z" fill="#51AF4E" fill-opacity="0.2"/>
<path d="M118.302 26.0491C118.773 27.0394 120.036 27.9011 120.591 28.2555C120.591 27.5212 120.591 26.8019 120.591 26.0977C119.828 26.1451 119.062 26.1289 118.302 26.0491Z" fill="#51AF4E"/>
<path d="M110.851 43.541C110.872 44.5997 110.893 45.6664 110.914 46.7413C111.333 46.3312 112.995 44.7537 113.525 43.614C112.641 43.8023 111.724 43.7773 110.851 43.541Z" fill="#51AF4E"/>
<path d="M111.573 6.67007C111.534 6.66958 111.496 6.65614 111.465 6.63185L110.678 6.00292C110.642 5.97313 110.62 5.93097 110.615 5.88509C110.61 5.83922 110.622 5.79309 110.65 5.75621C110.68 5.7207 110.722 5.69827 110.768 5.69373C110.814 5.68918 110.86 5.70288 110.896 5.73189L111.68 6.36082C111.698 6.37473 111.713 6.39214 111.725 6.41202C111.736 6.4319 111.743 6.45384 111.745 6.47654C111.748 6.49923 111.746 6.52222 111.74 6.54412C111.733 6.56603 111.722 6.58641 111.708 6.60405C111.691 6.62416 111.671 6.64047 111.647 6.65187C111.624 6.66326 111.599 6.66947 111.573 6.67007Z" fill="#51AF4E"/>
<path d="M117.844 2.60138C117.815 2.60111 117.786 2.59396 117.761 2.58053C117.721 2.55791 117.691 2.52033 117.679 2.47604C117.666 2.43174 117.672 2.38436 117.695 2.34425L118.097 1.62498C118.107 1.60379 118.122 1.58496 118.14 1.56964C118.158 1.55431 118.179 1.54281 118.201 1.53583C118.224 1.52886 118.248 1.52655 118.271 1.52906C118.294 1.53157 118.317 1.53885 118.338 1.55044C118.358 1.56203 118.376 1.57769 118.39 1.59647C118.405 1.61525 118.415 1.63676 118.421 1.65967C118.427 1.68258 118.428 1.70641 118.424 1.72972C118.42 1.75303 118.411 1.77533 118.399 1.79524L117.996 2.51451C117.981 2.54128 117.959 2.56345 117.932 2.57872C117.905 2.59399 117.875 2.60181 117.844 2.60138Z" fill="#51AF4E"/>
<path d="M114.531 5.83633C114.502 5.84036 114.472 5.83671 114.445 5.82575C114.418 5.81478 114.394 5.79688 114.375 5.77379L114.028 5.25605C114.015 5.23723 114.006 5.21601 114.002 5.19365C113.997 5.17128 113.997 5.14823 114.002 5.12587C114.006 5.1035 114.015 5.08227 114.028 5.06345C114.041 5.04463 114.058 5.02859 114.077 5.01629C114.115 4.99115 114.162 4.98215 114.207 4.99126C114.251 5.00037 114.291 5.02685 114.316 5.06494L114.663 5.58268C114.688 5.62098 114.697 5.66767 114.688 5.71257C114.679 5.75748 114.653 5.79696 114.615 5.82244C114.588 5.83415 114.56 5.83894 114.531 5.83633Z" fill="#51AF4E"/>
<path d="M112.402 2.24324C112.359 2.24337 112.318 2.22721 112.287 2.19807L111.774 1.74982C111.745 1.71834 111.73 1.67756 111.729 1.63517C111.729 1.59278 111.744 1.5517 111.771 1.51967C111.799 1.48763 111.838 1.46685 111.88 1.46124C111.922 1.45564 111.964 1.46558 111.999 1.48921L112.516 1.93746C112.55 1.9682 112.572 2.0112 112.575 2.05728C112.578 2.10336 112.563 2.14889 112.533 2.18417C112.517 2.20258 112.496 2.21733 112.474 2.22749C112.451 2.23766 112.426 2.24302 112.402 2.24324Z" fill="#51AF4E"/>
<path d="M118.95 9.18612C118.91 9.18543 118.87 9.1707 118.839 9.14442C118.822 9.13001 118.807 9.11221 118.797 9.09208C118.786 9.07194 118.78 9.04989 118.778 9.02721C118.776 9.00453 118.778 8.9817 118.785 8.96005C118.792 8.93841 118.804 8.91839 118.818 8.90119L119.29 8.33828C119.321 8.30896 119.362 8.29207 119.404 8.29084C119.447 8.28961 119.488 8.30412 119.521 8.33161C119.554 8.3591 119.575 8.39764 119.581 8.43988C119.587 8.48213 119.577 8.52512 119.554 8.56067L119.086 9.12358C119.069 9.14341 119.048 9.15932 119.025 9.17014C119.002 9.18096 118.976 9.18642 118.95 9.18612Z" fill="#51AF4E"/>
<path d="M114.722 13.2966C114.686 13.2969 114.651 13.286 114.621 13.2654L114.15 12.9179C114.131 12.9047 114.115 12.888 114.103 12.8686C114.09 12.8492 114.082 12.8276 114.078 12.805C114.074 12.7823 114.075 12.7592 114.08 12.7368C114.085 12.7145 114.095 12.6933 114.108 12.6747C114.136 12.638 114.177 12.6135 114.222 12.6064C114.267 12.5993 114.313 12.61 114.351 12.6364L114.823 12.9839C114.859 13.011 114.883 13.0512 114.89 13.096C114.898 13.1408 114.887 13.1866 114.861 13.2237C114.845 13.2463 114.825 13.2648 114.801 13.2775C114.776 13.2902 114.749 13.2968 114.722 13.2966Z" fill="#51AF4E"/>
<path d="M113.994 9.94351C113.956 9.94376 113.919 9.93154 113.89 9.90876L113.217 9.39102C113.197 9.37771 113.18 9.36052 113.168 9.34052C113.155 9.32051 113.146 9.2981 113.143 9.27468C113.139 9.25126 113.14 9.22732 113.146 9.20434C113.152 9.18135 113.162 9.15981 113.177 9.14104C113.191 9.12227 113.209 9.10666 113.23 9.09518C113.251 9.08371 113.274 9.0766 113.297 9.0743C113.321 9.07201 113.345 9.07456 113.367 9.08182C113.39 9.08908 113.41 9.10089 113.428 9.11651L114.101 9.63425C114.129 9.65672 114.149 9.6873 114.159 9.7218C114.169 9.7563 114.168 9.79302 114.156 9.82692C114.145 9.86082 114.123 9.89023 114.093 9.91111C114.064 9.93198 114.029 9.9433 113.994 9.94351Z" fill="#51AF4E"/>
<path d="M110.764 15.6563C110.74 15.6567 110.716 15.652 110.694 15.6424C110.672 15.6328 110.652 15.6186 110.636 15.6007L109.894 14.7668C109.862 14.7343 109.844 14.6907 109.844 14.6452C109.844 14.5997 109.862 14.556 109.894 14.5236C109.91 14.5073 109.929 14.4943 109.95 14.4855C109.971 14.4767 109.994 14.4722 110.017 14.4722C110.04 14.4722 110.062 14.4767 110.084 14.4855C110.105 14.4943 110.124 14.5073 110.14 14.5236L110.879 15.354C110.902 15.3784 110.918 15.4093 110.924 15.4428C110.93 15.4762 110.926 15.5106 110.912 15.5416C110.898 15.5726 110.875 15.5988 110.847 15.6167C110.818 15.6347 110.784 15.6436 110.75 15.6424L110.764 15.6563Z" fill="#51AF4E"/>
<path d="M120.074 15.2425C120.033 15.243 119.994 15.2281 119.963 15.2008C119.928 15.1716 119.906 15.1297 119.901 15.0841C119.897 15.0386 119.91 14.9931 119.939 14.9575L120.702 14.0471C120.717 14.0296 120.734 14.015 120.755 14.0044C120.775 13.9938 120.797 13.9872 120.82 13.9851C120.842 13.983 120.865 13.9854 120.887 13.9922C120.909 13.999 120.929 14.0099 120.946 14.0245C120.964 14.0391 120.979 14.0571 120.989 14.0773C121 14.0975 121.006 14.1196 121.008 14.1424C121.01 14.1651 121.008 14.188 121.001 14.2099C120.995 14.2317 120.984 14.252 120.969 14.2695L120.206 15.1799C120.19 15.1995 120.17 15.2152 120.147 15.2261C120.124 15.2369 120.099 15.2425 120.074 15.2425Z" fill="#51AF4E"/>
<path d="M118.277 6.12135C118.238 6.12265 118.2 6.109 118.17 6.08312C118.152 6.06896 118.137 6.05135 118.126 6.03134C118.115 6.01134 118.109 5.98934 118.106 5.96665C118.104 5.94397 118.106 5.92106 118.113 5.89928C118.12 5.87751 118.131 5.85731 118.146 5.83989L118.593 5.28741C118.622 5.25213 118.664 5.22978 118.709 5.22523C118.755 5.22067 118.8 5.23428 118.836 5.26308C118.854 5.27756 118.869 5.29547 118.88 5.31578C118.891 5.33608 118.897 5.35836 118.9 5.38133C118.902 5.4043 118.9 5.42749 118.893 5.44954C118.886 5.4716 118.875 5.49208 118.86 5.50979L118.413 6.0588C118.396 6.07864 118.375 6.09455 118.352 6.10537C118.329 6.11618 118.303 6.12164 118.277 6.12135Z" fill="#51AF4E"/>
<path d="M122.353 17.9703C122.307 17.9703 122.263 17.952 122.23 17.9194C122.198 17.8869 122.18 17.8427 122.18 17.7966V17.0321C122.18 16.9861 122.198 16.9419 122.23 16.9093C122.263 16.8767 122.307 16.8584 122.353 16.8584C122.399 16.8593 122.442 16.8779 122.475 16.9103C122.507 16.9427 122.526 16.9863 122.526 17.0321V17.7966C122.526 17.8427 122.508 17.8869 122.476 17.9194C122.443 17.952 122.399 17.9703 122.353 17.9703Z" fill="#51AF4E"/>
<path d="M125.589 14.3324C125.565 14.3319 125.541 14.3264 125.519 14.3162C125.497 14.3061 125.477 14.2915 125.461 14.2733L124.722 13.4429C124.706 13.4267 124.693 13.4075 124.684 13.3863C124.675 13.3651 124.671 13.3424 124.671 13.3195C124.671 13.2966 124.675 13.2739 124.684 13.2527C124.693 13.2315 124.706 13.2123 124.722 13.1961C124.754 13.1643 124.798 13.1465 124.843 13.1465C124.889 13.1465 124.932 13.1643 124.965 13.1961L125.707 14.0266C125.739 14.0597 125.757 14.1039 125.757 14.15C125.757 14.196 125.739 14.2403 125.707 14.2733C125.677 14.3078 125.635 14.329 125.589 14.3324Z" fill="#51AF4E"/>
<path d="M133.151 6.12116C133.12 6.12176 133.09 6.1133 133.064 6.09683C133.024 6.0742 132.995 6.03663 132.982 5.99234C132.97 5.94805 132.976 5.90065 132.998 5.86055L133.453 5.07873C133.475 5.0387 133.513 5.00926 133.557 4.99689C133.601 4.98451 133.648 4.9902 133.688 5.01271C133.728 5.03592 133.756 5.07375 133.768 5.11799C133.78 5.16223 133.774 5.20931 133.751 5.249L133.303 6.03776C133.288 6.06389 133.265 6.08536 133.238 6.1C133.211 6.11465 133.181 6.12194 133.151 6.12116Z" fill="#51AF4E"/>
<path d="M128.662 4.55766C128.628 4.55704 128.595 4.54655 128.567 4.52743C128.538 4.50832 128.516 4.48141 128.503 4.44994L128.031 3.27895C128.014 3.2361 128.015 3.18823 128.033 3.14587C128.051 3.10351 128.085 3.07014 128.128 3.05309C128.171 3.03604 128.219 3.03671 128.261 3.05496C128.303 3.07321 128.337 3.10753 128.354 3.15038L128.825 4.3179C128.834 4.33912 128.838 4.36179 128.838 4.38463C128.837 4.40747 128.833 4.43003 128.824 4.45101C128.815 4.47199 128.802 4.49098 128.785 4.50689C128.769 4.52281 128.75 4.53534 128.728 4.54376C128.708 4.55362 128.685 4.55838 128.662 4.55766Z" fill="#51AF4E"/>
<path d="M131.916 3.43185C131.894 3.43518 131.872 3.43518 131.85 3.43185C131.829 3.42311 131.809 3.41021 131.793 3.3939C131.777 3.37759 131.764 3.35819 131.755 3.33684C131.747 3.3155 131.742 3.29262 131.742 3.26956C131.743 3.2465 131.747 3.22371 131.756 3.20252L132.103 2.3929C132.112 2.37198 132.125 2.35301 132.141 2.33711C132.157 2.3212 132.176 2.30868 132.197 2.30026C132.218 2.29185 132.241 2.28772 132.263 2.28811C132.286 2.2885 132.308 2.29341 132.329 2.30255C132.35 2.31092 132.369 2.32348 132.385 2.33947C132.402 2.35545 132.415 2.37455 132.423 2.39562C132.432 2.41668 132.436 2.43929 132.436 2.4621C132.436 2.48492 132.431 2.50747 132.422 2.52841L132.065 3.3415C132.051 3.36865 132.029 3.39138 132.003 3.40729C131.977 3.42319 131.947 3.43168 131.916 3.43185Z" fill="#51AF4E"/>
<path d="M130.435 12.5566C130.407 12.5562 130.38 12.5495 130.355 12.5368C130.331 12.5241 130.309 12.506 130.293 12.4837C130.28 12.4648 130.27 12.4435 130.265 12.421C130.261 12.3985 130.26 12.3752 130.264 12.3526C130.269 12.33 130.277 12.3084 130.29 12.2892C130.302 12.2699 130.319 12.2533 130.338 12.2404L131.077 11.7227C131.095 11.7083 131.117 11.6978 131.139 11.6918C131.162 11.6859 131.186 11.6847 131.209 11.6883C131.232 11.6919 131.255 11.7001 131.275 11.7126C131.295 11.7251 131.312 11.7415 131.325 11.7609C131.339 11.7802 131.348 11.8021 131.353 11.8252C131.357 11.8483 131.357 11.8721 131.353 11.8952C131.348 11.9183 131.339 11.9402 131.325 11.9595C131.312 11.9788 131.294 11.9952 131.274 12.0076L130.535 12.5254C130.506 12.5456 130.471 12.5565 130.435 12.5566Z" fill="#51AF4E"/>
<path d="M128.753 9.0296C128.718 9.02963 128.684 9.01899 128.655 8.99911C128.627 8.97922 128.605 8.95106 128.593 8.91841L128.368 8.35897C128.35 8.31612 128.35 8.26806 128.368 8.22538C128.386 8.1827 128.42 8.14889 128.463 8.13138C128.506 8.11387 128.554 8.1141 128.596 8.13202C128.639 8.14994 128.673 8.18408 128.69 8.22693L128.916 8.78984C128.932 8.83276 128.931 8.88028 128.913 8.9224C128.894 8.96452 128.861 8.99796 128.819 9.0157C128.798 9.02531 128.775 9.03006 128.753 9.0296Z" fill="#51AF4E"/>
<path d="M132.086 17.2058C132.054 17.2071 132.022 17.1989 131.994 17.1822C131.966 17.1655 131.944 17.1412 131.93 17.112C131.919 17.0918 131.913 17.0696 131.911 17.0468C131.909 17.0241 131.912 17.0011 131.919 16.9794C131.926 16.9577 131.937 16.9376 131.952 16.9204C131.967 16.9032 131.986 16.8892 132.006 16.8792L132.578 16.5873C132.599 16.5767 132.621 16.5702 132.644 16.5682C132.666 16.5663 132.689 16.569 132.711 16.5761C132.733 16.5833 132.753 16.5947 132.77 16.6098C132.787 16.6248 132.801 16.6432 132.811 16.6638C132.831 16.7048 132.835 16.7523 132.821 16.796C132.806 16.8396 132.775 16.8758 132.735 16.8966L132.162 17.1885C132.139 17.2008 132.112 17.2068 132.086 17.2058Z" fill="#51AF4E"/>
<path d="M126.442 20.6908C126.396 20.6964 126.35 20.6834 126.314 20.6547C126.277 20.626 126.254 20.584 126.248 20.5379C126.243 20.4919 126.256 20.4455 126.284 20.409C126.313 20.3725 126.355 20.3489 126.401 20.3434L127.004 20.187C127.027 20.1813 127.051 20.1801 127.074 20.1836C127.097 20.1871 127.12 20.1951 127.14 20.2072C127.16 20.2193 127.177 20.2352 127.191 20.2541C127.205 20.273 127.216 20.2945 127.221 20.3173C127.227 20.3401 127.228 20.3638 127.225 20.3871C127.221 20.4103 127.213 20.4327 127.201 20.4529C127.189 20.473 127.173 20.4906 127.154 20.5046C127.135 20.5186 127.114 20.5288 127.091 20.5345L126.488 20.6908H126.442Z" fill="#51AF4E"/>
<path d="M126.533 18.0606C126.487 18.0634 126.441 18.0478 126.407 18.0171C126.373 17.9865 126.352 17.9434 126.349 17.8973C126.346 17.8513 126.362 17.806 126.392 17.7714C126.423 17.7369 126.466 17.7159 126.512 17.7132L127.251 17.6228C127.273 17.6201 127.297 17.6219 127.319 17.6281C127.341 17.6343 127.361 17.6448 127.379 17.659C127.397 17.6732 127.413 17.6908 127.424 17.7108C127.435 17.7308 127.442 17.7529 127.445 17.7757C127.448 17.7985 127.446 17.8217 127.44 17.8438C127.434 17.8659 127.423 17.8866 127.409 17.9047C127.395 17.9227 127.377 17.9378 127.357 17.9491C127.337 17.9604 127.315 17.9676 127.292 17.9703L126.554 18.0606H126.533Z" fill="#51AF4E"/>
<path d="M123.74 25.4933H123.699L122.783 25.2744C122.739 25.2621 122.701 25.2333 122.677 25.1939C122.653 25.1545 122.645 25.1075 122.655 25.0624C122.666 25.0175 122.695 24.9789 122.734 24.9549C122.774 24.9309 122.821 24.9233 122.866 24.9338L123.782 25.1562C123.827 25.1669 123.865 25.1949 123.889 25.234C123.913 25.273 123.921 25.32 123.91 25.3647C123.9 25.402 123.878 25.4349 123.847 25.4582C123.817 25.4815 123.779 25.4938 123.74 25.4933Z" fill="#51AF4E"/>
<path d="M122.516 22.7791C122.487 22.7795 122.459 22.7726 122.433 22.7589C122.408 22.7452 122.386 22.7253 122.37 22.7009C122.355 22.6766 122.346 22.6487 122.344 22.6198C122.342 22.5909 122.348 22.562 122.36 22.5359L122.762 21.6359C122.782 21.5947 122.817 21.5626 122.859 21.5464C122.902 21.5302 122.949 21.5312 122.991 21.549C123.012 21.5581 123.031 21.5713 123.047 21.5877C123.063 21.6042 123.076 21.6236 123.084 21.6449C123.092 21.6662 123.096 21.689 123.096 21.7119C123.096 21.7348 123.091 21.7574 123.081 21.7784L122.676 22.6783C122.662 22.7088 122.639 22.7345 122.611 22.7524C122.582 22.7702 122.549 22.7795 122.516 22.7791Z" fill="#51AF4E"/>
<path d="M134.226 9.66918C134.198 9.66924 134.17 9.66229 134.145 9.64894C134.12 9.6356 134.099 9.61629 134.084 9.59273C134.071 9.57385 134.061 9.55254 134.057 9.53004C134.052 9.50754 134.051 9.4843 134.056 9.46167C134.06 9.43904 134.068 9.41747 134.081 9.39821C134.094 9.37896 134.11 9.3624 134.129 9.3495L134.746 8.93601C134.785 8.9102 134.831 8.90064 134.877 8.90944C134.922 8.91824 134.962 8.94467 134.987 8.98291C135.013 9.02116 135.023 9.06809 135.014 9.11338C135.005 9.15866 134.979 9.1986 134.941 9.22441L134.323 9.6379C134.295 9.65804 134.261 9.66896 134.226 9.66918Z" fill="#51AF4E"/>
<path d="M128.943 15.545C128.898 15.5442 128.855 15.5261 128.823 15.4944C128.791 15.4628 128.772 15.42 128.77 15.3748L128.749 14.2524C128.748 14.2295 128.752 14.2066 128.76 14.1851C128.768 14.1637 128.78 14.1441 128.796 14.1275C128.812 14.111 128.831 14.0978 128.852 14.0888C128.873 14.0798 128.896 14.0752 128.919 14.0752C128.942 14.0748 128.964 14.0788 128.986 14.0871C129.007 14.0954 129.026 14.1078 129.043 14.1236C129.059 14.1395 129.072 14.1584 129.081 14.1793C129.091 14.2002 129.096 14.2227 129.096 14.2455L129.117 15.3678C129.117 15.3906 129.113 15.4133 129.105 15.4346C129.097 15.4559 129.084 15.4753 129.068 15.4917C129.053 15.5082 129.034 15.5213 129.013 15.5305C128.992 15.5396 128.97 15.5446 128.947 15.545H128.943Z" fill="#51AF4E"/>
<path d="M110.584 19.3257C110.545 19.326 110.508 19.3138 110.476 19.2909L109.866 18.7871C109.83 18.7584 109.807 18.7168 109.802 18.6712C109.797 18.6257 109.81 18.5799 109.838 18.5439C109.852 18.5258 109.87 18.5106 109.889 18.4994C109.909 18.4881 109.931 18.481 109.954 18.4784C109.976 18.4758 109.999 18.4778 110.021 18.4843C110.043 18.4907 110.063 18.5016 110.081 18.5161L110.709 19.0095C110.737 19.032 110.757 19.0625 110.767 19.097C110.777 19.1315 110.776 19.1683 110.764 19.2022C110.752 19.2361 110.73 19.2655 110.701 19.2863C110.672 19.3072 110.637 19.3185 110.601 19.3188L110.584 19.3257Z" fill="#51AF4E"/>
<path d="M114.375 21.2054C114.351 21.2057 114.327 21.201 114.305 21.1914C114.283 21.1818 114.263 21.1676 114.247 21.1498L113.553 20.3645C113.537 20.3483 113.524 20.3291 113.515 20.3079C113.506 20.2868 113.502 20.264 113.502 20.2411C113.502 20.2182 113.506 20.1955 113.515 20.1743C113.524 20.1531 113.537 20.1339 113.553 20.1178C113.569 20.1016 113.588 20.0887 113.609 20.0799C113.63 20.0712 113.652 20.0667 113.675 20.0667C113.697 20.0667 113.72 20.0712 113.74 20.0799C113.761 20.0887 113.78 20.1016 113.796 20.1178L114.49 20.9031C114.513 20.9275 114.529 20.9584 114.535 20.9918C114.541 21.0252 114.536 21.0596 114.523 21.0906C114.509 21.1216 114.486 21.1478 114.457 21.1657C114.429 21.1837 114.395 21.1927 114.361 21.1915L114.375 21.2054Z" fill="#51AF4E"/>
<path d="M116.956 18.0155C116.927 18.0157 116.898 18.0085 116.873 17.9947C116.853 17.9837 116.835 17.969 116.82 17.9512C116.806 17.9334 116.795 17.9129 116.789 17.8909C116.782 17.869 116.78 17.846 116.783 17.8232C116.785 17.8005 116.792 17.7784 116.803 17.7584L117.251 16.9488C117.273 16.9082 117.311 16.8783 117.355 16.8656C117.4 16.8529 117.448 16.8584 117.488 16.881C117.529 16.9036 117.559 16.9413 117.571 16.986C117.584 17.0306 117.578 17.0785 117.556 17.119L117.108 17.9356C117.092 17.9606 117.069 17.981 117.042 17.995C117.016 18.0089 116.986 18.016 116.956 18.0155Z" fill="#51AF4E"/>
<path d="M111.011 26.7578C110.984 26.7575 110.957 26.7511 110.933 26.7391C110.909 26.727 110.888 26.7096 110.872 26.6883L110.133 25.7223C110.117 25.7044 110.106 25.6836 110.098 25.661C110.091 25.6384 110.089 25.6146 110.091 25.591C110.093 25.5674 110.1 25.5445 110.112 25.5237C110.123 25.503 110.139 25.4848 110.158 25.4703C110.176 25.4558 110.198 25.4453 110.221 25.4395C110.244 25.4336 110.268 25.4325 110.291 25.4363C110.314 25.44 110.337 25.4485 110.357 25.4613C110.377 25.474 110.394 25.4907 110.407 25.5103L111.149 26.4763C111.164 26.4942 111.174 26.5147 111.18 26.5368C111.187 26.5588 111.188 26.5819 111.185 26.6046C111.182 26.6273 111.175 26.6492 111.163 26.6689C111.152 26.6887 111.137 26.7059 111.118 26.7195C111.088 26.7438 111.05 26.7573 111.011 26.7578Z" fill="#51AF4E"/>
<path d="M112.641 25.3852C112.602 25.3847 112.564 25.3712 112.533 25.347C112.497 25.3188 112.473 25.2774 112.468 25.2318C112.462 25.1862 112.474 25.1402 112.502 25.1037L112.884 24.6103C112.912 24.5745 112.954 24.5515 112.999 24.5463C113.045 24.5411 113.091 24.5541 113.126 24.5825C113.145 24.5962 113.16 24.6134 113.172 24.6331C113.183 24.6529 113.191 24.6748 113.194 24.6975C113.197 24.7202 113.195 24.7432 113.189 24.7653C113.183 24.7873 113.172 24.8079 113.158 24.8257L112.776 25.3157C112.761 25.337 112.74 25.3544 112.717 25.3664C112.693 25.3785 112.667 25.3849 112.641 25.3852Z" fill="#51AF4E"/>
<path d="M119.446 25.3855C119.418 25.3847 119.391 25.3774 119.366 25.3641C119.341 25.3509 119.32 25.332 119.304 25.3091C119.279 25.2712 119.269 25.2248 119.278 25.1799C119.286 25.1351 119.312 25.0953 119.349 25.0693L119.928 24.6663C119.966 24.6402 120.013 24.63 120.058 24.6378C120.104 24.6456 120.144 24.6707 120.171 24.7079C120.184 24.7268 120.194 24.7482 120.198 24.7707C120.203 24.7932 120.204 24.8164 120.199 24.839C120.195 24.8616 120.187 24.8832 120.174 24.9025C120.161 24.9217 120.145 24.9383 120.126 24.9512L119.547 25.3543C119.517 25.3745 119.482 25.3854 119.446 25.3855Z" fill="#51AF4E"/>
<path d="M119.738 31.362C119.709 31.3617 119.681 31.3546 119.656 31.3414C119.63 31.3281 119.608 31.3089 119.592 31.2855C119.579 31.2665 119.57 31.2451 119.566 31.2226C119.562 31.2001 119.562 31.1769 119.567 31.1546C119.572 31.1322 119.581 31.111 119.594 31.0923C119.608 31.0736 119.625 31.0578 119.644 31.0458L120.629 30.3925C120.667 30.3674 120.714 30.3584 120.759 30.3675C120.804 30.3766 120.843 30.4031 120.868 30.4412C120.894 30.48 120.903 30.5272 120.894 30.5727C120.885 30.6182 120.858 30.6583 120.82 30.6844L119.835 31.3342C119.806 31.3533 119.772 31.363 119.738 31.362Z" fill="#51AF4E"/>
<path d="M110.83 31.2301C110.799 31.2299 110.768 31.221 110.741 31.2045C110.714 31.1879 110.692 31.1644 110.678 31.1363L110.365 30.5282C110.352 30.508 110.342 30.485 110.338 30.4608C110.334 30.4367 110.334 30.4119 110.34 30.388C110.346 30.3642 110.357 30.3419 110.372 30.3226C110.387 30.3033 110.407 30.2875 110.428 30.2761C110.45 30.2647 110.474 30.2581 110.498 30.2567C110.523 30.2552 110.547 30.259 110.57 30.2677C110.593 30.2764 110.614 30.2899 110.631 30.3072C110.649 30.3246 110.662 30.3454 110.671 30.3684L110.986 30.9765C110.997 30.9967 111.004 31.0189 111.005 31.0416C111.007 31.0644 111.005 31.0874 110.998 31.1091C110.99 31.1308 110.979 31.1509 110.964 31.1681C110.949 31.1853 110.931 31.1993 110.91 31.2093C110.886 31.2231 110.858 31.2303 110.83 31.2301Z" fill="#51AF4E"/>
<path d="M113.903 31.904C113.88 31.9041 113.857 31.8992 113.835 31.8896C113.814 31.88 113.794 31.866 113.779 31.8484L113.085 31.1291C113.069 31.1132 113.056 31.0943 113.047 31.0734C113.038 31.0526 113.034 31.0301 113.034 31.0075C113.034 30.9848 113.038 30.9624 113.047 30.9415C113.056 30.9206 113.069 30.9017 113.085 30.8859C113.101 30.8696 113.12 30.8567 113.141 30.8478C113.162 30.839 113.185 30.8345 113.208 30.8345C113.231 30.8345 113.254 30.839 113.275 30.8478C113.296 30.8567 113.315 30.8696 113.331 30.8859L114.025 31.6051C114.041 31.6213 114.054 31.6405 114.063 31.6617C114.072 31.6829 114.076 31.7056 114.076 31.7285C114.076 31.7514 114.072 31.7741 114.063 31.7953C114.054 31.8165 114.041 31.8357 114.025 31.8518C113.992 31.884 113.949 31.9026 113.903 31.904Z" fill="#51AF4E"/>
<path d="M116.456 29.9685C116.43 29.9698 116.403 29.9638 116.38 29.9511C116.359 29.9418 116.341 29.9284 116.325 29.9117C116.31 29.8949 116.298 29.8752 116.291 29.8537C116.283 29.8322 116.28 29.8095 116.282 29.7868C116.284 29.7641 116.29 29.742 116.3 29.7218L116.769 28.7523C116.789 28.7115 116.825 28.6803 116.869 28.6654C116.912 28.6505 116.959 28.653 117.001 28.6724C117.042 28.6933 117.073 28.7293 117.088 28.7727C117.103 28.8161 117.1 28.8636 117.081 28.9052L116.609 29.8712C116.596 29.9004 116.574 29.9252 116.547 29.9424C116.52 29.9597 116.488 29.9687 116.456 29.9685Z" fill="#51AF4E"/>
<path d="M106.793 24.7564H106.744C106.722 24.7515 106.701 24.7422 106.682 24.729C106.664 24.7157 106.648 24.6989 106.636 24.6794C106.624 24.66 106.616 24.6383 106.613 24.6157C106.609 24.5931 106.61 24.5701 106.616 24.5479L106.883 23.4013C106.888 23.3784 106.898 23.3569 106.911 23.3378C106.925 23.3187 106.942 23.3025 106.962 23.2901C106.982 23.2777 107.004 23.2693 107.027 23.2654C107.05 23.2615 107.074 23.2622 107.096 23.2675C107.119 23.2727 107.141 23.2824 107.16 23.296C107.179 23.3096 107.195 23.3268 107.207 23.3466C107.22 23.3665 107.228 23.3886 107.232 23.4116C107.236 23.4347 107.235 23.4584 107.23 23.4812L106.959 24.6278C106.95 24.6649 106.929 24.6977 106.898 24.721C106.868 24.7443 106.831 24.7568 106.793 24.7564Z" fill="#51AF4E"/>
<path d="M102.128 26.2749C102.095 26.2741 102.064 26.2645 102.037 26.2471L100.997 25.5834C100.975 25.5728 100.955 25.5576 100.939 25.5389C100.923 25.5202 100.912 25.4984 100.905 25.4748C100.898 25.4512 100.896 25.4265 100.9 25.4022C100.903 25.378 100.912 25.3547 100.925 25.334C100.938 25.3132 100.955 25.2955 100.976 25.2819C100.996 25.2684 101.019 25.2593 101.043 25.2553C101.067 25.2513 101.092 25.2524 101.116 25.2587C101.139 25.2649 101.162 25.2761 101.181 25.2915L102.221 25.9517C102.26 25.9767 102.287 26.0156 102.297 26.0604C102.308 26.1051 102.3 26.1521 102.277 26.1915C102.261 26.2166 102.239 26.2374 102.213 26.252C102.187 26.2665 102.157 26.2744 102.128 26.2749Z" fill="#51AF4E"/>
<path d="M102.533 32.936C102.5 32.9366 102.467 32.9269 102.44 32.9082L101.51 32.3245C101.49 32.3127 101.473 32.2971 101.46 32.2786C101.446 32.26 101.436 32.2389 101.431 32.2165C101.426 32.1941 101.425 32.1708 101.429 32.1482C101.433 32.1255 101.442 32.104 101.455 32.0847C101.479 32.0461 101.519 32.0189 101.564 32.0091C101.608 31.9993 101.655 32.0078 101.694 32.0326L102.624 32.6163C102.655 32.6365 102.679 32.6662 102.692 32.7009C102.705 32.7357 102.706 32.7738 102.696 32.8096C102.686 32.8454 102.665 32.877 102.636 32.8997C102.606 32.9225 102.57 32.9352 102.533 32.936Z" fill="#51AF4E"/>
<path d="M105.135 32.4878C105.089 32.4842 105.047 32.463 105.016 32.4287C104.986 32.3943 104.97 32.3495 104.972 32.3036L105.017 31.5183C105.019 31.4722 105.04 31.4289 105.074 31.398C105.108 31.367 105.153 31.3509 105.199 31.3532C105.245 31.3555 105.288 31.3761 105.319 31.4103C105.35 31.4445 105.366 31.4896 105.364 31.5357L105.319 32.3244C105.315 32.3702 105.294 32.4128 105.26 32.4433C105.225 32.4738 105.181 32.4897 105.135 32.4878Z" fill="#51AF4E"/>
<path d="M108.409 35.4067C108.363 35.4067 108.319 35.3884 108.287 35.3558C108.254 35.3232 108.236 35.279 108.236 35.233V34.4477C108.236 34.4016 108.254 34.3574 108.287 34.3248C108.319 34.2922 108.363 34.2739 108.409 34.2739C108.455 34.2739 108.499 34.2922 108.532 34.3248C108.564 34.3574 108.583 34.4016 108.583 34.4477V35.233C108.583 35.279 108.564 35.3232 108.532 35.3558C108.499 35.3884 108.455 35.4067 108.409 35.4067Z" fill="#51AF4E"/>
<path d="M107.219 38.9577H107.188L106.245 38.7805C106.222 38.7762 106.2 38.7674 106.181 38.7547C106.162 38.7419 106.145 38.7255 106.132 38.7063C106.119 38.6871 106.11 38.6655 106.105 38.6428C106.1 38.62 106.1 38.5966 106.104 38.5738C106.109 38.551 106.117 38.5292 106.13 38.5098C106.143 38.4904 106.159 38.4737 106.178 38.4606C106.198 38.4475 106.219 38.4384 106.242 38.4336C106.264 38.4289 106.288 38.4287 106.311 38.433L107.254 38.6137C107.277 38.6174 107.298 38.6257 107.317 38.638C107.336 38.6503 107.353 38.6663 107.365 38.6852C107.378 38.7041 107.387 38.7254 107.391 38.7477C107.395 38.7701 107.394 38.7931 107.389 38.8153C107.383 38.8555 107.362 38.8919 107.331 38.9181C107.3 38.9442 107.26 38.9583 107.219 38.9577Z" fill="#51AF4E"/>
<path d="M106.616 28.801H106.585C106.54 28.7933 106.5 28.7682 106.473 28.7312C106.446 28.6941 106.435 28.648 106.443 28.6029L106.578 27.8385C106.582 27.8158 106.59 27.7942 106.602 27.7747C106.614 27.7553 106.63 27.7385 106.649 27.7252C106.667 27.712 106.689 27.7026 106.711 27.6976C106.733 27.6925 106.756 27.692 106.779 27.696C106.824 27.7045 106.864 27.7303 106.891 27.7679C106.917 27.8055 106.928 27.852 106.921 27.8975L106.786 28.662C106.779 28.7015 106.757 28.7372 106.726 28.7626C106.695 28.7881 106.656 28.8017 106.616 28.801Z" fill="#51AF4E"/>
<path d="M117.584 36.734C117.552 36.7311 117.522 36.719 117.497 36.6992C117.478 36.6866 117.462 36.6704 117.449 36.6514C117.437 36.6325 117.428 36.6112 117.424 36.5889C117.42 36.5665 117.42 36.5435 117.425 36.5213C117.43 36.4991 117.439 36.4781 117.452 36.4594L118.035 35.6047C118.046 35.5829 118.062 35.5638 118.081 35.5486C118.1 35.5334 118.122 35.5224 118.146 35.5164C118.17 35.5105 118.195 35.5096 118.219 35.5139C118.243 35.5183 118.266 35.5277 118.286 35.5415C118.306 35.5553 118.323 35.5733 118.336 35.5943C118.349 35.6152 118.357 35.6386 118.36 35.663C118.364 35.6873 118.361 35.7121 118.354 35.7356C118.347 35.759 118.335 35.7807 118.319 35.7992L117.736 36.654C117.72 36.6795 117.697 36.7003 117.671 36.7143C117.644 36.7283 117.614 36.7351 117.584 36.734Z" fill="#51AF4E"/>
<path d="M120.095 40.2606C120.055 40.2601 120.016 40.2467 119.984 40.2223C119.949 40.1921 119.927 40.1493 119.923 40.1032C119.92 40.0571 119.934 40.0113 119.963 39.9756L120.747 39.034C120.761 39.0161 120.779 39.0013 120.799 38.9903C120.819 38.9794 120.841 38.9726 120.863 38.9703C120.886 38.9681 120.909 38.9704 120.931 38.9771C120.952 38.9839 120.972 38.9949 120.99 39.0096C121.008 39.0241 121.023 39.042 121.034 39.0623C121.045 39.0826 121.051 39.1049 121.054 39.1279C121.056 39.1509 121.054 39.174 121.047 39.1961C121.04 39.2182 121.029 39.2386 121.014 39.2563L120.23 40.198C120.214 40.2177 120.193 40.2334 120.169 40.2442C120.146 40.255 120.121 40.2606 120.095 40.2606Z" fill="#51AF4E"/>
<path d="M116.803 42.6062C116.763 42.6068 116.724 42.5933 116.692 42.568C116.657 42.5378 116.636 42.495 116.632 42.4489C116.628 42.4028 116.642 42.357 116.671 42.3213L117.455 41.3796C117.486 41.3449 117.528 41.323 117.574 41.3185C117.619 41.314 117.665 41.3271 117.702 41.3553C117.737 41.3856 117.758 41.4283 117.762 41.4744C117.766 41.5205 117.752 41.5663 117.722 41.602L116.938 42.5437C116.922 42.5635 116.901 42.5794 116.878 42.5903C116.854 42.6011 116.829 42.6065 116.803 42.6062Z" fill="#51AF4E"/>
<path d="M112.221 39.2495C112.187 39.2496 112.154 39.2398 112.126 39.2213C112.098 39.2028 112.075 39.1763 112.062 39.1453L111.684 38.2696C111.671 38.2485 111.664 38.225 111.661 38.2007C111.659 38.1764 111.661 38.1519 111.669 38.1287C111.677 38.1055 111.689 38.0841 111.705 38.0661C111.722 38.048 111.742 38.0335 111.764 38.0237C111.786 38.0139 111.81 38.0089 111.835 38.009C111.859 38.0092 111.883 38.0145 111.905 38.0246C111.928 38.0346 111.947 38.0493 111.964 38.0676C111.98 38.0858 111.992 38.1073 111.999 38.1306L112.381 39.0063C112.39 39.0272 112.395 39.0498 112.395 39.0727C112.396 39.0957 112.392 39.1184 112.383 39.1397C112.375 39.161 112.362 39.1805 112.346 39.1969C112.331 39.2134 112.312 39.2265 112.291 39.2356C112.269 39.2449 112.245 39.2496 112.221 39.2495Z" fill="#51AF4E"/>
<path d="M113.185 48.9131C113.14 48.9124 113.096 48.8937 113.064 48.8609L112.641 48.4335C112.609 48.4011 112.591 48.3574 112.591 48.3119C112.591 48.2665 112.609 48.2228 112.641 48.1903C112.657 48.174 112.676 48.1611 112.697 48.1523C112.718 48.1435 112.741 48.1389 112.764 48.1389C112.787 48.1389 112.81 48.1435 112.831 48.1523C112.852 48.1611 112.871 48.174 112.887 48.1903L113.314 48.6142C113.346 48.6473 113.364 48.6915 113.364 48.7376C113.364 48.7836 113.346 48.8279 113.314 48.8609C113.297 48.8778 113.277 48.8911 113.255 48.9001C113.233 48.9091 113.209 48.9135 113.185 48.9131Z" fill="#51AF4E"/>
<path d="M117.719 48.5307C117.693 48.5304 117.667 48.5244 117.643 48.5133C117.601 48.4937 117.57 48.4587 117.554 48.4158C117.539 48.3729 117.54 48.3255 117.559 48.284L117.965 47.4292C117.975 47.4085 117.988 47.3898 118.005 47.3743C118.021 47.3589 118.041 47.3469 118.062 47.3391C118.083 47.3313 118.106 47.3279 118.129 47.3291C118.152 47.3302 118.174 47.3359 118.194 47.3458C118.215 47.3555 118.234 47.3693 118.249 47.3862C118.265 47.4032 118.277 47.4231 118.284 47.4448C118.292 47.4664 118.295 47.4894 118.294 47.5124C118.293 47.5354 118.287 47.5579 118.277 47.5786L117.875 48.4299C117.861 48.4596 117.839 48.4847 117.811 48.5025C117.784 48.5203 117.752 48.53 117.719 48.5307Z" fill="#51AF4E"/>
<path d="M112.988 53.1799C112.964 53.1808 112.94 53.1762 112.917 53.1666C112.895 53.157 112.875 53.1425 112.859 53.1243L112.419 52.6274C112.404 52.6104 112.392 52.5906 112.385 52.5691C112.378 52.5476 112.375 52.5248 112.376 52.5021C112.378 52.4795 112.384 52.4574 112.394 52.4371C112.405 52.4168 112.419 52.3989 112.436 52.3842C112.452 52.3676 112.471 52.3543 112.492 52.3453C112.512 52.3362 112.535 52.3315 112.558 52.3315C112.58 52.3315 112.603 52.3362 112.624 52.3453C112.645 52.3543 112.663 52.3676 112.679 52.3842L113.116 52.8776C113.14 52.902 113.155 52.9329 113.161 52.9663C113.167 52.9998 113.163 53.0342 113.149 53.0652C113.135 53.0962 113.113 53.1223 113.084 53.1403C113.055 53.1583 113.022 53.1672 112.988 53.166V53.1799Z" fill="#51AF4E"/>
<path d="M118.884 53.8332C118.855 53.8333 118.827 53.8262 118.801 53.8123C118.761 53.7897 118.732 53.7523 118.719 53.7082C118.706 53.6642 118.71 53.6168 118.732 53.5761L119.231 52.683C119.253 52.6425 119.291 52.6124 119.335 52.5994C119.379 52.5863 119.427 52.5914 119.467 52.6136C119.508 52.6357 119.538 52.673 119.551 52.7173C119.564 52.7616 119.559 52.8093 119.536 52.8498L119.044 53.7498C119.028 53.7773 119.004 53.7997 118.976 53.8144C118.948 53.8291 118.916 53.8356 118.884 53.8332Z" fill="#51AF4E"/>
<path d="M115.565 57.812C115.538 57.8117 115.512 57.8053 115.488 57.7932C115.464 57.7812 115.443 57.7638 115.426 57.7425L114.979 57.1587C114.954 57.1221 114.944 57.0774 114.951 57.0337C114.958 56.9901 114.981 56.9507 115.016 56.9237C115.051 56.8966 115.095 56.884 115.139 56.8883C115.183 56.8926 115.224 56.9135 115.253 56.9467L115.704 57.5305C115.73 57.5677 115.742 57.6138 115.735 57.6591C115.729 57.7045 115.705 57.7455 115.669 57.7737C115.64 57.798 115.603 57.8115 115.565 57.812Z" fill="#51AF4E"/>
<path d="M120.185 59.2016C120.148 59.2015 120.112 59.1907 120.081 59.1704C120.044 59.1427 120.02 59.1016 120.013 59.0559C120.007 59.0103 120.019 58.964 120.046 58.9271L120.605 58.1627C120.632 58.126 120.673 58.1016 120.719 58.0944C120.764 58.0873 120.81 58.0981 120.848 58.1245C120.866 58.1379 120.882 58.1548 120.894 58.1744C120.906 58.1939 120.914 58.2155 120.917 58.2381C120.921 58.2607 120.92 58.2838 120.914 58.306C120.909 58.3283 120.899 58.3492 120.886 58.3677L120.324 59.1321C120.308 59.1535 120.287 59.1709 120.262 59.1829C120.238 59.195 120.212 59.2014 120.185 59.2016Z" fill="#51AF4E"/>
<path d="M113.029 59.7437C112.985 59.7434 112.943 59.726 112.911 59.695L112.058 58.9098C112.04 58.8948 112.024 58.8761 112.014 58.855C112.003 58.8338 111.996 58.8107 111.994 58.7869C111.993 58.7632 111.996 58.7393 112.004 58.7169C112.012 58.6944 112.024 58.6738 112.04 58.6564C112.057 58.639 112.076 58.6251 112.098 58.6155C112.12 58.606 112.143 58.6011 112.167 58.6011C112.191 58.601 112.214 58.6059 112.236 58.6154C112.258 58.6248 112.278 58.6387 112.294 58.6561L113.147 59.4414C113.173 59.4651 113.191 59.4961 113.2 59.5303C113.208 59.5646 113.205 59.6004 113.192 59.6332C113.179 59.666 113.157 59.6941 113.128 59.7138C113.099 59.7335 113.064 59.744 113.029 59.7437Z" fill="#51AF4E"/>
<path d="M115.818 61.6099C115.799 61.6146 115.779 61.6146 115.759 61.6099C115.738 61.6022 115.718 61.5903 115.702 61.5748C115.685 61.5594 115.671 61.5407 115.662 61.52C115.653 61.4993 115.647 61.4768 115.647 61.4541C115.646 61.4313 115.65 61.4087 115.659 61.3875L115.908 60.6926C115.925 60.6505 115.957 60.6165 115.998 60.5979C116.039 60.5793 116.086 60.5775 116.129 60.5929C116.171 60.6083 116.206 60.6396 116.226 60.6803C116.245 60.721 116.249 60.7678 116.234 60.8107L115.981 61.5057C115.968 61.5376 115.945 61.5646 115.916 61.5833C115.887 61.6019 115.853 61.6112 115.818 61.6099Z" fill="#51AF4E"/>
<path d="M111.833 64.3372C111.797 64.3358 111.762 64.3238 111.732 64.3025L110.966 63.743C110.947 63.7296 110.932 63.7126 110.92 63.6931C110.908 63.6736 110.9 63.6519 110.896 63.6294C110.893 63.6068 110.894 63.5837 110.899 63.5615C110.904 63.5393 110.914 63.5183 110.927 63.4998C110.941 63.4813 110.958 63.4657 110.977 63.4538C110.997 63.4418 111.018 63.4339 111.041 63.4303C111.063 63.4268 111.086 63.4277 111.109 63.4331C111.131 63.4384 111.152 63.4481 111.17 63.4616L111.937 64.021C111.973 64.0487 111.998 64.0895 112.005 64.1349C112.012 64.1803 112.001 64.2267 111.975 64.2643C111.958 64.2866 111.937 64.3047 111.912 64.3174C111.888 64.33 111.86 64.3368 111.833 64.3372Z" fill="#51AF4E"/>
<path d="M118.818 62.6868C118.789 62.687 118.761 62.6798 118.735 62.666C118.695 62.6427 118.666 62.6045 118.653 62.5596C118.641 62.5147 118.647 62.4668 118.669 62.4262L119.245 61.4185C119.268 61.3784 119.306 61.3491 119.351 61.3371C119.395 61.325 119.443 61.3312 119.483 61.3542C119.523 61.3773 119.552 61.4153 119.564 61.4599C119.576 61.5046 119.57 61.5522 119.547 61.5923L118.971 62.5999C118.956 62.6267 118.933 62.6489 118.907 62.6641C118.88 62.6794 118.849 62.6872 118.818 62.6868Z" fill="#51AF4E"/>
<path d="M39.4532 39.7222C39.0268 40.4954 38.4773 41.1937 37.8264 41.7896C37.594 36.7165 37.4344 32.6962 37.3859 30.6704C37.4206 28.7975 35.3533 27.0601 33.5704 27.0601C31.7875 27.0601 30.3099 27.5813 29.8521 30.5801C29.7341 31.3619 29.8243 32.9846 30.0394 35.2084C28.4406 33.6503 27.3943 31.6113 27.0598 29.4021C26.5707 25.8092 22.8038 26.4833 23.1507 30.1909C23.4976 33.5683 25.4365 38.4678 30.4937 39.4511C30.8822 42.8738 31.3748 46.9775 31.8049 51.3174C30.2613 50.3514 27.9547 48.4368 27.0529 45.2331C26.0678 41.7201 22.45 42.9224 23.3415 46.5744C24.1705 49.9588 26.8482 54.681 32.1275 54.8061C32.4743 59.0314 32.7622 63.3609 32.79 67.4195H39.1549C38.749 60.3483 38.3571 52.895 38.0449 46.4701C40.1261 45.4555 41.628 43.5513 42.4674 41.8939C44.0144 38.8708 41.0487 36.8485 39.4532 39.7222Z" fill="#51AF4E"/>
<path opacity="0.2" d="M39.4532 39.7222C39.0268 40.4954 38.4773 41.1937 37.8264 41.7896C37.594 36.7165 37.4344 32.6962 37.3859 30.6704C37.4206 28.7975 35.3533 27.0601 33.5704 27.0601C31.7875 27.0601 30.3099 27.5813 29.8521 30.5801C29.7341 31.3619 29.8243 32.9846 30.0394 35.2084C28.4406 33.6503 27.3943 31.6113 27.0598 29.4021C26.5707 25.8092 22.8038 26.4833 23.1507 30.1909C23.4976 33.5683 25.4365 38.4678 30.4937 39.4511C30.8822 42.8738 31.3748 46.9775 31.8049 51.3174C30.2613 50.3514 27.9547 48.4368 27.0529 45.2331C26.0678 41.7201 22.45 42.9224 23.3415 46.5744C24.1705 49.9588 26.8482 54.681 32.1275 54.8061C32.4743 59.0314 32.7622 63.3609 32.79 67.4195H39.1549C38.749 60.3483 38.3571 52.895 38.0449 46.4701C40.1261 45.4555 41.628 43.5513 42.4674 41.8939C44.0144 38.8708 41.0487 36.8485 39.4532 39.7222Z" fill="#51AF4E" fill-opacity="0.2"/>
<path d="M30.5042 39.4513C30.5458 39.7988 30.584 40.1462 30.6291 40.4937C31.2743 40.1575 31.8804 39.7508 32.4362 39.281C31.8126 39.4797 31.1529 39.5378 30.5042 39.4513Z" fill="#51AF4E"/>
<path d="M38.0658 46.47C37.4501 46.6351 36.8054 46.66 36.1788 46.5429C36.1788 46.5429 37.4241 47.429 38.1213 47.5854C38.097 47.2205 38.0658 46.8418 38.0658 46.47Z" fill="#51AF4E"/>
<path d="M32.2351 55.9806C32.8247 55.7686 33.9035 54.4726 33.9694 54.3892C33.3914 54.6487 32.7677 54.7905 32.1345 54.8061C32.1691 55.1953 32.2038 55.5879 32.2351 55.9806Z" fill="#51AF4E"/>
<path d="M30.4105 31.1394C30.3715 31.1389 30.3337 31.1255 30.303 31.1012L29.6301 30.5591C29.6101 30.5458 29.5931 30.5285 29.5801 30.5082C29.5671 30.488 29.5585 30.4653 29.5548 30.4415C29.551 30.4177 29.5523 30.3934 29.5584 30.3702C29.5645 30.3469 29.5754 30.3252 29.5903 30.3063C29.6053 30.2875 29.624 30.272 29.6452 30.2608C29.6665 30.2496 29.6898 30.2429 29.7137 30.2412C29.7377 30.2395 29.7617 30.2427 29.7844 30.2508C29.807 30.2589 29.8277 30.2716 29.8452 30.2881L30.5389 30.8302C30.5671 30.8528 30.5875 30.8837 30.5973 30.9186C30.6071 30.9534 30.6058 30.9904 30.5936 31.0245C30.5813 31.0586 30.5588 31.0879 30.5291 31.1086C30.4994 31.1292 30.464 31.1399 30.4279 31.1394H30.4105Z" fill="#51AF4E"/>
<path d="M35.8077 28.4396C35.7776 28.4394 35.7479 28.4322 35.721 28.4188C35.6817 28.3955 35.6529 28.3579 35.6406 28.3139C35.6283 28.2699 35.6335 28.2228 35.6551 28.1825L36.0019 27.564C36.0245 27.5234 36.0622 27.4935 36.1067 27.4808C36.1513 27.4681 36.1991 27.4736 36.2395 27.4962C36.28 27.5188 36.3099 27.5566 36.3226 27.6012C36.3353 27.6458 36.3297 27.6937 36.3072 27.7342L35.9603 28.3528C35.9444 28.3791 35.922 28.4008 35.8953 28.416C35.8686 28.4312 35.8384 28.4394 35.8077 28.4396Z" fill="#51AF4E"/>
<path d="M33.2618 30.6774C33.2331 30.6778 33.2047 30.671 33.1793 30.6576C33.1539 30.6443 33.1322 30.6248 33.1161 30.601L32.8247 30.1562C32.8122 30.1371 32.8036 30.1156 32.7993 30.0931C32.7951 30.0706 32.7953 30.0475 32.7999 30.025C32.8046 30.0026 32.8136 29.9813 32.8265 29.9624C32.8394 29.9435 32.8559 29.9273 32.875 29.9147C32.8941 29.9022 32.9156 29.8935 32.938 29.8893C32.9605 29.885 32.9836 29.8852 33.006 29.8899C33.0283 29.8946 33.0496 29.9036 33.0685 29.9165C33.0874 29.9294 33.1036 29.9459 33.1161 29.9651L33.404 30.4099C33.4291 30.4482 33.4381 30.4949 33.429 30.5398C33.4199 30.5847 33.3934 30.6242 33.3554 30.6496C33.3278 30.6683 33.2951 30.678 33.2618 30.6774Z" fill="#51AF4E"/>
<path d="M31.4303 27.5882C31.3883 27.5887 31.3477 27.5739 31.3158 27.5466L30.8718 27.1608C30.8536 27.1461 30.8385 27.1279 30.8275 27.1072C30.8165 27.0865 30.8098 27.0638 30.8078 27.0404C30.8058 27.017 30.8086 26.9935 30.8159 26.9712C30.8232 26.9489 30.835 26.9284 30.8504 26.9108C30.8659 26.8932 30.8848 26.8789 30.9059 26.8688C30.927 26.8587 30.95 26.8529 30.9733 26.852C30.9967 26.851 31.0201 26.8547 31.042 26.863C31.0639 26.8713 31.0839 26.884 31.1008 26.9002L31.5447 27.2859C31.5609 27.3018 31.5737 27.3207 31.5825 27.3416C31.5912 27.3625 31.5958 27.3849 31.5958 27.4076C31.5958 27.4302 31.5912 27.4526 31.5825 27.4735C31.5737 27.4944 31.5609 27.5133 31.5447 27.5292C31.531 27.5466 31.5136 27.5609 31.4939 27.5711C31.4741 27.5813 31.4525 27.5871 31.4303 27.5882Z" fill="#51AF4E"/>
<path d="M37.0564 33.5719C37.0235 33.5716 36.9915 33.562 36.9639 33.5442C36.9363 33.5263 36.9143 33.501 36.9005 33.4712C36.8867 33.4413 36.8816 33.4082 36.8859 33.3756C36.8901 33.343 36.9036 33.3122 36.9246 33.2869L37.3269 32.804C37.3571 32.769 37.3998 32.7472 37.4458 32.7433C37.4919 32.7394 37.5376 32.7537 37.5732 32.7831C37.5908 32.7975 37.6053 32.8153 37.6159 32.8355C37.6265 32.8556 37.633 32.8776 37.6349 32.9003C37.6368 32.923 37.6342 32.9458 37.6272 32.9675C37.6202 32.9891 37.6089 33.0091 37.594 33.0263L37.1882 33.5093C37.1722 33.5289 37.1521 33.5447 37.1293 33.5555C37.1065 33.5663 37.0816 33.5719 37.0564 33.5719Z" fill="#51AF4E"/>
<path d="M33.4317 37.0884C33.3952 37.0887 33.3597 37.0765 33.3311 37.0537L32.9288 36.7653C32.91 36.7521 32.894 36.7354 32.8818 36.716C32.8695 36.6966 32.8612 36.675 32.8574 36.6524C32.8535 36.6298 32.8541 36.6066 32.8592 36.5842C32.8643 36.5619 32.8738 36.5407 32.8871 36.5221C32.9148 36.4854 32.9555 36.4609 33.0008 36.4538C33.0461 36.4467 33.0924 36.4574 33.1299 36.4838L33.5358 36.7722C33.5724 36.7999 33.5968 36.8408 33.6039 36.8861C33.611 36.9315 33.6003 36.9779 33.5739 37.0155C33.5574 37.0378 33.536 37.0559 33.5113 37.0686C33.4867 37.0812 33.4594 37.088 33.4317 37.0884Z" fill="#51AF4E"/>
<path d="M32.797 34.1904C32.7594 34.1906 32.7228 34.1784 32.6929 34.1556L32.1136 33.7108C32.094 33.6975 32.0774 33.6803 32.0647 33.6603C32.0519 33.6403 32.0435 33.6179 32.0397 33.5945C32.036 33.5711 32.0371 33.5472 32.0429 33.5242C32.0487 33.5012 32.0592 33.4796 32.0737 33.4609C32.0882 33.4421 32.1063 33.4265 32.127 33.415C32.1478 33.4035 32.1706 33.3964 32.1942 33.3941C32.2177 33.3918 32.2415 33.3944 32.2641 33.4016C32.2866 33.4089 32.3074 33.4207 32.3252 33.4363L32.9045 33.8811C32.9324 33.9036 32.9527 33.9341 32.9626 33.9686C32.9725 34.0031 32.9715 34.0399 32.9597 34.0738C32.9479 34.1077 32.926 34.1371 32.8968 34.158C32.8677 34.1788 32.8328 34.1902 32.797 34.1904Z" fill="#51AF4E"/>
<path d="M25.8875 44.1525C25.8559 44.1523 25.8251 44.1434 25.7982 44.1269C25.7713 44.1103 25.7494 44.0868 25.7349 44.0587C25.7241 44.0387 25.7174 44.0167 25.7153 43.9941C25.7131 43.9714 25.7155 43.9486 25.7223 43.9269C25.729 43.9052 25.7401 43.8851 25.7548 43.8677C25.7695 43.8504 25.7875 43.8362 25.8077 43.8259L26.7165 43.3603C26.757 43.3394 26.8041 43.3354 26.8476 43.349C26.8911 43.3627 26.9275 43.3929 26.9489 43.4332C26.9596 43.4537 26.9662 43.4761 26.9681 43.4992C26.9701 43.5222 26.9674 43.5455 26.9603 43.5675C26.9532 43.5895 26.9418 43.6098 26.9267 43.6274C26.9117 43.6449 26.8933 43.6592 26.8726 43.6695L25.9673 44.1351C25.9421 44.1462 25.915 44.1522 25.8875 44.1525Z" fill="#51AF4E"/>
<path d="M36.4771 30.9311C36.4374 30.9308 36.3992 30.916 36.3696 30.8894C36.3518 30.8752 36.337 30.8576 36.326 30.8376C36.3151 30.8176 36.3083 30.7956 36.3061 30.7729C36.3038 30.7503 36.3061 30.7273 36.3129 30.7056C36.3196 30.6838 36.3306 30.6636 36.3453 30.6462L36.7303 30.1736C36.7445 30.1557 36.762 30.1409 36.782 30.13C36.802 30.119 36.824 30.1122 36.8466 30.11C36.8692 30.1077 36.8921 30.11 36.9138 30.1168C36.9356 30.1235 36.9557 30.1346 36.9731 30.1493C36.991 30.1634 37.0058 30.1811 37.0167 30.2011C37.0276 30.2211 37.0344 30.2431 37.0367 30.2658C37.0389 30.2884 37.0366 30.3114 37.0299 30.3331C37.0231 30.3549 37.0121 30.3751 36.9974 30.3925L36.6124 30.8651C36.5961 30.8854 36.5755 30.9018 36.5521 30.9132C36.5287 30.9246 36.5031 30.9307 36.4771 30.9311Z" fill="#51AF4E"/>
<path d="M27.5281 47.398C27.5053 47.4028 27.4816 47.4028 27.4588 47.398C27.4379 47.3893 27.4189 47.3765 27.4031 47.3603C27.3872 47.3442 27.3747 47.325 27.3663 47.304C27.3579 47.283 27.3538 47.2605 27.3542 47.2378C27.3545 47.2152 27.3594 47.1928 27.3686 47.1721L27.6218 46.5675C27.63 46.5456 27.6426 46.5257 27.6588 46.5088C27.675 46.4919 27.6943 46.4785 27.7158 46.4693C27.7373 46.4601 27.7604 46.4554 27.7837 46.4553C27.807 46.4553 27.8302 46.46 27.8516 46.4691C27.8731 46.4782 27.8926 46.4916 27.9088 46.5084C27.925 46.5253 27.9376 46.5452 27.946 46.567C27.9543 46.5889 27.9581 46.6122 27.9573 46.6355C27.9564 46.6589 27.9508 46.6819 27.9409 46.703L27.6877 47.3076C27.6722 47.3361 27.649 47.3597 27.6208 47.3756C27.5926 47.3916 27.5605 47.3993 27.5281 47.398Z" fill="#51AF4E"/>
<path d="M25.1105 32.9292C25.0799 32.9298 25.0497 32.9213 25.0238 32.9049L24.1913 32.4149C24.1715 32.4038 24.1541 32.3887 24.1401 32.3707C24.1262 32.3527 24.116 32.3321 24.1102 32.31C24.1044 32.288 24.103 32.265 24.1063 32.2424C24.1095 32.2199 24.1172 32.1982 24.1289 32.1786C24.1527 32.139 24.1911 32.1102 24.2358 32.0985C24.2806 32.0868 24.3281 32.0931 24.3682 32.1161L25.1903 32.606C25.2293 32.6305 25.2573 32.6692 25.2683 32.7139C25.2793 32.7587 25.2725 32.806 25.2493 32.8458C25.2349 32.8702 25.2147 32.8905 25.1904 32.9051C25.1662 32.9197 25.1387 32.9279 25.1105 32.9292Z" fill="#51AF4E"/>
<path d="M37.6253 60.1085C37.5946 60.1091 37.5644 60.1006 37.5385 60.0841C37.4986 60.0615 37.4692 60.0239 37.4568 59.9796C37.4445 59.9353 37.4502 59.888 37.4726 59.8479L37.8611 59.1737C37.8837 59.1341 37.921 59.1051 37.9649 59.093C38.0088 59.081 38.0557 59.0869 38.0953 59.1095C38.1348 59.132 38.1638 59.1694 38.1758 59.2134C38.1879 59.2574 38.182 59.3044 38.1594 59.344L37.7744 60.0216C37.7593 60.0478 37.7375 60.0697 37.7114 60.0849C37.6852 60.1002 37.6555 60.1083 37.6253 60.1085Z" fill="#51AF4E"/>
<path d="M33.7717 58.7777C33.7365 58.7775 33.7023 58.7668 33.6732 58.747C33.6442 58.7272 33.6217 58.6992 33.6086 58.6665L33.2097 57.6658C33.1984 57.6444 33.1917 57.6209 33.19 57.5967C33.1882 57.5726 33.1916 57.5483 33.1998 57.5255C33.208 57.5027 33.2208 57.4819 33.2375 57.4644C33.2542 57.4469 33.2744 57.4331 33.2967 57.4238C33.3191 57.4146 33.3431 57.4101 33.3673 57.4107C33.3915 57.4113 33.4152 57.417 33.4371 57.4273C33.4589 57.4377 33.4784 57.4525 33.4942 57.4708C33.51 57.4892 33.5218 57.5106 33.5288 57.5338L33.9347 58.538C33.9431 58.5592 33.9473 58.5819 33.947 58.6047C33.9467 58.6275 33.9419 58.6501 33.9329 58.6711C33.9239 58.6921 33.9108 58.711 33.8944 58.727C33.8781 58.7429 33.8587 58.7554 33.8376 58.7638C33.8165 58.7721 33.7942 58.7768 33.7717 58.7777Z" fill="#51AF4E"/>
<path d="M36.5638 57.8117C36.5422 57.8166 36.5196 57.8166 36.4979 57.8117C36.4564 57.7933 36.4234 57.7596 36.406 57.7175C36.3886 57.6755 36.3879 57.6283 36.4043 57.5858L36.6922 56.8909C36.7009 56.8695 36.7138 56.8501 36.7301 56.8338C36.7463 56.8175 36.7657 56.8046 36.787 56.7959C36.8083 56.7872 36.8312 56.7828 36.8542 56.783C36.8772 56.7832 36.9 56.7879 36.9211 56.797C36.9627 56.8154 36.9956 56.8491 37.0131 56.8912C37.0305 56.9333 37.0311 56.9804 37.0148 57.0229L36.7234 57.7179C36.7084 57.747 36.6854 57.7713 36.6572 57.7879C36.6289 57.8045 36.5966 57.8127 36.5638 57.8117Z" fill="#51AF4E"/>
<path d="M35.2909 65.6475C35.263 65.6483 35.2353 65.642 35.2105 65.6292C35.1856 65.6165 35.1644 65.5977 35.1487 65.5745C35.1354 65.5559 35.1259 65.5347 35.1208 65.5124C35.1157 65.49 35.115 65.4668 35.1189 65.4442C35.1228 65.4216 35.1311 65.4 35.1433 65.3806C35.1556 65.3612 35.1715 65.3445 35.1903 65.3313L35.8251 64.89C35.8437 64.8767 35.8648 64.8672 35.8871 64.8621C35.9094 64.8569 35.9326 64.8563 35.9551 64.8602C35.9777 64.864 35.9993 64.8724 36.0186 64.8846C36.038 64.8969 36.0547 64.9129 36.0679 64.9317C36.0938 64.9697 36.104 65.0164 36.0963 65.0618C36.0885 65.1072 36.0634 65.1478 36.0262 65.1749L35.388 65.6162C35.3606 65.6383 35.326 65.6495 35.2909 65.6475Z" fill="#51AF4E"/>
<path d="M33.848 62.6175C33.8136 62.6178 33.78 62.6076 33.7515 62.5884C33.723 62.5692 33.701 62.5417 33.6884 62.5097L33.4942 62.0268C33.4772 61.9839 33.4778 61.936 33.496 61.8937C33.5142 61.8513 33.5485 61.8179 33.5913 61.8009C33.6341 61.7838 33.6819 61.7845 33.7241 61.8028C33.7664 61.821 33.7997 61.8553 33.8167 61.8982L34.0075 62.3812C34.0248 62.4236 34.0246 62.4711 34.0071 62.5134C33.9895 62.5557 33.956 62.5894 33.9139 62.607L33.848 62.6175Z" fill="#51AF4E"/>
<path d="M23.123 29.5377C23.0914 29.5374 23.0605 29.5285 23.0336 29.512C23.0068 29.4955 22.9849 29.4719 22.9704 29.4438C22.9597 29.4236 22.9532 29.4014 22.9513 29.3787C22.9494 29.3559 22.952 29.3329 22.9592 29.3112C22.9663 29.2895 22.9777 29.2694 22.9927 29.2522C23.0078 29.235 23.0261 29.221 23.0467 29.211L23.5357 28.9608C23.5768 28.9398 23.6244 28.9357 23.6685 28.9493C23.7125 28.9629 23.7495 28.9933 23.7716 29.0338C23.7914 29.0755 23.7946 29.1232 23.7804 29.1672C23.7662 29.2111 23.7358 29.2479 23.6953 29.2701L23.2028 29.5203C23.1781 29.5329 23.1506 29.5389 23.123 29.5377Z" fill="#51AF4E"/>
<path d="M28.1247 37.495C28.0956 37.4956 28.0668 37.4886 28.0412 37.4745C28.0156 37.4605 27.9942 37.44 27.979 37.4151C27.9542 37.3764 27.9458 37.3294 27.9556 37.2844C27.9653 37.2395 27.9925 37.2002 28.031 37.1753L28.4889 36.8904C28.5081 36.8778 28.5297 36.8692 28.5523 36.8652C28.5749 36.8612 28.5981 36.8618 28.6204 36.867C28.6428 36.8721 28.6639 36.8818 28.6824 36.8954C28.7009 36.909 28.7165 36.9262 28.7282 36.946C28.7518 36.9854 28.7592 37.0324 28.7488 37.0771C28.7385 37.1218 28.7112 37.1608 28.6727 37.1857L28.2149 37.4707C28.1877 37.4872 28.1565 37.4957 28.1247 37.495Z" fill="#51AF4E"/>
<path d="M26.8448 35.7403C26.8118 35.7409 26.7793 35.7317 26.7515 35.7137C26.7237 35.6958 26.7018 35.67 26.6888 35.6395C26.679 35.6188 26.6735 35.5964 26.6726 35.5735C26.6716 35.5506 26.6753 35.5278 26.6834 35.5064C26.6915 35.485 26.7039 35.4654 26.7197 35.4489C26.7355 35.4324 26.7545 35.4192 26.7755 35.4102L27.3582 35.1461C27.3786 35.1362 27.4009 35.1305 27.4235 35.1294C27.4462 35.1282 27.4689 35.1316 27.4902 35.1394C27.5116 35.1472 27.5311 35.1592 27.5478 35.1746C27.5644 35.1901 27.5778 35.2088 27.5871 35.2295C27.6051 35.2721 27.6062 35.3199 27.5901 35.3632C27.5739 35.4065 27.5418 35.442 27.5004 35.4623L26.9177 35.7264C26.8946 35.736 26.8698 35.7408 26.8448 35.7403Z" fill="#51AF4E"/>
<path d="M23.7647 46.0045H23.7231L22.9357 45.8134C22.8911 45.8026 22.8527 45.7747 22.8286 45.7356C22.8046 45.6966 22.7969 45.6496 22.8074 45.6049C22.8188 45.5607 22.8469 45.5227 22.8857 45.4988C22.9244 45.4748 22.9709 45.4668 23.0155 45.4763L23.8028 45.6674C23.8488 45.6725 23.8909 45.6957 23.9199 45.7318C23.9488 45.768 23.9623 45.8142 23.9572 45.8603C23.9521 45.9064 23.929 45.9485 23.8929 45.9775C23.8568 46.0065 23.8107 46.02 23.7647 46.0149V46.0045Z" fill="#51AF4E"/>
<path d="M27.2541 50.5076L26.543 50.4416C26.5202 50.4404 26.4979 50.4344 26.4774 50.4241C26.457 50.4139 26.4389 50.3995 26.4242 50.3819C26.4096 50.3642 26.3987 50.3438 26.3923 50.3218C26.3859 50.2998 26.3841 50.2767 26.387 50.254C26.3887 50.2313 26.3949 50.2092 26.4054 50.1889C26.4158 50.1687 26.4302 50.1507 26.4476 50.1361C26.4651 50.1216 26.4853 50.1106 26.507 50.104C26.5288 50.0974 26.5517 50.0952 26.5743 50.0976L27.268 50.1602C27.314 50.1602 27.3581 50.1785 27.3906 50.2111C27.4231 50.2436 27.4414 50.2878 27.4414 50.3339C27.4414 50.38 27.4231 50.4242 27.3906 50.4568C27.3581 50.4893 27.314 50.5076 27.268 50.5076H27.2541Z" fill="#51AF4E"/>
<path d="M38.5513 63.17C38.525 63.1711 38.4987 63.166 38.4746 63.1551C38.4505 63.1443 38.4293 63.1279 38.4126 63.1074C38.3875 63.0691 38.3785 63.0224 38.3876 62.9775C38.3967 62.9326 38.4231 62.8931 38.4612 62.8677L38.9919 62.5202C39.0301 62.4951 39.0767 62.4861 39.1215 62.4952C39.1664 62.5043 39.2058 62.5308 39.2312 62.5688C39.2441 62.5877 39.2531 62.6089 39.2576 62.6313C39.2621 62.6536 39.2621 62.6767 39.2576 62.699C39.2531 62.7214 39.2441 62.7426 39.2312 62.7614C39.2184 62.7803 39.2018 62.7963 39.1826 62.8086L38.6519 63.1561C38.6208 63.1716 38.5855 63.1764 38.5513 63.17Z" fill="#51AF4E"/>
<path d="M27.6599 33.0231H27.6183C27.5744 33.0116 27.5367 32.9833 27.5134 32.9444C27.49 32.9054 27.4829 32.8588 27.4934 32.8146L27.7119 31.9285C27.7167 31.9063 27.7261 31.8852 27.7393 31.8667C27.7526 31.8482 27.7695 31.8326 27.789 31.8209C27.8085 31.8092 27.8302 31.8016 27.8527 31.7986C27.8752 31.7956 27.8982 31.7972 27.92 31.8034C27.9646 31.8142 28.0031 31.8421 28.0271 31.8812C28.0512 31.9202 28.0588 31.9672 28.0484 32.0119L27.8299 32.898C27.8187 32.9344 27.7961 32.9662 27.7655 32.9887C27.7349 33.0112 27.6979 33.0233 27.6599 33.0231Z" fill="#51AF4E"/>
<path d="M23.8444 48.4509C23.8096 48.4507 23.7757 48.4398 23.7473 48.4196C23.7093 48.3942 23.6828 48.3547 23.6738 48.3098C23.6647 48.2649 23.6736 48.2182 23.6987 48.1799L24.0456 47.676C24.071 47.6379 24.1104 47.6115 24.1553 47.6023C24.2001 47.5932 24.2467 47.6022 24.2849 47.6274C24.3232 47.6535 24.3497 47.6936 24.3588 47.7391C24.3679 47.7845 24.3588 47.8318 24.3335 47.8706L23.9866 48.3745C23.9705 48.3974 23.9492 48.4162 23.9245 48.4295C23.8999 48.4428 23.8724 48.4501 23.8444 48.4509Z" fill="#51AF4E"/>
<path d="M27.6599 52.4712C27.6372 52.4728 27.6143 52.4699 27.5926 52.4626C27.571 52.4553 27.551 52.4439 27.5337 52.4289C27.5165 52.4139 27.5024 52.3956 27.4922 52.3752C27.482 52.3547 27.476 52.3324 27.4744 52.3096C27.4728 52.2868 27.4757 52.2639 27.4829 52.2422C27.4902 52.2205 27.5016 52.2004 27.5166 52.1832C27.5316 52.1659 27.5498 52.1518 27.5702 52.1416C27.5906 52.1314 27.6129 52.1253 27.6357 52.1237L28.6762 51.9639C28.7222 51.9569 28.7691 51.9686 28.8065 51.9963C28.8439 52.024 28.8688 52.0655 28.8757 52.1115C28.8826 52.1576 28.8709 52.2046 28.8433 52.242C28.8156 52.2795 28.7743 52.3044 28.7283 52.3113L27.6877 52.4712H27.6599Z" fill="#51AF4E"/>
<path d="M39.5191 40.9906C39.4722 40.9905 39.4273 40.9718 39.3942 40.9385L38.7976 40.32C38.7654 40.2868 38.7477 40.2422 38.7484 40.1959C38.749 40.1497 38.768 40.1055 38.8011 40.0733C38.8342 40.041 38.8788 40.0233 38.925 40.0239C38.9711 40.0246 39.0152 40.0436 39.0474 40.0768L39.644 40.6953C39.6602 40.7114 39.6731 40.7306 39.6819 40.7518C39.6907 40.773 39.6953 40.7957 39.6953 40.8186C39.6953 40.8416 39.6907 40.8643 39.6819 40.8855C39.6731 40.9066 39.6602 40.9258 39.644 40.942C39.6101 40.9737 39.5654 40.9911 39.5191 40.9906Z" fill="#51AF4E"/>
<path d="M30.0879 50.5775C30.0651 50.5757 30.0429 50.5695 30.0225 50.5591C30.0022 50.5487 29.984 50.5343 29.9692 50.5169C29.9544 50.4994 29.9431 50.4792 29.9361 50.4574C29.9291 50.4356 29.9265 50.4126 29.9284 50.3898L30.0012 49.469C30.0065 49.4238 30.0288 49.3824 30.0637 49.3533C30.0986 49.3242 30.1433 49.3097 30.1885 49.3126C30.2112 49.3139 30.2333 49.3198 30.2537 49.3298C30.2741 49.3398 30.2922 49.3538 30.3071 49.371C30.322 49.3882 30.3332 49.4082 30.3403 49.4298C30.3473 49.4514 30.35 49.4742 30.3481 49.4968L30.2753 50.4176C30.274 50.4406 30.268 50.4631 30.2578 50.4838C30.2476 50.5044 30.2333 50.5228 30.2158 50.5377C30.1983 50.5527 30.1779 50.5639 30.1559 50.5707C30.134 50.5776 30.1108 50.5798 30.0879 50.5775Z" fill="#51AF4E"/>
<path d="M42.1934 39.8266C42.16 39.8269 42.1271 39.8175 42.0989 39.7995C42.0706 39.7815 42.0482 39.7557 42.0342 39.7252C42.0203 39.6947 42.0155 39.6608 42.0203 39.6277C42.0252 39.5945 42.0395 39.5634 42.0616 39.5382L42.7345 38.7807C42.7654 38.7462 42.8086 38.7253 42.8548 38.7227C42.901 38.7201 42.9463 38.736 42.9808 38.7668C43.0153 38.7977 43.0362 38.841 43.0388 38.8873C43.0414 38.9336 43.0255 38.979 42.9947 39.0135L42.3218 39.7676C42.3057 39.7859 42.286 39.8006 42.2639 39.8108C42.2418 39.821 42.2178 39.8264 42.1934 39.8266Z" fill="#51AF4E"/>
<path d="M37.7779 44.969C37.745 44.9696 37.7126 44.9612 37.6842 44.9447C37.6458 44.9197 37.6185 44.8808 37.6081 44.836C37.5978 44.7913 37.6052 44.7443 37.6287 44.7049L37.9756 44.1281C37.9999 44.0899 38.0381 44.0626 38.0822 44.0522C38.1263 44.0418 38.1727 44.0491 38.2115 44.0725C38.2311 44.0843 38.2483 44.0999 38.2619 44.1184C38.2755 44.1368 38.2854 44.1578 38.2909 44.1801C38.2963 44.2024 38.2974 44.2256 38.2938 44.2482C38.2903 44.2709 38.2824 44.2927 38.2704 44.3123L37.9236 44.8891C37.9081 44.9138 37.8866 44.9341 37.8611 44.9481C37.8356 44.9621 37.807 44.9693 37.7779 44.969Z" fill="#51AF4E"/>
<path d="M40.4002 42.7941C40.3774 42.7957 40.3545 42.7927 40.3329 42.7855C40.3112 42.7782 40.2912 42.7668 40.274 42.7518C40.2567 42.7368 40.2426 42.7185 40.2324 42.698C40.2223 42.6776 40.2162 42.6553 40.2146 42.6325C40.213 42.6097 40.2159 42.5867 40.2231 42.5651C40.2304 42.5434 40.2418 42.5233 40.2568 42.5061C40.2718 42.4888 40.29 42.4747 40.3104 42.4645C40.3309 42.4542 40.3531 42.4482 40.3759 42.4466L41.2014 42.3145C41.2468 42.3085 41.2928 42.3203 41.3297 42.3475C41.3665 42.3748 41.3914 42.4152 41.3991 42.4605C41.4062 42.5056 41.3952 42.5517 41.3686 42.5887C41.3419 42.6258 41.3018 42.6509 41.2569 42.6585L40.4279 42.7906L40.4002 42.7941Z" fill="#51AF4E"/>
<path d="M37.1292 36.7757C37.0883 36.7762 37.0487 36.7614 37.0182 36.734C36.983 36.7048 36.9607 36.6629 36.9562 36.6174C36.9516 36.5718 36.9652 36.5263 36.994 36.4908L37.5628 35.7958C37.5772 35.7782 37.595 35.7637 37.6151 35.753C37.6352 35.7424 37.6572 35.736 37.6798 35.734C37.7025 35.7321 37.7253 35.7347 37.7469 35.7417C37.7685 35.7488 37.7884 35.7601 37.8056 35.775C37.8408 35.8041 37.8631 35.846 37.8677 35.8916C37.8722 35.9371 37.8587 35.9826 37.8299 36.0182L37.261 36.7132C37.2451 36.7327 37.225 36.7485 37.2022 36.7593C37.1794 36.7701 37.1545 36.7757 37.1292 36.7757Z" fill="#51AF4E"/>
<path d="M29.6579 54.9695C29.617 54.9701 29.5773 54.9552 29.5469 54.9278C29.5117 54.8987 29.4894 54.8568 29.4848 54.8112C29.4803 54.7657 29.4938 54.7202 29.5226 54.6846L30.199 53.8715C30.2134 53.8539 30.2311 53.8393 30.2512 53.8287C30.2713 53.8181 30.2933 53.8116 30.316 53.8097C30.3386 53.8078 30.3614 53.8104 30.383 53.8174C30.4046 53.8244 30.4246 53.8357 30.4418 53.8506C30.477 53.8798 30.4993 53.9217 30.5038 53.9673C30.5084 54.0128 30.4948 54.0583 30.4661 54.0939L29.7723 54.907C29.7583 54.9244 29.741 54.9389 29.7213 54.9497C29.7017 54.9604 29.6801 54.9672 29.6579 54.9695Z" fill="#51AF4E"/>
<path d="M35.9846 41.7269C35.9616 41.7275 35.9388 41.7235 35.9173 41.7152C35.8959 41.7068 35.8763 41.6943 35.8598 41.6783C35.8278 41.6452 35.8099 41.601 35.8099 41.5549C35.8099 41.5089 35.8278 41.4646 35.8598 41.4316L36.609 40.688C36.6424 40.6597 36.6852 40.6452 36.7288 40.6472C36.7724 40.6491 36.8137 40.6676 36.8444 40.6987C36.8751 40.7299 36.8929 40.7715 36.8942 40.8153C36.8956 40.859 36.8805 40.9017 36.8518 40.9347L36.106 41.6783C36.09 41.694 36.071 41.7064 36.0502 41.7148C36.0294 41.7231 36.0071 41.7273 35.9846 41.7269Z" fill="#51AF4E"/>
<path d="M33.9034 40.674C33.8809 40.6749 33.8584 40.6711 33.8375 40.6627C33.8166 40.6543 33.7977 40.6416 33.782 40.6253L33.4143 40.257C33.3817 40.2243 33.3633 40.1799 33.3633 40.1337C33.3633 40.0874 33.3817 40.043 33.4143 40.0103C33.447 39.9776 33.4913 39.9592 33.5375 39.9592C33.5837 39.9592 33.628 39.9776 33.6606 40.0103L34.0075 40.3786C34.0237 40.3948 34.0366 40.414 34.0454 40.4352C34.0542 40.4564 34.0588 40.4791 34.0588 40.502C34.0588 40.5249 34.0542 40.5476 34.0454 40.5688C34.0366 40.59 34.0237 40.6092 34.0075 40.6253C33.98 40.6539 33.9429 40.6713 33.9034 40.674Z" fill="#51AF4E"/>
<path d="M31.1944 42.2136C31.1537 42.2135 31.1143 42.1987 31.0835 42.1719L30.4695 41.6438C30.4375 41.6107 30.4196 41.5665 30.4196 41.5204C30.4196 41.4744 30.4375 41.4301 30.4695 41.397C30.4853 41.3809 30.5042 41.368 30.5251 41.3592C30.5459 41.3505 30.5683 41.3459 30.5909 41.3459C30.6135 41.3459 30.6359 41.3505 30.6568 41.3592C30.6776 41.368 30.6965 41.3809 30.7123 41.397L31.3263 41.9287C31.3424 41.9445 31.3552 41.9635 31.364 41.9843C31.3728 42.0052 31.3773 42.0277 31.3773 42.0503C31.3773 42.073 31.3728 42.0954 31.364 42.1163C31.3552 42.1371 31.3424 42.1561 31.3263 42.1719C31.3087 42.1881 31.2878 42.2003 31.265 42.2075C31.2422 42.2147 31.2181 42.2168 31.1944 42.2136Z" fill="#51AF4E"/>
<path d="M33.7058 44.3435C33.6814 44.3433 33.6574 44.3379 33.6353 44.3277C33.6132 44.3175 33.5935 44.3028 33.5774 44.2845L33.2097 43.8605C33.1777 43.8275 33.1599 43.7832 33.1599 43.7372C33.1599 43.6911 33.1777 43.6469 33.2097 43.6138C33.2267 43.5987 33.2465 43.5872 33.268 43.5799C33.2895 43.5725 33.3122 43.5696 33.3348 43.5712C33.3574 43.5729 33.3795 43.579 33.3997 43.5893C33.42 43.5996 33.4379 43.6138 33.4525 43.6312L33.8306 44.0551C33.8468 44.071 33.8596 44.0899 33.8684 44.1108C33.8771 44.1317 33.8816 44.1541 33.8816 44.1767C33.8816 44.1994 33.8771 44.2218 33.8684 44.2427C33.8596 44.2636 33.8468 44.2825 33.8306 44.2984C33.8143 44.3144 33.7946 44.3268 33.7731 44.3346C33.7516 44.3424 33.7286 44.3454 33.7058 44.3435Z" fill="#51AF4E"/>
<path d="M31.7841 46.8905C31.7497 46.8911 31.7159 46.8815 31.687 46.8627L30.7817 46.2547C30.7627 46.2418 30.7464 46.2252 30.7338 46.2059C30.7212 46.1867 30.7126 46.1651 30.7084 46.1425C30.7042 46.1199 30.7045 46.0966 30.7093 46.0741C30.7142 46.0516 30.7235 46.0303 30.7366 46.0114C30.7491 45.9925 30.7654 45.9762 30.7843 45.9637C30.8032 45.9511 30.8244 45.9425 30.8467 45.9382C30.8691 45.934 30.892 45.9343 30.9142 45.9392C30.9364 45.944 30.9574 45.9532 30.9759 45.9663L31.8743 46.5743C31.911 46.6009 31.9362 46.6406 31.9446 46.6852C31.953 46.7298 31.944 46.7759 31.9194 46.8141C31.9047 46.8369 31.8848 46.8558 31.8612 46.8691C31.8376 46.8824 31.8112 46.8898 31.7841 46.8905Z" fill="#51AF4E"/>
<path d="M35.9326 48.319C35.9059 48.3194 35.8796 48.3136 35.8555 48.3022C35.8315 48.2907 35.8103 48.2739 35.7938 48.2529L35.4088 47.7491C35.3808 47.7127 35.3684 47.6666 35.3743 47.621C35.3801 47.5754 35.4038 47.534 35.44 47.5059C35.4767 47.4787 35.5225 47.4668 35.5677 47.4726C35.613 47.4785 35.6542 47.5016 35.6828 47.5371L36.0713 48.041C36.098 48.0782 36.1094 48.1242 36.1029 48.1696C36.0964 48.2149 36.0727 48.256 36.0366 48.2842C36.007 48.3075 35.9702 48.3198 35.9326 48.319Z" fill="#51AF4E"/>
<path d="M37.7536 52.5892C37.7183 52.5889 37.6839 52.5778 37.6551 52.5573C37.6263 52.5369 37.6044 52.5081 37.5923 52.4749C37.5802 52.4417 37.5786 52.4055 37.5876 52.3713C37.5965 52.3371 37.6157 52.3065 37.6426 52.2835L38.2669 51.7588C38.3024 51.7352 38.3453 51.7254 38.3875 51.7315C38.4297 51.7375 38.4681 51.7589 38.4956 51.7916C38.523 51.8242 38.5375 51.8658 38.5363 51.9085C38.535 51.9511 38.5182 51.9919 38.4889 52.0229L37.8646 52.5475C37.8341 52.5749 37.7945 52.5898 37.7536 52.5892Z" fill="#51AF4E"/>
<path d="M33.7543 49.9795C33.7106 49.9806 33.6682 49.9643 33.6364 49.9344L32.9045 49.2602C32.8735 49.2286 32.8558 49.1863 32.8549 49.1421C32.854 49.0978 32.87 49.0548 32.8997 49.022C32.9294 48.9891 32.9705 48.9689 33.0146 48.9654C33.0586 48.9619 33.1024 48.9754 33.1369 49.0031L33.8722 49.6772C33.8885 49.6934 33.9014 49.7126 33.9102 49.7338C33.919 49.7549 33.9235 49.7776 33.9235 49.8006C33.9235 49.8235 33.919 49.8462 33.9102 49.8674C33.9014 49.8886 33.8885 49.9078 33.8722 49.9239C33.8576 49.941 33.8395 49.9548 33.8192 49.9643C33.7989 49.9739 33.7768 49.9791 33.7543 49.9795Z" fill="#51AF4E"/>
<path d="M36.1511 51.5852C36.1316 51.5885 36.1117 51.5885 36.0922 51.5852C36.0489 51.5695 36.0137 51.5373 35.9942 51.4956C35.9747 51.4539 35.9725 51.4061 35.9881 51.3628L36.2066 50.7686C36.2223 50.7253 36.2545 50.69 36.2961 50.6705C36.3377 50.6509 36.3854 50.6487 36.4286 50.6644C36.45 50.6721 36.4696 50.684 36.4863 50.6995C36.503 50.7149 36.5164 50.7336 36.5258 50.7543C36.5352 50.775 36.5403 50.7974 36.5409 50.8202C36.5415 50.8429 36.5375 50.8656 36.5292 50.8868L36.3141 51.481C36.3012 51.5132 36.2785 51.5405 36.2493 51.5592C36.2201 51.5779 36.1857 51.587 36.1511 51.5852Z" fill="#51AF4E"/>
<path d="M35.9083 55.2195C35.8747 55.219 35.842 55.2088 35.8141 55.1902C35.7862 55.1715 35.7644 55.1451 35.7511 55.1142C35.7379 55.0833 35.7339 55.0492 35.7397 55.0161C35.7454 54.983 35.7606 54.9522 35.7834 54.9276L36.4771 54.2014C36.5089 54.1677 36.5526 54.1481 36.5988 54.1468C36.645 54.1455 36.6898 54.1626 36.7234 54.1944C36.757 54.2262 36.7766 54.2701 36.7779 54.3163C36.7792 54.3626 36.7621 54.4075 36.7303 54.4411L36.0366 55.1639C36.0205 55.1819 36.0007 55.1962 35.9786 55.2058C35.9564 55.2154 35.9324 55.2201 35.9083 55.2195Z" fill="#51AF4E"/>
<path d="M82.5 72.1118C127.84 72.1118 164.595 69.9621 164.595 67.3103C164.595 64.6585 127.84 62.5088 82.5 62.5088C37.1603 62.5088 0.405212 64.6585 0.405212 67.3103C0.405212 69.9621 37.1603 72.1118 82.5 72.1118Z" fill="#51AF4E" fill-opacity="0.2"/>
</svg>
