<svg width="220" height="156" viewBox="0 0 220 156" fill="none" xmlns="http://www.w3.org/2000/svg">
<rect x="0.000488281" y="90.0486" width="48.4548" height="8.27176" rx="4.13588" fill="#FBFBFB"/>
<rect x="5.66162" y="92.9756" width="37.133" height="2.4179" rx="1.20895" fill="#3B8339"/>
<path d="M197.282 38.9307C196.77 32.4266 192.81 27.0327 185.534 26.9146L167.297 35.1432C169.953 35.6148 172.401 36.8863 174.315 38.7873C176.229 40.6884 177.517 43.1286 178.006 45.7813C179.195 53.0493 182.99 61.0732 189.652 64.1914C195.684 62.1126 209.338 55.7974 209.676 55.6557C206.873 53.9391 198.109 49.4114 197.282 38.9307ZM170.462 34.9936C170.462 34.9936 170.462 34.9148 170.462 34.8912H170.58L170.462 34.9936ZM204.322 55.8368C201.314 57.199 195.605 59.7739 191.613 61.2937C191.104 60.9498 190.509 60.7577 189.895 60.7395C189.282 60.7214 188.676 60.8781 188.148 61.1913C182.502 57.3093 180.423 50.1673 179.297 44.0569C178.62 40.4347 176.47 37.0251 173.266 35.5369C173.344 35.4127 173.395 35.2738 173.417 35.1288C173.438 34.9838 173.43 34.8359 173.392 34.6943C173.348 34.5461 173.272 34.4096 173.168 34.295C173.065 34.1805 172.936 34.0909 172.793 34.0329L184.392 28.7178C185.377 28.8891 186.391 28.7372 187.282 28.2847C192.455 29.2768 195.739 34.5841 195.881 38.2456C195.985 41.2493 196.78 44.1885 198.205 46.835C199.629 49.4816 201.644 51.7643 204.093 53.506C203.952 53.8928 203.901 54.3069 203.945 54.7164C203.989 55.126 204.126 55.52 204.345 55.8683L204.322 55.8368Z" fill="#51AF4E"/>
<path d="M170.461 35.0179C170.461 35.0179 170.461 34.9388 170.461 34.915H170.58L170.461 35.0179Z" fill="#51AF4E"/>
<path d="M204.345 55.8688C201.337 57.231 195.628 59.8059 191.635 61.3256C191.127 60.9818 190.531 60.7896 189.918 60.7715C189.305 60.7534 188.699 60.9101 188.171 61.2233C182.525 57.3413 180.446 50.1993 179.32 44.0888C178.643 40.4667 176.493 37.0571 173.288 35.5689C173.366 35.4447 173.418 35.3058 173.439 35.1608C173.461 35.0158 173.453 34.8679 173.414 34.7263C173.371 34.5781 173.295 34.4415 173.191 34.327C173.087 34.2124 172.959 34.1228 172.816 34.0649L184.415 28.7497C185.4 28.9211 186.413 28.7692 187.305 28.3167C192.478 29.3088 195.762 34.6161 195.903 38.2776C196.01 41.2739 196.804 44.2055 198.224 46.8461C199.644 49.4867 201.652 51.7655 204.093 53.5065C203.951 53.8933 203.9 54.3074 203.944 54.7169C203.988 55.1264 204.125 55.5205 204.345 55.8688Z" fill="#51AF4E"/>
<g opacity="0.3">
<path opacity="0.3" d="M204.345 55.8683C201.337 57.2305 195.628 59.8054 191.636 61.3252C191.128 60.9813 190.532 60.7892 189.918 60.771C189.305 60.7529 188.699 60.9096 188.171 61.2228C182.525 57.3408 180.447 50.1988 179.321 44.0883C178.643 40.4662 176.494 37.0566 173.289 35.5684C173.367 35.4442 173.418 35.3053 173.44 35.1603C173.462 35.0153 173.453 34.8674 173.415 34.7258C173.371 34.5776 173.295 34.4411 173.191 34.3265C173.088 34.212 172.96 34.1223 172.816 34.0644L184.415 28.7493C185.4 28.9206 186.414 28.7687 187.305 28.3162C192.478 29.3083 195.762 34.6156 195.904 38.2771C196.01 41.2734 196.804 44.205 198.224 46.8456C199.644 49.4862 201.652 51.765 204.093 53.506C203.952 53.8928 203.901 54.3069 203.944 54.7164C203.988 55.126 204.125 55.52 204.345 55.8683Z" fill="white"/>
</g>
<path opacity="0.4" d="M189.533 42.9865C189.472 43.006 189.415 43.0397 189.369 43.0848C189.322 43.1299 189.287 43.1852 189.266 43.2463C189.216 43.412 189.197 43.5856 189.211 43.7581L190.344 43.3723C190.252 43.2156 190.115 43.0896 189.951 43.0101C189.82 42.9477 189.67 42.9392 189.533 42.9865Z" fill="white"/>
<path opacity="0.4" d="M188.14 45.0098L187.037 45.3798C187.125 45.5327 187.253 45.6581 187.407 45.7421C187.47 45.7689 187.537 45.7828 187.604 45.7828C187.672 45.7828 187.739 45.7689 187.801 45.7421C187.864 45.7244 187.921 45.6924 187.969 45.6486C188.017 45.6049 188.054 45.5506 188.077 45.4901C188.126 45.3351 188.148 45.1724 188.14 45.0098Z" fill="white"/>
<path opacity="0.4" d="M194.612 42.3091C193.98 40.7249 192.765 39.4434 191.217 38.7285C189.668 38.0136 187.905 37.9198 186.289 38.4665C185.524 38.7297 184.82 39.1466 184.222 39.6916C183.624 40.2365 183.143 40.898 182.81 41.6355C182.477 42.3729 182.298 43.1707 182.284 43.9798C182.27 44.789 182.422 45.5924 182.73 46.3408C183.362 47.9248 184.577 49.2058 186.126 49.9194C187.675 50.633 189.439 50.7247 191.053 50.1756C191.817 49.9122 192.52 49.4956 193.117 48.9512C193.715 48.4068 194.195 47.7461 194.528 47.0096C194.862 46.2731 195.041 45.4763 195.055 44.668C195.07 43.8598 194.919 43.0571 194.612 42.3091ZM187.084 46.9077C186.602 46.6488 186.218 46.2396 185.99 45.7423L185.1 46.0416C184.998 45.7738 184.895 45.514 184.801 45.2541L185.667 44.9628C185.544 44.5776 185.472 44.1778 185.454 43.7738C185.431 43.4396 185.466 43.104 185.557 42.7816L186.699 42.884C186.624 43.1532 186.587 43.4314 186.588 43.7108C186.587 44.0145 186.629 44.3169 186.714 44.6084L188.045 44.1596C187.994 43.8104 187.975 43.4571 187.99 43.1044C188.006 42.826 188.09 42.5558 188.234 42.317C188.419 42.0416 188.699 41.845 189.021 41.7658C189.236 41.6915 189.463 41.6615 189.689 41.6777C189.915 41.694 190.135 41.7561 190.336 41.8603C190.825 42.1244 191.212 42.5424 191.439 43.0493L192.321 42.7501L192.612 43.5375L191.746 43.8368C191.932 44.4055 191.975 45.0112 191.872 45.6006L190.738 45.5376C190.816 45.0907 190.803 44.6326 190.699 44.1911L189.344 44.6478C189.39 44.9924 189.411 45.3397 189.407 45.6872C189.392 45.9659 189.308 46.2364 189.163 46.4746C188.989 46.7428 188.723 46.9386 188.415 47.0258C188.197 47.0988 187.966 47.126 187.737 47.1057C187.508 47.0854 187.286 47.018 187.084 46.9077Z" fill="white"/>
<path d="M161.068 27.8128C160.99 27.801 160.914 27.7825 160.84 27.7577C159.367 27.2616 157.131 24.9623 155.217 21.8283C153.304 18.6944 152.296 15.6391 152.548 14.0958C152.578 13.8334 152.682 13.5849 152.847 13.3792C152.898 13.3165 152.959 13.2632 153.028 13.2217C153.102 13.1778 153.182 13.1434 153.264 13.1194C153.528 13.0649 153.801 13.0867 154.052 13.1824C154.373 13.2899 154.678 13.4409 154.957 13.6312C155.184 13.7789 155.402 13.9393 155.611 14.1115C155.737 14.2139 155.871 14.3241 155.997 14.4422C157.452 15.8343 158.703 17.4249 159.714 19.1668C160.78 20.8534 161.602 22.6827 162.155 24.6001C162.202 24.7838 162.241 24.957 162.273 25.1198C162.341 25.4044 162.385 25.6941 162.407 25.9859C162.456 26.3122 162.456 26.644 162.407 26.9702C162.372 27.2381 162.25 27.4872 162.06 27.6789C162.019 27.7284 161.968 27.7686 161.91 27.797C161.862 27.8286 161.809 27.8525 161.753 27.8679C161.524 27.9188 161.286 27.8996 161.068 27.8128Z" fill="#51AF4E"/>
<path d="M161.068 27.8126L160.949 27.6158L156.823 20.8203C156.713 20.6392 156.603 20.4659 156.508 20.2927L152.65 13.9933C152.676 13.7903 152.743 13.5947 152.847 13.4184C152.884 13.3596 152.926 13.3043 152.973 13.2531L153.39 12.9932L154.658 12.2058L155.225 13.1429L155.327 13.3082L155.721 13.9618L156.004 14.4342L162.162 24.5527L162.39 24.9307L162.823 25.6393L162.918 25.8126L163.493 26.7417L162.036 27.6315L161.729 27.8205C161.512 27.8818 161.283 27.8791 161.068 27.8126Z" fill="#51AF4E"/>
<path d="M154.658 12.1821C153.414 12.9695 154.382 16.8122 156.823 20.8438C159.264 24.8754 162.257 27.5212 163.493 26.7338C164.729 25.9463 163.768 22.1116 161.327 18.0721C158.886 14.0326 155.902 11.4262 154.658 12.1821Z" fill="#51AF4E"/>
<path opacity="0.4" d="M154.658 12.1821C153.414 12.9695 154.382 16.8122 156.823 20.8438C159.264 24.8754 162.257 27.5212 163.493 26.7338C164.729 25.9463 163.768 22.1116 161.327 18.0721C158.886 14.0326 155.902 11.4262 154.658 12.1821Z" fill="white"/>
<path d="M155.304 13.0558C155.228 13.1065 155.168 13.1774 155.131 13.2605C156.162 13.2605 158.335 15.5519 160.265 18.7725C162.194 21.9931 163.233 24.9381 162.753 25.8594C162.844 25.863 162.934 25.8411 163.013 25.7964C163.855 25.2845 162.832 22.0167 160.698 18.5127C158.564 15.0086 156.146 12.5597 155.304 13.0558Z" fill="#51AF4E"/>
<path opacity="0.4" d="M155.304 13.0558C155.228 13.1065 155.168 13.1774 155.131 13.2605C156.162 13.2605 158.335 15.5519 160.265 18.7725C162.194 21.9931 163.233 24.9381 162.753 25.8594C162.844 25.863 162.934 25.8411 163.013 25.7964C163.855 25.2845 162.832 22.0167 160.698 18.5127C158.564 15.0086 156.146 12.5597 155.304 13.0558Z" fill="#51AF4E"/>
<path opacity="0.4" d="M155.17 13.261C154.697 14.1744 155.729 17.1981 157.658 20.3478C159.587 23.4976 161.768 25.8598 162.792 25.8598C163.272 24.9464 162.241 21.9227 160.304 18.773C158.367 15.6233 156.162 13.261 155.17 13.261Z" fill="#51AF4E"/>
<path d="M80.8447 10.064C84.4669 11.3318 85.5693 16.4816 82.703 21.3794C79.8368 26.2772 74.8288 27.9229 71.9232 25.4346C69.4113 23.285 69.3719 18.7179 71.5531 14.9697C73.7342 11.2216 77.7265 8.96952 80.8447 10.064Z" fill="#51AF4E"/>
<path d="M79.5767 9.60752C82.9863 10.8044 83.9233 15.7495 81.1516 20.4898C78.3798 25.2301 73.6159 26.8837 70.8757 24.545C68.5134 22.5135 68.5134 18.096 70.6394 14.4423C72.7655 10.7887 76.6003 8.57599 79.5767 9.60752Z" fill="#51AF4E"/>
<path opacity="0.4" d="M79.5767 9.60752C82.9863 10.8044 83.9233 15.7495 81.1516 20.4898C78.3798 25.2301 73.6159 26.8837 70.8757 24.545C68.5134 22.5135 68.5134 18.096 70.6394 14.4423C72.7655 10.7887 76.6003 8.57599 79.5767 9.60752Z" fill="white"/>
<path d="M78.3643 11.4421C78.5084 11.4966 78.6479 11.5625 78.7816 11.639C80.8368 12.8831 81.199 16.2848 79.3564 19.4581C77.5139 22.6315 74.3641 24.0252 72.2696 22.8756C72.1356 22.7944 72.0067 22.705 71.8837 22.6079C70.0333 21.1669 69.9782 17.8124 71.616 15.0013C73.2539 12.1902 76.1831 10.5602 78.3643 11.4421Z" fill="#51AF4E"/>
<path opacity="0.3" d="M78.7897 11.6388C80.8449 12.883 81.2071 16.2846 79.3646 19.458C77.522 22.6313 74.3723 24.0251 72.2777 22.8754C70.7029 21.2218 70.7658 18.0721 72.325 15.3949C73.8841 12.7176 76.5771 11.127 78.7897 11.6388Z" fill="white"/>
<path d="M218.739 80.2791C220.456 83.7753 218.385 88.303 214.117 90.4054C209.849 92.5078 204.991 91.3739 203.274 87.8778C201.558 84.3816 203.636 79.8539 207.904 77.7593C212.172 75.6647 217.023 76.775 218.739 80.2791Z" fill="#51AF4E"/>
<path d="M218.053 78.8776C219.77 82.3659 217.699 86.9015 213.431 88.996C209.163 91.0906 204.313 89.9646 202.596 86.4763C200.88 82.988 202.95 78.4524 207.218 76.3499C211.486 74.2475 216.337 75.3814 218.053 78.8776Z" fill="#51AF4E"/>
<path opacity="0.4" d="M218.053 78.8776C219.77 82.3659 217.699 86.9015 213.431 88.996C209.163 91.0906 204.313 89.9646 202.596 86.4763C200.88 82.988 202.95 78.4524 207.218 76.3499C211.486 74.2475 216.337 75.3814 218.053 78.8776Z" fill="white"/>
<path d="M216.07 79.712C216.148 79.8852 216.219 80.0506 216.282 80.216C216.282 80.216 216.282 80.216 216.282 80.2553C217.117 82.7987 215.558 85.8382 212.589 87.3028C209.621 88.7674 206.243 88.1454 204.715 85.9248C204.628 85.7752 204.534 85.6177 204.447 85.4524C203.164 82.8381 204.723 79.4364 207.92 77.8615C211.117 76.2867 214.778 77.1292 216.07 79.712Z" fill="#51AF4E"/>
<path opacity="0.3" d="M216.282 80.2161C216.282 80.2161 216.282 80.2161 216.282 80.2555C217.117 82.7988 215.558 85.8383 212.589 87.3029C209.62 88.7675 206.242 88.1455 204.715 85.9249C203.88 83.3894 205.439 80.3342 208.423 78.8381C211.408 77.342 214.778 78.0113 216.282 80.2161Z" fill="white"/>
<path d="M142.823 4.04006L126.287 12.7018C120.484 8.76463 115.609 8.29217 109.751 12.1269C107.881 13.2605 105.928 14.2503 103.908 15.0877C102.579 15.6844 101.211 16.1895 99.8137 16.5995C98.4708 16.928 97.0627 16.8725 95.7498 16.4396C94.437 16.0066 93.2722 15.2135 92.3882 14.1506C99.9239 10.3946 103.278 7.489 110.806 3.74084C112.019 5.71729 114.31 5.73304 116.704 5.03222C120.035 4.04794 123.562 1.66203 124.618 1.23682C127.633 0.0760598 130.9 -0.27592 134.093 0.215822C137.287 0.707564 140.296 2.02593 142.823 4.04006Z" fill="#51AF4E"/>
<path opacity="0.3" d="M139.595 3.78796C134.602 -0.298793 127.571 1.15007 124.24 2.46508C122.421 3.18164 113.271 9.05586 110.499 4.97698C102.963 8.72514 102.365 10.3551 94.8293 14.1033C96.0341 15.1191 99.4437 17.3632 107.066 12.0245C112.798 8.00858 120.24 7.21327 126.043 11.1268C131.295 8.37866 134.335 6.52821 139.595 3.78796Z" fill="white"/>
<path d="M95.9946 13.1035C95.4119 13.4579 94.8922 13.8437 94.3174 14.198L96.2466 15.1981C96.4712 14.8796 96.5697 14.4892 96.5231 14.1024C96.4766 13.7155 96.2883 13.3596 95.9946 13.1035Z" fill="#51AF4E"/>
<path d="M111.861 5.61474C111.453 5.78829 111.004 5.84049 110.566 5.76507C110.129 5.68966 109.723 5.48983 109.397 5.18953C109.755 4.81965 110.202 4.54843 110.696 4.4021C111.029 4.8558 111.421 5.26354 111.861 5.61474Z" fill="#51AF4E"/>
<path d="M128.334 10.4973C127.773 10.2202 127.146 10.1029 126.522 10.1585C125.899 10.214 125.302 10.4402 124.799 10.8123L126.2 11.647C126.801 11.0871 127.536 10.6912 128.334 10.4973Z" fill="#51AF4E"/>
<path d="M141.106 3.81167C140.18 4.02453 139.316 4.45354 138.587 5.06368C138.462 4.89229 138.376 4.69597 138.334 4.48816C138.292 4.28034 138.295 4.06594 138.344 3.85959C138.392 3.65324 138.485 3.45982 138.615 3.29254C138.746 3.12527 138.91 2.98809 139.098 2.89038C139.799 3.12309 140.473 3.43204 141.106 3.81167Z" fill="#51AF4E"/>
<path opacity="0.1" d="M116.688 5.01672C115.814 6.30811 107.239 12.6312 103.892 15.0722C102.564 15.6689 101.196 16.174 99.7978 16.584C98.4549 16.9125 97.0468 16.857 95.734 16.4241C94.4211 15.9911 93.2563 15.198 92.3723 14.1351C99.908 10.3791 103.262 7.4735 110.79 3.72534C112.003 5.70179 114.294 5.71753 116.688 5.01672Z" fill="#211F42"/>
<path opacity="0.4" d="M111.263 9.04787C111.428 9.51245 114.413 8.81952 117.909 7.51239C121.405 6.20526 124.106 4.78001 123.933 4.36267C123.759 3.94534 120.783 4.59103 117.287 5.89816C113.791 7.20529 111.074 8.62266 111.263 9.04787Z" fill="white"/>
<path d="M184.659 151.092C176.95 133.454 198.73 119.643 191.021 102.004L218.322 105.54C226.031 123.178 204.25 136.997 211.959 154.636L184.659 151.092Z" fill="#51AF4E"/>
<path opacity="0.3" d="M188.084 149.297L206.802 151.722C206.695 151.487 206.657 151.226 206.69 150.97C206.724 150.714 206.829 150.472 206.993 150.273C207.156 150.073 207.373 149.923 207.617 149.839C207.862 149.756 208.125 149.743 208.377 149.801C205.904 135.753 219.991 123.816 217.511 109.807C216.893 109.67 216.325 109.367 215.866 108.932C215.407 108.496 215.074 107.944 214.904 107.335L196.187 104.91C196.296 105.145 196.336 105.407 196.303 105.664C196.27 105.922 196.166 106.165 196.002 106.366C195.838 106.567 195.621 106.718 195.375 106.802C195.129 106.885 194.865 106.898 194.612 106.839C197.085 120.887 182.998 132.824 185.478 146.832C186.095 146.968 186.664 147.269 187.123 147.703C187.582 148.137 187.915 148.688 188.084 149.297Z" fill="white"/>
<path opacity="0.4" d="M203.565 127.375C203.386 127.355 203.206 127.403 203.061 127.509C202.865 127.652 202.69 127.821 202.542 128.013L203.998 128.202C204.051 128.006 204.034 127.797 203.951 127.612C203.91 127.545 203.853 127.489 203.786 127.448C203.719 127.407 203.643 127.382 203.565 127.375Z" fill="white"/>
<path opacity="0.4" d="M200.329 128.777L198.912 128.588C198.849 128.771 198.849 128.971 198.912 129.155C198.948 129.221 199 129.277 199.063 129.318C199.126 129.36 199.199 129.384 199.274 129.391C199.452 129.414 199.632 129.369 199.778 129.265C199.985 129.131 200.171 128.966 200.329 128.777Z" fill="white"/>
<path opacity="0.4" d="M209.148 129.312C211.022 125.257 208.817 121.485 204.557 120.934C200.297 120.383 195.707 123.296 193.833 127.328C191.958 131.359 194.171 135.155 198.423 135.706C202.675 136.257 207.274 133.367 209.148 129.312ZM197.549 130.218C197.311 129.64 197.311 128.992 197.549 128.415L196.4 128.265L196.841 127.281L197.959 127.422C198.207 126.941 198.505 126.487 198.848 126.068C199.145 125.692 199.489 125.355 199.872 125.068L200.888 125.777C200.568 126.006 200.275 126.27 200.014 126.564C199.745 126.873 199.507 127.208 199.305 127.564L201.022 127.792C201.299 127.393 201.604 127.015 201.935 126.659C202.219 126.357 202.555 126.109 202.927 125.926C203.314 125.741 203.748 125.678 204.171 125.745C204.423 125.763 204.665 125.845 204.876 125.983C205.087 126.12 205.259 126.31 205.376 126.533C205.615 127.115 205.615 127.769 205.376 128.352L206.518 128.501C206.368 128.824 206.219 129.155 206.077 129.485L204.959 129.336C204.582 130.069 204.069 130.724 203.447 131.265L202.415 130.674C202.889 130.259 203.295 129.773 203.62 129.233L201.872 129.005C201.6 129.401 201.3 129.778 200.975 130.131C200.697 130.431 200.366 130.677 199.998 130.856C199.614 131.04 199.183 131.103 198.762 131.037C198.505 131.022 198.256 130.939 198.042 130.795C197.829 130.65 197.658 130.451 197.549 130.218Z" fill="white"/>
<path d="M200.73 153.864C199.063 153.129 197.652 151.917 196.674 150.38C195.695 148.843 195.195 147.051 195.235 145.23C195.275 143.408 195.855 141.64 196.9 140.148C197.945 138.656 199.409 137.507 201.107 136.847C202.805 136.187 204.66 136.045 206.439 136.439C208.217 136.833 209.839 137.745 211.099 139.061C212.359 140.376 213.201 142.036 213.518 143.83C213.835 145.624 213.613 147.472 212.88 149.139C212.393 150.248 211.693 151.249 210.818 152.087C209.944 152.924 208.913 153.581 207.785 154.02C206.656 154.459 205.452 154.671 204.242 154.644C203.032 154.617 201.838 154.352 200.73 153.864Z" fill="#51AF4E"/>
<path d="M200.282 154.88C198.613 154.145 197.2 152.931 196.221 151.393C195.242 149.855 194.741 148.061 194.781 146.238C194.822 144.415 195.402 142.644 196.448 141.151C197.494 139.658 198.96 138.508 200.66 137.848C202.359 137.187 204.217 137.045 205.997 137.44C207.777 137.835 209.4 138.749 210.661 140.067C211.922 141.384 212.764 143.046 213.08 144.841C213.397 146.637 213.174 148.487 212.44 150.156C211.953 151.265 211.252 152.268 210.377 153.106C209.502 153.944 208.47 154.601 207.341 155.04C206.211 155.479 205.007 155.691 203.795 155.663C202.584 155.636 201.39 155.37 200.282 154.88Z" fill="#51AF4E"/>
<path opacity="0.4" d="M200.282 154.88C198.613 154.145 197.2 152.931 196.221 151.393C195.242 149.855 194.741 148.061 194.781 146.238C194.822 144.415 195.402 142.644 196.448 141.151C197.494 139.658 198.96 138.508 200.66 137.848C202.359 137.187 204.217 137.045 205.997 137.44C207.777 137.835 209.4 138.749 210.661 140.067C211.922 141.384 212.764 143.046 213.08 144.841C213.397 146.637 213.174 148.487 212.44 150.156C211.953 151.265 211.252 152.268 210.377 153.106C209.502 153.944 208.47 154.601 207.341 155.04C206.211 155.479 205.007 155.691 203.795 155.663C202.584 155.636 201.39 155.37 200.282 154.88Z" fill="white"/>
<path d="M210.29 149.234C210.187 149.47 210.069 149.699 209.935 149.919C209.027 151.456 207.555 152.579 205.832 153.048C204.11 153.517 202.272 153.296 200.709 152.431C199.147 151.567 197.984 150.127 197.466 148.418C196.949 146.709 197.118 144.866 197.939 143.28C198.759 141.694 200.165 140.49 201.859 139.925C203.553 139.36 205.4 139.477 207.009 140.252C208.617 141.028 209.86 142.4 210.472 144.077C211.085 145.754 211.02 147.604 210.29 149.234Z" fill="#51AF4E"/>
<path opacity="0.3" d="M210.29 149.234C210.187 149.47 210.069 149.699 209.935 149.919C208.901 151.247 207.416 152.15 205.762 152.459C204.107 152.769 202.397 152.462 200.952 151.598C199.508 150.733 198.43 149.371 197.92 147.766C197.411 146.162 197.506 144.427 198.187 142.888C198.285 142.666 198.395 142.451 198.518 142.242C199.548 140.911 201.029 140.002 202.683 139.687C204.337 139.373 206.048 139.673 207.495 140.533C208.943 141.393 210.026 142.752 210.54 144.354C211.055 145.957 210.966 147.693 210.29 149.234Z" fill="white"/>
<g opacity="0.4">
<path opacity="0.4" d="M201.44 148.627C199.936 148.257 199.432 146.887 200.046 145.092L198.904 144.556L199.369 143.509L200.51 144.045C200.972 143.171 201.633 142.419 202.44 141.848L203.534 142.895C202.841 143.349 202.266 143.962 201.857 144.682L203.605 145.47C204.353 144.572 205.243 143.604 206.613 143.942C208.109 144.312 208.621 145.714 207.975 147.525L209.117 148.068L208.652 149.116L207.503 148.572C207.129 149.258 206.62 149.86 206.007 150.344L204.889 149.36C205.407 148.98 205.841 148.498 206.164 147.942L204.337 147.084C203.605 147.997 202.739 148.95 201.44 148.627ZM205.093 146.202L206.581 146.911C206.723 146.281 206.526 145.856 206.101 145.738C205.676 145.619 205.432 145.864 205.093 146.202ZM201.896 146.856C202.227 146.934 202.534 146.745 202.841 146.415L201.424 145.745C201.298 146.344 201.471 146.745 201.896 146.856Z" fill="white"/>
</g>
<path d="M42.0085 45.868C41.1633 44.4475 40.7583 42.8083 40.845 41.1577C40.9316 39.507 41.5059 37.9192 42.4953 36.595C43.4846 35.2709 44.8445 34.27 46.4028 33.7189C47.9612 33.1679 49.648 33.0915 51.2498 33.4993C52.8516 33.9072 54.2964 34.7811 55.4014 36.0104C56.5064 37.2396 57.2219 38.769 57.4575 40.4051C57.693 42.0411 57.4379 43.7103 56.7246 45.2013C56.0112 46.6924 54.8716 47.9383 53.4499 48.7815C52.5074 49.3416 51.4638 49.7106 50.3786 49.8674C49.2935 50.0241 48.1881 49.9655 47.1256 49.695C46.0631 49.4244 45.0644 48.9472 44.1864 48.2905C43.3084 47.6339 42.5683 46.8107 42.0085 45.868Z" fill="#51AF4E"/>
<path d="M41.1422 46.4195C40.3002 44.9979 39.8987 43.3586 39.9884 41.7088C40.0781 40.059 40.6549 38.4729 41.6459 37.1509C42.637 35.8289 43.9978 34.8304 45.5562 34.2818C47.1147 33.7331 48.8008 33.6588 50.4015 34.0683C52.0021 34.4778 53.4455 35.3528 54.5489 36.5825C55.6524 37.8122 56.3664 39.3415 56.6008 40.977C56.8352 42.6125 56.5794 44.2808 55.8657 45.7709C55.1521 47.2611 54.0126 48.5062 52.5914 49.3488C50.6843 50.477 48.4074 50.8022 46.2607 50.253C44.114 49.7038 42.2731 48.325 41.1422 46.4195Z" fill="#51AF4E"/>
<path opacity="0.4" d="M41.1422 46.4195C40.3002 44.9979 39.8987 43.3586 39.9884 41.7088C40.0781 40.059 40.6549 38.4729 41.6459 37.1509C42.637 35.8289 43.9978 34.8304 45.5562 34.2818C47.1147 33.7331 48.8008 33.6588 50.4015 34.0683C52.0021 34.4778 53.4455 35.3528 54.5489 36.5825C55.6524 37.8122 56.3664 39.3415 56.6008 40.977C56.8352 42.6125 56.5794 44.2808 55.8657 45.7709C55.1521 47.2611 54.0126 48.5062 52.5914 49.3488C50.6843 50.477 48.4074 50.8022 46.2607 50.253C44.114 49.7038 42.2731 48.325 41.1422 46.4195Z" fill="white"/>
<path d="M51.5128 47.4982C51.3121 47.6183 51.1044 47.7261 50.8907 47.8211C49.4364 48.4583 47.794 48.5184 46.297 47.9891C44.8 47.4597 43.5605 46.3806 42.83 44.9708C42.0996 43.561 41.9329 41.926 42.3638 40.3978C42.7947 38.8695 43.791 37.5625 45.1503 36.742C45.5763 36.499 46.0314 36.3111 46.5047 36.1829C47.9687 35.7294 49.5483 35.8302 50.9428 36.4661C52.3373 37.102 53.4492 38.2284 54.0669 39.6311C54.6846 41.0337 54.7648 42.6145 54.2924 44.0725C53.8199 45.5305 52.8278 46.7638 51.5049 47.5376L51.5128 47.4982Z" fill="#51AF4E"/>
<path opacity="0.3" d="M51.513 47.4982C51.3123 47.6183 51.1046 47.7261 50.8909 47.8211C49.4273 48.2578 47.8545 48.1438 46.4693 47.5004C45.0841 46.857 43.9823 45.7287 43.3719 44.3287C42.7614 42.9286 42.6846 41.3535 43.1559 39.9007C43.6272 38.4479 44.614 37.2178 45.9301 36.4427C46.1162 36.3444 46.3081 36.2576 46.5049 36.1829C47.9689 35.7294 49.5485 35.8302 50.943 36.4661C52.3375 37.102 53.4494 38.2284 54.0671 39.6311C54.6848 41.0337 54.765 42.6145 54.2926 44.0725C53.8201 45.5305 52.828 46.7638 51.5051 47.5376L51.513 47.4982Z" fill="white"/>
<g opacity="0.4">
<path opacity="0.4" d="M45.2923 42.3798C44.3789 41.3089 44.7254 40.0175 46.0798 39.0332L45.5207 38.0332L46.4184 37.5056L46.9774 38.5057C47.779 38.1049 48.6641 37.8998 49.5602 37.9072L49.8122 39.2537C49.0635 39.2219 48.3182 39.3704 47.6389 39.6868L48.4893 41.2144C49.513 40.9467 50.6783 40.7026 51.513 41.679C52.3477 42.6554 52.0642 44.0413 50.6311 45.0334L51.1902 46.0335L50.2925 46.561L49.7255 45.561C49.0905 45.8688 48.3991 46.043 47.694 46.0728L47.3869 44.7578C47.9689 44.759 48.5441 44.6327 49.072 44.3877L48.1822 42.8129C47.2137 43.0649 46.0798 43.2696 45.2923 42.3798ZM49.2295 42.5137L49.9618 43.8208C50.3949 43.4271 50.4657 43.0334 50.2138 42.7026C49.9618 42.3719 49.6547 42.4822 49.261 42.4822L49.2295 42.5137ZM46.5286 41.3089C46.652 41.4213 46.8044 41.4971 46.9685 41.5277C47.1327 41.5583 47.3021 41.5425 47.4578 41.4821L46.7648 40.2459C46.3869 40.616 46.3002 41.0018 46.5601 41.3089H46.5286Z" fill="white"/>
</g>
<path d="M34.4019 94.1846C47.2921 80.6409 36.2681 67.0656 49.0953 53.5061H26.9529C14.0863 67.0499 25.1339 80.633 12.2673 94.1689L34.4019 94.1846Z" fill="#51AF4E"/>
<path opacity="0.3" d="M32.5123 92.3582H17.3385C18.126 91.4055 17.8425 90.6259 16.9133 90.6259C24.3781 79.4523 18.4173 68.2472 25.8821 57.0736C26.4651 56.9961 27.027 56.8038 27.5352 56.5078C28.0434 56.2118 28.4878 55.818 28.8429 55.3491H44.0166C43.2292 56.3019 43.5127 57.0815 44.4497 57.0815C36.9849 68.2551 42.9457 79.4602 35.4809 90.6338C34.8961 90.709 34.3323 90.9003 33.8225 91.1964C33.3128 91.4925 32.8673 91.8876 32.5123 92.3582Z" fill="white"/>
<path opacity="0.4" d="M29.4808 72.846C29.5453 72.8436 29.6095 72.8576 29.6672 72.8864C29.725 72.9153 29.7746 72.9583 29.8115 73.0113C29.9055 73.1526 29.9722 73.3101 30.0084 73.4759H28.8193C28.8657 73.2937 28.961 73.1276 29.0949 72.9956C29.1992 72.8975 29.3376 72.8438 29.4808 72.846Z" fill="white"/>
<path opacity="0.4" d="M31.3784 74.3259H32.5281C32.489 74.4989 32.4016 74.6573 32.2761 74.7826C32.229 74.8309 32.1727 74.869 32.1104 74.8947C32.0481 74.9204 31.9812 74.9332 31.9139 74.9323C31.8499 74.9362 31.786 74.9238 31.7282 74.8962C31.6703 74.8687 31.6204 74.8269 31.5832 74.7748C31.4841 74.6412 31.4143 74.4883 31.3784 74.3259Z" fill="white"/>
<path opacity="0.4" d="M30.0711 80.1767C31.7858 80.1565 33.432 79.5013 34.6915 78.3377C35.9511 77.1741 36.7345 75.5849 36.8903 73.8772C37.0792 70.3732 34.6933 67.5227 31.2838 67.5227C29.5695 67.5413 27.9232 68.1962 26.6646 69.3603C25.406 70.5243 24.6247 72.1145 24.4725 73.8221C24.2757 77.3262 26.6616 80.1767 30.0711 80.1767ZM31.709 76.3104C31.395 76.3273 31.086 76.2262 30.8428 76.0269C30.6314 75.8409 30.4736 75.6016 30.3861 75.334C30.2814 75.0052 30.205 74.668 30.1578 74.3261H28.7404C28.7616 74.778 28.877 75.2205 29.079 75.6253L28.0238 76.0506C27.7622 75.5138 27.63 74.9232 27.638 74.3261H26.7324C26.7324 74.0426 26.7718 73.7591 26.7876 73.4757H27.7167C27.7835 72.9153 28.0325 72.3924 28.4254 71.9874C28.5851 71.8259 28.7752 71.6976 28.9846 71.6098C29.1941 71.5219 29.4188 71.4763 29.6459 71.4756C29.9627 71.4559 30.2751 71.5572 30.52 71.7591C30.7324 71.949 30.8923 72.1903 30.9845 72.4599C31.0914 72.7918 31.1731 73.1314 31.2287 73.4757H32.6145C32.6135 73.1715 32.5684 72.8692 32.4807 72.578C32.4092 72.2996 32.295 72.034 32.1421 71.7906L33.1972 71.326C33.3759 71.6059 33.5038 71.9151 33.5752 72.2394C33.6719 72.6335 33.7169 73.0385 33.7091 73.4442H34.6146C34.6146 73.7276 34.5752 74.0111 34.5595 74.2946H33.6303C33.5465 74.8452 33.2997 75.3581 32.9216 75.7671C32.769 75.9401 32.5829 76.0803 32.3744 76.1791C32.1659 76.278 31.9395 76.3333 31.709 76.3419V76.3104Z" fill="white"/>
</svg>
