<svg width="240" height="288" viewBox="0 0 240 288" fill="none" xmlns="http://www.w3.org/2000/svg">
<g opacity="0.1">
<path d="M239.17 71.7594V273.669C239.17 277.357 237.821 279.812 235.756 280.616H235.704L226.95 285.417L226.994 277.622L227.968 68.2269L237.216 63.4922C238.453 66.0758 239.12 68.8954 239.17 71.7594Z" fill="#51AF4E" fill-opacity="0.2"/>
<path d="M226.493 286.199L226.552 277.644L227.525 67.976L237.43 62.9169L237.621 63.3299C238.885 65.964 239.569 68.8384 239.627 71.7594V273.669C239.627 277.356 238.248 280.122 235.94 281.044L226.493 286.199ZM228.41 68.5292L227.444 277.651L227.4 284.687L235.579 280.211C237.57 279.436 238.735 276.995 238.735 273.669V71.7594C238.682 69.1261 238.092 66.5313 237.002 64.1337L228.41 68.5292Z" fill="#51AF4E" fill-opacity="0.2"/>
<path d="M237.216 63.5217L227.967 68.2564L128.967 10.6585L122.33 6.81619L131.467 1.65377L131.725 1.4989C133.2 0.621284 135.088 0.680284 137.19 1.89714L230.895 55.9993C233.447 57.4595 235.704 60.262 237.216 63.5217Z" fill="#51AF4E" fill-opacity="0.2"/>
<path d="M227.953 68.7579L227.746 68.6399L121.459 6.80882L131.497 1.12279C133.149 0.127176 135.251 0.267297 137.397 1.51365L231.146 55.6011C233.654 57.076 236.014 59.8564 237.621 63.3152L237.806 63.6987L227.953 68.7579ZM123.229 6.80882L227.953 67.7328L236.596 63.3078C235.077 60.1882 232.909 57.6808 230.696 56.3754L136.998 2.28802C135.192 1.24816 133.473 1.07853 132.131 1.80127L131.725 2.05202L123.229 6.80882Z" fill="#51AF4E" fill-opacity="0.2"/>
<path d="M230.106 76.8555V278.625C230.106 281.804 229.096 284.09 227.473 285.159L226.95 285.447C225.541 286.11 223.779 285.963 221.861 284.857L176.565 258.705L155.399 246.485L128.148 230.755C123.591 228.122 119.896 221.057 119.896 214.987V13.2323C119.896 10.157 120.84 7.92978 122.359 6.81618C122.617 6.62207 122.9 6.46333 123.2 6.34418C124.579 5.75419 126.29 5.93119 128.148 7.00055L221.861 61.1027C224.288 62.4966 226.463 65.1589 227.968 68.2564C229.312 70.9275 230.043 73.8655 230.106 76.8555Z" fill="#51AF4E" fill-opacity="0.2"/>
<path d="M128.148 229.567C147.433 241.072 197.597 271.007 222.429 285.963C223.168 286.405 224.012 286.643 224.873 286.653C225.735 286.662 226.584 286.444 227.333 286.019C228.083 285.594 228.706 284.978 229.14 284.233C229.574 283.489 229.803 282.643 229.803 281.781V74.3111C229.803 71.951 229.185 69.6321 228.012 67.5843C226.838 65.5364 225.15 63.8309 223.114 62.6367L127.698 6.71291C126.956 6.26973 126.11 6.0317 125.246 6.02319C124.382 6.01467 123.531 6.23599 122.781 6.66446C122.03 7.09293 121.407 7.71316 120.976 8.46162C120.544 9.21008 120.319 10.0599 120.323 10.924V215.835C120.327 218.606 121.05 221.328 122.421 223.735C123.793 226.142 125.766 228.152 128.148 229.567Z" fill="#51AF4E" fill-opacity="0.2"/>
<path d="M127.809 230.209C143.287 239.442 158.774 248.685 174.271 257.939C183.313 263.347 192.352 268.755 201.389 274.163L213.505 281.428L218.896 284.672C220.541 285.661 222.289 287.091 224.236 287.35C225.031 287.446 225.837 287.374 226.602 287.137C227.367 286.901 228.073 286.505 228.675 285.977C229.276 285.448 229.759 284.799 230.092 284.071C230.426 283.343 230.601 282.553 230.608 281.752C230.608 281.391 230.608 281.015 230.608 280.668V89.5256C230.608 84.5402 230.608 79.5621 230.608 74.5841C230.623 72.0065 229.957 69.4706 228.677 67.2329C227.398 64.9951 225.55 63.1349 223.321 61.8403C221.146 60.5497 218.955 59.2812 216.773 57.998L185.518 39.6861L148.385 17.9892C141.689 14.0658 135.037 10.0686 128.303 6.18939C127.427 5.64998 126.422 5.35763 125.393 5.34332C124.365 5.32902 123.351 5.59329 122.461 6.10813C121.57 6.62297 120.836 7.36919 120.335 8.26768C119.834 9.16617 119.585 10.1835 119.616 11.2117C119.616 12.8489 119.616 14.4935 119.616 16.1307V198.991C119.616 204.429 119.616 209.859 119.616 215.282C119.565 218.268 120.295 221.215 121.732 223.833C123.169 226.451 125.263 228.648 127.809 230.209C128.62 230.703 129.358 229.427 128.547 228.933C123.539 225.858 121.113 220.666 121.113 214.921V26.8612C121.113 21.6988 121.113 16.5364 121.113 11.3739C121.074 10.7019 121.186 10.0297 121.441 9.40682C121.697 8.78395 122.088 8.2263 122.588 7.77499C124.24 6.37376 126.224 6.66138 127.942 7.66436L135.317 11.9934L166.896 30.5265L203.144 51.7662C209.619 55.5643 216.109 59.3254 222.562 63.1456C224.589 64.3355 226.262 66.0447 227.408 68.0969C228.554 70.1492 229.132 72.4701 229.081 74.8201V280.321C229.081 280.764 229.081 281.214 229.081 281.656C229.086 282.417 228.883 283.166 228.496 283.821C228.108 284.476 227.55 285.014 226.88 285.376C226.211 285.739 225.456 285.913 224.695 285.88C223.934 285.847 223.197 285.608 222.562 285.189C214.944 280.697 207.399 276.073 199.818 271.53C182.295 261.024 164.74 250.532 147.154 240.054L128.547 228.911C128.375 228.813 128.171 228.788 127.98 228.84C127.789 228.893 127.627 229.019 127.529 229.191C127.431 229.363 127.406 229.567 127.458 229.758C127.511 229.949 127.637 230.111 127.809 230.209Z" fill="#51AF4E" fill-opacity="0.2"/>
<path d="M182.619 122.12C182.619 129.151 177.668 132.022 171.595 128.49C168.393 126.395 165.727 123.577 163.812 120.263C161.898 116.95 160.787 113.233 160.57 109.412C160.57 102.381 165.521 99.5098 171.595 103.042C174.802 105.132 177.472 107.948 179.388 111.263C181.303 114.578 182.41 118.297 182.619 122.12Z" fill="#211F42"/>
<path d="M171.596 128.491C162.618 123.275 155.324 128.788 155.324 140.802V144.499L187.869 163.314V159.749C187.869 147.602 180.574 133.673 171.596 128.491Z" fill="#211F42"/>
<path d="M223.129 62.6367L127.698 6.71291C126.956 6.26973 126.11 6.0317 125.246 6.02319C124.382 6.01467 123.531 6.23599 122.781 6.66446C122.03 7.09293 121.407 7.71316 120.976 8.46162C120.544 9.21008 120.319 10.0599 120.323 10.924V19.9213L229.759 83.102V74.3111C229.764 71.9567 229.156 69.6416 227.993 67.5943C226.83 65.547 225.154 63.8382 223.129 62.6367Z" fill="#51AF4E" fill-opacity="0.2"/>
<path d="M219.324 85.9044C219.324 86.5534 218.874 86.8189 218.306 86.4944C218.009 86.3002 217.763 86.0386 217.586 85.7311C217.409 85.4236 217.307 85.0787 217.289 84.7245C217.289 84.0755 217.746 83.8173 218.306 84.1418C218.605 84.3327 218.853 84.5924 219.03 84.8992C219.207 85.2059 219.308 85.5506 219.324 85.9044Z" fill="#51AF4E"/>
<path d="M219.324 90.5137C219.324 91.1627 218.874 91.4282 218.306 91.1037C218.01 90.909 217.763 90.6474 217.587 90.34C217.41 90.0326 217.308 89.6879 217.289 89.3338C217.289 88.6848 217.746 88.4193 218.306 88.7512C218.605 88.942 218.853 89.2018 219.03 89.5085C219.207 89.8152 219.308 90.1599 219.324 90.5137Z" fill="#51AF4E"/>
<path d="M219.324 95.1231C219.324 95.7721 218.874 96.0376 218.306 95.7131C218.01 95.5184 217.763 95.2568 217.587 94.9494C217.41 94.6419 217.308 94.2973 217.289 93.9431C217.289 93.2942 217.746 93.0287 218.306 93.3605C218.605 93.5514 218.853 93.8111 219.03 94.1179C219.207 94.4246 219.308 94.7693 219.324 95.1231Z" fill="#51AF4E"/>
<path d="M222.134 247.916C222.07 247.915 222.007 247.9 221.95 247.872L127.854 193.511C127.812 193.488 127.775 193.456 127.745 193.418C127.715 193.379 127.694 193.336 127.681 193.289C127.669 193.242 127.666 193.193 127.673 193.145C127.68 193.097 127.696 193.051 127.721 193.01C127.771 192.926 127.85 192.865 127.944 192.839C128.037 192.813 128.137 192.824 128.223 192.87L222.319 247.201C222.402 247.25 222.464 247.33 222.49 247.423C222.516 247.517 222.505 247.617 222.459 247.702C222.429 247.763 222.383 247.816 222.326 247.853C222.269 247.891 222.203 247.912 222.134 247.916Z" fill="#51AF4E"/>
<path d="M222.134 238.38C222.069 238.381 222.005 238.363 221.95 238.329L127.854 184.005C127.769 183.955 127.708 183.873 127.684 183.778C127.659 183.683 127.672 183.582 127.721 183.496C127.745 183.454 127.776 183.417 127.815 183.388C127.853 183.358 127.897 183.336 127.944 183.324C127.99 183.311 128.039 183.309 128.087 183.315C128.135 183.322 128.181 183.339 128.222 183.364L222.319 237.694C222.404 237.742 222.466 237.822 222.492 237.916C222.519 238.01 222.506 238.111 222.459 238.196C222.425 238.252 222.377 238.298 222.32 238.33C222.264 238.362 222.2 238.38 222.134 238.38Z" fill="#51AF4E"/>
<path d="M222.134 228.845C222.069 228.841 222.006 228.824 221.949 228.793L127.853 174.462C127.779 174.408 127.728 174.329 127.709 174.24C127.69 174.151 127.705 174.057 127.751 173.979C127.797 173.9 127.871 173.841 127.957 173.813C128.044 173.785 128.139 173.79 128.222 173.828L222.318 228.173C222.402 228.224 222.463 228.305 222.489 228.4C222.516 228.495 222.504 228.596 222.458 228.682C222.422 228.734 222.373 228.776 222.316 228.804C222.26 228.833 222.197 228.846 222.134 228.845Z" fill="#51AF4E"/>
<path d="M222.134 220.37C222.069 220.367 222.006 220.349 221.949 220.319L127.853 165.988C127.779 165.934 127.728 165.855 127.709 165.766C127.69 165.676 127.705 165.583 127.751 165.504C127.797 165.425 127.871 165.366 127.957 165.339C128.044 165.311 128.139 165.316 128.222 165.354L222.318 219.699C222.402 219.75 222.463 219.831 222.489 219.926C222.516 220.02 222.504 220.121 222.458 220.208C222.422 220.26 222.373 220.302 222.316 220.33C222.26 220.358 222.197 220.372 222.134 220.37Z" fill="#51AF4E"/>
<path d="M222.134 211.896C222.069 211.893 222.006 211.875 221.949 211.845L127.853 157.514C127.779 157.46 127.728 157.381 127.709 157.292C127.69 157.202 127.705 157.109 127.751 157.03C127.797 156.951 127.871 156.892 127.957 156.864C128.044 156.837 128.139 156.842 128.222 156.88L222.318 211.225C222.402 211.276 222.463 211.357 222.489 211.452C222.516 211.546 222.504 211.647 222.458 211.734C222.422 211.786 222.373 211.828 222.316 211.856C222.26 211.884 222.197 211.898 222.134 211.896Z" fill="#51AF4E"/>
<path d="M222.134 203.422C222.069 203.419 222.006 203.401 221.949 203.371L127.853 149.04C127.779 148.986 127.728 148.907 127.709 148.818C127.69 148.728 127.705 148.635 127.751 148.556C127.797 148.477 127.871 148.418 127.957 148.39C128.044 148.363 128.139 148.368 128.222 148.406L222.318 202.751C222.402 202.802 222.463 202.883 222.489 202.978C222.516 203.072 222.504 203.173 222.458 203.26C222.422 203.312 222.373 203.354 222.316 203.382C222.26 203.41 222.197 203.424 222.134 203.422Z" fill="#51AF4E"/>
<path d="M163.885 75.9205L161.401 74.493V81.9575L162.337 82.4953V79.7819L163.858 80.6565C165.188 81.4205 166.071 80.9597 166.071 79.5173C166.071 78.1152 165.197 76.6744 163.885 75.9205ZM163.771 79.7185L162.337 78.8942V75.9185L163.771 76.7428C164.576 77.2052 165.1 78.1019 165.1 78.9896C165.1 79.8874 164.593 80.191 163.771 79.7185Z" fill="#211F42"/>
<path d="M167.874 81.0983L167.857 80.2813L167 79.7887V85.1753L167.892 85.6879V82.6719C167.892 81.7539 168.539 81.5206 169.597 82.1288L169.658 81.2158C168.845 80.7484 168.224 80.7042 167.874 81.0983Z" fill="#211F42"/>
<path d="M172.542 88.4613C173.994 89.2956 174.973 88.7389 174.973 87.0644C174.973 85.3899 173.994 83.7073 172.542 82.873C171.081 82.0336 170.102 82.5903 170.102 84.2648C170.102 85.9392 171.081 87.6219 172.542 88.4613ZM172.542 87.5736C171.632 87.0509 171.029 85.9374 171.029 84.7976C171.029 83.6577 171.632 83.2379 172.542 83.7606C173.443 84.2783 174.046 85.3918 174.046 86.5316C174.046 87.6715 173.443 88.0913 172.542 87.5736Z" fill="#211F42"/>
<path d="M176.265 84.1253V85.1138L175.478 84.6615V85.5088L176.265 85.9612V90.5004L177.158 91.0131V86.4738L178.574 87.2881V86.4408L177.158 85.6265V84.7994C177.158 84.2748 177.481 84.1178 177.962 84.3943C178.216 84.5401 178.426 84.6909 178.609 84.8974L178.679 84.1306C178.417 83.8285 178.067 83.5669 177.691 83.3508C176.834 82.8582 176.265 83.167 176.265 84.1253ZM179.808 86.0298C180.122 86.2108 180.358 86.0741 180.358 85.7009C180.358 85.3277 180.122 84.9196 179.808 84.7387C179.484 84.5527 179.248 84.6893 179.248 85.0625C179.248 85.4358 179.484 85.8438 179.808 86.0298ZM179.361 92.2797L180.254 92.7924V87.4058L179.361 86.8931V92.2797Z" fill="#211F42"/>
<path d="M181.596 93.5641L182.488 94.0768V86.2088L181.596 85.6961V93.5641Z" fill="#211F42"/>
<path d="M188.075 94.5237C188.075 92.8896 187.174 91.2825 185.819 90.5034C184.454 89.7193 183.554 90.3314 183.554 92.0159C183.554 93.6803 184.481 95.3227 185.854 96.1118C186.711 96.6044 187.428 96.5828 187.865 96.0877L187.183 95.2719C186.86 95.5702 186.405 95.6114 185.845 95.2897C185.032 94.8223 184.586 93.9405 184.498 92.9118L188.058 94.9575C188.075 94.8465 188.075 94.6549 188.075 94.5237ZM185.819 91.3205C186.588 91.7628 187.078 92.6596 187.157 93.7337L184.498 92.2057C184.577 91.2321 185.049 90.8782 185.819 91.3205Z" fill="#211F42"/>
</g>
<g opacity="0.2">
<path d="M179.55 71.7594V273.669C179.55 277.357 178.201 279.812 176.136 280.616H176.084L167.33 285.417L167.374 277.622L168.348 68.2269L177.596 63.4922C178.833 66.0758 179.499 68.8954 179.55 71.7594Z" fill="#51AF4E" fill-opacity="0.2"/>
<path d="M166.873 286.199L166.932 277.644L167.905 67.976L177.81 62.9169L178.001 63.3299C179.265 65.964 179.949 68.8384 180.007 71.7594V273.669C180.007 277.356 178.628 280.122 176.32 281.044L166.873 286.199ZM168.79 68.5292L167.824 277.651L167.78 284.687L175.958 280.211C177.95 279.436 179.115 276.995 179.115 273.669V71.7594C179.062 69.1261 178.472 66.5313 177.382 64.1337L168.79 68.5292Z" fill="#51AF4E" fill-opacity="0.2"/>
<path d="M177.595 63.5217L168.347 68.2564L69.3466 10.6585L62.7092 6.81619L71.8467 1.65377L72.1048 1.4989C73.5798 0.621284 75.4678 0.680284 77.5696 1.89714L171.275 55.9993C173.827 57.4595 176.083 60.262 177.595 63.5217Z" fill="#51AF4E" fill-opacity="0.2"/>
<path d="M168.333 68.7579L168.126 68.6399L61.8394 6.80882L71.8766 1.12279C73.5286 0.127176 75.6304 0.267297 77.7765 1.51365L171.526 55.6011C174.034 57.076 176.393 59.8564 178.001 63.3152L178.186 63.6987L168.333 68.7579ZM63.6093 6.80882L168.333 67.7328L176.976 63.3078C175.457 60.1882 173.289 57.6808 171.076 56.3754L77.3782 2.28802C75.5714 1.24816 73.853 1.07853 72.5108 1.80127L72.1052 2.05202L63.6093 6.80882Z" fill="#51AF4E" fill-opacity="0.2"/>
<path d="M170.486 76.8555V278.625C170.486 281.804 169.476 284.09 167.853 285.159L167.329 285.447C165.921 286.11 164.158 285.963 162.241 284.857L116.944 258.705L95.7783 246.485L68.5281 230.755C63.9705 228.122 60.2756 221.057 60.2756 214.987V13.2323C60.2756 10.157 61.2196 7.92978 62.7388 6.81618C62.9968 6.62207 63.2795 6.46333 63.5796 6.34418C64.9587 5.75419 66.6697 5.93119 68.5281 7.00055L162.241 61.1027C164.667 62.4966 166.843 65.1589 168.347 68.2564C169.692 70.9275 170.423 73.8655 170.486 76.8555Z" fill="#51AF4E" fill-opacity="0.2"/>
<path d="M68.528 229.567C87.8133 241.072 137.977 271.007 162.808 285.963C163.548 286.405 164.392 286.643 165.253 286.653C166.115 286.662 166.963 286.444 167.713 286.019C168.462 285.594 169.086 284.978 169.52 284.233C169.954 283.489 170.183 282.643 170.183 281.781V74.3111C170.183 71.951 169.565 69.6321 168.392 67.5843C167.218 65.5364 165.53 63.8309 163.494 62.6367L68.0781 6.71291C67.3363 6.26973 66.49 6.0317 65.6259 6.02319C64.7619 6.01467 63.9111 6.23599 63.1607 6.66446C62.4103 7.09293 61.7873 7.71316 61.3555 8.46162C60.9237 9.21008 60.6985 10.0599 60.7032 10.924V215.835C60.7066 218.606 61.4295 221.328 62.8011 223.735C64.1728 226.142 66.1462 228.152 68.528 229.567Z" fill="#51AF4E" fill-opacity="0.2"/>
<path d="M68.1887 230.209C83.6661 239.442 99.1534 248.685 114.65 257.939C123.692 263.347 132.731 268.755 141.768 274.163L153.885 281.428L159.276 284.672C160.92 285.661 162.668 287.091 164.615 287.35C165.41 287.446 166.216 287.374 166.981 287.137C167.746 286.901 168.453 286.505 169.054 285.977C169.656 285.448 170.139 284.799 170.472 284.071C170.805 283.343 170.981 282.553 170.987 281.752C170.987 281.391 170.987 281.015 170.987 280.668V89.5256C170.987 84.5402 170.987 79.5621 170.987 74.5841C171.002 72.0065 170.336 69.4706 169.057 67.2329C167.777 64.9951 165.93 63.1349 163.701 61.8403C161.525 60.5497 159.335 59.2812 157.152 57.998L125.897 39.6861L88.7646 17.9892C82.0682 14.0658 75.416 10.0686 68.6828 6.18939C67.8069 5.64998 66.8013 5.35763 65.7727 5.34332C64.7442 5.32902 63.7309 5.59329 62.8403 6.10813C61.9497 6.62297 61.215 7.36919 60.7142 8.26768C60.2133 9.16617 59.9648 10.1835 59.9952 11.2117C59.9952 12.8489 59.9952 14.4935 59.9952 16.1307V198.991C59.9952 204.429 59.9952 209.859 59.9952 215.282C59.9448 218.268 60.6741 221.215 62.111 223.833C63.5479 226.451 65.6428 228.648 68.1887 230.209C68.9999 230.703 69.7374 229.427 68.9261 228.933C63.9186 225.858 61.4923 220.666 61.4923 214.921V26.8612C61.4923 21.6988 61.4923 16.5364 61.4923 11.3739C61.4532 10.7019 61.5654 10.0297 61.8207 9.40682C62.076 8.78395 62.4678 8.2263 62.9672 7.77499C64.6192 6.37376 66.603 6.66138 68.3214 7.66436L75.6963 11.9934L107.276 30.5265L143.523 51.7662C149.998 55.5643 156.488 59.3254 162.941 63.1456C164.968 64.3355 166.641 66.0447 167.787 68.0969C168.933 70.1492 169.511 72.4701 169.461 74.8201V280.321C169.461 280.764 169.461 281.214 169.461 281.656C169.465 282.417 169.263 283.166 168.875 283.821C168.487 284.476 167.929 285.014 167.26 285.376C166.59 285.739 165.835 285.913 165.074 285.88C164.314 285.847 163.577 285.608 162.941 285.189C155.323 280.697 147.778 276.073 140.197 271.53C122.674 261.024 105.12 250.532 87.533 240.054L68.9261 228.911C68.754 228.813 68.5501 228.788 68.3592 228.84C68.1684 228.893 68.0062 229.019 67.9084 229.191C67.8106 229.363 67.7852 229.567 67.8377 229.758C67.8903 229.949 68.0165 230.111 68.1887 230.209Z" fill="#51AF4E" fill-opacity="0.2"/>
<path d="M122.999 122.12C122.999 129.151 118.048 132.022 111.974 128.49C108.772 126.395 106.107 123.577 104.192 120.263C102.277 116.95 101.167 113.233 100.95 109.412C100.95 102.381 105.901 99.5098 111.974 103.042C115.182 105.132 117.852 107.948 119.767 111.263C121.683 114.578 122.79 118.297 122.999 122.12Z" fill="#211F42"/>
<path d="M111.976 128.491C102.998 123.275 95.7031 128.788 95.7031 140.802V144.499L128.249 163.314V159.749C128.249 147.602 120.954 133.673 111.976 128.491Z" fill="#211F42"/>
<path d="M163.509 62.6367L68.0781 6.71291C67.3363 6.26973 66.49 6.0317 65.6259 6.02319C64.7619 6.01467 63.9111 6.23599 63.1607 6.66446C62.4103 7.09293 61.7873 7.71316 61.3555 8.46162C60.9237 9.21008 60.6985 10.0599 60.7032 10.924V19.9213L170.139 83.102V74.3111C170.144 71.9567 169.536 69.6416 168.373 67.5943C167.21 65.547 165.534 63.8382 163.509 62.6367Z" fill="#51AF4E" fill-opacity="0.2"/>
<path d="M159.704 85.9044C159.704 86.5534 159.254 86.8189 158.686 86.4944C158.389 86.3002 158.143 86.0386 157.966 85.7311C157.789 85.4236 157.687 85.0787 157.668 84.7245C157.668 84.0755 158.126 83.8173 158.686 84.1418C158.985 84.3327 159.233 84.5924 159.41 84.8992C159.587 85.2059 159.688 85.5506 159.704 85.9044Z" fill="#51AF4E"/>
<path d="M159.704 90.5137C159.704 91.1627 159.254 91.4282 158.686 91.1037C158.39 90.909 158.143 90.6474 157.966 90.34C157.79 90.0326 157.688 89.6879 157.668 89.3338C157.668 88.6848 158.126 88.4193 158.686 88.7512C158.985 88.942 159.233 89.2018 159.41 89.5085C159.587 89.8152 159.688 90.1599 159.704 90.5137Z" fill="#51AF4E"/>
<path d="M159.704 95.1231C159.704 95.7721 159.254 96.0376 158.686 95.7131C158.39 95.5184 158.143 95.2568 157.966 94.9494C157.79 94.6419 157.688 94.2973 157.668 93.9431C157.668 93.2942 158.126 93.0287 158.686 93.3605C158.985 93.5514 159.233 93.8111 159.41 94.1179C159.587 94.4246 159.688 94.7693 159.704 95.1231Z" fill="#51AF4E"/>
<path d="M162.514 247.916C162.45 247.915 162.387 247.9 162.33 247.872L68.2336 193.511C68.1914 193.488 68.1544 193.456 68.1248 193.418C68.0951 193.379 68.0735 193.336 68.0611 193.289C68.0487 193.242 68.0459 193.193 68.0527 193.145C68.0595 193.097 68.0759 193.051 68.1008 193.01C68.1502 192.926 68.23 192.865 68.3234 192.839C68.4169 192.813 68.5168 192.824 68.6023 192.87L162.698 247.201C162.782 247.25 162.843 247.33 162.869 247.423C162.895 247.517 162.884 247.617 162.839 247.702C162.808 247.763 162.763 247.816 162.705 247.853C162.648 247.891 162.582 247.912 162.514 247.916Z" fill="#51AF4E"/>
<path d="M162.514 238.38C162.449 238.381 162.385 238.363 162.329 238.329L68.2331 184.005C68.1488 183.955 68.0878 183.873 68.063 183.778C68.0382 183.683 68.0516 183.582 68.1003 183.496C68.124 183.454 68.1559 183.417 68.1941 183.388C68.2324 183.358 68.2762 183.336 68.323 183.324C68.3697 183.311 68.4185 183.309 68.4664 183.315C68.5143 183.322 68.5603 183.339 68.6018 183.364L162.698 237.694C162.783 237.742 162.845 237.822 162.872 237.916C162.898 238.01 162.886 238.111 162.838 238.196C162.804 238.252 162.757 238.298 162.7 238.33C162.643 238.362 162.579 238.38 162.514 238.38Z" fill="#51AF4E"/>
<path d="M162.513 228.845C162.449 228.841 162.386 228.824 162.329 228.793L68.2327 174.462C68.1588 174.408 68.1076 174.329 68.0887 174.24C68.0699 174.151 68.0849 174.057 68.1308 173.979C68.1767 173.9 68.2502 173.841 68.3371 173.813C68.4241 173.785 68.5182 173.79 68.6014 173.828L162.698 228.173C162.782 228.224 162.843 228.305 162.869 228.4C162.895 228.495 162.884 228.596 162.838 228.682C162.801 228.734 162.752 228.776 162.696 228.804C162.639 228.833 162.576 228.846 162.513 228.845Z" fill="#51AF4E"/>
<path d="M162.513 220.37C162.449 220.367 162.386 220.349 162.329 220.319L68.2327 165.988C68.1588 165.934 68.1076 165.855 68.0887 165.766C68.0699 165.676 68.0849 165.583 68.1308 165.504C68.1767 165.425 68.2502 165.366 68.3371 165.339C68.4241 165.311 68.5182 165.316 68.6014 165.354L162.698 219.699C162.782 219.75 162.843 219.831 162.869 219.926C162.895 220.02 162.884 220.121 162.838 220.208C162.801 220.26 162.752 220.302 162.696 220.33C162.639 220.358 162.576 220.372 162.513 220.37Z" fill="#51AF4E"/>
<path d="M162.513 211.896C162.449 211.893 162.386 211.875 162.329 211.845L68.2327 157.514C68.1588 157.46 68.1076 157.381 68.0887 157.292C68.0699 157.202 68.0849 157.109 68.1308 157.03C68.1767 156.951 68.2502 156.892 68.3371 156.864C68.4241 156.837 68.5182 156.842 68.6014 156.88L162.698 211.225C162.782 211.276 162.843 211.357 162.869 211.452C162.895 211.546 162.884 211.647 162.838 211.734C162.801 211.786 162.752 211.828 162.696 211.856C162.639 211.884 162.576 211.898 162.513 211.896Z" fill="#51AF4E"/>
<path d="M162.513 203.422C162.449 203.419 162.386 203.401 162.329 203.371L68.2327 149.04C68.1588 148.986 68.1076 148.907 68.0887 148.818C68.0699 148.728 68.0849 148.635 68.1308 148.556C68.1767 148.477 68.2502 148.418 68.3371 148.39C68.4241 148.363 68.5182 148.368 68.6014 148.406L162.698 202.751C162.782 202.802 162.843 202.883 162.869 202.978C162.895 203.072 162.884 203.173 162.838 203.26C162.801 203.312 162.752 203.354 162.696 203.382C162.639 203.41 162.576 203.424 162.513 203.422Z" fill="#51AF4E"/>
<path d="M104.264 75.9205L101.781 74.493V81.9575L102.716 82.4953V79.7819L104.238 80.6565C105.567 81.4205 106.451 80.9597 106.451 79.5173C106.451 78.1152 105.576 76.6744 104.264 75.9205ZM104.151 79.7185L102.716 78.8942V75.9185L104.151 76.7428C104.955 77.2052 105.48 78.1019 105.48 78.9896C105.48 79.8874 104.973 80.191 104.151 79.7185Z" fill="#211F42"/>
<path d="M108.254 81.0983L108.236 80.2813L107.379 79.7887V85.1753L108.271 85.6879V82.6719C108.271 81.7539 108.919 81.5206 109.977 82.1288L110.038 81.2158C109.225 80.7484 108.604 80.7042 108.254 81.0983Z" fill="#211F42"/>
<path d="M112.921 88.4613C114.373 89.2956 115.353 88.7389 115.353 87.0644C115.353 85.3899 114.373 83.7073 112.921 82.873C111.461 82.0336 110.481 82.5903 110.481 84.2648C110.481 85.9392 111.461 87.6219 112.921 88.4613ZM112.921 87.5736C112.012 87.0509 111.408 85.9374 111.408 84.7976C111.408 83.6577 112.012 83.2379 112.921 83.7606C113.822 84.2783 114.426 85.3918 114.426 86.5316C114.426 87.6715 113.822 88.0913 112.921 87.5736Z" fill="#211F42"/>
<path d="M116.645 84.1253V85.1138L115.858 84.6615V85.5088L116.645 85.9612V90.5004L117.537 91.0131V86.4738L118.954 87.2881V86.4408L117.537 85.6265V84.7994C117.537 84.2748 117.861 84.1178 118.342 84.3943C118.595 84.5401 118.805 84.6909 118.989 84.8974L119.059 84.1306C118.797 83.8285 118.447 83.5669 118.071 83.3508C117.214 82.8582 116.645 83.167 116.645 84.1253ZM120.187 86.0298C120.502 86.2108 120.738 86.0741 120.738 85.7009C120.738 85.3277 120.502 84.9196 120.187 84.7387C119.864 84.5527 119.627 84.6893 119.627 85.0625C119.627 85.4358 119.864 85.8438 120.187 86.0298ZM119.741 92.2797L120.633 92.7924V87.4058L119.741 86.8931V92.2797Z" fill="#211F42"/>
<path d="M121.976 93.5641L122.868 94.0768V86.2088L121.976 85.6961V93.5641Z" fill="#211F42"/>
<path d="M128.455 94.5237C128.455 92.8896 127.554 91.2825 126.198 90.5034C124.834 89.7193 123.933 90.3314 123.933 92.0159C123.933 93.6803 124.86 95.3227 126.233 96.1118C127.091 96.6044 127.808 96.5828 128.245 96.0877L127.563 95.2719C127.239 95.5702 126.784 95.6114 126.225 95.2897C125.411 94.8223 124.965 93.9405 124.878 92.9118L128.437 94.9575C128.455 94.8465 128.455 94.6549 128.455 94.5237ZM126.198 91.3205C126.968 91.7628 127.458 92.6596 127.537 93.7337L124.878 92.2057C124.957 91.2321 125.429 90.8782 126.198 91.3205Z" fill="#211F42"/>
</g>
<path d="M119.93 71.7594V273.669C119.93 277.357 118.581 279.812 116.516 280.616H116.464L107.71 285.417L107.754 277.622L108.728 68.2269L117.976 63.4922C119.213 66.0758 119.879 68.8954 119.93 71.7594Z" fill="#51AF4E" fill-opacity="0.2"/>
<path d="M107.252 286.199L107.311 277.644L108.285 67.976L118.189 62.9169L118.381 63.3299C119.644 65.964 120.328 68.8384 120.387 71.7594V273.669C120.387 277.356 119.008 280.122 116.699 281.044L107.252 286.199ZM109.17 68.5292L108.204 277.651L108.159 284.687L116.338 280.211C118.329 279.436 119.495 276.995 119.495 273.669V71.7594C119.441 69.1261 118.852 66.5313 117.761 64.1337L109.17 68.5292Z" fill="#51AF4E" fill-opacity="0.2"/>
<path d="M117.975 63.5217L108.727 68.2564L9.72626 10.6585L3.08887 6.81619L12.2264 1.65377L12.4845 1.4989C13.9594 0.621284 15.8474 0.680284 17.9493 1.89714L111.655 55.9993C114.206 57.4595 116.463 60.262 117.975 63.5217Z" fill="#51AF4E" fill-opacity="0.2"/>
<path d="M108.712 68.7579L108.506 68.6399L2.21899 6.80882L12.2562 1.12279C13.9082 0.127176 16.01 0.267297 18.1561 1.51365L111.906 55.6011C114.413 57.076 116.773 59.8564 118.381 63.3152L118.565 63.6987L108.712 68.7579ZM3.98896 6.80882L108.712 67.7328L117.356 63.3078C115.837 60.1882 113.668 57.6808 111.456 56.3754L17.7579 2.28802C15.951 1.24816 14.2327 1.07853 12.8905 1.80127L12.4848 2.05202L3.98896 6.80882Z" fill="#51AF4E" fill-opacity="0.2"/>
<path d="M110.866 76.8555V278.625C110.866 281.804 109.855 284.09 108.233 285.159L107.709 285.447C106.301 286.11 104.538 285.963 102.62 284.857L57.3239 258.705L36.158 246.485L8.90777 230.755C4.35009 228.122 0.655273 221.057 0.655273 214.987V13.2323C0.655273 10.157 1.59926 7.92978 3.11848 6.81618C3.37644 6.62207 3.65919 6.46333 3.95922 6.34418C5.33832 5.75419 7.0493 5.93119 8.90777 7.00055L102.62 61.1027C105.047 62.4966 107.222 65.1589 108.727 68.2564C110.072 70.9275 110.802 73.8655 110.866 76.8555Z" fill="#51AF4E" fill-opacity="0.2"/>
<path d="M8.90759 229.567C28.1929 241.072 78.3569 271.007 103.188 285.963C103.928 286.405 104.771 286.643 105.633 286.653C106.494 286.662 107.343 286.444 108.093 286.019C108.842 285.594 109.466 284.978 109.9 284.233C110.333 283.489 110.562 282.643 110.563 281.781V74.3111C110.562 71.951 109.945 69.6321 108.771 67.5843C107.598 65.5364 105.91 63.8309 103.874 62.6367L8.45772 6.71291C7.71592 6.26973 6.86964 6.0317 6.00558 6.02319C5.14153 6.01467 4.29074 6.23599 3.54035 6.66446C2.78996 7.09293 2.16695 7.71316 1.73513 8.46162C1.3033 9.21008 1.07819 10.0599 1.08283 10.924V215.835C1.08621 218.606 1.80912 221.328 3.18078 223.735C4.55243 226.142 6.5258 228.152 8.90759 229.567Z" fill="#51AF4E" fill-opacity="0.2"/>
<path d="M8.56829 230.209C24.0457 239.442 39.533 248.685 55.0301 257.939C64.0717 263.347 73.1108 268.755 82.1475 274.163L94.2645 281.428L99.6555 284.672C101.3 285.661 103.048 287.091 104.995 287.35C105.79 287.446 106.596 287.374 107.361 287.137C108.126 286.901 108.832 286.505 109.434 285.977C110.035 285.448 110.518 284.799 110.851 284.071C111.185 283.343 111.36 282.553 111.367 281.752C111.367 281.391 111.367 281.015 111.367 280.668V89.5256C111.367 84.5402 111.367 79.5621 111.367 74.5841C111.382 72.0065 110.716 69.4706 109.436 67.2329C108.157 64.9951 106.309 63.1349 104.08 61.8403C101.905 60.5497 99.7145 59.2812 97.5316 57.998L66.2768 39.6861L29.1442 17.9892C22.4478 14.0658 15.7957 10.0686 9.06241 6.18939C8.1865 5.64998 7.18096 5.35763 6.15238 5.34332C5.1238 5.32902 4.11051 5.59329 3.21994 6.10813C2.32936 6.62297 1.59469 7.36919 1.09379 8.26768C0.592901 9.16617 0.344458 10.1835 0.374795 11.2117C0.374795 12.8489 0.374795 14.4935 0.374795 16.1307V198.991C0.374795 204.429 0.374795 209.859 0.374795 215.282C0.32447 218.268 1.05377 221.215 2.49067 223.833C3.92758 226.451 6.0224 228.648 8.56829 230.209C9.37953 230.703 10.117 229.427 9.30578 228.933C4.29823 225.858 1.8719 220.666 1.8719 214.921V26.8612C1.8719 21.6988 1.8719 16.5364 1.8719 11.3739C1.83283 10.7019 1.94507 10.0297 2.20034 9.40682C2.45562 8.78395 2.84742 8.2263 3.34687 7.77499C4.99885 6.37376 6.98269 6.66138 8.70104 7.66436L16.0759 11.9934L47.6552 30.5265L83.9028 51.7662C90.3779 55.5643 96.8678 59.3254 103.321 63.1456C105.348 64.3355 107.021 66.0447 108.167 68.0969C109.313 70.1492 109.891 72.4701 109.84 74.8201V280.321C109.84 280.764 109.84 281.214 109.84 281.656C109.845 282.417 109.642 283.166 109.255 283.821C108.867 284.476 108.309 285.014 107.639 285.376C106.97 285.739 106.215 285.913 105.454 285.88C104.694 285.847 103.956 285.608 103.321 285.189C95.7026 280.697 88.1581 276.073 80.5767 271.53C63.054 261.024 45.4993 250.532 27.9126 240.054L9.30578 228.911C9.13366 228.813 8.92973 228.788 8.73887 228.84C8.54801 228.893 8.38584 229.019 8.28805 229.191C8.19025 229.363 8.16483 229.567 8.21739 229.758C8.26994 229.949 8.39617 230.111 8.56829 230.209Z" fill="#51AF4E" fill-opacity="0.2"/>
<path d="M63.3786 122.12C63.3786 129.151 58.4275 132.022 52.3541 128.491C49.152 126.395 46.4865 123.577 44.5717 120.263C42.657 116.95 41.5465 113.233 41.3296 109.412C41.3296 102.382 46.2807 99.5099 52.3541 103.042C55.5616 105.132 58.2314 107.948 60.1469 111.263C62.0623 114.578 63.1695 118.297 63.3786 122.12Z" fill="#211F42"/>
<path d="M52.3555 128.491C43.3774 123.275 36.0828 128.788 36.0828 140.802V144.499L68.6282 163.314V159.749C68.6282 147.602 61.3335 133.673 52.3555 128.491Z" fill="#211F42"/>
<path d="M103.889 62.6367L8.45772 6.71291C7.71592 6.26973 6.86964 6.0317 6.00558 6.02319C5.14153 6.01467 4.29074 6.23599 3.54035 6.66446C2.78996 7.09293 2.16695 7.71316 1.73513 8.46162C1.3033 9.21008 1.07819 10.0599 1.08283 10.924V19.9213L110.519 83.102V74.3111C110.524 71.9567 109.915 69.6416 108.753 67.5943C107.59 65.547 105.913 63.8382 103.889 62.6367Z" fill="#51AF4E" fill-opacity="0.2"/>
<path d="M100.084 85.9044C100.084 86.5534 99.6337 86.8189 99.0658 86.4944C98.769 86.3002 98.5222 86.0386 98.3454 85.7311C98.1685 85.4236 98.0667 85.0787 98.0481 84.7245C98.0481 84.0755 98.5053 83.8173 99.0658 84.1418C99.3642 84.3327 99.6123 84.5924 99.7894 84.8992C99.9665 85.2059 100.067 85.5506 100.084 85.9044Z" fill="#51AF4E"/>
<path d="M100.084 90.5137C100.084 91.1627 99.6337 91.4282 99.0658 91.1037C98.7694 90.909 98.5229 90.6474 98.3461 90.34C98.1693 90.0326 98.0673 89.6879 98.0481 89.3338C98.0481 88.6848 98.5053 88.4193 99.0658 88.7512C99.3642 88.942 99.6123 89.2018 99.7894 89.5085C99.9665 89.8152 100.067 90.1599 100.084 90.5137Z" fill="#51AF4E"/>
<path d="M100.084 95.1231C100.084 95.7721 99.6337 96.0376 99.0658 95.7131C98.7694 95.5184 98.5229 95.2568 98.3461 94.9494C98.1693 94.6419 98.0673 94.2973 98.0481 93.9431C98.0481 93.2942 98.5053 93.0287 99.0658 93.3605C99.3642 93.5514 99.6123 93.8111 99.7894 94.1179C99.9665 94.4246 100.067 94.7693 100.084 95.1231Z" fill="#51AF4E"/>
<path d="M102.894 247.916C102.83 247.915 102.767 247.9 102.709 247.872L8.61322 193.511C8.57103 193.488 8.53403 193.456 8.5044 193.418C8.47477 193.379 8.45312 193.336 8.44074 193.289C8.42836 193.242 8.4255 193.193 8.43232 193.145C8.43915 193.097 8.45553 193.051 8.48048 193.01C8.52985 192.926 8.6096 192.865 8.70305 192.839C8.79651 192.813 8.89644 192.824 8.98196 192.87L103.078 247.201C103.162 247.25 103.223 247.33 103.249 247.423C103.275 247.517 103.264 247.617 103.218 247.702C103.188 247.763 103.142 247.816 103.085 247.853C103.028 247.891 102.962 247.912 102.894 247.916Z" fill="#51AF4E"/>
<path d="M102.893 238.38C102.828 238.381 102.764 238.363 102.709 238.329L8.61269 184.005C8.52846 183.954 8.46741 183.873 8.4426 183.778C8.41779 183.683 8.4312 183.582 8.47995 183.496C8.50363 183.454 8.53553 183.417 8.57378 183.387C8.61203 183.358 8.65583 183.336 8.7026 183.324C8.74937 183.311 8.79815 183.309 8.84605 183.315C8.89395 183.322 8.93998 183.339 8.98144 183.364L103.078 237.694C103.163 237.742 103.225 237.822 103.251 237.916C103.278 238.01 103.265 238.111 103.218 238.196C103.184 238.252 103.136 238.298 103.079 238.33C103.023 238.362 102.959 238.38 102.893 238.38Z" fill="#51AF4E"/>
<path d="M102.893 228.844C102.828 228.841 102.765 228.824 102.708 228.793L8.61231 174.462C8.53849 174.408 8.4872 174.329 8.46837 174.24C8.44955 174.151 8.46453 174.057 8.51042 173.979C8.5563 173.9 8.62983 173.84 8.71677 173.813C8.8037 173.785 8.89787 173.79 8.98106 173.828L103.077 228.173C103.161 228.224 103.223 228.305 103.249 228.4C103.275 228.495 103.264 228.596 103.217 228.682C103.181 228.734 103.132 228.776 103.076 228.804C103.019 228.832 102.956 228.846 102.893 228.844Z" fill="#51AF4E"/>
<path d="M102.893 220.37C102.828 220.367 102.765 220.349 102.708 220.319L8.61231 165.988C8.53849 165.934 8.4872 165.855 8.46837 165.766C8.44955 165.676 8.46453 165.583 8.51042 165.504C8.5563 165.425 8.62983 165.366 8.71677 165.339C8.8037 165.311 8.89787 165.316 8.98106 165.354L103.077 219.699C103.161 219.75 103.223 219.831 103.249 219.926C103.275 220.02 103.264 220.121 103.217 220.208C103.181 220.26 103.132 220.302 103.076 220.33C103.019 220.358 102.956 220.372 102.893 220.37Z" fill="#51AF4E"/>
<path d="M102.893 211.896C102.828 211.893 102.765 211.875 102.708 211.845L8.61231 157.514C8.53849 157.46 8.4872 157.381 8.46837 157.292C8.44955 157.202 8.46453 157.109 8.51042 157.03C8.5563 156.951 8.62983 156.892 8.71677 156.864C8.8037 156.837 8.89787 156.842 8.98106 156.88L103.077 211.225C103.161 211.276 103.223 211.357 103.249 211.452C103.275 211.546 103.264 211.647 103.217 211.734C103.181 211.786 103.132 211.828 103.076 211.856C103.019 211.884 102.956 211.898 102.893 211.896Z" fill="#51AF4E"/>
<path d="M102.893 203.422C102.828 203.419 102.765 203.401 102.708 203.371L8.61231 149.04C8.53849 148.986 8.4872 148.907 8.46837 148.818C8.44955 148.728 8.46453 148.635 8.51042 148.556C8.5563 148.477 8.62983 148.418 8.71677 148.39C8.8037 148.363 8.89787 148.368 8.98106 148.406L103.077 202.751C103.161 202.802 103.223 202.883 103.249 202.978C103.275 203.072 103.264 203.173 103.217 203.26C103.181 203.312 103.132 203.354 103.076 203.382C103.019 203.41 102.956 203.424 102.893 203.422Z" fill="#51AF4E"/>
<path d="M44.6439 75.9205L42.1602 74.493V81.9575L43.0959 82.4953V79.7819L44.6177 80.6565C45.9471 81.4205 46.8304 80.9597 46.8304 79.5173C46.8304 78.1152 45.9558 76.6744 44.6439 75.9205ZM44.5303 79.7185L43.0959 78.8942V75.9185L44.5303 76.7428C45.3349 77.2052 45.8596 78.1019 45.8596 78.9896C45.8596 79.8874 45.3523 80.191 44.5303 79.7185Z" fill="#211F42"/>
<path d="M48.6336 81.0983L48.6161 80.2813L47.759 79.7887V85.1753L48.6511 85.6879V82.6719C48.6511 81.7539 49.2982 81.5206 50.3565 82.1288L50.4177 81.2158C49.6043 80.7484 48.9834 80.7042 48.6336 81.0983Z" fill="#211F42"/>
<path d="M53.3011 88.4613C54.7529 89.2956 55.7324 88.7389 55.7324 87.0644C55.7324 85.3899 54.7529 83.7073 53.3011 82.873C51.8406 82.0336 50.8611 82.5903 50.8611 84.2648C50.8611 85.9392 51.8406 87.6219 53.3011 88.4613ZM53.3011 87.5736C52.3916 87.0509 51.7881 85.9374 51.7881 84.7976C51.7881 83.6577 52.3916 83.2379 53.3011 83.7606C54.2019 84.2783 54.8054 85.3918 54.8054 86.5316C54.8054 87.6715 54.2019 88.0913 53.3011 87.5736Z" fill="#211F42"/>
<path d="M57.0248 84.1253V85.1138L56.2376 84.6615V85.5088L57.0248 85.9612V90.5004L57.9168 91.0131V86.4738L59.3336 87.2881V86.4408L57.9168 85.6265V84.7994C57.9168 84.2748 58.2404 84.1178 58.7214 84.3943C58.9751 84.5401 59.185 84.6909 59.3686 84.8974L59.4386 84.1306C59.1762 83.8285 58.8264 83.5669 58.4503 83.3508C57.5932 82.8582 57.0248 83.167 57.0248 84.1253ZM60.5668 86.0298C60.8816 86.2108 61.1178 86.0741 61.1178 85.7009C61.1178 85.3277 60.8816 84.9196 60.5668 84.7387C60.2432 84.5527 60.0071 84.6893 60.0071 85.0625C60.0071 85.4358 60.2432 85.8438 60.5668 86.0298ZM60.1208 92.2797L61.0128 92.7924V87.4058L60.1208 86.8931V92.2797Z" fill="#211F42"/>
<path d="M62.3556 93.5641L63.2476 94.0768V86.2088L62.3556 85.6961V93.5641Z" fill="#211F42"/>
<path d="M68.8345 94.5237C68.8345 92.8896 67.9337 91.2825 66.5781 90.5034C65.2138 89.7193 64.313 90.3314 64.313 92.0159C64.313 93.6803 65.24 95.3227 66.6131 96.1118C67.4702 96.6044 68.1873 96.5828 68.6246 96.0877L67.9424 95.2719C67.6189 95.5702 67.1641 95.6114 66.6043 95.2897C65.791 94.8223 65.345 93.9405 65.2575 92.9118L68.817 94.9575C68.8345 94.8465 68.8345 94.6549 68.8345 94.5237ZM66.5781 91.3205C67.3477 91.7628 67.8375 92.6596 67.9162 93.7337L65.2575 92.2057C65.3362 91.2321 65.8085 90.8782 66.5781 91.3205Z" fill="#211F42"/>
</svg>
