<svg width="52" height="52" viewBox="0 0 52 52" fill="none" xmlns="http://www.w3.org/2000/svg">
<g clip-path="url(#clip0_2871_4179)">
<path d="M43.4915 7.7135L25.5161 25.6318L43.4915 43.5502C45.8822 41.2141 47.7815 38.4261 49.078 35.3494C50.3746 32.2726 51.0424 28.969 51.0424 25.6318C51.0424 22.2947 50.3746 18.991 49.078 15.9143C47.7815 12.8376 45.8822 10.0496 43.4915 7.7135Z" fill="#51AF4E"/>
<path d="M18.3202 32.8049L11.1523 25.632L18.3202 18.6253L34.7398 2.28554C31.9049 1.22905 28.9036 0.685098 25.8771 0.67926C19.2013 0.67926 12.799 3.3228 8.07848 8.02832C3.35799 12.7338 0.706055 19.1159 0.706055 25.7705C0.706055 32.4251 3.35799 38.8071 8.07848 43.5126C12.799 48.2181 19.2013 50.8617 25.8771 50.8617C28.9138 50.8034 31.9155 50.2031 34.7398 49.0892L18.3202 32.8049Z" fill="#51AF4E"/>
</g>
<defs>
<clipPath id="clip0_2871_4179">
<rect width="51" height="51" fill="white" transform="translate(0.706055 0.263794)"/>
</clipPath>
</defs>
</svg>
