<svg width="42" height="42" viewBox="0 0 42 42" fill="none" xmlns="http://www.w3.org/2000/svg">
<g clip-path="url(#clip0_2871_4169)">
<path d="M35.1021 6.25278L20.6514 20.6577L35.1021 35.0626C37.0241 33.1846 38.551 30.9433 39.5933 28.4698C40.6356 25.9964 41.1725 23.3405 41.1725 20.6577C41.1725 17.9749 40.6356 15.319 39.5933 12.8456C38.551 10.3721 37.0241 8.13079 35.1021 6.25278Z" fill="#51AF4E"/>
<path d="M14.8665 26.4243L9.10404 20.6578L14.8665 15.025L28.0665 1.88911C25.7875 1.03977 23.3747 0.602471 20.9416 0.597778C15.5748 0.597778 10.4278 2.72298 6.63291 6.50584C2.838 10.2887 0.706055 15.4194 0.706055 20.7691C0.706055 26.1189 2.838 31.2496 6.63291 35.0324C10.4278 38.8153 15.5748 40.9405 20.9416 40.9405C23.3829 40.8936 25.796 40.411 28.0665 39.5156L14.8665 26.4243Z" fill="#51AF4E"/>
<ellipse cx="20.9392" cy="20.7691" rx="20.2332" ry="20.1714" fill="#51AF4E"/>
<path d="M21.2061 29.7638C26.1766 29.7638 30.2061 25.7344 30.2061 20.7638C30.2061 15.7932 26.1766 11.7638 21.2061 11.7638C16.2355 11.7638 12.2061 15.7932 12.2061 20.7638C12.2061 25.7344 16.2355 29.7638 21.2061 29.7638Z" stroke="#FBFBFB" stroke-width="2" stroke-miterlimit="10" stroke-linecap="round" stroke-linejoin="round"/>
<path d="M24.2061 18.7638L20.2061 22.7638L18.2061 20.7638" stroke="#FBFBFB" stroke-width="2" stroke-linecap="round" stroke-linejoin="round"/>
</g>
<defs>
<clipPath id="clip0_2871_4169">
<rect width="41" height="41" fill="white" transform="translate(0.706055 0.263794)"/>
</clipPath>
</defs>
</svg>
