<svg width="162" height="24" viewBox="0 0 162 24" fill="none" xmlns="http://www.w3.org/2000/svg">
<g clip-path="url(#clip0_2803_4864)">
<path d="M19.4094 3.57806L11.465 11.6589L19.4094 19.7397C20.466 18.6862 21.3054 17.4288 21.8784 16.0413C22.4515 14.6538 22.7466 13.1639 22.7466 11.6589C22.7466 10.1539 22.4515 8.66401 21.8784 7.27646C21.3054 5.88892 20.466 4.63158 19.4094 3.57806Z" fill="#51AF4E"/>
<path d="M8.28478 14.8938L5.11684 11.659L8.28478 8.49907L15.5416 1.13016C14.2887 0.653706 12.9622 0.408394 11.6246 0.405762C8.67418 0.405762 5.84459 1.59795 3.75832 3.72004C1.67205 5.84214 0.5 8.72031 0.5 11.7214C0.5 14.7225 1.67205 17.6007 3.75832 19.7228C5.84459 21.8449 8.67418 23.037 11.6246 23.037C12.9667 23.0107 14.2933 22.74 15.5416 22.2377L8.28478 14.8938Z" fill="#51AF4E"/>
<path d="M36.1823 12.8204H34.2177V22.2376H30.1534V0.505615H34.2177V9.42324H36.0963L42.8743 0.505615H47.7858L39.6326 11.0969L48.2278 22.2127H43.3163L36.1823 12.8204Z" fill="#FBFBFB"/>
<path d="M80.7299 0.505615L73.3626 22.2127H69.6053L64.4113 6.35078L59.2542 22.2376H55.4723L48.105 0.5306H52.464L57.5966 16.6922L62.5081 0.5306H66.3146L71.3243 16.6672L76.4323 0.505615H80.7299Z" fill="#FBFBFB"/>
<path d="M95.2434 17.9038H85.4204L83.6768 22.2377H79.3301L88.441 0.53064H92.1983L101.321 22.2377H96.9748L95.2434 17.9038ZM93.8805 14.4691L90.3319 5.63891L86.7956 14.4691H93.8805Z" fill="#FBFBFB"/>
<path d="M109.831 12.8204H107.878V22.2376H103.814V0.505615H107.878V9.42324H109.745L116.523 0.505615H121.434L113.269 11.0969L121.864 22.2127H116.952L109.831 12.8204Z" fill="#FBFBFB"/>
<path d="M121.667 11.3592C121.667 4.67719 126.162 0.218384 132.878 0.218384C139.595 0.218384 144.064 4.67719 144.064 11.3592C144.064 18.0411 139.57 22.4999 132.878 22.4999C126.186 22.4999 121.667 18.0411 121.667 11.3592ZM139.852 11.3592C139.852 6.7255 137.065 3.65304 132.878 3.65304C128.691 3.65304 125.879 6.7255 125.879 11.3592C125.879 15.9928 128.703 19.0653 132.878 19.0653C137.053 19.0653 139.902 15.9928 139.902 11.3592H139.852Z" fill="#FBFBFB"/>
<path d="M161.389 18.778V22.2376H147.883V0.505615H151.947V18.778H161.389Z" fill="#FBFBFB"/>
</g>
<defs>
<clipPath id="clip0_2803_4864">
<rect width="161" height="23" fill="white" transform="translate(0.5 0.218384)"/>
</clipPath>
</defs>
</svg>
