<svg width="390" height="297" viewBox="0 0 390 297" fill="none" xmlns="http://www.w3.org/2000/svg">
<ellipse cx="194" cy="274.2" rx="21.8897" ry="87.713" transform="rotate(-90 194 274.2)" fill="black" fill-opacity="0.2"/>
<path d="M-1.49438 98.6386H64.0412C69.564 98.6386 74.0411 103.116 74.0411 108.639V194.529C74.0411 200.052 78.5183 204.529 84.0411 204.529H296.772C302.295 204.529 306.772 209.006 306.772 214.529V233.722C306.772 239.245 311.249 243.722 316.772 243.722H391.494" stroke="#FBFBFB"/>
<mask id="path-3-inside-1_2803_6786" fill="white">
<path fill-rule="evenodd" clip-rule="evenodd" d="M267.979 240.867L267.979 147.776L122.021 147.776L122.021 240.885L122.021 241.619C122.03 241.62 122.038 241.622 122.047 241.623C123.099 256.276 155.358 268.035 195 268.035C234.642 268.035 266.902 256.276 267.953 241.623L267.979 241.619L267.979 240.902C267.979 240.896 267.979 240.89 267.979 240.885C267.979 240.879 267.979 240.873 267.979 240.867Z"/>
</mask>
<path fill-rule="evenodd" clip-rule="evenodd" d="M267.979 240.867L267.979 147.776L122.021 147.776L122.021 240.885L122.021 241.619C122.03 241.62 122.038 241.622 122.047 241.623C123.099 256.276 155.358 268.035 195 268.035C234.642 268.035 266.902 256.276 267.953 241.623L267.979 241.619L267.979 240.902C267.979 240.896 267.979 240.89 267.979 240.885C267.979 240.879 267.979 240.873 267.979 240.867Z" fill="#51AF4E"/>
<path d="M267.979 147.776L268.979 147.776L268.979 146.776L267.979 146.776L267.979 147.776ZM267.979 240.867L266.979 240.867L267.979 240.867ZM122.021 147.776L122.021 146.776L121.021 146.776L121.021 147.776L122.021 147.776ZM122.021 240.885L123.021 240.885L123.021 240.885L122.021 240.885ZM122.021 241.619L121.021 241.619L121.021 242.487L121.88 242.609L122.021 241.619ZM122.047 241.623L123.045 241.551L122.987 240.746L122.188 240.633L122.047 241.623ZM195 268.035L195 267.035L195 268.035ZM267.953 241.623L267.816 240.632L267.013 240.743L266.956 241.551L267.953 241.623ZM267.979 241.619L268.116 242.61L268.979 242.49L268.979 241.619L267.979 241.619ZM267.979 240.902L266.979 240.902L267.979 240.902ZM266.979 147.776L266.979 240.867L268.979 240.867L268.979 147.776L266.979 147.776ZM122.021 148.776L267.979 148.776L267.979 146.776L122.021 146.776L122.021 148.776ZM123.021 240.885L123.021 147.776L121.021 147.776L121.021 240.885L123.021 240.885ZM123.021 241.619L123.021 240.885L121.021 240.885L121.021 241.619L123.021 241.619ZM122.188 240.633C122.179 240.631 122.17 240.63 122.162 240.629L121.88 242.609C121.889 242.61 121.898 242.612 121.906 242.613L122.188 240.633ZM195 267.035C175.266 267.035 157.411 264.107 144.393 259.384C137.881 257.021 132.628 254.227 128.956 251.164C125.278 248.096 123.281 244.842 123.045 241.551L121.05 241.694C121.339 245.731 123.769 249.441 127.674 252.7C131.586 255.962 137.071 258.855 143.711 261.264C156.997 266.084 175.093 269.035 195 269.035L195 267.035ZM266.956 241.551C266.719 244.842 264.722 248.096 261.045 251.164C257.373 254.227 252.119 257.021 245.607 259.384C232.59 264.107 214.734 267.035 195 267.035L195 269.035C214.908 269.035 233.003 266.084 246.289 261.264C252.929 258.855 258.414 255.962 262.326 252.699C266.232 249.441 268.661 245.731 268.95 241.694L266.956 241.551ZM267.842 240.628L267.816 240.632L268.09 242.613L268.116 242.61L267.842 240.628ZM266.979 240.902L266.979 241.619L268.979 241.619L268.979 240.902L266.979 240.902ZM266.979 240.885C266.979 240.887 266.979 240.889 266.979 240.892C266.979 240.895 266.979 240.899 266.979 240.902L268.979 240.902C268.979 240.9 268.979 240.898 268.979 240.895C268.979 240.892 268.979 240.888 268.979 240.885L266.979 240.885ZM266.979 240.867C266.979 240.871 266.979 240.874 266.979 240.877C266.979 240.88 266.979 240.882 266.979 240.885L268.979 240.885C268.979 240.881 268.979 240.877 268.979 240.874C268.979 240.871 268.979 240.869 268.979 240.867L266.979 240.867Z" fill="#FBFBFB" mask="url(#path-3-inside-1_2803_6786)"/>
<path d="M195 173.759C174.891 173.759 156.708 170.726 143.57 165.838C136.999 163.394 131.717 160.495 128.086 157.301C124.454 154.107 122.521 150.661 122.521 147.109C122.521 143.556 124.454 140.11 128.086 136.916C131.717 133.722 136.999 130.823 143.57 128.379C156.708 123.491 174.891 120.458 195 120.458C215.109 120.458 233.292 123.491 246.43 128.379C253.001 130.823 258.283 133.722 261.914 136.916C265.546 140.11 267.479 143.556 267.479 147.109C267.479 150.661 265.546 154.107 261.914 157.301C258.283 160.495 253.001 163.394 246.43 165.838C233.292 170.726 215.109 173.759 195 173.759Z" fill="#51AF4E" stroke="#FBFBFB"/>
<path d="M195 125.719C212.694 125.719 228.691 128.164 240.248 132.103C246.029 134.074 250.671 136.409 253.858 138.977C257.05 141.549 258.718 144.3 258.718 147.109C258.718 149.917 257.05 152.668 253.858 155.24C250.671 157.808 246.029 160.143 240.248 162.114C228.691 166.053 212.694 168.498 195 168.498C177.306 168.498 161.309 166.053 149.752 162.114C143.971 160.143 139.329 157.808 136.142 155.24C132.95 152.668 131.282 149.917 131.282 147.109C131.282 144.3 132.95 141.549 136.142 138.977C139.329 136.409 143.971 134.074 149.752 132.103C161.309 128.164 177.306 125.719 195 125.719Z" fill="#3B8339" stroke="#FBFBFB"/>
<g filter="url(#filter0_d_2803_6786)">
<path d="M192.203 50.2276L195.132 52.5679L190.32 58.5251C189.737 59.2376 189.063 59.8706 188.315 60.4078C188.054 60.5938 187.784 60.764 187.501 60.931C186.056 61.746 184.475 62.2916 182.835 62.5413C182.222 62.6442 181.604 62.712 180.983 62.7442C180.312 62.7926 179.637 62.8014 178.964 62.7706C178.056 62.7432 177.15 62.6699 176.249 62.551C175.27 62.4189 174.276 62.2428 173.27 62.0103C172.52 61.8171 171.757 61.6208 170.982 61.4212C159.74 58.0861 147.79 49.1178 140.823 38.8075C140.349 38.1123 139.857 37.3858 139.476 36.6882C138.858 35.6758 138.298 34.6389 137.796 33.5898C137.293 32.5408 137.015 31.9096 136.693 31.0935C136.37 30.2773 136.19 29.6312 135.903 28.9844C135.617 28.3375 135.528 27.6482 135.388 26.9993C134.978 25.2191 134.843 23.3865 134.988 21.5654C135.079 21.2155 135.065 20.8523 135.124 20.5209C135.348 19.1022 135.848 17.7413 136.596 16.5152C136.812 16.146 137.059 15.7949 137.332 15.4656L141.886 9.8415L144.547 11.9795C144.952 11.9104 145.362 11.8695 145.785 11.8318C147.509 11.6984 149.242 11.7517 150.955 11.9905C152.062 12.1384 153.161 12.3458 154.247 12.6117C155.704 12.9641 157.141 13.3964 158.551 13.9068C168.971 17.9343 178.078 24.7575 184.871 33.6261C185.84 34.8973 186.741 36.2192 187.569 37.5862C188.256 38.696 188.871 39.8273 189.433 40.9581C190.233 42.5817 190.89 44.2715 191.397 46.0086C191.808 47.3842 192.078 48.7977 192.203 50.2276Z" fill="white"/>
<path opacity="0.15" d="M145.463 44.6935L155.253 32.555L159.303 36.5966L149.513 48.7352C148.086 47.4438 146.736 46.0966 145.463 44.6935Z" fill="white"/>
<path opacity="0.05" d="M190.269 58.5124C189.686 59.2249 189.012 59.8579 188.265 60.3951C188.004 60.5811 187.733 60.7513 187.45 60.9183C186.005 61.7333 184.424 62.2789 182.784 62.5286L182.12 62.6241L192.15 50.1742L195.079 52.5145L190.269 58.5124Z" fill="#3B8339"/>
<path opacity="0.15" d="M180.108 41.0487L182.825 42.3482L168.087 60.5024C167.176 60.161 166.249 59.7757 165.341 59.3686L180.108 41.0487Z" fill="white"/>
<path opacity="0.15" d="M158.556 55.6481L171.225 39.9865L175.392 43.885L163.625 58.5263C161.886 57.6559 160.194 56.6952 158.556 55.6481Z" fill="white"/>
<path opacity="0.15" d="M141.914 9.88805L144.575 12.0261C144.979 11.9569 145.39 11.916 145.813 11.8783C147.537 11.745 149.27 11.7982 150.983 12.0371C152.09 12.1849 153.189 12.3923 154.274 12.6583C155.732 13.0106 157.169 13.443 158.579 13.9534C159.943 14.4514 161.313 15.0308 162.67 15.6602L142.311 40.8959C141.784 40.2004 141.335 39.5117 140.801 38.7879C140.268 38.0642 139.835 37.3662 139.455 36.6686C138.836 35.6563 138.277 34.6193 137.774 33.5703C137.271 32.5212 136.994 31.8901 136.671 31.0739C136.348 30.2578 136.168 29.6117 135.881 28.9648C135.595 28.3179 135.506 27.6287 135.366 26.9797C134.956 25.1996 134.821 23.367 134.967 21.5459C135.057 21.196 135.044 20.8328 135.102 20.5014C135.326 19.0827 135.826 17.7217 136.574 16.4957C136.791 16.1264 137.037 15.7754 137.311 15.446L141.914 9.88805Z" fill="white"/>
<path opacity="0.15" d="M135.016 21.6124C135.106 21.2624 135.093 20.8992 135.152 20.5678C135.376 19.1491 135.876 17.7882 136.624 16.5621C136.84 16.1929 137.087 15.8418 137.36 15.5124L141.914 9.88839L144.575 12.0264L145.209 13.0827L135.094 25.604C134.914 24.2809 134.887 22.9414 135.016 21.6124Z" fill="white"/>
<path d="M194.607 34.6405C194.048 33.4972 193.43 32.3784 192.746 31.2561C191.912 29.8958 191.011 28.5783 190.045 27.3085C183.254 18.4363 174.147 11.6087 163.728 7.57675C162.318 7.06634 160.881 6.63399 159.423 6.28164C158.311 5.99516 157.21 5.81832 156.128 5.67292C154.417 5.43023 152.685 5.37281 150.962 5.5017C149.294 5.62199 147.657 6.01543 146.117 6.66626C144.129 7.49252 142.453 8.92705 141.33 10.7643C140.583 11.9862 140.085 13.343 139.862 14.7574C139.775 15.0949 139.763 15.4516 139.726 15.802C139.579 17.623 139.714 19.4558 140.126 21.2358C140.265 21.8847 140.442 22.5433 140.653 23.2241C140.864 23.9048 141.097 24.6045 141.371 25.3014C141.645 25.9982 142.064 26.9591 142.471 27.8102C142.878 28.6614 143.539 29.8712 144.152 30.9086C144.582 31.6191 145.024 32.3328 145.511 33.0311C152.49 43.3446 164.44 52.313 175.67 55.6449C176.445 55.8444 177.207 56.0408 177.957 56.2339C178.957 56.4914 179.958 56.6425 180.936 56.7746C181.837 56.8946 182.744 56.9679 183.652 56.9942C184.353 57.0148 184.982 57.0036 185.671 56.9678C186.293 56.9316 186.912 56.8597 187.526 56.7525C189.164 56.5068 190.744 55.9655 192.189 55.1547C192.472 54.9876 192.745 54.8049 193.006 54.6189C194.138 53.8281 195.087 52.805 195.792 51.618C196.913 49.6619 197.464 47.431 197.384 45.1778C197.346 43.3393 197.063 41.5139 196.542 39.7503C196.039 37.9966 195.391 36.2876 194.607 34.6405Z" fill="#51AF4E"/>
<path d="M187.935 33.628C182.989 23.5449 170.956 14.2755 160.543 12.3267C160.106 12.214 159.652 12.1638 159.264 12.1173C148.582 10.6987 144.078 18.1481 149.234 28.6584C154.39 39.1687 167.25 48.7977 177.945 50.1663C178.383 50.2257 178.816 50.2705 179.243 50.3007C188.933 50.9704 192.872 43.7486 187.935 33.628Z" fill="white"/>
<path d="M187.059 33.5625C186.901 33.2462 186.731 32.9226 186.55 32.5916C181.569 23.3127 170.5 15.0111 160.888 13.2151L160.638 13.1507L159.637 12.9996C157.851 12.7286 156.031 12.7836 154.264 13.1619C152.616 13.4575 151.112 14.2919 149.989 15.5342C148.866 16.7765 148.187 18.3565 148.059 20.0264C147.895 22.5043 148.341 24.9846 149.356 27.2508C149.559 27.7562 149.787 28.268 150.059 28.7645C150.331 29.261 150.544 29.729 150.807 30.2097C151.388 31.2285 152.024 32.2153 152.711 33.1657C157.76 40.082 164.763 45.3295 172.819 48.2332C173.863 48.575 174.927 48.8492 176.006 49.054C176.494 49.1795 176.997 49.2425 177.488 49.3024C177.979 49.3622 178.304 49.3927 178.711 49.4175L179.04 49.4354C181.295 49.6396 183.56 49.1593 185.539 48.0572C188.349 46.3555 189.608 43.1747 188.951 39.1008C188.594 37.1723 187.957 35.3065 187.059 33.5625Z" fill="white"/>
<path opacity="0.13" d="M187.059 33.5625C186.901 33.2462 186.731 32.9226 186.55 32.5916C181.569 23.3127 170.5 15.0111 160.888 13.2151L160.638 13.1507L159.637 12.9996C157.851 12.7286 156.031 12.7836 154.264 13.1619C152.616 13.4575 151.112 14.2919 149.989 15.5342C148.866 16.7765 148.187 18.3565 148.059 20.0264C147.895 22.5043 148.341 24.9846 149.356 27.2508C149.559 27.7562 149.787 28.268 150.059 28.7645C150.331 29.261 150.544 29.729 150.807 30.2097C151.388 31.2285 152.024 32.2153 152.711 33.1657C157.76 40.082 164.763 45.3295 172.819 48.2332C173.863 48.575 174.927 48.8492 176.006 49.054C176.494 49.1795 176.997 49.2425 177.488 49.3024C177.979 49.3622 178.304 49.3927 178.711 49.4175L179.04 49.4354C181.295 49.6396 183.56 49.1593 185.539 48.0572C188.349 46.3555 189.608 43.1747 188.951 39.1008C188.594 37.1723 187.957 35.3065 187.059 33.5625Z" fill="#3B8339"/>
<path d="M192.219 55.0827C183.822 59.3304 173.265 55.1988 165.454 50.855C153.902 43.9617 143.515 33.5301 140.266 21.0988C139.288 17.6269 139.668 13.9127 141.329 10.7108C139.532 13.8915 139.043 17.6464 139.965 21.1812C142.387 31.4405 150.031 40.3126 158.817 47.0266C167.939 53.5208 181.347 60.5054 192.219 55.0827Z" fill="#3B8339"/>
<path d="M153.654 27.2776C155.6 30.8975 158.937 32.6365 162.368 33.9066L161.074 34.0665L158.608 37.1229C159.101 37.7365 159.632 38.3184 160.198 38.8652C161.181 39.8037 162.273 40.6216 163.449 41.3017C165.397 42.4019 167.503 43.196 169.693 43.6561L171.405 46.8422L176.643 47.5117L179.106 44.4678L178.677 43.6508L178.587 43.4812C178.83 43.2894 179.049 43.068 179.237 42.8222C179.3 42.7384 179.358 42.651 179.411 42.5605C179.664 42.1459 181.144 40.488 181.703 39.7658C181.766 39.682 181.824 39.5946 181.877 39.5041C182.463 38.5754 182.369 37.2318 181.411 35.4659C180.428 33.6862 179.007 32.187 177.282 31.1106L176.846 30.8383L176.381 30.5721C176.249 30.4902 176.112 30.4151 175.973 30.3469L175.785 30.2987L175.467 30.1368C174.571 29.7025 173.65 29.3188 172.711 28.9872L171.484 28.5778L173.191 28.3646L175.658 25.3082C172.928 22.2113 169.266 20.0849 165.224 19.2492L163.493 16.138L158.307 15.5753L155.841 18.6318L156.372 19.6215C156.164 19.7625 155.98 19.9356 155.827 20.1342C155.473 20.6294 153.853 22.6244 153.379 23.1688C152.513 23.9985 152.644 25.4049 153.654 27.2776Z" fill="white"/>
<path opacity="0.1" d="M181.566 39.9855C180.938 40.7699 179.647 42.2633 179.391 42.6371L179.217 42.8988C179.026 43.1425 178.808 43.3636 178.567 43.5578L177.394 41.23C178.138 41.3849 178.909 41.3522 179.638 41.135C180.366 40.9177 181.029 40.5227 181.566 39.9855Z" fill="#3B8339"/>
<path opacity="0.2" d="M162.822 24.6952C162.309 23.7369 162.664 23.0288 164.844 23.2571C165.843 23.328 166.817 23.6008 167.707 24.0591C168.597 24.5174 169.384 25.1516 170.022 25.9232L175.602 25.2147L173.126 28.2554L171.444 28.4751L171.356 28.4525L169.441 27.8661L168.704 27.6762C167.348 27.3432 166.024 26.8907 164.748 26.3241C164.223 26.0917 163.747 25.7611 163.346 25.35C163.143 25.1562 162.966 24.936 162.822 24.6952Z" fill="#3B8339"/>
<path opacity="0.13" d="M156.251 19.4712L155.72 18.4814L158.183 15.4375L159.885 18.608C158.615 18.5312 157.351 18.8315 156.251 19.4712Z" fill="#3B8339"/>
<path opacity="0.1" d="M173.864 43.812L179.103 44.4814L176.649 47.541L171.398 46.8684L169.699 43.6854C167.504 43.2263 165.394 42.4266 163.446 41.3153C162.265 40.6448 161.172 39.8306 160.192 38.8914C159.622 38.3483 159.091 37.7661 158.602 37.1491L161.068 34.0926C161.555 34.7061 162.082 35.2871 162.646 35.8317C163.632 36.7703 164.729 37.5854 165.912 38.2589C167.853 39.3743 169.96 40.1733 172.153 40.6258L173.864 43.812Z" fill="#3B8339"/>
<path opacity="0.13" d="M153.23 23.0771C153.654 22.5198 155.324 20.5377 155.678 20.0425C155.008 20.9893 155.079 22.3671 156.115 24.2464C158.379 28.4413 162.449 30.1824 166.475 31.4192C170.183 32.5473 173.25 33.0041 174.353 35.0341C175.039 36.3035 174.178 36.7482 172.471 36.5483C171.385 36.4238 170.337 36.0777 169.391 35.5315C168.445 34.9852 167.622 34.2505 166.971 33.3728L162.363 33.9318C158.906 32.7084 155.611 30.8601 153.661 27.306C152.632 25.4018 152.51 24.0111 153.23 23.0771Z" fill="#3B8339"/>
<path d="M167.543 29.0293L170.01 25.9728L175.593 25.2518L173.127 28.3082L167.543 29.0293Z" fill="white"/>
<path opacity="0.1" d="M167.543 29.0293L170.01 25.9728L175.593 25.2518L173.127 28.3082L167.543 29.0293Z" fill="#3B8339"/>
<path d="M158.183 15.4375L159.898 18.6112L156.248 19.4837L155.717 18.4939L158.183 15.4375Z" fill="white"/>
<path opacity="0.2" d="M158.183 15.4375L159.898 18.6112L156.248 19.4837L155.717 18.4939L158.183 15.4375Z" fill="#3B8339"/>
<path d="M178.671 43.676L177.395 41.2285C178.183 41.4045 179.004 41.3654 179.772 41.1153C180.54 40.8652 181.226 40.4133 181.76 39.807C181.823 39.7232 181.881 39.6358 181.934 39.5453C182.519 38.6166 182.425 37.2731 181.468 35.5071C180.485 33.7274 179.063 32.2283 177.338 31.1518L176.902 30.8795L176.438 30.6133C176.305 30.5314 176.169 30.4563 176.029 30.3881L175.842 30.3399L175.523 30.178C174.627 29.7437 173.707 29.3599 172.768 29.0284C172.305 28.9093 171.862 28.7152 171.403 28.5836L169.488 27.9972L168.751 27.8073C167.396 27.4711 166.072 27.023 164.791 26.4677C164.269 26.226 163.795 25.8918 163.393 25.4812C163.204 25.2799 163.042 25.0545 162.912 24.811C162.399 23.8526 162.755 23.1446 164.932 23.3854C165.932 23.4495 166.908 23.7194 167.799 24.1781C168.69 24.6369 169.476 25.2747 170.109 26.0515L175.692 25.3304C172.963 22.2335 169.301 20.1072 165.258 19.2714L163.528 16.1602L158.342 15.5976L160.056 18.7713C158 18.788 156.56 19.2035 155.861 20.1564C155.191 21.1033 155.263 22.4811 156.295 24.3728C158.55 28.552 162.632 30.2963 166.658 31.5331C170.366 32.6612 173.434 33.1181 174.537 35.148C175.21 36.4143 174.362 36.8622 172.654 36.6623C171.57 36.5367 170.523 36.1915 169.577 35.6477C168.631 35.1038 167.806 34.3728 167.152 33.4993L161.252 34.2056C161.739 34.8249 162.27 35.4073 162.843 35.9479C163.826 36.8863 164.917 37.7042 166.093 38.3844C168.039 39.4902 170.146 40.2847 172.337 40.7387L174.049 43.9249L179.284 44.6069L178.671 43.676Z" fill="white"/>
<path d="M178.671 43.676L177.395 41.2285C178.183 41.4045 179.004 41.3654 179.772 41.1153C180.54 40.8652 181.226 40.4133 181.76 39.807C181.823 39.7232 181.881 39.6358 181.934 39.5453C182.519 38.6166 182.425 37.2731 181.468 35.5071C180.485 33.7274 179.063 32.2283 177.338 31.1518L176.902 30.8795L176.438 30.6133C176.305 30.5314 176.169 30.4563 176.029 30.3881L175.842 30.3399L175.523 30.178C174.627 29.7437 173.707 29.3599 172.768 29.0284C172.305 28.9093 171.862 28.7152 171.403 28.5836L169.488 27.9972L168.751 27.8073C167.396 27.4711 166.072 27.023 164.791 26.4677C164.269 26.226 163.795 25.8918 163.393 25.4812C163.204 25.2799 163.042 25.0545 162.912 24.811C162.399 23.8526 162.755 23.1446 164.932 23.3854C165.932 23.4495 166.908 23.7194 167.799 24.1781C168.69 24.6369 169.476 25.2747 170.109 26.0515L175.692 25.3304C172.963 22.2335 169.301 20.1072 165.258 19.2714L163.528 16.1602L158.342 15.5976L160.056 18.7713C158 18.788 156.56 19.2035 155.861 20.1564C155.191 21.1033 155.263 22.4811 156.295 24.3728C158.55 28.552 162.632 30.2963 166.658 31.5331C170.366 32.6612 173.434 33.1181 174.537 35.148C175.21 36.4143 174.362 36.8622 172.654 36.6623C171.57 36.5367 170.523 36.1915 169.577 35.6477C168.631 35.1038 167.806 34.3728 167.152 33.4993L161.252 34.2056C161.739 34.8249 162.27 35.4073 162.843 35.9479C163.826 36.8863 164.917 37.7042 166.093 38.3844C168.039 39.4902 170.146 40.2847 172.337 40.7387L174.049 43.9249L179.284 44.6069L178.671 43.676Z" fill="#51AF4E"/>
<path d="M156.118 24.2347C157.014 25.7709 158.225 27.1001 159.671 28.1351C161.157 29.1876 162.788 30.0204 164.512 30.6079C166.238 31.2524 168.013 31.7095 169.781 32.2448C170.672 32.4981 171.543 32.8203 172.385 33.2085C173.215 33.6027 173.901 34.2453 174.35 35.0474C173.861 34.2899 173.153 33.6987 172.321 33.3521C171.478 32.9928 170.611 32.6937 169.726 32.4572C167.939 31.9969 166.152 31.5366 164.416 30.8764C162.673 30.2551 161.03 29.3829 159.539 28.2875C158.82 27.746 158.161 27.1296 157.573 26.4487C157.02 25.7573 156.533 25.0162 156.118 24.2347Z" fill="white"/>
<path d="M173.865 43.8123L171.398 46.8688L169.687 43.6826L172.153 40.6262L173.865 43.8123Z" fill="white"/>
<path opacity="0.13" d="M173.865 43.8123L171.398 46.8688L169.687 43.6826L172.153 40.6262L173.865 43.8123Z" fill="#3B8339"/>
</g>
<g filter="url(#filter1_d_2803_6786)">
<path d="M214.941 118.405L218.177 119.07L216.796 125.68C216.636 126.474 216.363 127.241 215.987 127.959C215.863 128.217 215.722 128.468 215.566 128.708C214.761 129.93 213.74 130.994 212.553 131.85C212.112 132.176 211.654 132.478 211.18 132.755C210.672 133.064 210.147 133.345 209.607 133.596C208.883 133.94 208.141 134.245 207.385 134.509C206.567 134.802 205.722 135.064 204.831 135.291C204.168 135.456 203.546 135.587 202.803 135.731C192.644 137.654 179.65 135.443 170.018 130.17C169.363 129.819 168.718 129.449 168.083 129.06C167.188 128.507 166.339 127.932 165.527 127.312C164.714 126.693 164.241 126.314 163.65 125.805C163.06 125.296 162.652 124.845 162.248 124.463C161.844 124.081 161.404 123.56 161.025 123.109C159.997 121.885 159.157 120.514 158.534 119.043C158.398 118.75 158.268 118.468 158.214 118.167C157.818 116.966 157.663 115.7 157.757 114.44C157.784 114.061 157.838 113.684 157.918 113.313L159.196 107.035L162.186 107.658L163.082 107.044C164.392 106.259 165.783 105.617 167.229 105.127C168.153 104.791 169.095 104.508 170.05 104.278C171.345 103.96 172.658 103.719 173.982 103.556C183.78 102.512 193.677 104.19 202.584 108.406C203.852 109.013 205.088 109.685 206.287 110.419C207.274 111.015 208.207 111.65 209.099 112.318C210.384 113.265 211.583 114.324 212.68 115.483C213.528 116.38 214.286 117.358 214.941 118.405Z" fill="white"/>
<path opacity="0.15" d="M176.056 132.924L178.823 119.502L183.627 121.035L180.853 134.474C179.221 134.02 177.62 133.509 176.056 132.924Z" fill="white"/>
<path opacity="0.05" d="M216.797 125.679C216.636 126.473 216.364 127.241 215.988 127.958C215.863 128.217 215.722 128.467 215.566 128.708C214.761 129.929 213.74 130.993 212.554 131.849L212.07 132.186L214.918 118.386L218.155 119.051L216.797 125.679Z" fill="#3B8339"/>
<path opacity="0.15" d="M201.696 116.11L204.349 116.036L200.152 136.146C199.3 136.241 198.42 136.307 197.535 136.361L201.696 116.11Z" fill="white"/>
<path opacity="0.15" d="M190.75 136.226L194.351 118.794L199.246 120.156L195.884 136.383C194.171 136.419 192.457 136.366 190.75 136.226Z" fill="white"/>
<path opacity="0.15" d="M159.22 107.051L162.187 107.656L163.084 107.043C164.394 106.258 165.784 105.615 167.231 105.126C168.154 104.79 169.096 104.506 170.052 104.277C171.347 103.959 172.659 103.717 173.983 103.554C175.241 103.385 176.549 103.292 177.879 103.247L172.089 131.231C171.4 130.91 170.712 130.559 170.06 130.193C169.407 129.826 168.759 129.472 168.124 129.083C167.229 128.53 166.381 127.955 165.568 127.335C164.755 126.716 164.282 126.337 163.691 125.828C163.101 125.319 162.693 124.868 162.289 124.486C161.885 124.104 161.445 123.583 161.066 123.132C160.038 121.908 159.198 120.537 158.575 119.065C158.439 118.773 158.309 118.491 158.255 118.19C157.86 116.989 157.704 115.723 157.798 114.463C157.825 114.084 157.879 113.707 157.959 113.336L159.22 107.051Z" fill="white"/>
<path opacity="0.15" d="M158.546 119.037C158.411 118.744 158.281 118.463 158.227 118.161C157.831 116.96 157.676 115.694 157.77 114.434C157.797 114.055 157.851 113.678 157.931 113.307L159.209 107.029L162.187 107.657L163.105 108.228L160.236 122.137C159.549 121.176 158.982 120.135 158.546 119.037Z" fill="white"/>
<path d="M210.537 105.212C209.645 104.544 208.712 103.909 207.725 103.313C206.526 102.579 205.29 101.907 204.022 101.3C195.114 97.089 185.219 95.4111 175.42 96.4497C174.098 96.6165 172.787 96.8616 171.494 97.1839C170.538 97.4156 169.595 97.695 168.668 98.0211C167.219 98.5048 165.828 99.1477 164.521 99.9381C163.259 100.698 162.134 101.665 161.193 102.798C159.976 104.236 159.239 106.019 159.085 107.896C158.996 109.156 159.151 110.422 159.543 111.623C159.665 111.889 159.772 112.181 159.862 112.499C160.474 113.977 161.315 115.349 162.353 116.566C162.721 117.021 163.128 117.473 163.565 117.925C164.001 118.377 164.473 118.813 164.979 119.262C165.485 119.711 166.189 120.281 166.844 120.774C167.499 121.268 168.517 121.963 169.412 122.516C170.035 122.911 170.676 123.282 171.347 123.626C180.984 128.911 193.973 131.111 204.137 129.2C204.828 129.065 205.508 128.907 206.172 128.742C207.051 128.521 207.896 128.258 208.73 127.972C209.565 127.686 210.262 127.378 210.947 127.047C211.483 126.798 212.005 126.519 212.509 126.211C212.986 125.932 213.448 125.628 213.894 125.301C215.095 124.447 216.13 123.381 216.947 122.155C217.104 121.911 217.245 121.662 217.38 121.4C217.947 120.324 218.276 119.139 218.347 117.925C218.435 115.94 217.968 113.97 216.997 112.236C216.226 110.81 215.269 109.493 214.149 108.32C213.036 107.183 211.827 106.144 210.537 105.212Z" fill="#51AF4E"/>
<path d="M204.899 107.164C196.961 101.25 183.789 98.8367 174.826 101.501L173.712 101.86C164.76 105.102 164.226 112.713 172.508 118.88C180.79 125.047 194.75 127.41 203.702 124.168C204.053 124.005 204.393 123.848 204.721 123.697C212.672 120.32 212.848 113.073 204.899 107.164Z" fill="white"/>
<path d="M204.178 107.427C203.93 107.229 203.658 107.041 203.392 106.866C195.74 101.63 183.718 99.5525 175.443 102.013L175.232 102.11C174.962 102.235 174.66 102.289 174.38 102.39C172.874 102.904 171.472 103.682 170.239 104.688C169.077 105.588 168.246 106.847 167.874 108.269C167.503 109.69 167.612 111.195 168.184 112.548C169.052 114.557 170.4 116.321 172.109 117.686C172.481 117.998 172.87 118.316 173.26 118.576C173.651 118.836 174.028 119.131 174.458 119.444C175.325 120.029 176.227 120.562 177.157 121.04C183.909 124.44 191.526 125.734 199.021 124.754C199.975 124.605 200.919 124.397 201.847 124.13C202.277 124.016 202.697 123.879 203.088 123.741C203.48 123.603 203.756 123.432 204.072 123.286L204.33 123.167C206.179 122.414 207.763 121.128 208.878 119.472C210.392 116.995 210.103 114.001 207.935 111.065C206.871 109.672 205.604 108.446 204.178 107.427Z" fill="white"/>
<path opacity="0.13" d="M204.178 107.427C203.93 107.229 203.658 107.041 203.392 106.866C195.74 101.63 183.718 99.5525 175.443 102.013L175.232 102.11C174.962 102.235 174.66 102.289 174.38 102.39C172.874 102.904 171.472 103.682 170.239 104.688C169.077 105.588 168.246 106.847 167.874 108.269C167.503 109.69 167.612 111.195 168.184 112.548C169.052 114.557 170.4 116.321 172.109 117.686C172.481 117.998 172.87 118.316 173.26 118.576C173.651 118.836 174.028 119.131 174.458 119.444C175.325 120.029 176.227 120.562 177.157 121.04C183.909 124.44 191.526 125.734 199.021 124.754C199.975 124.605 200.919 124.397 201.847 124.13C202.277 124.016 202.697 123.879 203.088 123.741C203.48 123.603 203.756 123.432 204.072 123.286L204.33 123.167C206.179 122.414 207.763 121.128 208.878 119.472C210.392 116.995 210.103 114.001 207.935 111.065C206.871 109.672 205.604 108.446 204.178 107.427Z" fill="#3B8339"/>
<path d="M216.945 122.156C212.073 128.872 202.133 129.884 194.258 129.642C182.357 128.902 170.07 124.899 162.504 116.467C160.324 114.136 159.124 111.056 159.153 107.864C159.035 111.085 160.18 114.224 162.344 116.612C168.375 123.692 177.957 127.566 187.548 129.275C197.243 130.779 210.547 130.8 216.945 122.156Z" fill="#3B8339"/>
<path d="M175.456 115.969C178.288 117.737 181.695 118.338 184.961 117.646L184.006 118.287L183.301 121.684C183.935 121.975 184.587 122.224 185.253 122.431C186.407 122.767 187.597 122.966 188.798 123.025C190.766 123.109 192.734 122.885 194.633 122.36L197.252 124.15L201.637 122.564L202.342 119.167L201.674 118.708L201.527 118.605C201.646 118.36 201.731 118.1 201.782 117.833L201.813 117.563C201.844 117.136 202.329 115.234 202.464 114.418C202.48 114.329 202.491 114.238 202.496 114.148C202.589 113.181 201.973 112.157 200.503 111.159C199.014 110.159 197.296 109.554 195.51 109.401L195.054 109.369L194.587 109.343L194.172 109.336L194.031 109.401C193.924 109.392 193.815 109.395 193.708 109.409C192.827 109.428 191.947 109.497 191.074 109.617C190.697 109.663 190.314 109.726 189.937 109.801L191.187 108.939L191.88 105.547C188.492 104.214 184.759 104.027 181.254 105.014L178.618 103.218L174.277 104.869L173.567 108.254L174.399 108.822C174.293 109.016 174.217 109.224 174.172 109.439C174.092 109.974 173.573 112.204 173.48 112.802C173.314 113.888 173.895 114.899 175.456 115.969Z" fill="white"/>
<path opacity="0.1" d="M202.462 114.633C202.285 115.511 201.858 117.201 201.829 117.599L201.797 117.869C201.74 118.138 201.657 118.401 201.548 118.653L199.665 117.348C200.324 117.17 200.926 116.828 201.415 116.353C201.905 115.878 202.265 115.286 202.462 114.633Z" fill="#3B8339"/>
<path opacity="0.2" d="M181.58 110.238C180.794 109.705 180.792 108.995 182.608 108.341C183.422 107.995 184.298 107.821 185.182 107.828C186.065 107.835 186.938 108.024 187.746 108.383L191.84 105.58L191.141 108.96L189.902 109.817L189.797 109.866L188.066 110.183L187.416 110.313C186.213 110.594 184.988 110.774 183.755 110.853C183.243 110.884 182.73 110.817 182.243 110.656C182.001 110.553 181.778 110.411 181.58 110.238Z" fill="#3B8339"/>
<path opacity="0.13" d="M174.341 108.792L173.515 108.236L174.225 104.851L176.843 106.64C175.815 107.095 174.945 107.844 174.341 108.792Z" fill="#3B8339"/>
<path opacity="0.1" d="M197.966 120.777L202.351 119.19L201.647 122.587L197.261 124.173L194.649 122.367C192.744 122.885 190.77 123.107 188.797 123.025C187.596 122.97 186.405 122.771 185.252 122.431C184.584 122.229 183.932 121.979 183.3 121.684L184.005 118.287C184.633 118.591 185.286 118.841 185.957 119.034C187.106 119.377 188.292 119.578 189.49 119.633C191.463 119.718 193.437 119.496 195.342 118.975L197.966 120.777Z" fill="#3B8339"/>
<path opacity="0.13" d="M173.42 112.828C173.513 112.23 174.032 110 174.112 109.466C173.966 110.472 174.592 111.519 176.141 112.594C179.608 114.958 183.508 114.691 187.172 114.035C190.569 113.418 193.12 112.537 194.788 113.686C195.846 114.405 195.357 115.1 193.943 115.64C193.041 115.979 192.081 116.13 191.119 116.086C190.158 116.042 189.215 115.802 188.349 115.382L184.959 117.675C181.746 118.107 178.44 118.029 175.465 115.992C173.893 114.898 173.312 113.887 173.42 112.828Z" fill="#3B8339"/>
<path d="M187.049 111.733L187.742 108.341L191.83 105.527L191.137 108.919L187.049 111.733Z" fill="white"/>
<path opacity="0.1" d="M187.049 111.733L187.742 108.341L191.83 105.527L191.137 108.919L187.049 111.733Z" fill="#3B8339"/>
<path d="M174.225 104.851L176.843 106.64L174.341 108.792L173.515 108.236L174.225 104.851Z" fill="white"/>
<path opacity="0.2" d="M174.225 104.851L176.843 106.64L174.341 108.792L173.515 108.236L174.225 104.851Z" fill="#3B8339"/>
<path d="M201.685 118.731L199.625 117.351C200.309 117.169 200.932 116.807 201.429 116.302C201.926 115.797 202.279 115.169 202.45 114.481C202.466 114.392 202.477 114.302 202.481 114.211C202.575 113.244 201.959 112.22 200.489 111.222C199 110.222 197.282 109.617 195.496 109.464L195.04 109.432L194.573 109.407L194.158 109.4L194.017 109.465C193.91 109.455 193.801 109.458 193.694 109.472C192.813 109.491 191.933 109.56 191.06 109.68L189.813 109.873L188.082 110.189L187.431 110.319C186.229 110.602 185.004 110.783 183.771 110.86C183.259 110.891 182.746 110.824 182.258 110.663C182.031 110.579 181.813 110.47 181.61 110.337C180.818 109.793 180.817 109.083 182.638 108.44C183.452 108.095 184.328 107.92 185.212 107.928C186.096 107.935 186.969 108.124 187.776 108.482L191.864 105.668C188.476 104.335 184.744 104.147 181.238 105.134L178.603 103.339L174.262 104.99L176.88 106.779C175.284 107.631 174.325 108.572 174.156 109.56C174.01 110.566 174.641 111.625 176.197 112.683C179.641 115.058 183.553 114.785 187.216 114.13C190.613 113.512 193.164 112.632 194.837 113.792C195.878 114.505 195.401 115.195 193.975 115.74C193.075 116.075 192.116 116.224 191.157 116.178C190.198 116.133 189.258 115.894 188.393 115.477L184.059 118.404C184.69 118.704 185.342 118.953 186.011 119.151C187.162 119.496 188.35 119.702 189.55 119.762C191.521 119.837 193.493 119.611 195.397 119.092L198.021 120.894L202.406 119.307L201.685 118.731Z" fill="white"/>
<path d="M201.685 118.731L199.625 117.351C200.309 117.169 200.932 116.807 201.429 116.302C201.926 115.797 202.279 115.169 202.45 114.481C202.466 114.392 202.477 114.302 202.481 114.211C202.575 113.244 201.959 112.22 200.489 111.222C199 110.222 197.282 109.617 195.496 109.464L195.04 109.432L194.573 109.407L194.158 109.4L194.017 109.465C193.91 109.455 193.801 109.458 193.694 109.472C192.813 109.491 191.933 109.56 191.06 109.68L189.813 109.873L188.082 110.189L187.431 110.319C186.229 110.602 185.004 110.783 183.771 110.86C183.259 110.891 182.746 110.824 182.258 110.663C182.031 110.579 181.813 110.47 181.61 110.337C180.818 109.793 180.817 109.083 182.638 108.44C183.452 108.095 184.328 107.92 185.212 107.928C186.096 107.935 186.969 108.124 187.776 108.482L191.864 105.668C188.476 104.335 184.744 104.147 181.238 105.134L178.603 103.339L174.262 104.99L176.88 106.779C175.284 107.631 174.325 108.572 174.156 109.56C174.01 110.566 174.641 111.625 176.197 112.683C179.641 115.058 183.553 114.785 187.216 114.13C190.613 113.512 193.164 112.632 194.837 113.792C195.878 114.505 195.401 115.195 193.975 115.74C193.075 116.075 192.116 116.224 191.157 116.178C190.198 116.133 189.258 115.894 188.393 115.477L184.059 118.404C184.69 118.704 185.342 118.953 186.011 119.151C187.162 119.496 188.35 119.702 189.55 119.762C191.521 119.837 193.493 119.611 195.397 119.092L198.021 120.894L202.406 119.307L201.685 118.731Z" fill="#51AF4E"/>
<path d="M197.966 120.776L197.261 124.173L194.649 122.366L195.342 118.975L197.966 120.776Z" fill="white"/>
<path opacity="0.13" d="M197.966 120.776L197.261 124.173L194.649 122.366L195.342 118.975L197.966 120.776Z" fill="#3B8339"/>
</g>
<g filter="url(#filter2_d_2803_6786)">
<path d="M205.987 76.4149L203.733 78.0646L207.137 82.7117C207.546 83.2643 208.027 83.7604 208.566 84.1872L209.158 84.6054C210.209 85.2576 211.371 85.7105 212.586 85.9415C213.027 86.0344 213.492 86.1041 213.968 86.1622C214.444 86.2203 214.944 86.2435 215.467 86.2435C215.99 86.2435 216.791 86.2435 217.5 86.1622C218.209 86.0809 218.987 85.9879 219.742 85.8485C220.311 85.744 220.904 85.6162 221.462 85.4768C229.942 83.3391 239.132 77.0306 244.697 69.5604C245.08 69.0492 245.441 68.538 245.778 68.0152C246.265 67.2833 246.719 66.5282 247.125 65.773C247.532 65.0179 247.753 64.5415 248.02 63.9374C248.287 63.3333 248.45 62.915 248.635 62.4155C248.821 61.9159 248.961 61.4164 249.077 60.94C249.432 59.6349 249.589 58.2837 249.542 56.9319C249.542 56.6647 249.542 56.3975 249.472 56.1419C249.349 55.0821 249.022 54.0562 248.508 53.1213C248.345 52.8424 248.171 52.5752 247.985 52.308L244.72 47.9165L242.664 49.4268L241.758 49.2758C240.472 49.135 239.175 49.135 237.889 49.2758C237.059 49.3479 236.233 49.4642 235.414 49.6243C234.315 49.8417 233.229 50.121 232.161 50.4608C224.263 53.1602 217.26 57.9838 211.923 64.4021C211.157 65.3315 210.436 66.2958 209.786 67.2601C209.135 68.2244 208.752 68.8982 208.299 69.7231C207.658 70.9074 207.118 72.1432 206.684 73.4175C206.354 74.3914 206.12 75.3954 205.987 76.4149Z" fill="white"/>
<path opacity="0.15" d="M241.002 73.7553L234.113 64.4611L230.964 67.3423L237.865 76.6365C238.911 75.7304 240.073 74.7661 241.002 73.7553Z" fill="white"/>
<path opacity="0.05" d="M207.137 82.653C207.546 83.2056 208.027 83.7017 208.566 84.1284L209.158 84.5467C210.209 85.1988 211.371 85.6518 212.586 85.8827L213.085 85.9757L205.987 76.391L203.733 78.0407L207.137 82.653Z" fill="#3B8339"/>
<path opacity="0.15" d="M215.338 69.9435L213.281 70.8265L223.633 84.7678C224.33 84.5471 225.027 84.2915 225.724 84.0127L215.338 69.9435Z" fill="white"/>
<path opacity="0.15" d="M230.894 81.5027L221.937 69.397L218.719 72.1852L227.061 83.4545C228.374 82.876 229.654 82.2244 230.894 81.5027Z" fill="white"/>
<path opacity="0.15" d="M244.721 47.9165L242.665 49.4268L241.759 49.2758C240.473 49.135 239.176 49.135 237.89 49.2758C237.06 49.3479 236.234 49.4642 235.416 49.6243C234.316 49.8417 233.23 50.121 232.163 50.4608C231.14 50.7861 230.095 51.1695 229.061 51.6226L243.455 71.0707C243.862 70.5712 244.268 70.06 244.617 69.5488C244.965 69.0376 245.36 68.5264 245.697 68.0036C246.185 67.2717 246.638 66.5166 247.045 65.7614C247.452 65.0063 247.672 64.5299 247.939 63.9258C248.207 63.3217 248.369 62.9034 248.555 62.4039C248.741 61.9043 248.881 61.4047 248.997 60.9284C249.352 59.6233 249.509 58.2721 249.461 56.9203C249.461 56.6531 249.461 56.3859 249.392 56.1303C249.269 55.0704 248.941 54.0446 248.427 53.1096C248.265 52.8308 248.09 52.5636 247.905 52.2964L244.721 47.9165Z" fill="white"/>
<path opacity="0.15" d="M249.52 56.8738C249.52 56.6066 249.52 56.3394 249.45 56.0838C249.327 55.024 249 53.9981 248.486 53.0632C248.323 52.7844 248.149 52.5171 247.963 52.2499L244.721 47.9165L242.665 49.4268L242.166 50.1936L249.311 59.848C249.498 58.8683 249.568 57.87 249.52 56.8738Z" fill="white"/>
<path d="M203.072 68.3982C202.622 69.6909 202.352 71.0397 202.271 72.4063C202.132 74.0846 202.471 75.7679 203.247 77.2625C203.734 78.1707 204.412 78.9632 205.233 79.5861C205.419 79.7371 205.617 79.8765 205.826 80.0159C206.893 80.6768 208.076 81.1301 209.311 81.352C209.768 81.4478 210.229 81.5176 210.694 81.5611C211.17 81.6192 211.67 81.6424 212.192 81.654C212.715 81.6657 213.517 81.654 214.225 81.5727C214.934 81.4914 215.701 81.3985 216.468 81.259C217.025 81.1545 217.629 81.0267 218.187 80.8873C226.668 78.7496 235.858 72.4412 241.423 64.9709C241.806 64.4597 242.155 63.9486 242.503 63.4258C242.991 62.6822 243.444 61.9387 243.851 61.1835C244.257 60.4284 244.478 59.952 244.745 59.3479C245.013 58.7438 245.175 58.3256 245.349 57.8144C245.524 57.3032 245.675 56.8269 245.803 56.3505C246.166 55.0469 246.327 53.695 246.279 52.3424C246.279 52.0752 246.279 51.808 246.209 51.5524C246.086 50.4926 245.759 49.4667 245.245 48.5318C244.447 47.1329 243.227 46.0226 241.76 45.3601C240.632 44.8251 239.422 44.4835 238.181 44.3494C236.899 44.2082 235.606 44.2082 234.324 44.3494C233.494 44.4255 232.668 44.5457 231.85 44.7095C230.752 44.9283 229.666 45.2036 228.597 45.5344C220.698 48.2338 213.695 53.0574 208.358 59.4757C207.592 60.4168 206.871 61.3694 206.221 62.3337C205.57 63.298 205.187 63.9718 204.734 64.7967C204.081 65.9488 203.525 67.1535 203.072 68.3982Z" fill="#51AF4E"/>
<path d="M209.704 64.2146C213.7 56.849 222.96 50.2733 230.79 49.1812L231.777 49.065C239.805 48.3796 242.919 54.0374 238.748 61.7052C234.577 69.3729 224.691 76.1577 216.674 76.8083H215.722C208.402 77.0755 205.695 71.5687 209.704 64.2146Z" fill="white"/>
<path d="M210.343 64.1573C210.471 63.9133 210.61 63.6809 210.75 63.4486C214.769 56.7103 223.262 50.8433 230.5 49.7977H230.686L231.441 49.7048C232.781 49.5693 234.133 49.6716 235.437 50.0068C236.66 50.273 237.758 50.9401 238.558 51.902C239.358 52.864 239.814 54.0657 239.852 55.3161C239.906 57.1619 239.507 58.9927 238.69 60.6487C238.516 61.0205 238.33 61.4038 238.121 61.8105C237.912 62.2171 237.726 62.5075 237.505 62.8561C237.05 63.6021 236.549 64.3198 236.007 65.0054C232.02 70.0037 226.632 73.6973 220.532 75.6124C219.746 75.8389 218.946 76.0174 218.139 76.1468C217.767 76.2049 217.395 76.2514 216.977 76.2746C216.559 76.2978 216.361 76.2746 216.059 76.2746H215.815C214.128 76.3536 212.457 75.9246 211.017 75.0431C208.972 73.6838 208.136 71.2789 208.751 68.2583C209.075 66.8197 209.611 65.4374 210.343 64.1573Z" fill="white"/>
<path opacity="0.13" d="M210.343 64.1573C210.471 63.9133 210.61 63.6809 210.75 63.4486C214.769 56.7103 223.262 50.8433 230.5 49.7977H230.686L231.441 49.7048C232.781 49.5693 234.133 49.6716 235.437 50.0068C236.66 50.273 237.758 50.9401 238.558 51.902C239.358 52.864 239.814 54.0657 239.852 55.3161C239.906 57.1619 239.507 58.9927 238.69 60.6487C238.516 61.0205 238.33 61.4038 238.121 61.8105C237.912 62.2171 237.726 62.5075 237.505 62.8561C237.05 63.6021 236.549 64.3198 236.007 65.0054C232.02 70.0037 226.632 73.6973 220.532 75.6124C219.746 75.8389 218.946 76.0174 218.139 76.1468C217.767 76.2049 217.395 76.2514 216.977 76.2746C216.559 76.2978 216.361 76.2746 216.059 76.2746H215.815C214.128 76.3536 212.457 75.9246 211.017 75.0431C208.972 73.6838 208.136 71.2789 208.751 68.2583C209.075 66.8197 209.611 65.4374 210.343 64.1573Z" fill="#3B8339"/>
<path d="M205.825 80.0164C211.959 83.4437 219.952 80.6902 225.912 77.6929C234.788 72.9063 242.804 65.4593 245.662 56.3045C246.52 53.7435 246.353 50.95 245.197 48.509C246.419 50.9449 246.652 53.7589 245.848 56.3626C243.722 63.9374 237.715 70.304 230.989 75.0324C223.972 79.633 213.76 84.4195 205.825 80.0164Z" fill="#3B8339"/>
<path opacity="0.13" d="M219.023 65.9245L220.452 68.0505L214.515 69.526L213.074 67.3999L219.023 65.9245Z" fill="#3B8339"/>
<path opacity="0.13" d="M218.163 64.5644C218.825 65.7262 220.998 66.0863 222.81 66.3303C223.263 66.3303 223.67 66.4232 224.03 66.4813C224.25 66.3033 224.435 66.0868 224.576 65.8423C225.238 64.6806 224.03 64.5179 221.37 64.2042C220.473 64.107 219.584 63.9478 218.709 63.7279C218.976 63.1005 218.849 62.3686 216.688 62.4499L218.163 64.5644Z" fill="#3B8339"/>
<path opacity="0.2" d="M232.012 51.6578L233.452 53.7838L232.105 56.1655L230.664 54.0394L232.012 51.6578Z" fill="#3B8339"/>
<path opacity="0.13" d="M223.343 59.1039C223.712 58.6072 224.195 58.2058 224.75 57.9331C225.306 57.6603 225.919 57.524 226.537 57.5355C228.861 57.3612 229.07 58.4649 228.78 59.313L229.035 59.6847C228.684 59.6424 228.329 59.6424 227.978 59.6847C227.003 59.7158 226.061 60.0487 225.283 60.6374C223.807 60.4051 222.738 60.1378 223.343 59.1039Z" fill="#3B8339"/>
<path opacity="0.13" d="M234.438 56.7815C234.605 57.0226 234.839 57.2086 235.112 57.3159C235.112 57.4553 235.054 57.5947 235.008 57.7458L236.448 59.8602C236.589 59.4937 236.643 59.0997 236.607 58.7089C236.57 58.318 236.445 57.9407 236.239 57.6063L234.798 55.4919C234.798 55.4919 234.02 56.096 234.438 56.7815Z" fill="#3B8339"/>
<path d="M221.403 64.2042C224.064 64.5179 225.272 64.6689 224.61 65.8423C224.468 66.0867 224.283 66.3032 224.064 66.4813C225.853 66.7252 226.608 66.9925 226.05 67.9683C225.673 68.4638 225.181 68.8601 224.616 69.1232C224.051 69.3863 223.431 69.5083 222.809 69.4787C220.857 69.6297 220.137 69.0604 220.486 68.0497L214.514 69.56C214.514 69.56 214.514 69.6645 214.514 69.7226C214.225 69.677 213.931 69.677 213.643 69.7226L214.804 71.4421L214.921 71.6047C215.298 72.0656 215.803 72.4051 216.373 72.5806C217.154 72.8334 217.968 72.9704 218.789 72.9872L216.024 73.208L217.465 75.3224L219.335 75.183L221.868 74.9855L223.216 72.6619C227.189 71.9765 230.43 70.1874 232.022 67.3758C232.742 66.0979 232.8 65.2149 232.429 64.576C232.401 64.5212 232.365 64.4704 232.324 64.4249L231.011 62.5893C230.82 62.8149 230.706 63.0958 230.686 63.391C230.086 63.2086 229.472 63.0765 228.85 62.9959C226.364 62.6358 223.924 62.752 224.784 61.23C224.917 60.9998 225.086 60.7921 225.284 60.6143C223.762 60.44 222.739 60.1728 223.343 59.104C223.713 58.6073 224.195 58.206 224.751 57.9332C225.307 57.6604 225.919 57.5241 226.538 57.5356C228.862 57.3613 229.071 58.465 228.781 59.3131L229.036 59.6849L230.198 61.4392L236.425 59.9056L234.984 57.7912C235.083 57.4669 235.138 57.1309 235.147 56.7921C234.175 56.3896 233.132 56.1881 232.08 56.1995L232.626 55.2353L229.059 54.1548L227.712 56.5365C223.692 57.2568 220.149 59.0924 218.534 61.962C218.245 62.4321 218.048 62.9524 217.953 63.4955C219.067 63.8807 220.227 64.1189 221.403 64.2042Z" fill="white"/>
<path opacity="0.1" d="M221.403 64.2042C224.064 64.5179 225.272 64.6689 224.61 65.8423C224.468 66.0867 224.283 66.3032 224.064 66.4813C225.853 66.7252 226.608 66.9925 226.05 67.9683C225.673 68.4638 225.181 68.8601 224.616 69.1232C224.051 69.3863 223.431 69.5083 222.809 69.4787C220.857 69.6297 220.137 69.0604 220.486 68.0497L214.514 69.56C214.514 69.56 214.514 69.6645 214.514 69.7226C214.225 69.677 213.931 69.677 213.643 69.7226L214.804 71.4421L214.921 71.6047C215.298 72.0656 215.803 72.4051 216.373 72.5806C217.154 72.8334 217.968 72.9704 218.789 72.9872L216.024 73.208L217.465 75.3224L219.335 75.183L221.868 74.9855L223.216 72.6619C227.189 71.9765 230.43 70.1874 232.022 67.3758C232.742 66.0979 232.8 65.2149 232.429 64.576C232.401 64.5212 232.365 64.4704 232.324 64.4249L231.011 62.5893C230.82 62.8149 230.706 63.0958 230.686 63.391C230.086 63.2086 229.472 63.0765 228.85 62.9959C226.364 62.6358 223.924 62.752 224.784 61.23C224.917 60.9998 225.086 60.7921 225.284 60.6143C223.762 60.44 222.739 60.1728 223.343 59.104C223.713 58.6073 224.195 58.206 224.751 57.9332C225.307 57.6604 225.919 57.5241 226.538 57.5356C228.862 57.3613 229.071 58.465 228.781 59.3131L229.036 59.6849L230.198 61.4392L236.425 59.9056L234.984 57.7912C235.083 57.4669 235.138 57.1309 235.147 56.7921C234.175 56.3896 233.132 56.1881 232.08 56.1995L232.626 55.2353L229.059 54.1548L227.712 56.5365C223.692 57.2568 220.149 59.0924 218.534 61.962C218.245 62.4321 218.048 62.9524 217.953 63.4955C219.067 63.8807 220.227 64.1189 221.403 64.2042Z" fill="#3B8339"/>
<path d="M218.001 63.4612C219.106 63.8562 220.258 64.1061 221.428 64.2047C224.088 64.5184 225.297 64.6694 224.634 65.8428C224.493 66.0872 224.308 66.3038 224.088 66.4818C223.294 67.028 222.357 67.3308 221.393 67.3531C219.453 67.5041 218.733 66.9349 219.07 65.9241L213.121 67.3996C212.959 67.9548 213.009 68.5506 213.263 69.0706C213.516 69.5905 213.955 69.9972 214.492 70.2111C215.396 70.5945 216.368 70.792 217.35 70.792L216.002 73.1736L218.767 72.9529L220.406 72.8251L221.753 70.5015C225.727 69.8045 228.968 68.0153 230.56 65.2154C230.868 64.7098 231.077 64.1498 231.175 63.5657C231.396 61.7766 229.56 61.2422 227.458 60.882C226.726 60.7775 225.982 60.7077 225.332 60.6264C223.81 60.4522 222.787 60.185 223.391 59.1161C223.761 58.6195 224.243 58.2181 224.799 57.9453C225.355 57.6725 225.967 57.5362 226.586 57.5477C228.91 57.3735 229.119 58.4771 228.828 59.3252L235.056 57.8033C235.154 57.479 235.209 57.143 235.218 56.8042C235.218 55.5495 234.393 54.8175 233.15 54.4806C232.357 54.2549 231.536 54.1376 230.711 54.1321L232.058 51.8085L227.702 52.1338L226.342 54.5271C222.323 55.2474 218.779 57.083 217.164 59.9526C215.944 61.8579 216.641 62.8919 218.001 63.4612Z" fill="white"/>
<path d="M218.001 63.4612C219.106 63.8562 220.258 64.1061 221.428 64.2047C224.088 64.5184 225.297 64.6694 224.634 65.8428C224.493 66.0872 224.308 66.3038 224.088 66.4818C223.294 67.028 222.357 67.3308 221.393 67.3531C219.453 67.5041 218.733 66.9349 219.07 65.9241L213.121 67.3996C212.959 67.9548 213.009 68.5506 213.263 69.0706C213.516 69.5905 213.955 69.9972 214.492 70.2111C215.396 70.5945 216.368 70.792 217.35 70.792L216.002 73.1736L218.767 72.9529L220.406 72.8251L221.753 70.5015C225.727 69.8045 228.968 68.0153 230.56 65.2154C230.868 64.7098 231.077 64.1498 231.175 63.5657C231.396 61.7766 229.56 61.2422 227.458 60.882C226.726 60.7775 225.982 60.7077 225.332 60.6264C223.81 60.4522 222.787 60.185 223.391 59.1161C223.761 58.6195 224.243 58.2181 224.799 57.9453C225.355 57.6725 225.967 57.5362 226.586 57.5477C228.91 57.3735 229.119 58.4771 228.828 59.3252L235.056 57.8033C235.154 57.479 235.209 57.143 235.218 56.8042C235.218 55.5495 234.393 54.8175 233.15 54.4806C232.357 54.2549 231.536 54.1376 230.711 54.1321L232.058 51.8085L227.702 52.1338L226.342 54.5271C222.323 55.2474 218.779 57.083 217.164 59.9526C215.944 61.8579 216.641 62.8919 218.001 63.4612Z" fill="#51AF4E"/>
<path d="M221.705 70.4544L223.146 72.5688L221.798 74.9505L220.358 72.8244L221.705 70.4544Z" fill="white"/>
<path opacity="0.13" d="M221.705 70.4544L223.146 72.5688L221.798 74.9505L220.358 72.8244L221.705 70.4544Z" fill="#3B8339"/>
<path d="M226.294 54.3761L225.829 54.4807L225.295 54.6085L224.609 54.7827L223.808 55.0267L223.378 55.1778L222.936 55.3404L222.472 55.5263L222.007 55.7238C221.705 55.8748 221.391 56.0142 221.089 56.1885C220.787 56.3628 220.497 56.5254 220.206 56.6997C219.916 56.874 219.649 57.0831 219.405 57.2806C219.161 57.4781 218.917 57.6872 218.696 57.8731L218.394 58.1751L218.243 58.3146L218.115 58.454C217.952 58.6515 217.79 58.8257 217.674 58.9884C217.557 59.151 217.441 59.2904 217.36 59.4182L217.116 59.8016L217.348 59.4066C217.44 59.2534 217.541 59.106 217.65 58.9651C217.778 58.7748 217.922 58.596 218.08 58.4307L218.196 58.2797L218.347 58.1287L218.638 57.8266C218.861 57.6106 219.098 57.4088 219.347 57.2225C219.59 57.0134 219.869 56.8275 220.148 56.63C220.427 56.4325 220.729 56.2582 221.043 56.1072C221.356 55.9561 221.658 55.7935 221.972 55.6425L222.437 55.445L222.902 55.2591L223.355 55.0964L223.796 54.9686C224.075 54.8641 224.354 54.806 224.598 54.7363C224.842 54.6666 225.086 54.6201 225.295 54.5736L225.829 54.4691L226.294 54.3761Z" fill="white"/>
<path d="M220.357 72.8249L215.954 73.1734L217.302 70.7917L216.407 72.8946L220.357 72.8249Z" fill="#51AF4E"/>
</g>
<defs>
<filter id="filter0_d_2803_6786" x="124.91" y="0.434784" width="82.4814" height="77.3538" filterUnits="userSpaceOnUse" color-interpolation-filters="sRGB">
<feFlood flood-opacity="0" result="BackgroundImageFix"/>
<feColorMatrix in="SourceAlpha" type="matrix" values="0 0 0 0 0 0 0 0 0 0 0 0 0 0 0 0 0 0 127 0" result="hardAlpha"/>
<feOffset dy="5"/>
<feGaussianBlur stdDeviation="5"/>
<feComposite in2="hardAlpha" operator="out"/>
<feColorMatrix type="matrix" values="0 0 0 0 0 0 0 0 0 0 0 0 0 0 0 0 0 0 0.25 0"/>
<feBlend mode="normal" in2="BackgroundImageFix" result="effect1_dropShadow_2803_6786"/>
<feBlend mode="normal" in="SourceGraphic" in2="effect1_dropShadow_2803_6786" result="shape"/>
</filter>
<filter id="filter1_d_2803_6786" x="147.73" y="91.1506" width="80.6273" height="60.2657" filterUnits="userSpaceOnUse" color-interpolation-filters="sRGB">
<feFlood flood-opacity="0" result="BackgroundImageFix"/>
<feColorMatrix in="SourceAlpha" type="matrix" values="0 0 0 0 0 0 0 0 0 0 0 0 0 0 0 0 0 0 127 0" result="hardAlpha"/>
<feOffset dy="5"/>
<feGaussianBlur stdDeviation="5"/>
<feComposite in2="hardAlpha" operator="out"/>
<feColorMatrix type="matrix" values="0 0 0 0 0 0 0 0 0 0 0 0 0 0 0 0 0 0 0.25 0"/>
<feBlend mode="normal" in2="BackgroundImageFix" result="effect1_dropShadow_2803_6786"/>
<feBlend mode="normal" in="SourceGraphic" in2="effect1_dropShadow_2803_6786" result="shape"/>
</filter>
<filter id="filter2_d_2803_6786" x="192.241" y="39.2435" width="67.3093" height="62.0001" filterUnits="userSpaceOnUse" color-interpolation-filters="sRGB">
<feFlood flood-opacity="0" result="BackgroundImageFix"/>
<feColorMatrix in="SourceAlpha" type="matrix" values="0 0 0 0 0 0 0 0 0 0 0 0 0 0 0 0 0 0 127 0" result="hardAlpha"/>
<feOffset dy="5"/>
<feGaussianBlur stdDeviation="5"/>
<feComposite in2="hardAlpha" operator="out"/>
<feColorMatrix type="matrix" values="0 0 0 0 0 0 0 0 0 0 0 0 0 0 0 0 0 0 0.25 0"/>
<feBlend mode="normal" in2="BackgroundImageFix" result="effect1_dropShadow_2803_6786"/>
<feBlend mode="normal" in="SourceGraphic" in2="effect1_dropShadow_2803_6786" result="shape"/>
</filter>
</defs>
</svg>
