<svg width="109" height="130" viewBox="0 0 109 130" fill="none" xmlns="http://www.w3.org/2000/svg">
<path d="M42.4182 74.9591C46.5359 67.7839 53.3327 62.5359 61.3162 60.3674C69.2998 58.1988 77.8176 59.2869 84.9996 63.3928L83.6793 65.6242L92.5257 63.2212L90.1226 54.3748L88.8022 56.593C80.7864 51.9991 71.4008 50.3977 62.3152 52.0737C53.2296 53.7496 45.0331 58.5943 39.1839 65.7458C33.3346 72.8973 30.212 81.8919 30.3715 91.1295C30.5309 100.367 33.9622 109.248 40.0547 116.194L45.9435 111.031C41.6712 106.135 39.0349 100.027 38.4029 93.5598C37.7708 87.0927 39.1746 80.5897 42.4182 74.9591Z" fill="#FBFBFB"/>
<path d="M99.1937 65.2148L93.2521 70.2454C98.0033 75.8433 100.628 82.9375 100.665 90.2797C100.701 97.622 98.1469 104.742 93.4516 110.387C88.7563 116.032 82.2205 119.84 74.9944 121.141C67.7683 122.442 60.3147 121.153 53.9452 117.501L55.2655 115.269L46.3795 117.778L48.7826 126.625L50.1029 124.393C58.077 128.929 67.3939 130.513 76.4189 128.865C85.4439 127.218 93.6005 122.445 99.4578 115.384C105.315 108.324 108.499 99.4256 108.451 90.2516C108.402 81.0776 105.125 72.2137 99.1937 65.2148Z" fill="#FBFBFB"/>
<g opacity="0.6">
<path opacity="0.6" d="M42.4182 74.9591C46.5359 67.7839 53.3327 62.5359 61.3162 60.3674C69.2998 58.1988 77.8176 59.2869 84.9996 63.3928L83.6793 65.6242L92.5257 63.2212L90.1226 54.3748L88.8022 56.593C80.7864 51.9991 71.4008 50.3977 62.3152 52.0737C53.2296 53.7496 45.0331 58.5943 39.1839 65.7458C33.3346 72.8973 30.212 81.8919 30.3715 91.1295C30.5309 100.367 33.9622 109.248 40.0547 116.194L45.9435 111.031C41.6712 106.135 39.0349 100.027 38.4029 93.5598C37.7708 87.0927 39.1746 80.5897 42.4182 74.9591Z" fill="white"/>
<path opacity="0.6" d="M99.1937 65.2148L93.2521 70.2454C98.0033 75.8433 100.628 82.9375 100.665 90.2797C100.701 97.622 98.1469 104.742 93.4516 110.387C88.7563 116.032 82.2205 119.84 74.9944 121.141C67.7683 122.442 60.3147 121.153 53.9452 117.501L55.2655 115.269L46.3795 117.778L48.7826 126.625L50.1029 124.393C58.077 128.929 67.3939 130.513 76.4189 128.865C85.4439 127.218 93.6005 122.445 99.4578 115.384C105.315 108.324 108.499 99.4256 108.451 90.2516C108.402 81.0776 105.125 72.2137 99.1937 65.2148Z" fill="white"/>
</g>
<path d="M63.8344 53.4641H55.2257V27.057C55.2257 22.2 53.2962 17.542 49.8618 14.1076C46.4274 10.6732 41.7693 8.74372 36.9123 8.74372C32.0553 8.74372 27.3973 10.6732 23.9629 14.1076C20.5284 17.542 18.599 22.2 18.599 27.057V53.4641H9.9903V27.057C9.9903 19.9169 12.8267 13.0691 17.8756 8.02029C22.9244 2.97143 29.7721 0.13501 36.9123 0.13501C44.0525 0.13501 50.9002 2.97143 55.9491 8.02029C60.9979 13.0691 63.8344 19.9169 63.8344 27.057V53.4641Z" fill="#211F42"/>
<g opacity="0.3">
<path opacity="0.3" d="M63.8344 53.4641H55.2257V27.057C55.2257 22.2 53.2962 17.542 49.8618 14.1076C46.4274 10.6732 41.7693 8.74372 36.9123 8.74372C32.0553 8.74372 27.3973 10.6732 23.9629 14.1076C20.5284 17.542 18.599 22.2 18.599 27.057V53.4641H9.9903V27.057C9.9903 19.9169 12.8267 13.0691 17.8756 8.02029C22.9244 2.97143 29.7721 0.13501 36.9123 0.13501C44.0525 0.13501 50.9002 2.97143 55.9491 8.02029C60.9979 13.0691 63.8344 19.9169 63.8344 27.057V53.4641Z" fill="white"/>
</g>
<path d="M73.6975 46.7435V89.9587C73.6975 90.6176 73.5678 91.2701 73.3156 91.8788C73.0635 92.4875 72.6939 93.0406 72.228 93.5065C71.7621 93.9724 71.209 94.342 70.6003 94.5942C69.9915 94.8463 69.3391 94.9761 68.6802 94.9761H5.11834C4.46118 94.9744 3.8108 94.8432 3.20433 94.5901C2.59786 94.337 2.0472 93.967 1.58374 93.5011C1.12029 93.0352 0.753139 92.4826 0.50326 91.8748C0.253381 91.267 0.125662 90.6159 0.127398 89.9587V46.7435C0.125662 46.0864 0.253381 45.4353 0.50326 44.8275C0.753139 44.2197 1.12029 43.6671 1.58374 43.2012C2.0472 42.7353 2.59786 42.3652 3.20433 42.1122C3.8108 41.8591 4.46118 41.7279 5.11834 41.7262H68.6802C69.5116 41.7203 70.3303 41.9295 71.0568 42.3336C71.8566 42.7588 72.5251 43.3942 72.9905 44.1713C73.4558 44.9484 73.7003 45.8378 73.6975 46.7435Z" fill="#3B8339"/>
<path opacity="0.2" d="M71.0568 42.3336V84.6773C71.0568 85.3356 70.927 85.9874 70.6747 86.5954C70.4223 87.2034 70.0526 87.7556 69.5865 88.2205C69.1204 88.6853 68.5672 89.0536 67.9585 89.3043C67.3499 89.555 66.6978 89.6832 66.0395 89.6815H2.47763C1.65674 89.684 0.848447 89.4797 0.127398 89.0873V46.7435C0.125662 46.0864 0.253381 45.4353 0.50326 44.8275C0.753139 44.2197 1.12029 43.6671 1.58374 43.2012C2.0472 42.7353 2.59786 42.3652 3.20433 42.1122C3.8108 41.8591 4.46118 41.7279 5.11834 41.7262H68.6802C69.5116 41.7203 70.3303 41.9295 71.0568 42.3336Z" fill="white"/>
<path opacity="0.5" d="M46.3793 62.9311C46.3552 61.2078 45.8612 59.5239 44.9505 58.0608C44.0398 56.5977 42.7471 55.4109 41.2116 54.6285C39.6761 53.846 37.9561 53.4975 36.2371 53.6206C34.5181 53.7437 32.8654 54.3337 31.457 55.327C30.0487 56.3202 28.9382 57.6791 28.2453 59.2571C27.5524 60.835 27.3033 62.5722 27.525 64.2812C27.7467 65.9903 28.4307 67.6064 29.5033 68.9553C30.5759 70.3042 31.9963 71.3348 33.6115 71.9359L33.1758 83.4494H40.7414L39.6191 72.1603C41.5871 71.5511 43.3069 70.3248 44.5243 68.6628C45.7417 67.0008 46.3921 64.9912 46.3793 62.9311Z" fill="#211F42"/>
</svg>
