<svg width="222" height="162" viewBox="0 0 222 162" fill="none" xmlns="http://www.w3.org/2000/svg">
<path d="M190.985 23.458C187.273 21.4297 185.59 23.119 184.24 21.4297C182.89 19.7405 187.952 15.3566 177.81 10.9728C177.81 10.9728 177.138 1.52706 163.303 1.18804C149.467 0.849024 153.196 10.6338 149.485 12.9952C145.773 15.3566 144.762 11.6684 141.05 14.0064C137.338 16.3445 139.028 21.0907 135.994 21.7629C132.96 22.4351 128.904 18.7293 125.192 21.0907C121.481 23.4522 121.481 25.4746 119.797 25.4746C118.114 25.4746 114.735 24.1243 112.713 25.4746C110.691 26.8248 108.323 28.514 108.323 28.514H193.662C193.662 28.514 194.697 25.4804 190.985 23.458Z" fill="#51AF4E"/>
<path opacity="0.5" d="M190.985 23.458C187.273 21.4297 185.59 23.119 184.24 21.4297C182.89 19.7405 187.952 15.3566 177.81 10.9728C177.81 10.9728 177.138 1.52706 163.303 1.18804C149.467 0.849024 153.196 10.6338 149.485 12.9952C145.773 15.3566 144.762 11.6684 141.05 14.0064C137.338 16.3445 139.028 21.0907 135.994 21.7629C132.96 22.4351 128.904 18.7293 125.192 21.0907C121.481 23.4522 121.481 25.4746 119.797 25.4746C118.114 25.4746 114.735 24.1243 112.713 25.4746C110.691 26.8248 108.323 28.514 108.323 28.514H193.662C193.662 28.514 194.697 25.4804 190.985 23.458Z" fill="white"/>
<path d="M94.2072 99.287C91.6002 97.8667 90.4137 99.0474 89.4667 97.8667C88.5198 96.686 92.0737 93.5997 84.966 90.5193C84.966 90.5193 84.4925 83.8851 74.7721 83.6455C65.0516 83.4058 67.6644 90.2797 65.0575 91.9397C62.4505 93.5997 61.7433 90.9928 59.1363 92.6528C56.5294 94.3128 57.7101 97.627 55.5825 98.1005C53.4549 98.5739 50.6024 95.967 47.9838 97.627C45.3652 99.287 45.3769 100.707 44.1962 100.707C43.0155 100.707 40.6365 99.7605 39.2161 100.707C37.7958 101.654 36.1357 102.841 36.1357 102.841H96.101C96.101 102.841 96.8141 100.707 94.2072 99.287Z" fill="white"/>
<path opacity="0.5" d="M94.2072 99.287C91.6002 97.8667 90.4137 99.0474 89.4667 97.8667C88.5198 96.686 92.0737 93.5997 84.966 90.5193C84.966 90.5193 84.4925 83.8851 74.7721 83.6455C65.0516 83.4058 67.6644 90.2797 65.0575 91.9397C62.4505 93.5997 61.7433 90.9928 59.1363 92.6528C56.5294 94.3128 57.7101 97.627 55.5825 98.1005C53.4549 98.5739 50.6024 95.967 47.9838 97.627C45.3652 99.287 45.3769 100.707 44.1962 100.707C43.0155 100.707 40.6365 99.7605 39.2161 100.707C37.7958 101.654 36.1357 102.841 36.1357 102.841H96.101C96.101 102.841 96.8141 100.707 94.2072 99.287Z" fill="white"/>
<path d="M117.734 161.244V79.6008H123.971V161.244" fill="#211F42"/>
<path d="M117.734 161.244V79.6008H123.971V161.244" stroke="#211F42" stroke-linecap="round" stroke-linejoin="round"/>
<path d="M114.619 161.244V79.6008H120.855V161.244" fill="#51AF4E"/>
<path d="M114.619 161.244V79.6008H120.855V161.244" stroke="#211F42" stroke-linecap="round" stroke-linejoin="round"/>
<g style="mix-blend-mode:multiply" opacity="0.3">
<path d="M120.855 79.6005H114.619V93.6288H120.855V79.6005Z" fill="#211F42"/>
</g>
<path d="M141.232 33.465H95.02L115.162 82.9382H161.38V53.6073C161.38 50.9617 160.859 48.342 159.846 45.8978C158.833 43.4537 157.349 41.2329 155.478 39.3625C153.607 37.492 151.386 36.0084 148.942 34.9965C146.497 33.9846 143.877 33.4642 141.232 33.465Z" fill="#51AF4E" stroke="#211F42" stroke-linecap="round" stroke-linejoin="round"/>
<g style="mix-blend-mode:multiply" opacity="0.3">
<path d="M111.638 74.2755L115.145 82.938H161.38V53.6071C161.38 53.1629 161.38 52.7187 161.333 52.2803H111.649L111.638 74.2755Z" fill="#211F42"/>
</g>
<path d="M140.892 52.2803H136.029" stroke="#211F42" stroke-linecap="round" stroke-linejoin="round"/>
<path d="M161.333 52.2803H146.615" stroke="#211F42" stroke-linecap="round" stroke-linejoin="round"/>
<path d="M95.0202 33.465C100.364 33.465 105.489 35.5877 109.267 39.3662C113.046 43.1448 115.168 48.2695 115.168 53.6131V82.944H74.8721V53.6073C74.8736 48.2647 76.9971 43.1414 80.7754 39.3642C84.5537 35.5869 89.6776 33.465 95.0202 33.465V33.465Z" fill="#211F42" stroke="#211F42" stroke-linecap="round" stroke-linejoin="round"/>
<path d="M115.162 79.6005H80.4424V82.938H115.162V79.6005Z" fill="#51AF4E" stroke="#211F42" stroke-linecap="round" stroke-linejoin="round"/>
<path d="M115.162 79.6005H43.3081V82.938H115.162V79.6005Z" fill="#51AF4E" stroke="#211F42" stroke-linecap="round" stroke-linejoin="round"/>
<path opacity="0.3" d="M115.162 79.6005H80.4424V82.938H115.162V79.6005Z" fill="#211F42"/>
<path d="M144.236 21.5408H129.816V31.6704H144.236V21.5408Z" fill="#211F42" stroke="#211F42" stroke-linecap="round" stroke-linejoin="round"/>
<path d="M130.985 21.5408H127.87V53.1045H130.985V21.5408Z" fill="white" stroke="#211F42" stroke-linecap="round" stroke-linejoin="round"/>
<path d="M129.425 57.3891C131.361 57.3891 132.932 55.8189 132.932 53.882C132.932 51.9451 131.361 50.3749 129.425 50.3749C127.488 50.3749 125.917 51.9451 125.917 53.882C125.917 55.8189 127.488 57.3891 129.425 57.3891Z" fill="#211F42" stroke="#211F42" stroke-linecap="round" stroke-linejoin="round"/>
<path d="M77.9932 41.5664C86.1296 45.6989 100.275 52.3215 113.321 55.6532" stroke="white" stroke-linecap="round" stroke-linejoin="round" stroke-dasharray="2 4"/>
<path d="M71.166 37.9717C71.166 37.9717 73.7729 39.4447 77.9931 41.5898" stroke="#211F42" stroke-linecap="round" stroke-linejoin="round" stroke-dasharray="2 4"/>
<path d="M47.335 64.3622V49.2876L90.4604 56.2199L47.335 64.3622Z" fill="white" stroke="#211F42" stroke-width="1.2629" stroke-linecap="round" stroke-linejoin="round"/>
<path d="M49.4451 52L47.335 64.3625L90.4604 56.2202L49.4451 52Z" fill="#51AF4E" stroke="#211F42" stroke-width="1.2629" stroke-linecap="round" stroke-linejoin="round"/>
<path d="M49.4453 52L53.3674 59.8383L90.4606 56.2202L49.4453 52Z" fill="white" stroke="#211F42" stroke-width="1.2629" stroke-linecap="round" stroke-linejoin="round"/>
<path d="M47.3352 49.2878L42.811 44.7637L90.4606 56.2201L47.3352 49.2878Z" fill="white" stroke="#211F42" stroke-width="1.2629" stroke-linecap="round" stroke-linejoin="round"/>
<path d="M62.7783 64.0819L66.5192 63.322" stroke="#211F42" stroke-linecap="round" stroke-linejoin="round"/>
<path d="M49.6382 66.7532L59.043 64.8418" stroke="#211F42" stroke-linecap="round" stroke-linejoin="round"/>
<path d="M42.1389 63.4329C42.1389 63.4329 8.23712 69.278 1.80747 99.6727C-4.62217 130.067 29.2796 131.821 35.1247 117.208C40.9699 102.595 15.2513 96.7501 9.40615 110.778C3.56101 124.807 21.0964 148.772 45.0615 149.941C64.9758 150.911 120.809 127.665 155.535 121.791C155.535 121.791 181.253 114.671 221 116.232" stroke="#211F42" stroke-linecap="round" stroke-linejoin="round" stroke-dasharray="2 4"/>
<path d="M31.3294 21.7932L42.4759 3.84706C49.8393 4.07722 54.2588 9.04772 58.8372 14.2325L58.8907 14.2931C63.2943 19.2801 67.8592 24.4497 75.3444 24.9283L64.2033 42.8771C56.8399 42.6469 52.419 37.6758 47.8392 32.4903L47.7857 32.4297C43.3807 27.4421 38.8145 22.272 31.3294 21.7932Z" fill="#51AF4E" stroke="#211F42"/>
<path d="M42.3773 6.46442L34.3241 19.4364C34.5331 19.4369 34.7379 19.4957 34.9152 19.6063C35.0926 19.7169 35.2355 19.8749 35.3278 20.0624C35.4201 20.2499 35.4581 20.4595 35.4376 20.6675C35.4171 20.8755 35.3389 21.0736 35.2118 21.2395C46.3849 24.1223 50.4593 38.4936 61.6062 41.3573C61.9144 40.9487 62.3277 40.6313 62.802 40.4391C63.2764 40.2469 63.794 40.187 64.2997 40.2658L72.3529 27.2937C72.1429 27.2948 71.9369 27.2369 71.7583 27.1265C71.5796 27.0162 71.4355 26.858 71.3424 26.6698C71.2493 26.4816 71.2109 26.2711 71.2316 26.0621C71.2523 25.8532 71.3312 25.6543 71.4594 25.488C60.2863 22.6053 56.2119 8.23397 45.0651 5.37021C44.7586 5.77943 44.3465 6.09749 43.873 6.29026C43.3995 6.48303 42.8824 6.54323 42.3773 6.46442V6.46442Z" fill="white"/>
<path d="M53.3375 25.205C53.4123 25.08 53.4373 24.9316 53.4076 24.789C53.3685 24.5968 53.3021 24.4111 53.2105 24.2376L52.5836 25.2471C52.7106 25.3518 52.8698 25.4093 53.0343 25.41C53.0974 25.4018 53.1576 25.379 53.2102 25.3434C53.2629 25.3078 53.3064 25.2604 53.3375 25.205V25.205Z" fill="#51AF4E"/>
<path d="M53.3895 22.3526L54.0032 21.372C53.889 21.2641 53.7421 21.1973 53.5857 21.1822C53.5248 21.1866 53.466 21.2061 53.4145 21.2389C53.3629 21.2716 53.3203 21.3166 53.2905 21.3699C53.2137 21.493 53.1866 21.6407 53.2145 21.7832C53.2435 21.9808 53.3025 22.1728 53.3895 22.3526V22.3526Z" fill="#51AF4E"/>
<path d="M50.0419 28.6681C52.4008 31.406 55.9168 31.0452 57.7491 28.0926C59.5814 25.1399 58.9729 20.7836 56.6313 18.0535C54.2897 15.3235 50.7538 15.6822 48.9241 18.629C47.0945 21.5759 47.6829 25.9301 50.0419 28.6681ZM53.2586 19.823C53.7637 19.8408 54.2412 20.0579 54.5866 20.4268L55.0817 19.6302L55.6589 20.2846L55.1802 21.0605C55.4515 21.4046 55.686 21.7762 55.8797 22.1693C56.0576 22.5136 56.19 22.8795 56.2734 23.258L55.4113 23.7688C55.3496 23.4566 55.2532 23.1523 55.1241 22.8615C54.987 22.5598 54.8197 22.2728 54.6249 22.0047L53.882 23.1924C54.0829 23.5303 54.2598 23.882 54.4112 24.2448C54.5383 24.555 54.6085 24.8855 54.6183 25.2206C54.6249 25.5674 54.5262 25.908 54.3351 26.1975C54.2378 26.3765 54.0964 26.5277 53.9243 26.6368C53.7523 26.7459 53.5552 26.8094 53.3518 26.8211C52.8427 26.8015 52.3617 26.5828 52.0123 26.212L51.5198 27.0028C51.3321 26.7845 51.1387 26.5636 50.9426 26.3485L51.4271 25.5751C51.0133 25.0521 50.7029 24.455 50.5126 23.8158L51.2929 23.2538C51.4403 23.7416 51.6622 24.2036 51.9507 24.6236L52.7042 23.4127C52.5033 23.0797 52.3267 22.7328 52.1755 22.3746C52.0476 22.0696 51.9775 21.7435 51.969 21.4129C51.9619 21.0683 52.0598 20.7296 52.2495 20.4419C52.3461 20.2571 52.4909 20.102 52.6686 19.9931C52.8463 19.8841 53.0502 19.8253 53.2586 19.823V19.823Z" fill="#51AF4E"/>
<path d="M34.7797 14.2483C35.8789 13.2666 37.2444 12.6329 38.7037 12.4271C40.163 12.2214 41.6505 12.4529 42.9783 13.0924C44.3061 13.7318 45.4144 14.7506 46.1633 16.0199C46.9122 17.2891 47.268 18.7519 47.1857 20.2234C47.1034 21.6948 46.5868 23.1088 45.701 24.2867C44.8153 25.4645 43.6002 26.3534 42.2095 26.8408C40.8187 27.3283 39.3146 27.3925 37.8874 27.0253C36.4601 26.6581 35.1737 25.8761 34.1908 24.778C33.5376 24.0482 33.0346 23.1968 32.7107 22.2725C32.3867 21.3481 32.2481 20.369 32.3028 19.3911C32.3575 18.4132 32.6044 17.4556 33.0294 16.5732C33.4544 15.6907 34.0491 14.9007 34.7797 14.2483V14.2483Z" fill="#51AF4E"/>
<path d="M34.1816 13.5775C35.2818 12.5948 36.6487 11.9604 38.1094 11.7544C39.5702 11.5485 41.0592 11.7803 42.3882 12.4205C43.7172 13.0607 44.8265 14.0806 45.576 15.3512C46.3254 16.6218 46.6813 18.0861 46.5986 19.559C46.5159 21.0318 45.9984 22.4471 45.1114 23.6258C44.2245 24.8046 43.0079 25.6939 41.6156 26.1813C40.2233 26.6688 38.7177 26.7324 37.2892 26.3643C35.8607 25.9961 34.5735 25.2127 33.5902 24.113C32.9362 23.3829 32.4327 22.531 32.1084 21.606C31.7842 20.681 31.6455 19.7012 31.7005 18.7226C31.7554 17.7439 32.0028 16.7858 32.4286 15.9029C32.8544 15.0201 33.4501 14.2298 34.1816 13.5775V13.5775Z" fill="#51AF4E"/>
<path d="M33.9629 23.7797L33.9626 23.7794C33.3525 23.0983 32.8828 22.3035 32.5803 21.4406C32.2778 20.5777 32.1484 19.6636 32.1997 18.7506C32.2509 17.8376 32.4818 16.9437 32.879 16.1201C33.2762 15.2965 33.8319 14.5593 34.5144 13.9507L34.1818 13.5777L34.5147 13.9504C35.5412 13.0336 36.8164 12.4417 38.1792 12.2495C39.542 12.0574 40.9312 12.2736 42.1712 12.8709C43.4111 13.4682 44.4461 14.4197 45.1453 15.6052C45.8445 16.7906 46.1765 18.1568 46.0994 19.5309C46.0222 20.9051 45.5394 22.2255 44.7119 23.3252C43.8844 24.425 42.7494 25.2546 41.4504 25.7094C40.1514 26.1642 38.7468 26.2236 37.414 25.8801C36.0813 25.5366 34.8803 24.8057 33.9629 23.7797Z" fill="#51AF4E" stroke="#211F42"/>
<path d="M34.9884 22.8384C34.8487 22.684 34.7198 22.5202 34.6025 22.3481C33.7745 21.1645 33.4406 19.7046 33.672 18.2788C33.9034 16.8529 34.6817 15.5735 35.8415 14.7125C37.0014 13.8514 38.4513 13.4767 39.8831 13.6679C41.3149 13.859 42.6157 14.6011 43.509 15.7362C44.4023 16.8714 44.8177 18.3102 44.6669 19.7468C44.516 21.1834 43.8109 22.5046 42.7013 23.4295C41.5917 24.3543 40.1652 24.81 38.7249 24.6997C37.2846 24.5893 35.9441 23.9216 34.9884 22.8384V22.8384Z" fill="#51AF4E"/>
<path d="M43.1447 15.9771L43.1452 15.9776C43.2557 16.1013 43.3593 16.2309 43.4555 16.3659C44.0219 17.4559 44.1742 18.7147 43.8837 19.9089C43.5907 21.1135 42.8673 22.1694 41.8498 22.8777C40.8323 23.586 39.5909 23.8977 38.3595 23.7543C37.1281 23.6108 35.9916 23.022 35.1642 22.0988L34.7918 22.4325L35.1627 22.0971C35.0448 21.9668 34.9355 21.8289 34.8355 21.6844C34.272 20.5919 34.1235 19.3318 34.4182 18.1377C34.7153 16.9342 35.4422 15.8808 36.4621 15.176C37.4819 14.4712 38.7242 14.1636 39.9551 14.3111C41.1859 14.4587 42.3204 15.0512 43.1447 15.9771Z" fill="white" stroke="#FBFBFB"/>
<path d="M38.3984 16.5239C39.1745 15.5402 40.3523 15.6278 41.4688 16.6813L42.2454 16.0197L42.8611 16.7125L42.0845 17.3741C42.5731 18.0067 42.906 18.7454 43.0564 19.5304L41.9187 19.9858C41.8167 19.3232 41.5579 18.6946 41.1639 18.1521L39.9987 19.1758C40.4093 20.0273 40.8247 21.0069 40.1165 21.9025C39.343 22.8804 38.1395 22.788 37.0219 21.7061L36.2395 22.365L35.6238 21.6722L36.4088 21.0075C36.0293 20.5025 35.7559 19.9259 35.605 19.3125L36.7043 18.8186C36.8104 19.3274 37.0203 19.8087 37.321 20.2326L38.5647 19.1747C38.1373 18.3295 37.7256 17.3726 38.3984 16.5239ZM38.9611 20.0266L37.9409 20.8854C38.3573 21.2007 38.7364 21.1981 38.9658 20.9245C39.1951 20.6509 39.0971 20.3894 38.9611 20.0266ZM39.5502 17.4534C39.3815 17.6706 39.4179 17.9601 39.5586 18.297L40.5261 17.4773C40.1275 17.1841 39.7738 17.1772 39.5502 17.4534Z" fill="#51AF4E"/>
</svg>
