<svg width="10" height="17" viewBox="0 0 10 17" fill="none" xmlns="http://www.w3.org/2000/svg">
<path d="M2.20711 0.542893C1.81658 0.152369 1.18342 0.152369 0.792893 0.542893C0.402369 0.933417 0.402369 1.56658 0.792893 1.95711L2.20711 0.542893ZM8.5 8.25L9.20711 8.95711C9.59763 8.56658 9.59763 7.93342 9.20711 7.54289L8.5 8.25ZM0.792893 14.5429C0.402369 14.9334 0.402369 15.5666 0.792893 15.9571C1.18342 16.3476 1.81658 16.3476 2.20711 15.9571L0.792893 14.5429ZM0.792893 1.95711L7.79289 8.95711L9.20711 7.54289L2.20711 0.542893L0.792893 1.95711ZM7.79289 7.54289L0.792893 14.5429L2.20711 15.9571L9.20711 8.95711L7.79289 7.54289Z" fill="#51AF4E"/>
</svg>
