<svg width="13" height="13" viewBox="0 0 13 13" fill="none" xmlns="http://www.w3.org/2000/svg">
<path fill-rule="evenodd" clip-rule="evenodd" d="M6 6.98047C6 6.42818 6.44772 5.98047 7 5.98047H10C10.5523 5.98047 11 6.42818 11 6.98047V9.98047C11 10.5328 10.5523 10.9805 10 10.9805H6.5C6.22386 10.9805 6 10.7566 6 10.4805V6.98047ZM10 6.98047H7V9.98047H10V6.98047Z" fill="#51AF4E"/>
<path fill-rule="evenodd" clip-rule="evenodd" d="M2 6.98047C2 6.42818 2.44772 5.98047 3 5.98047H6C6.55229 5.98047 7 6.42818 7 6.98047V10.4805C7 10.7566 6.77614 10.9805 6.5 10.9805H3C2.44772 10.9805 2 10.5328 2 9.98047V6.98047ZM6 6.98047H3V9.98047H6V6.98047Z" fill="#51AF4E"/>
<path fill-rule="evenodd" clip-rule="evenodd" d="M6 4.98047C6 4.42818 6.44772 3.98047 7 3.98047H10.5C11.0523 3.98047 11.5 4.42818 11.5 4.98047V5.98047C11.5 6.53275 11.0523 6.98047 10.5 6.98047H7C6.44772 6.98047 6 6.53275 6 5.98047V4.98047ZM10.5 4.98047H7V5.98047H10.5V4.98047Z" fill="#51AF4E"/>
<path fill-rule="evenodd" clip-rule="evenodd" d="M1.5 4.98047C1.5 4.42818 1.94772 3.98047 2.5 3.98047H6C6.55229 3.98047 7 4.42818 7 4.98047V5.98047C7 6.53275 6.55229 6.98047 6 6.98047H2.5C1.94772 6.98047 1.5 6.53275 1.5 5.98047V4.98047ZM6 4.98047H2.5V5.98047H6V4.98047Z" fill="#51AF4E"/>
<path fill-rule="evenodd" clip-rule="evenodd" d="M6 3.23047C6 2.26397 6.7835 1.48047 7.75 1.48047C8.7165 1.48047 9.5 2.26397 9.5 3.23047C9.5 4.19697 8.7165 4.98047 7.75 4.98047H6.5C6.22386 4.98047 6 4.75661 6 4.48047V3.23047ZM7.75 2.48047C7.33579 2.48047 7 2.81626 7 3.23047V3.98047H7.75C8.16421 3.98047 8.5 3.64468 8.5 3.23047C8.5 2.81626 8.16421 2.48047 7.75 2.48047Z" fill="#51AF4E"/>
<path fill-rule="evenodd" clip-rule="evenodd" d="M3.5 3.23047C3.5 2.26397 4.2835 1.48047 5.25 1.48047C6.2165 1.48047 7 2.26397 7 3.23047V4.48047C7 4.75661 6.77614 4.98047 6.5 4.98047H5.25C4.2835 4.98047 3.5 4.19697 3.5 3.23047ZM5.25 2.48047C4.83579 2.48047 4.5 2.81626 4.5 3.23047C4.5 3.64468 4.83579 3.98047 5.25 3.98047H6V3.23047C6 2.81626 5.66421 2.48047 5.25 2.48047Z" fill="#51AF4E"/>
</svg>
