<svg width="25" height="24" viewBox="0 0 25 24" fill="none" xmlns="http://www.w3.org/2000/svg">
<path d="M12.5 21C17.4706 21 21.5 16.9706 21.5 12C21.5 7.02944 17.4706 3 12.5 3C7.52944 3 3.5 7.02944 3.5 12C3.5 16.9706 7.52944 21 12.5 21Z" stroke="#51AF4E" stroke-width="2" stroke-miterlimit="10" stroke-linecap="round" stroke-linejoin="round"/>
<path d="M16.2071 10.7071C16.5976 10.3166 16.5976 9.68342 16.2071 9.29289C15.8166 8.90237 15.1834 8.90237 14.7929 9.29289L16.2071 10.7071ZM11.5 14L10.7929 14.7071C11.1834 15.0976 11.8166 15.0976 12.2071 14.7071L11.5 14ZM10.2071 11.2929C9.81658 10.9024 9.18342 10.9024 8.79289 11.2929C8.40237 11.6834 8.40237 12.3166 8.79289 12.7071L10.2071 11.2929ZM14.7929 9.29289L10.7929 13.2929L12.2071 14.7071L16.2071 10.7071L14.7929 9.29289ZM12.2071 13.2929L10.2071 11.2929L8.79289 12.7071L10.7929 14.7071L12.2071 13.2929Z" fill="#3B8339"/>
</svg>
