<svg width="18" height="18" viewBox="0 0 18 18" fill="none" xmlns="http://www.w3.org/2000/svg">
<path fill-rule="evenodd" clip-rule="evenodd" d="M15 3H7.5L7.5 6.75C7.5 7.16421 7.16421 7.5 6.75 7.5C6.33579 7.5 6 7.16421 6 6.75L6 3C6 2.17157 6.67157 1.5 7.5 1.5L15 1.5C15.8284 1.5 16.5 2.17157 16.5 3V10.5C16.5 11.3284 15.8284 12 15 12H11.25C10.8358 12 10.5 11.6642 10.5 11.25C10.5 10.8358 10.8358 10.5 11.25 10.5H15V3Z" fill="#51AF4E"/>
<path fill-rule="evenodd" clip-rule="evenodd" d="M10.5 7.5H3V15L10.5 15V7.5ZM3 6L10.5 6C11.3284 6 12 6.67157 12 7.5V15C12 15.8284 11.3284 16.5 10.5 16.5L3 16.5C2.17157 16.5 1.5 15.8284 1.5 15L1.5 7.5C1.5 6.67157 2.17157 6 3 6Z" fill="#51AF4E"/>
</svg>
