<svg width="19" height="12" viewBox="0 0 19 12" fill="none" xmlns="http://www.w3.org/2000/svg">
<path d="M6.96722 8.10561C4.92454 5.39846 7.36098 1.86509 10.5815 2.7792C7.93757 4.36482 11.1967 7.69778 12.821 5.01524C13.8406 8.95643 8.98528 10.7495 6.96722 8.10561Z" fill="#3B8339"/>
<path fill-rule="evenodd" clip-rule="evenodd" d="M18.415 6.60434C13.9535 13.2386 5.24837 13.3582 0.779803 6.60785C0.537213 6.2387 0.540729 5.74648 0.786834 5.38436C5.25541 -1.19721 13.9113 -1.39057 18.4185 5.37733C18.6611 5.74297 18.6611 6.2387 18.415 6.60434ZM2.84006 5.99259C7.08713 1.14783 12.2026 1.08454 16.3583 5.99259C12.2026 10.8338 7.06604 10.7706 2.84006 5.99259Z" fill="#51AF4E"/>
</svg>
