<svg width="24" height="25" viewBox="0 0 24 25" fill="none" xmlns="http://www.w3.org/2000/svg">
<path d="M19.8184 11.0261C20.068 10.7343 20.5497 10.1682 20.838 9.68658C21.5552 8.41387 19.7059 7.2607 18.9078 8.52989C16.1409 13.3043 6.98933 13.4449 5.17167 8.69162C4.48961 7.27476 2.58055 8.20644 3.0833 9.52485C3.32941 10.1366 3.87787 10.9874 4.07123 11.2089C3.40324 11.5113 2.67196 12.1089 3.16768 13.0652C4.04662 14.25 5.02049 13.2305 5.78342 12.8051C6.08929 13.0441 6.81354 13.4063 7.12996 13.5469C6.60259 14.3379 5.99436 15.3153 7.05965 15.9939C8.35345 16.5318 8.73667 15.2837 9.32029 14.236C9.57343 14.2887 10.4348 14.4153 10.8743 14.4223C10.8743 15.8568 10.6598 16.8623 11.9993 16.9818C13.3177 16.8904 13.1244 15.8568 13.1244 14.359C13.5884 14.3239 14.4674 14.1094 14.6818 14.0567C15.3956 15.1782 15.6592 16.5177 17.062 15.9271C18.1273 15.1782 17.5191 14.4715 16.8265 13.2691C17.0831 13.1461 17.8355 12.7172 18.0183 12.5871C18.9746 13.118 20.0258 14.1305 20.8415 12.9211C21.2353 12.1863 20.8872 11.5077 19.8184 11.0261Z" fill="#51AF4E"/>
</svg>
