<svg width="16" height="16" viewBox="0 0 16 16" fill="none" xmlns="http://www.w3.org/2000/svg">
<path d="M1 1L15.25 15.25" stroke="#51AF4E" stroke-width="1.1875" stroke-linecap="round" stroke-linejoin="round"/>
<path d="M6.93759 7.07764C6.67085 7.37966 6.52929 7.77203 6.54178 8.17479C6.55426 8.57756 6.71983 8.9604 7.00476 9.24534C7.2897 9.53027 7.67255 9.69584 8.07531 9.70832C8.47807 9.72081 8.87044 9.57925 9.17246 9.31251" stroke="#51AF4E" stroke-width="1.1875" stroke-linecap="round" stroke-linejoin="round"/>
<path d="M4.45325 4.61084C3.12167 5.54421 2.01254 6.87421 1 8.12505C2.49546 10.4929 5.18158 12.875 8.125 12.875C9.35208 12.875 10.534 12.461 11.6044 11.8063" stroke="#51AF4E" stroke-width="1.1875" stroke-linecap="round" stroke-linejoin="round"/>
<path d="M8.125 3.375C11.298 3.375 13.43 5.87508 15.25 8.125C14.9891 8.53728 14.7042 8.9338 14.3966 9.3125" stroke="#51AF4E" stroke-width="1.1875" stroke-linecap="round" stroke-linejoin="round"/>
</svg>
