<svg width="25" height="25" viewBox="0 0 25 25" fill="none" xmlns="http://www.w3.org/2000/svg">
<path d="M20.3184 10.6716C20.568 10.3798 21.0497 9.81375 21.338 9.33209C22.0552 8.05938 20.2059 6.9062 19.4078 8.1754C16.6409 12.9498 7.48933 13.0904 5.67167 8.33712C4.98961 6.92027 3.08055 7.85195 3.5833 9.17036C3.82941 9.7821 4.37787 10.6329 4.57123 10.8544C3.90324 11.1568 3.17196 11.7545 3.66768 12.7107C4.54662 13.8956 5.52049 12.876 6.28342 12.4506C6.58929 12.6896 7.31354 13.0518 7.62996 13.1924C7.10259 13.9835 6.49436 14.9608 7.55965 15.6394C8.85345 16.1773 9.23667 14.9292 9.82029 13.8815C10.0734 13.9342 10.9348 14.0608 11.3743 14.0678C11.3743 15.5023 11.1598 16.5078 12.4993 16.6273C13.8177 16.5359 13.6244 15.5023 13.6244 14.0045C14.0884 13.9694 14.9674 13.7549 15.1818 13.7022C15.8956 14.8237 16.1592 16.1632 17.562 15.5726C18.6273 14.8237 18.0191 14.1171 17.3265 12.9147C17.5831 12.7916 18.3355 12.3627 18.5183 12.2326C19.4746 12.7635 20.5258 13.776 21.3415 12.5666C21.7353 11.8318 21.3872 11.1533 20.3184 10.6716Z" fill="white"/>
</svg>
