<svg width="25" height="25" viewBox="0 0 25 25" fill="none" xmlns="http://www.w3.org/2000/svg">
<path d="M9.86718 14.2316C7.8245 11.5244 10.2609 7.99107 13.4814 8.90517C10.8375 10.4908 14.0967 13.8238 15.721 11.1412C16.7406 15.0824 11.8852 16.8755 9.86718 14.2316Z" fill="#FBFBFB"/>
<path fill-rule="evenodd" clip-rule="evenodd" d="M21.315 12.7303C16.8534 19.3646 8.14834 19.4842 3.67977 12.7338C3.43718 12.3647 3.44069 11.8725 3.6868 11.5103C8.15537 4.92877 16.8112 4.7354 21.3185 11.5033C21.5611 11.8689 21.5611 12.3647 21.315 12.7303ZM5.74002 12.1186C9.9871 7.27381 15.1026 7.21052 19.2582 12.1186C15.1026 16.9598 9.966 16.8965 5.74002 12.1186Z" fill="#FBFBFB"/>
</svg>
