<svg width="52" height="63" viewBox="0 0 52 63" fill="none" xmlns="http://www.w3.org/2000/svg">
<g style="mix-blend-mode:darken">
<g filter="url(#filter0_d_21_15)">
<rect x="4" y="1" width="44" height="44" rx="22" fill="#51AF4E"/>
<path fill-rule="evenodd" clip-rule="evenodd" d="M19 23C19 22.4477 19.4477 22 20 22H32C32.5523 22 33 22.4477 33 23C33 23.5523 32.5523 24 32 24H20C19.4477 24 19 23.5523 19 23Z" fill="#FBFBFB"/>
<path fill-rule="evenodd" clip-rule="evenodd" d="M26 16C26.5523 16 27 16.4477 27 17L27 29C27 29.5523 26.5523 30 26 30C25.4477 30 25 29.5523 25 29L25 17C25 16.4477 25.4477 16 26 16Z" fill="#FBFBFB"/>
</g>
<path d="M9.49676 52.6H6.98676V60H9.49676C11.6568 60 13.0868 58.52 13.0868 56.32C13.0868 54.08 11.6568 52.6 9.49676 52.6ZM9.43676 59.37H7.74676V53.23H9.43676C11.1568 53.23 12.2968 54.46 12.2968 56.32C12.2968 58.14 11.1568 59.37 9.43676 59.37ZM19.4935 57.29C19.4935 55.68 18.4935 54.61 17.0035 54.61C15.4935 54.61 14.4935 55.71 14.4935 57.35C14.4935 59 15.5135 60.1 17.0235 60.1C17.9635 60.1 18.7735 59.69 19.2835 58.93L18.7335 58.62C18.3235 59.17 17.7335 59.52 17.0235 59.52C15.9735 59.52 15.3535 58.77 15.2635 57.62H19.4835C19.4935 57.54 19.4935 57.38 19.4935 57.29ZM17.0035 55.19C18.0235 55.19 18.6835 55.93 18.7435 57.11H15.2635C15.3335 55.93 15.9835 55.19 17.0035 55.19ZM23.9717 54.61C22.9217 54.61 22.2217 55.1 21.8617 55.85L21.8417 54.71H21.1417V62.2H21.8617V58.86C22.2217 59.61 22.9217 60.1 23.9717 60.1C25.4517 60.1 26.5017 59 26.5017 57.34C26.5017 55.7 25.4517 54.61 23.9717 54.61ZM23.8017 59.48C22.6417 59.48 21.8617 58.63 21.8617 57.36C21.8617 56.08 22.6417 55.24 23.8017 55.24C24.9717 55.24 25.7517 56.08 25.7517 57.35C25.7517 58.63 24.9717 59.48 23.8017 59.48ZM30.5618 60.1C32.1718 60.1 33.2518 59 33.2518 57.36C33.2518 55.71 32.1718 54.61 30.5618 54.61C28.9418 54.61 27.8518 55.71 27.8518 57.36C27.8518 59 28.9418 60.1 30.5618 60.1ZM30.5618 59.48C29.3918 59.48 28.6118 58.63 28.6118 57.36C28.6118 56.08 29.3918 55.24 30.5618 55.24C31.7218 55.24 32.4918 56.08 32.4918 57.36C32.4918 58.63 31.7218 59.48 30.5618 59.48ZM36.4597 60.1C37.6797 60.1 38.4497 59.49 38.4497 58.57C38.4497 57.7 37.7197 57.3 36.9197 57.08L36.3497 56.91C35.7797 56.75 35.3697 56.53 35.3697 56.04C35.3697 55.52 35.8397 55.19 36.5397 55.19C37.0497 55.19 37.5297 55.3 37.9797 55.58L38.2897 55.09C37.7797 54.76 37.1997 54.61 36.4897 54.61C35.3697 54.61 34.6297 55.22 34.6297 56.15C34.6297 56.94 35.1997 57.27 36.0297 57.5L36.5997 57.67C37.2397 57.85 37.7097 58.13 37.7097 58.63C37.7097 59.17 37.2097 59.52 36.4597 59.52C35.9097 59.52 35.3797 59.41 34.9397 59.09L34.6397 59.54C35.0497 59.91 35.7097 60.1 36.4597 60.1ZM40.5144 53.38C40.7844 53.38 40.9944 53.17 40.9944 52.9C40.9944 52.62 40.7844 52.41 40.5144 52.41C40.2344 52.41 40.0244 52.62 40.0244 52.9C40.0244 53.17 40.2344 53.38 40.5144 53.38ZM40.1544 60H40.8744V54.71H40.1544V60ZM44.8472 59.48C44.2972 59.48 43.9172 59.08 43.9172 58.5V55.31H45.8272V54.71H43.9172V53.16H43.1972V54.71H42.2772V55.31H43.1972V58.64C43.1972 59.51 43.7772 60.1 44.6272 60.1C45.1272 60.1 45.5572 60.03 45.9072 59.88V59.29C45.5672 59.42 45.2172 59.48 44.8472 59.48Z" fill="#FBFBFB"/>
</g>
<defs>
<filter id="filter0_d_21_15" x="0" y="0" width="52" height="52" filterUnits="userSpaceOnUse" color-interpolation-filters="sRGB">
<feFlood flood-opacity="0" result="BackgroundImageFix"/>
<feColorMatrix in="SourceAlpha" type="matrix" values="0 0 0 0 0 0 0 0 0 0 0 0 0 0 0 0 0 0 127 0" result="hardAlpha"/>
<feOffset dy="3"/>
<feGaussianBlur stdDeviation="2"/>
<feComposite in2="hardAlpha" operator="out"/>
<feColorMatrix type="matrix" values="0 0 0 0 0.129412 0 0 0 0 0.121569 0 0 0 0 0.258824 0 0 0 0.1 0"/>
<feBlend mode="normal" in2="BackgroundImageFix" result="effect1_dropShadow_21_15"/>
<feBlend mode="normal" in="SourceGraphic" in2="effect1_dropShadow_21_15" result="shape"/>
</filter>
</defs>
</svg>
