<svg width="52" height="61" viewBox="0 0 52 61" fill="none" xmlns="http://www.w3.org/2000/svg">
<g style="mix-blend-mode:darken">
<g filter="url(#filter0_d_21_21)">
<rect x="4" y="1" width="44" height="44" rx="22" fill="#51AF4E"/>
<path d="M26 18V28" stroke="#FBFBFB" stroke-width="2" stroke-linecap="round" stroke-linejoin="round"/>
<path d="M30 24L26 28L22 24" stroke="#FBFBFB" stroke-width="2" stroke-linecap="round" stroke-linejoin="round"/>
</g>
<path d="M10.492 52.6L8.27195 58.98L6.24195 52.6H5.51195L3.48195 58.98L1.25195 52.6H0.441954L3.09195 60H3.80195L5.87195 53.71L7.94195 60H8.66195L11.302 52.6H10.492ZM12.9771 53.38C13.2471 53.38 13.4571 53.17 13.4571 52.9C13.4571 52.62 13.2471 52.41 12.9771 52.41C12.6971 52.41 12.4871 52.62 12.4871 52.9C12.4871 53.17 12.6971 53.38 12.9771 53.38ZM12.6171 60H13.3371V54.71H12.6171V60ZM17.3099 59.48C16.7599 59.48 16.3799 59.08 16.3799 58.5V55.31H18.2899V54.71H16.3799V53.16H15.6599V54.71H14.7399V55.31H15.6599V58.64C15.6599 59.51 16.2399 60.1 17.0899 60.1C17.5899 60.1 18.0199 60.03 18.3699 59.88V59.29C18.0299 59.42 17.6799 59.48 17.3099 59.48ZM22.3259 54.61C21.4159 54.61 20.7659 54.97 20.4259 55.59V52.2H19.7059V60H20.4259V56.81C20.4259 55.86 21.0959 55.24 22.1059 55.24C23.1059 55.24 23.7759 55.86 23.7759 56.81V60H24.4959V56.67C24.4959 55.43 23.6259 54.61 22.3259 54.61ZM30.7634 52.2V55.85C30.4034 55.1 29.7034 54.61 28.6534 54.61C27.1734 54.61 26.1134 55.72 26.1134 57.37C26.1134 59.01 27.1734 60.1 28.6534 60.1C29.7034 60.1 30.4034 59.61 30.7634 58.86L30.7834 60H31.4834V52.2H30.7634ZM28.8234 59.48C27.6534 59.48 26.8734 58.63 26.8734 57.37C26.8734 56.09 27.6534 55.24 28.8234 55.24C29.9834 55.24 30.7634 56.09 30.7634 57.36C30.7634 58.63 29.9834 59.48 28.8234 59.48ZM34.2335 55.6L34.2235 54.71H33.5235V60H34.2435V56.93C34.2435 55.92 34.9835 55.27 36.2735 55.27L36.3335 54.61C35.3235 54.61 34.6135 54.94 34.2335 55.6ZM39.3377 54.61C38.4877 54.61 37.8677 54.87 37.3877 55.34L37.7177 55.78C38.0877 55.4 38.5377 55.19 39.1677 55.19C40.1377 55.19 40.7477 55.8 40.7477 56.76V57.13C40.2477 57.01 39.6977 56.95 39.2077 56.95C37.9077 56.95 37.0477 57.6 37.0477 58.56C37.0477 59.49 37.7477 60.1 38.7877 60.1C39.6277 60.1 40.3777 59.66 40.7477 58.89L40.7677 60H41.4677V56.67C41.4677 55.43 40.6277 54.61 39.3377 54.61ZM38.9877 59.56C38.2477 59.56 37.7977 59.16 37.7977 58.54C37.7977 57.9 38.3977 57.47 39.2977 57.47C39.7577 57.47 40.2777 57.53 40.7477 57.64C40.7477 58.87 39.8277 59.56 38.9877 59.56ZM50.7072 54.71L49.0372 59.17L47.3972 54.71H46.7672L45.1172 59.17L43.4472 54.71H42.6572L44.7172 60H45.4472L47.0872 55.54L48.7172 60H49.4472L51.5072 54.71H50.7072Z" fill="#FBFBFB"/>
</g>
<defs>
<filter id="filter0_d_21_21" x="0" y="0" width="52" height="52" filterUnits="userSpaceOnUse" color-interpolation-filters="sRGB">
<feFlood flood-opacity="0" result="BackgroundImageFix"/>
<feColorMatrix in="SourceAlpha" type="matrix" values="0 0 0 0 0 0 0 0 0 0 0 0 0 0 0 0 0 0 127 0" result="hardAlpha"/>
<feOffset dy="3"/>
<feGaussianBlur stdDeviation="2"/>
<feComposite in2="hardAlpha" operator="out"/>
<feColorMatrix type="matrix" values="0 0 0 0 0.129412 0 0 0 0 0.121569 0 0 0 0 0.258824 0 0 0 0.1 0"/>
<feBlend mode="normal" in2="BackgroundImageFix" result="effect1_dropShadow_21_21"/>
<feBlend mode="normal" in="SourceGraphic" in2="effect1_dropShadow_21_21" result="shape"/>
</filter>
</defs>
</svg>
