<svg width="54" height="71" viewBox="0 0 54 71" fill="none" xmlns="http://www.w3.org/2000/svg">
<g style="mix-blend-mode:darken">
<g filter="url(#filter0_d_27_71)">
<rect x="5" y="5.5" width="44" height="44" rx="22" fill="#51AF4E"/>
<path fill-rule="evenodd" clip-rule="evenodd" d="M20 27.5C20 26.9477 20.4477 26.5 21 26.5H33C33.5523 26.5 34 26.9477 34 27.5C34 28.0523 33.5523 28.5 33 28.5H21C20.4477 28.5 20 28.0523 20 27.5Z" fill="#FBFBFB"/>
<path fill-rule="evenodd" clip-rule="evenodd" d="M27 20.5C27.5523 20.5 28 20.9477 28 21.5L28 33.5C28 34.0523 27.5523 34.5 27 34.5C26.4477 34.5 26 34.0523 26 33.5L26 21.5C26 20.9477 26.4477 20.5 27 20.5Z" fill="#FBFBFB"/>
</g>
<path d="M10.4968 57.1H7.98676V64.5H10.4968C12.6568 64.5 14.0868 63.02 14.0868 60.82C14.0868 58.58 12.6568 57.1 10.4968 57.1ZM10.4368 63.87H8.74676V57.73H10.4368C12.1568 57.73 13.2968 58.96 13.2968 60.82C13.2968 62.64 12.1568 63.87 10.4368 63.87ZM20.4935 61.79C20.4935 60.18 19.4935 59.11 18.0035 59.11C16.4935 59.11 15.4935 60.21 15.4935 61.85C15.4935 63.5 16.5135 64.6 18.0235 64.6C18.9635 64.6 19.7735 64.19 20.2835 63.43L19.7335 63.12C19.3235 63.67 18.7335 64.02 18.0235 64.02C16.9735 64.02 16.3535 63.27 16.2635 62.12H20.4835C20.4935 62.04 20.4935 61.88 20.4935 61.79ZM18.0035 59.69C19.0235 59.69 19.6835 60.43 19.7435 61.61H16.2635C16.3335 60.43 16.9835 59.69 18.0035 59.69ZM24.9717 59.11C23.9217 59.11 23.2217 59.6 22.8617 60.35L22.8417 59.21H22.1417V66.7H22.8617V63.36C23.2217 64.11 23.9217 64.6 24.9717 64.6C26.4517 64.6 27.5017 63.5 27.5017 61.84C27.5017 60.2 26.4517 59.11 24.9717 59.11ZM24.8017 63.98C23.6417 63.98 22.8617 63.13 22.8617 61.86C22.8617 60.58 23.6417 59.74 24.8017 59.74C25.9717 59.74 26.7517 60.58 26.7517 61.85C26.7517 63.13 25.9717 63.98 24.8017 63.98ZM31.5618 64.6C33.1718 64.6 34.2518 63.5 34.2518 61.86C34.2518 60.21 33.1718 59.11 31.5618 59.11C29.9418 59.11 28.8518 60.21 28.8518 61.86C28.8518 63.5 29.9418 64.6 31.5618 64.6ZM31.5618 63.98C30.3918 63.98 29.6118 63.13 29.6118 61.86C29.6118 60.58 30.3918 59.74 31.5618 59.74C32.7218 59.74 33.4918 60.58 33.4918 61.86C33.4918 63.13 32.7218 63.98 31.5618 63.98ZM37.4597 64.6C38.6797 64.6 39.4497 63.99 39.4497 63.07C39.4497 62.2 38.7197 61.8 37.9197 61.58L37.3497 61.41C36.7797 61.25 36.3697 61.03 36.3697 60.54C36.3697 60.02 36.8397 59.69 37.5397 59.69C38.0497 59.69 38.5297 59.8 38.9797 60.08L39.2897 59.59C38.7797 59.26 38.1997 59.11 37.4897 59.11C36.3697 59.11 35.6297 59.72 35.6297 60.65C35.6297 61.44 36.1997 61.77 37.0297 62L37.5997 62.17C38.2397 62.35 38.7097 62.63 38.7097 63.13C38.7097 63.67 38.2097 64.02 37.4597 64.02C36.9097 64.02 36.3797 63.91 35.9397 63.59L35.6397 64.04C36.0497 64.41 36.7097 64.6 37.4597 64.6ZM41.5144 57.88C41.7844 57.88 41.9944 57.67 41.9944 57.4C41.9944 57.12 41.7844 56.91 41.5144 56.91C41.2344 56.91 41.0244 57.12 41.0244 57.4C41.0244 57.67 41.2344 57.88 41.5144 57.88ZM41.1544 64.5H41.8744V59.21H41.1544V64.5ZM45.8472 63.98C45.2972 63.98 44.9172 63.58 44.9172 63V59.81H46.8272V59.21H44.9172V57.66H44.1972V59.21H43.2772V59.81H44.1972V63.14C44.1972 64.01 44.7772 64.6 45.6272 64.6C46.1272 64.6 46.5572 64.53 46.9072 64.38V63.79C46.5672 63.92 46.2172 63.98 45.8472 63.98Z" fill="#211F42"/>
</g>
<defs>
<filter id="filter0_d_27_71" x="1" y="4.5" width="52" height="52" filterUnits="userSpaceOnUse" color-interpolation-filters="sRGB">
<feFlood flood-opacity="0" result="BackgroundImageFix"/>
<feColorMatrix in="SourceAlpha" type="matrix" values="0 0 0 0 0 0 0 0 0 0 0 0 0 0 0 0 0 0 127 0" result="hardAlpha"/>
<feOffset dy="3"/>
<feGaussianBlur stdDeviation="2"/>
<feComposite in2="hardAlpha" operator="out"/>
<feColorMatrix type="matrix" values="0 0 0 0 0.129412 0 0 0 0 0.121569 0 0 0 0 0.258824 0 0 0 0.1 0"/>
<feBlend mode="normal" in2="BackgroundImageFix" result="effect1_dropShadow_27_71"/>
<feBlend mode="normal" in="SourceGraphic" in2="effect1_dropShadow_27_71" result="shape"/>
</filter>
</defs>
</svg>
