<svg width="62" height="71" viewBox="0 0 62 71" fill="none" xmlns="http://www.w3.org/2000/svg">
<g style="mix-blend-mode:darken">
<g filter="url(#filter0_d_27_79)">
<rect x="9" y="5.5" width="44" height="44" rx="22" fill="#51AF4E"/>
<path d="M31 22.5V32.5" stroke="#FBFBFB" stroke-width="2" stroke-linecap="round" stroke-linejoin="round"/>
<path d="M35 28.5L31 32.5L27 28.5" stroke="#FBFBFB" stroke-width="2" stroke-linecap="round" stroke-linejoin="round"/>
</g>
<path d="M15.492 57.1L13.272 63.48L11.242 57.1H10.512L8.48195 63.48L6.25195 57.1H5.44195L8.09195 64.5H8.80195L10.872 58.21L12.942 64.5H13.662L16.302 57.1H15.492ZM17.9771 57.88C18.2471 57.88 18.4571 57.67 18.4571 57.4C18.4571 57.12 18.2471 56.91 17.9771 56.91C17.6971 56.91 17.4871 57.12 17.4871 57.4C17.4871 57.67 17.6971 57.88 17.9771 57.88ZM17.6171 64.5H18.3371V59.21H17.6171V64.5ZM22.3099 63.98C21.7599 63.98 21.3799 63.58 21.3799 63V59.81H23.2899V59.21H21.3799V57.66H20.6599V59.21H19.7399V59.81H20.6599V63.14C20.6599 64.01 21.2399 64.6 22.0899 64.6C22.5899 64.6 23.0199 64.53 23.3699 64.38V63.79C23.0299 63.92 22.6799 63.98 22.3099 63.98ZM27.3259 59.11C26.4159 59.11 25.7659 59.47 25.4259 60.09V56.7H24.7059V64.5H25.4259V61.31C25.4259 60.36 26.0959 59.74 27.1059 59.74C28.1059 59.74 28.7759 60.36 28.7759 61.31V64.5H29.4959V61.17C29.4959 59.93 28.6259 59.11 27.3259 59.11ZM35.7634 56.7V60.35C35.4034 59.6 34.7034 59.11 33.6534 59.11C32.1734 59.11 31.1134 60.22 31.1134 61.87C31.1134 63.51 32.1734 64.6 33.6534 64.6C34.7034 64.6 35.4034 64.11 35.7634 63.36L35.7834 64.5H36.4834V56.7H35.7634ZM33.8234 63.98C32.6534 63.98 31.8734 63.13 31.8734 61.87C31.8734 60.59 32.6534 59.74 33.8234 59.74C34.9834 59.74 35.7634 60.59 35.7634 61.86C35.7634 63.13 34.9834 63.98 33.8234 63.98ZM39.2335 60.1L39.2235 59.21H38.5235V64.5H39.2435V61.43C39.2435 60.42 39.9835 59.77 41.2735 59.77L41.3335 59.11C40.3235 59.11 39.6135 59.44 39.2335 60.1ZM44.3377 59.11C43.4877 59.11 42.8677 59.37 42.3877 59.84L42.7177 60.28C43.0877 59.9 43.5377 59.69 44.1677 59.69C45.1377 59.69 45.7477 60.3 45.7477 61.26V61.63C45.2477 61.51 44.6977 61.45 44.2077 61.45C42.9077 61.45 42.0477 62.1 42.0477 63.06C42.0477 63.99 42.7477 64.6 43.7877 64.6C44.6277 64.6 45.3777 64.16 45.7477 63.39L45.7677 64.5H46.4677V61.17C46.4677 59.93 45.6277 59.11 44.3377 59.11ZM43.9877 64.06C43.2477 64.06 42.7977 63.66 42.7977 63.04C42.7977 62.4 43.3977 61.97 44.2977 61.97C44.7577 61.97 45.2777 62.03 45.7477 62.14C45.7477 63.37 44.8277 64.06 43.9877 64.06ZM55.7072 59.21L54.0372 63.67L52.3972 59.21H51.7672L50.1172 63.67L48.4472 59.21H47.6572L49.7172 64.5H50.4472L52.0872 60.04L53.7172 64.5H54.4472L56.5072 59.21H55.7072Z" fill="#211F42"/>
</g>
<defs>
<filter id="filter0_d_27_79" x="5" y="4.5" width="52" height="52" filterUnits="userSpaceOnUse" color-interpolation-filters="sRGB">
<feFlood flood-opacity="0" result="BackgroundImageFix"/>
<feColorMatrix in="SourceAlpha" type="matrix" values="0 0 0 0 0 0 0 0 0 0 0 0 0 0 0 0 0 0 127 0" result="hardAlpha"/>
<feOffset dy="3"/>
<feGaussianBlur stdDeviation="2"/>
<feComposite in2="hardAlpha" operator="out"/>
<feColorMatrix type="matrix" values="0 0 0 0 0.129412 0 0 0 0 0.121569 0 0 0 0 0.258824 0 0 0 0.1 0"/>
<feBlend mode="normal" in2="BackgroundImageFix" result="effect1_dropShadow_27_79"/>
<feBlend mode="normal" in="SourceGraphic" in2="effect1_dropShadow_27_79" result="shape"/>
</filter>
</defs>
</svg>
