<svg width="200" height="28" viewBox="0 0 200 28" fill="none" xmlns="http://www.w3.org/2000/svg">
<g clip-path="url(#clip0_14_637)">
<path d="M24.0159 4.09003L14.215 13.9275L24.0159 23.7651C25.3195 22.4825 26.355 20.9518 27.062 19.2627C27.7689 17.5735 28.1331 15.7597 28.1331 13.9275C28.1331 12.0954 27.7689 10.2816 27.062 8.59242C26.355 6.90324 25.3195 5.37257 24.0159 4.09003Z" fill="white"/>
<path d="M10.2916 17.8657L6.38328 13.9276L10.2916 10.0808L19.2442 1.10997C17.6985 0.529933 16.0621 0.231293 14.4119 0.228088C10.772 0.228088 7.2811 1.67945 4.70728 4.26286C2.13346 6.84628 0.6875 10.3502 0.6875 14.0037C0.6875 17.6572 2.13346 21.161 4.70728 23.7444C7.2811 26.3279 10.772 27.7792 14.4119 27.7792C16.0676 27.7472 17.7043 27.4176 19.2442 26.8061L10.2916 17.8657Z" fill="white"/>
<path d="M44.7086 15.3416H42.2848V26.806H37.2708V0.34967H42.2848V11.2059H44.6025L52.9644 0.34967H59.0238L48.9653 13.2434L59.5691 26.7756H53.5098L44.7086 15.3416Z" fill="white"/>
<path d="M99.6668 0.34967L90.5778 26.7756H85.9424L79.5346 7.46552L73.1723 26.806H68.5066L59.4176 0.380087H64.7953L71.1273 20.0551L77.1866 0.380087H81.8826L88.0631 20.0247L94.3649 0.34967H99.6668Z" fill="white"/>
<path d="M117.572 21.53H105.453L103.302 26.8061H97.9398L109.18 0.380127H113.815L125.071 26.8061H119.708L117.572 21.53ZM115.891 17.3487L111.513 6.59889L107.15 17.3487H115.891Z" fill="white"/>
<path d="M135.568 15.3416H133.16V26.806H128.146V0.34967H133.16V11.2059H135.462L143.824 0.34967H149.884L139.81 13.2434L150.414 26.7756H144.354L135.568 15.3416Z" fill="white"/>
<path d="M150.171 13.5627C150.171 5.42811 155.716 0 164.002 0C172.288 0 177.802 5.42811 177.802 13.5627C177.802 21.6973 172.258 27.1254 164.002 27.1254C155.746 27.1254 150.171 21.6973 150.171 13.5627ZM172.606 13.5627C172.606 7.9217 169.167 4.18132 164.002 4.18132C158.836 4.18132 155.367 7.9217 155.367 13.5627C155.367 19.2037 158.851 22.9441 164.002 22.9441C169.152 22.9441 172.667 19.2037 172.667 13.5627H172.606Z" fill="white"/>
<path d="M199.176 22.5943V26.806H182.513V0.34967H187.527V22.5943H199.176Z" fill="white"/>
</g>
<defs>
<clipPath id="clip0_14_637">
<rect width="198.625" height="28" fill="white" transform="translate(0.6875)"/>
</clipPath>
</defs>
</svg>
