<svg width="19" height="19" viewBox="0 0 19 19" fill="none" xmlns="http://www.w3.org/2000/svg">
<g clip-path="url(#clip0_916_1516)">
<path d="M15.9396 2.77539L9.24292 9.45085L15.9396 16.1263C16.8303 15.256 17.5379 14.2173 18.0209 13.0711C18.5039 11.9249 18.7527 10.6941 18.7527 9.45085C18.7527 8.20759 18.5039 6.97682 18.0209 5.83059C17.5379 4.68436 16.8303 3.64569 15.9396 2.77539Z" fill="#51AF4E"/>
<path d="M6.56215 12.1232L3.89175 9.4509L6.56215 6.84056L12.6792 0.753205C11.6231 0.359608 10.505 0.15696 9.37745 0.154785C6.89039 0.154785 4.5052 1.13963 2.74659 2.89267C0.987976 4.6457 0 7.02333 0 9.50249C0 11.9817 0.987976 14.3593 2.74659 16.1123C4.5052 17.8654 6.89039 18.8502 9.37745 18.8502C10.5088 18.8285 11.627 18.6048 12.6792 18.1899L6.56215 12.1232Z" fill="#51AF4E"/>
</g>
<defs>
<clipPath id="clip0_916_1516">
<rect width="19" height="19" fill="white"/>
</clipPath>
</defs>
</svg>
