<svg width="25" height="25" viewBox="0 0 25 25" fill="none" xmlns="http://www.w3.org/2000/svg">
<path d="M5.72315 21.5L19.7231 21.5C20.2754 21.5 20.7231 21.0523 20.7231 20.5L20.7231 10.5C20.7231 9.94772 20.2754 9.5 19.7231 9.5L5.72314 9.5C5.17086 9.5 4.72314 9.94772 4.72314 10.5L4.72315 20.5C4.72315 21.0523 5.17086 21.5 5.72315 21.5Z" stroke="#51AF4E" stroke-width="2" stroke-linecap="round" stroke-linejoin="round"/>
<path d="M9.95391 9.5L15.4924 9.5C15.6198 9.5 15.7231 9.39668 15.7231 9.26923L15.7231 6.5C15.7231 4.84315 14.38 3.5 12.7231 3.5C11.0663 3.5 9.72314 4.84315 9.72314 6.5L9.72314 9.26923C9.72314 9.39668 9.82646 9.5 9.95391 9.5Z" stroke="#51AF4E" stroke-width="2" stroke-linecap="round" stroke-linejoin="round"/>
</svg>
