<svg width="25" height="25" viewBox="0 0 25 25" fill="none" xmlns="http://www.w3.org/2000/svg">
<path fill-rule="evenodd" clip-rule="evenodd" d="M5.5 12.5C5.5 11.9477 5.94772 11.5 6.5 11.5H18.5C19.0523 11.5 19.5 11.9477 19.5 12.5C19.5 13.0523 19.0523 13.5 18.5 13.5H6.5C5.94772 13.5 5.5 13.0523 5.5 12.5Z" fill="#FBFBFB"/>
<path fill-rule="evenodd" clip-rule="evenodd" d="M12.5 5.5C13.0523 5.5 13.5 5.94772 13.5 6.5L13.5 18.5C13.5 19.0523 13.0523 19.5 12.5 19.5C11.9477 19.5 11.5 19.0523 11.5 18.5L11.5 6.5C11.5 5.94772 11.9477 5.5 12.5 5.5Z" fill="#FBFBFB"/>
</svg>
