<svg width="11" height="10" viewBox="0 0 11 10" fill="none" xmlns="http://www.w3.org/2000/svg">
<path fill-rule="evenodd" clip-rule="evenodd" d="M2.58331 4.99992C2.58331 4.7698 2.76986 4.58325 2.99998 4.58325H7.99998C8.2301 4.58325 8.41665 4.7698 8.41665 4.99992C8.41665 5.23004 8.2301 5.41659 7.99998 5.41659H2.99998C2.76986 5.41659 2.58331 5.23004 2.58331 4.99992Z" fill="#51AF4E"/>
<path fill-rule="evenodd" clip-rule="evenodd" d="M5.49998 2.08325C5.7301 2.08325 5.91665 2.2698 5.91665 2.49992L5.91665 7.49992C5.91665 7.73004 5.7301 7.91659 5.49998 7.91659C5.26986 7.91659 5.08331 7.73004 5.08331 7.49992L5.08331 2.49992C5.08331 2.2698 5.26986 2.08325 5.49998 2.08325Z" fill="#51AF4E"/>
</svg>
