<svg width="44" height="44" viewBox="0 0 44 44" fill="none" xmlns="http://www.w3.org/2000/svg">
<rect x="0.5" y="0.5" width="43" height="43" rx="21.5" fill="#FBFBFB"/>
<path fill-rule="evenodd" clip-rule="evenodd" d="M13.8 28.7016C13.7987 28.3657 13.8738 28.0339 14.0197 27.7313C14.4773 26.816 15.768 26.3308 16.8389 26.1112C17.6113 25.9463 18.3943 25.8362 19.1822 25.7816C20.6408 25.6535 22.1079 25.6535 23.5666 25.7816C24.3544 25.8369 25.1374 25.947 25.9098 26.1112C26.9808 26.3308 28.2714 26.7702 28.7291 27.7313C29.0224 28.3481 29.0224 29.0642 28.7291 29.681C28.2714 30.6421 26.9808 31.0814 25.9098 31.2919C25.1384 31.4636 24.3551 31.5768 23.5666 31.6306C22.3794 31.7313 21.1866 31.7496 19.9968 31.6855C19.7222 31.6855 19.4568 31.6855 19.1822 31.6306C18.3966 31.5775 17.6163 31.4642 16.8481 31.2919C15.768 31.0814 14.4865 30.6421 14.0197 29.681C13.8746 29.3749 13.7995 29.0403 13.8 28.7016Z" fill="#DCEFDC" stroke="#51AF4E" stroke-width="1.5" stroke-linecap="round" stroke-linejoin="round"/>
<path d="M25.0196 17.2783C25.0196 19.289 23.3896 20.9189 21.379 20.9189C19.3683 20.9189 17.7383 19.289 17.7383 17.2783C17.7383 15.2677 19.3683 13.6377 21.379 13.6377C23.3896 13.6377 25.0196 15.2677 25.0196 17.2783Z" fill="#DCEFDC" stroke="#51AF4E" stroke-width="1.5"/>
<rect x="0.5" y="0.5" width="43" height="43" rx="21.5" stroke="#51AF4E"/>
</svg>
