<svg width="41" height="41" viewBox="0 0 41 41" fill="none" xmlns="http://www.w3.org/2000/svg">
<rect x="0.5" y="0.98584" width="40" height="40" rx="20" fill="#51AF4E" fill-opacity="0.2"/>
<path fill-rule="evenodd" clip-rule="evenodd" d="M11.5 24.3225C11.5 23.7702 11.9477 23.3225 12.5 23.3225H28.5C29.0523 23.3225 29.5 23.7702 29.5 24.3225C29.5 24.8748 29.0523 25.3225 28.5 25.3225H12.5C11.9477 25.3225 11.5 24.8748 11.5 24.3225Z" fill="#51AF4E"/>
<path d="M21.2499 16.9858C21.2499 16.7869 21.1709 16.5962 21.0303 16.4555C20.8896 16.3149 20.6988 16.2358 20.4999 16.2358C20.301 16.2358 20.1103 16.3149 19.9696 16.4555C19.8289 16.5962 19.7499 16.7869 19.7499 16.9858V17.6868L19.1429 17.3368C18.9713 17.2455 18.7709 17.2243 18.584 17.2778C18.3971 17.3313 18.2383 17.4553 18.141 17.6236C18.0438 17.7919 18.0157 17.9915 18.0626 18.1801C18.1096 18.3688 18.2281 18.5318 18.3929 18.6348L18.9999 18.9848L18.3929 19.3358C18.2205 19.4353 18.0947 19.5992 18.0431 19.7914C17.9916 19.9836 18.0185 20.1884 18.1179 20.3608C18.2174 20.5332 18.3812 20.6591 18.5735 20.7106C18.7657 20.7622 18.9705 20.7353 19.1429 20.6358L19.7499 20.2848V20.9858C19.7499 21.1848 19.8289 21.3755 19.9696 21.5162C20.1103 21.6568 20.301 21.7358 20.4999 21.7358C20.6988 21.7358 20.8896 21.6568 21.0303 21.5162C21.1709 21.3755 21.2499 21.1848 21.2499 20.9858V20.2858L21.8569 20.6358C22.0293 20.7353 22.2342 20.7622 22.4264 20.7106C22.6186 20.6591 22.7825 20.5332 22.8819 20.3608C22.9814 20.1884 23.0083 19.9836 22.9567 19.7914C22.9051 19.5992 22.7793 19.4353 22.6069 19.3358L21.9999 18.9858L22.6069 18.6358C22.7793 18.5364 22.9051 18.3725 22.9567 18.1803C23.0083 17.9881 22.9814 17.7832 22.8819 17.6108C22.7825 17.4384 22.6186 17.3126 22.4264 17.2611C22.2342 17.2095 22.0293 17.2364 21.8569 17.3358L21.2499 17.6858V16.9858ZM15.2329 16.2358C15.4318 16.2358 15.6226 16.3149 15.7633 16.4555C15.9039 16.5962 15.9829 16.7869 15.9829 16.9858V17.6858L16.5889 17.3358C16.7613 17.2364 16.9662 17.2095 17.1584 17.2611C17.3506 17.3126 17.5145 17.4384 17.6139 17.6108C17.7134 17.7832 17.7403 17.9881 17.6887 18.1803C17.6371 18.3725 17.5113 18.5364 17.3389 18.6358L16.7319 18.9858L17.3389 19.3358C17.4243 19.3851 17.4991 19.4507 17.5591 19.5288C17.6191 19.607 17.6632 19.6962 17.6887 19.7914C17.7142 19.8866 17.7208 19.9858 17.708 20.0836C17.6951 20.1813 17.6632 20.2755 17.6139 20.3608C17.5647 20.4462 17.4991 20.521 17.4209 20.581C17.3428 20.6411 17.2536 20.6851 17.1584 20.7106C17.0632 20.7362 16.9639 20.7427 16.8662 20.7299C16.7685 20.717 16.6743 20.6851 16.5889 20.6358L15.9829 20.2858V20.9858C15.9829 21.1848 15.9039 21.3755 15.7633 21.5162C15.6226 21.6568 15.4318 21.7358 15.2329 21.7358C15.034 21.7358 14.8433 21.6568 14.7026 21.5162C14.5619 21.3755 14.4829 21.1848 14.4829 20.9858V20.2848L13.8749 20.6348C13.7033 20.7262 13.5029 20.7474 13.316 20.6939C13.1291 20.6404 12.9703 20.5164 12.873 20.3481C12.7758 20.1797 12.7477 19.9802 12.7946 19.7916C12.8416 19.6029 12.9601 19.4399 13.1249 19.3368L13.7319 18.9858L13.1249 18.6358C13.0396 18.5866 12.9647 18.521 12.9047 18.4429C12.8447 18.3647 12.8007 18.2755 12.7751 18.1803C12.7496 18.0851 12.7431 17.9858 12.7559 17.8881C12.7687 17.7904 12.8007 17.6962 12.8499 17.6108C12.8992 17.5255 12.9648 17.4507 13.0429 17.3906C13.1211 17.3306 13.2103 17.2866 13.3055 17.2611C13.4007 17.2355 13.4999 17.229 13.5976 17.2418C13.6953 17.2546 13.7896 17.2866 13.8749 17.3358L14.4829 17.6868V16.9858C14.4829 16.7869 14.5619 16.5962 14.7026 16.4555C14.8433 16.3149 15.034 16.2358 15.2329 16.2358ZM26.5179 16.9858C26.5179 16.7869 26.4389 16.5962 26.2983 16.4555C26.1576 16.3149 25.9668 16.2358 25.7679 16.2358C25.569 16.2358 25.3783 16.3149 25.2376 16.4555C25.0969 16.5962 25.0179 16.7869 25.0179 16.9858V17.6868L24.4109 17.3368C24.2393 17.2455 24.0389 17.2243 23.852 17.2778C23.6651 17.3313 23.5063 17.4553 23.409 17.6236C23.3118 17.7919 23.2837 17.9915 23.3306 18.1801C23.3776 18.3688 23.4961 18.5318 23.6609 18.6348L24.2679 18.9848L23.6599 19.3358C23.4875 19.4353 23.3617 19.5992 23.3101 19.7914C23.2586 19.9836 23.2855 20.1884 23.3849 20.3608C23.4844 20.5332 23.6482 20.6591 23.8405 20.7106C24.0327 20.7622 24.2375 20.7353 24.4099 20.6358L25.0179 20.2848V20.9858C25.0179 21.1848 25.0969 21.3755 25.2376 21.5162C25.3783 21.6568 25.569 21.7358 25.7679 21.7358C25.9668 21.7358 26.1576 21.6568 26.2983 21.5162C26.4389 21.3755 26.5179 21.1848 26.5179 20.9858V20.2858L27.1249 20.6358C27.2973 20.7353 27.5022 20.7622 27.6944 20.7106C27.8866 20.6591 28.0505 20.5332 28.1499 20.3608C28.2494 20.1884 28.2763 19.9836 28.2247 19.7914C28.1731 19.5992 28.0473 19.4353 27.8749 19.3358L27.2679 18.9858L27.8749 18.6358C28.0473 18.5364 28.1731 18.3725 28.2247 18.1803C28.2763 17.9881 28.2494 17.7832 28.1499 17.6108C28.0505 17.4384 27.8866 17.3126 27.6944 17.2611C27.5022 17.2095 27.2973 17.2364 27.1249 17.3358L26.5179 17.6858V16.9858Z" fill="#51AF4E"/>
</svg>
