<svg width="8" height="13" viewBox="0 0 8 13" fill="none" xmlns="http://www.w3.org/2000/svg">
<path fill-rule="evenodd" clip-rule="evenodd" d="M3.96047 2.95814C4.81463 2.95814 5.52999 3.1982 6.19302 3.67832C6.26661 3.73161 6.33956 3.78785 6.41198 3.84706L7.24233 2.52715C7.2423 2.52712 7.24227 2.5271 7.24224 2.52707L6.41194 3.84689C5.68703 3.25428 4.9094 2.95798 3.96043 2.95798C2.93237 2.95798 2.26018 3.40244 2.26018 4.1028C2.26018 4.1944 2.27052 4.2792 2.29027 4.35798C2.27054 4.27924 2.26022 4.1945 2.26022 4.10296C2.26022 3.4026 2.93241 2.95814 3.96047 2.95814ZM7.58706 8.01792C7.63716 8.21948 7.66406 8.43598 7.66406 8.66861C7.66406 10.1771 6.5701 11.2546 4.86986 11.5374V12.6957H3.01149V12.6958H4.8699V11.5376C6.57014 11.2547 7.6641 10.1772 7.6641 8.66877C7.6641 8.43608 7.63719 8.21952 7.58706 8.01792ZM3.01145 11.551V11.5509C2.02298 11.4027 1.12676 10.9987 0.454583 10.3657L0.454538 10.3658C1.12672 10.9988 2.02296 11.4029 3.01145 11.551ZM5.70228 8.56139C5.5292 7.9481 4.76945 7.64166 3.69682 7.33523L3.14326 7.17361C1.77242 6.7947 0.698539 6.23959 0.411602 5.07434C0.698479 6.2397 1.7724 6.79484 3.1433 7.17377L3.69686 7.33539C4.7694 7.6418 5.52911 7.94821 5.70228 8.56139ZM4.89622 0.30485V1.46298C4.89623 1.46298 4.89625 1.46298 4.89626 1.46298V0.30485H4.89622ZM7.41417 2.30974C6.75096 1.76236 5.99452 1.40671 5.16974 1.23121V0.0253906H2.76438V1.23217C1.98708 1.40435 1.33546 1.76039 0.864898 2.27172C0.346945 2.83455 0.062439 3.57075 0.062439 4.41273C0.062439 5.31087 0.39855 5.96794 0.960456 6.45147C1.50766 6.92235 2.25614 7.21792 3.07002 7.44302L3.62173 7.6041L3.62323 7.60453C4.23748 7.78001 4.71181 7.94614 5.03123 8.15372C5.33594 8.35173 5.46631 8.56322 5.46631 8.84386C5.46631 9.12142 5.34582 9.33409 5.08966 9.49167C4.81835 9.65857 4.39047 9.76309 3.8023 9.76309C2.95982 9.76309 2.10149 9.52386 1.32717 8.87077L1.07412 8.65733L0.110687 10.422L0.269208 10.5713C0.933299 11.1967 1.79474 11.6067 2.73802 11.7876V12.9753H5.14338V11.7698C6.80926 11.4138 7.93758 10.2803 7.93758 8.66877C7.93758 7.67364 7.48912 6.94202 6.85088 6.4144C6.22191 5.89444 5.40602 5.56858 4.63945 5.35549L4.63852 5.35523L4.07456 5.1944C3.58855 5.05151 3.19234 4.91956 2.91652 4.73953C2.65801 4.57079 2.5337 4.3805 2.5337 4.10296C2.5337 3.85843 2.64544 3.65525 2.87476 3.50163C3.11298 3.34205 3.48041 3.2376 3.96047 3.2376C4.84449 3.2376 5.56245 3.51045 6.24114 4.06528L6.478 4.25891L7.60508 2.46732L7.41417 2.30974Z" fill="#211F42"/>
</svg>
