<svg width="37" height="37" viewBox="0 0 37 37" fill="none" xmlns="http://www.w3.org/2000/svg">
<path d="M18.5 27.75L18.5 18.5" stroke="#51AF4E" stroke-width="2" stroke-linecap="round" stroke-linejoin="round"/>
<path d="M13.875 21.5833L18.5 18.5L23.125 21.5833" stroke="#51AF4E" stroke-width="2" stroke-linecap="round" stroke-linejoin="round"/>
<path d="M27.75 32.375H9.24998C8.39854 32.375 7.70832 31.6848 7.70832 30.8333L7.70831 6.16667C7.70831 5.31523 8.39854 4.625 9.24998 4.625L20.9097 4.625C21.3392 4.625 21.7492 4.80413 22.041 5.11925L28.8812 12.5067C29.1451 12.7917 29.2917 13.1658 29.2917 13.5541L29.2917 30.8333C29.2917 31.6848 28.6014 32.375 27.75 32.375Z" stroke="#51AF4E" stroke-width="2" stroke-linecap="round" stroke-linejoin="round"/>
<path d="M29.2917 13.875L21.5834 13.875C20.7319 13.875 20.0417 13.1848 20.0417 12.3333L20.0417 4.625" stroke="#51AF4E" stroke-width="2" stroke-linecap="round" stroke-linejoin="round"/>
</svg>
