<svg width="22" height="17" viewBox="0 0 22 17" fill="none" xmlns="http://www.w3.org/2000/svg">
<g clip-path="url(#clip0_2858_3776)">
<g clip-path="url(#clip1_2858_3776)">
<rect y="0.780029" width="22" height="16" rx="2" fill="#1A47B8"/>
<path d="M19.9048 0.780029H2.09524C0.93807 0.780029 0 1.73516 0 2.91336V14.6467C0 15.8249 0.93807 16.78 2.09524 16.78H19.9048C21.0619 16.78 22 15.8249 22 14.6467V2.91336C22 1.73516 21.0619 0.780029 19.9048 0.780029Z" fill="#1A47B8"/>
<path fill-rule="evenodd" clip-rule="evenodd" d="M11 2.78003L11.2763 3.39979L11.9511 3.47101L11.447 3.92527L11.5878 4.58905L11 4.25003L10.4122 4.58905L10.553 3.92527L10.049 3.47101L10.7237 3.39979L11 2.78003ZM6.27627 8.39979L6.00001 7.78003L5.72375 8.39979L5.04895 8.47101L5.55301 8.92527L5.41222 9.58905L6.00001 9.25003L6.58779 9.58905L6.447 8.92527L6.95106 8.47101L6.27627 8.39979ZM16.2763 8.39979L16 7.78003L15.7237 8.39979L15.049 8.47101L15.553 8.92527L15.4122 9.58905L16 9.25003L16.5878 9.58905L16.447 8.92527L16.9511 8.47101L16.2763 8.39979ZM11.2763 13.3998L11 12.78L10.7237 13.3998L10.049 13.471L10.553 13.9253L10.4122 14.589L11 14.25L11.5878 14.589L11.447 13.9253L11.9511 13.471L11.2763 13.3998ZM7.50001 11.28L7.77627 11.8998L8.45106 11.971L7.947 12.4253L8.08779 13.089L7.50001 12.75L6.91222 13.089L7.05301 12.4253L6.54895 11.971L7.22375 11.8998L7.50001 11.28ZM7.77627 4.89979L7.50001 4.28003L7.22375 4.89979L6.54895 4.97101L7.05301 5.42527L6.91222 6.08905L7.50001 5.75003L8.08779 6.08905L7.947 5.42527L8.45106 4.97101L7.77627 4.89979ZM14.5 11.28L14.7763 11.8998L15.4511 11.971L14.947 12.4253L15.0878 13.089L14.5 12.75L13.9122 13.089L14.053 12.4253L13.549 11.971L14.2237 11.8998L14.5 11.28ZM14.7763 4.89979L14.5 4.28003L14.2237 4.89979L13.549 4.97101L14.053 5.42527L13.9122 6.08905L14.5 5.75003L15.0878 6.08905L14.947 5.42527L15.4511 4.97101L14.7763 4.89979Z" fill="#FFFF00"/>
</g>
</g>
<defs>
<clipPath id="clip0_2858_3776">
<rect width="22" height="16" fill="white" transform="translate(0 0.780029)"/>
</clipPath>
<clipPath id="clip1_2858_3776">
<rect y="0.780029" width="22" height="16" rx="2" fill="white"/>
</clipPath>
</defs>
</svg>
