<svg width="22" height="17" viewBox="0 0 22 17" fill="none" xmlns="http://www.w3.org/2000/svg">
<g clip-path="url(#clip0_2858_3760)">
<g clip-path="url(#clip1_2858_3760)">
<rect y="0.780029" width="22" height="16" rx="2" fill="white"/>
<path fill-rule="evenodd" clip-rule="evenodd" d="M0 0.780029H9.42857V8.2467H0V0.780029Z" fill="#1A47B8"/>
<path fill-rule="evenodd" clip-rule="evenodd" d="M9.42857 0.780029V1.8467H22V0.780029H9.42857ZM9.42857 2.91336V3.98003H22V2.91336H9.42857ZM9.42857 5.0467V6.11336H22V5.0467H9.42857ZM9.42857 7.18003V8.2467H22V7.18003H9.42857ZM0 9.31336V10.38H22V9.31336H0ZM0 11.4467V12.5134H22V11.4467H0ZM0 13.58V14.6467H22V13.58H0ZM0 15.7134V16.78H22V15.7134H0Z" fill="#F93939"/>
<path fill-rule="evenodd" clip-rule="evenodd" d="M1.04761 1.84668V2.91335H2.09523V1.84668H1.04761ZM3.14285 1.84668V2.91335H4.19046V1.84668H3.14285ZM5.23808 1.84668V2.91335H6.2857V1.84668H5.23808ZM7.33332 1.84668V2.91335H8.38094V1.84668H7.33332ZM6.2857 2.91335V3.98001H7.33332V2.91335H6.2857ZM4.19046 2.91335V3.98001H5.23808V2.91335H4.19046ZM2.09523 2.91335V3.98001H3.14285V2.91335H2.09523ZM1.04761 3.98001V5.04668H2.09523V3.98001H1.04761ZM3.14285 3.98001V5.04668H4.19046V3.98001H3.14285ZM5.23808 3.98001V5.04668H6.2857V3.98001H5.23808ZM7.33332 3.98001V5.04668H8.38094V3.98001H7.33332ZM1.04761 6.11335V7.18001H2.09523V6.11335H1.04761ZM3.14285 6.11335V7.18001H4.19046V6.11335H3.14285ZM5.23808 6.11335V7.18001H6.2857V6.11335H5.23808ZM7.33332 6.11335V7.18001H8.38094V6.11335H7.33332ZM6.2857 5.04668V6.11335H7.33332V5.04668H6.2857ZM4.19046 5.04668V6.11335H5.23808V5.04668H4.19046ZM2.09523 5.04668V6.11335H3.14285V5.04668H2.09523Z" fill="white"/>
</g>
</g>
<defs>
<clipPath id="clip0_2858_3760">
<rect width="22" height="16" fill="white" transform="translate(0 0.780029)"/>
</clipPath>
<clipPath id="clip1_2858_3760">
<rect y="0.780029" width="22" height="16" rx="2" fill="white"/>
</clipPath>
</defs>
</svg>
