<svg width="25" height="25" viewBox="0 0 25 25" fill="none" xmlns="http://www.w3.org/2000/svg">
<path fill-rule="evenodd" clip-rule="evenodd" d="M5.26733 12.6587C5.26733 12.1064 5.71505 11.6587 6.26733 11.6587H18.2673C18.8196 11.6587 19.2673 12.1064 19.2673 12.6587C19.2673 13.211 18.8196 13.6587 18.2673 13.6587H6.26733C5.71505 13.6587 5.26733 13.211 5.26733 12.6587Z" fill="#FBFBFB"/>
<path fill-rule="evenodd" clip-rule="evenodd" d="M12.2673 5.65869C12.8196 5.65869 13.2673 6.10641 13.2673 6.65869L13.2673 18.6587C13.2673 19.211 12.8196 19.6587 12.2673 19.6587C11.715 19.6587 11.2673 19.211 11.2673 18.6587L11.2673 6.65869C11.2673 6.10641 11.715 5.65869 12.2673 5.65869Z" fill="#FBFBFB"/>
</svg>
