<svg width="25" height="25" viewBox="0 0 25 25" fill="none" xmlns="http://www.w3.org/2000/svg">
<path fill-rule="evenodd" clip-rule="evenodd" d="M5.25 12.5791C5.25 12.0268 5.69772 11.5791 6.25 11.5791H18.25C18.8023 11.5791 19.25 12.0268 19.25 12.5791C19.25 13.1314 18.8023 13.5791 18.25 13.5791H6.25C5.69772 13.5791 5.25 13.1314 5.25 12.5791Z" fill="#51AF4E"/>
<path fill-rule="evenodd" clip-rule="evenodd" d="M12.25 5.5791C12.8023 5.5791 13.25 6.02682 13.25 6.5791L13.25 18.5791C13.25 19.1314 12.8023 19.5791 12.25 19.5791C11.6977 19.5791 11.25 19.1314 11.25 18.5791L11.25 6.5791C11.25 6.02682 11.6977 5.5791 12.25 5.5791Z" fill="#51AF4E"/>
</svg>
