<svg width="25" height="25" viewBox="0 0 25 25" fill="none" xmlns="http://www.w3.org/2000/svg">
<path fill-rule="evenodd" clip-rule="evenodd" d="M5.5 12.9531C5.5 12.4008 5.94772 11.9531 6.5 11.9531H18.5C19.0523 11.9531 19.5 12.4008 19.5 12.9531C19.5 13.5054 19.0523 13.9531 18.5 13.9531H6.5C5.94772 13.9531 5.5 13.5054 5.5 12.9531Z" fill="#FBFBFB"/>
<path fill-rule="evenodd" clip-rule="evenodd" d="M12.5 5.95312C13.0523 5.95312 13.5 6.40084 13.5 6.95312L13.5 18.9531C13.5 19.5054 13.0523 19.9531 12.5 19.9531C11.9477 19.9531 11.5 19.5054 11.5 18.9531L11.5 6.95312C11.5 6.40084 11.9477 5.95312 12.5 5.95312Z" fill="#FBFBFB"/>
</svg>
