<svg width="25" height="25" viewBox="0 0 25 25" fill="none" xmlns="http://www.w3.org/2000/svg">
<path d="M17.5 18.9531C17.5 18.4008 17.9477 17.9531 18.5 17.9531C19.0523 17.9531 19.5 18.4008 19.5 18.9531C19.5 19.5054 19.0523 19.9531 18.5 19.9531C17.9477 19.9531 17.5 19.5054 17.5 18.9531Z" stroke="#FBFBFB" stroke-width="2" stroke-linecap="round" stroke-linejoin="round"/>
<path d="M11.5 18.9531C11.5 18.4008 11.9477 17.9531 12.5 17.9531C13.0523 17.9531 13.5 18.4008 13.5 18.9531C13.5 19.5054 13.0523 19.9531 12.5 19.9531C11.9477 19.9531 11.5 19.5054 11.5 18.9531Z" stroke="#FBFBFB" stroke-width="2" stroke-linecap="round" stroke-linejoin="round"/>
<path d="M5.5 18.9531C5.5 18.4008 5.94772 17.9531 6.5 17.9531C7.05228 17.9531 7.5 18.4008 7.5 18.9531C7.5 19.5054 7.05228 19.9531 6.5 19.9531C5.94772 19.9531 5.5 19.5054 5.5 18.9531Z" stroke="#FBFBFB" stroke-width="2" stroke-linecap="round" stroke-linejoin="round"/>
<path d="M17.5 12.9531C17.5 12.4008 17.9477 11.9531 18.5 11.9531C19.0523 11.9531 19.5 12.4008 19.5 12.9531C19.5 13.5054 19.0523 13.9531 18.5 13.9531C17.9477 13.9531 17.5 13.5054 17.5 12.9531Z" stroke="#FBFBFB" stroke-width="2" stroke-linecap="round" stroke-linejoin="round"/>
<path d="M11.5 12.9531C11.5 12.4008 11.9477 11.9531 12.5 11.9531C13.0523 11.9531 13.5 12.4008 13.5 12.9531C13.5 13.5054 13.0523 13.9531 12.5 13.9531C11.9477 13.9531 11.5 13.5054 11.5 12.9531Z" stroke="#FBFBFB" stroke-width="2" stroke-linecap="round" stroke-linejoin="round"/>
<path d="M5.5 12.9531C5.5 12.4008 5.94772 11.9531 6.5 11.9531C7.05228 11.9531 7.5 12.4008 7.5 12.9531C7.5 13.5054 7.05228 13.9531 6.5 13.9531C5.94772 13.9531 5.5 13.5054 5.5 12.9531Z" stroke="#FBFBFB" stroke-width="2" stroke-linecap="round" stroke-linejoin="round"/>
<path d="M17.5 6.95312C17.5 6.40084 17.9477 5.95312 18.5 5.95312C19.0523 5.95312 19.5 6.40084 19.5 6.95312C19.5 7.50541 19.0523 7.95312 18.5 7.95312C17.9477 7.95312 17.5 7.50541 17.5 6.95312Z" stroke="#FBFBFB" stroke-width="2" stroke-linecap="round" stroke-linejoin="round"/>
<path d="M11.5 6.95312C11.5 6.40084 11.9477 5.95312 12.5 5.95312C13.0523 5.95312 13.5 6.40084 13.5 6.95312C13.5 7.50541 13.0523 7.95312 12.5 7.95312C11.9477 7.95312 11.5 7.50541 11.5 6.95312Z" stroke="#FBFBFB" stroke-width="2" stroke-linecap="round" stroke-linejoin="round"/>
<path d="M5.5 6.95312C5.5 6.40084 5.94772 5.95312 6.5 5.95312C7.05228 5.95312 7.5 6.40084 7.5 6.95312C7.5 7.50541 7.05228 7.95312 6.5 7.95312C5.94772 7.95312 5.5 7.50541 5.5 6.95312Z" stroke="#FBFBFB" stroke-width="2" stroke-linecap="round" stroke-linejoin="round"/>
</svg>
