<svg width="24" height="25" viewBox="0 0 24 25" fill="none" xmlns="http://www.w3.org/2000/svg">
<path fill-rule="evenodd" clip-rule="evenodd" d="M5 12.126C5 11.5737 5.44772 11.126 6 11.126H18C18.5523 11.126 19 11.5737 19 12.126C19 12.6783 18.5523 13.126 18 13.126H6C5.44772 13.126 5 12.6783 5 12.126Z" fill="#FBFBFB"/>
<path fill-rule="evenodd" clip-rule="evenodd" d="M12 5.12598C12.5523 5.12598 13 5.57369 13 6.12598L13 18.126C13 18.6783 12.5523 19.126 12 19.126C11.4477 19.126 11 18.6783 11 18.126L11 6.12598C11 5.57369 11.4477 5.12598 12 5.12598Z" fill="#FBFBFB"/>
</svg>
