<svg width="14" height="8" viewBox="0 0 14 8" fill="none" xmlns="http://www.w3.org/2000/svg">
<path d="M12.8638 3.11228C13.051 2.89342 13.4123 2.46889 13.6285 2.10765C14.1664 1.15311 12.7794 0.288235 12.1809 1.24013C10.1057 4.82094 3.242 4.92641 1.87875 1.36142C1.36721 0.298782 -0.064591 0.997542 0.312476 1.98635C0.497054 2.44516 0.9084 3.08327 1.05343 3.24939C0.552428 3.47616 0.00396669 3.92442 0.37576 4.64164C1.03497 5.53025 1.76537 4.76557 2.33756 4.44651C2.56697 4.62582 3.11016 4.89741 3.34747 5.00288C2.95195 5.59617 2.49577 6.32921 3.29473 6.83811C4.26509 7.24155 4.5525 6.30548 4.99022 5.5197C5.18007 5.55925 5.82609 5.65418 6.1557 5.65945C6.1557 6.73528 5.99485 7.48941 6.99948 7.57906C7.9883 7.51051 7.84327 6.73528 7.84327 5.61199C8.19133 5.58562 8.85054 5.42478 9.01139 5.38522C9.54666 6.22637 9.74443 7.231 10.7965 6.78802C11.5955 6.22637 11.1393 5.69637 10.6199 4.79457C10.8123 4.70228 11.3766 4.38059 11.5137 4.28303C12.231 4.68119 13.0194 5.4406 13.6311 4.53353C13.9264 3.98243 13.6654 3.47352 12.8638 3.11228Z" fill="#51AF4E"/>
</svg>
