<svg width="15" height="10" viewBox="0 0 15 10" fill="none" xmlns="http://www.w3.org/2000/svg">
<path d="M5.52099 6.7827C3.98898 4.75233 5.81632 2.10231 8.23167 2.78789C6.24876 3.9771 8.69311 6.47683 9.91133 4.46492C10.676 7.42081 7.03454 8.7656 5.52099 6.7827Z" fill="#51AF4E"/>
<path fill-rule="evenodd" clip-rule="evenodd" d="M14.1068 5.65674C10.7607 10.6325 4.23186 10.7221 0.88043 5.65938C0.698488 5.38251 0.701125 5.01335 0.885704 4.74176C4.23713 -0.194413 10.729 -0.339439 14.1095 4.73649C14.2914 5.01072 14.2914 5.38251 14.1068 5.65674ZM2.42562 5.19793C5.61093 1.56436 9.44754 1.5169 12.5643 5.19793C9.44754 8.82887 5.59511 8.78141 2.42562 5.19793Z" fill="#51AF4E"/>
</svg>
