<svg width="25" height="25" viewBox="0 0 25 25" fill="none" xmlns="http://www.w3.org/2000/svg">
<path d="M3.83333 6.69092C3.83333 5.21816 5.02724 4.02425 6.5 4.02425H8.50001C8.8682 4.02425 9.16667 3.72578 9.16667 3.35759C9.16667 2.9894 8.8682 2.69092 8.50001 2.69092H5.83334C3.99239 2.69092 2.5 4.1833 2.5 6.02425V8.69092C2.5 9.05911 2.79848 9.35759 3.16667 9.35759C3.53486 9.35759 3.83333 9.05911 3.83333 8.69092V6.69092Z" fill="#51AF4E"/>
<path d="M7.16675 9.35743C8.27132 9.35743 9.16675 8.46199 9.16675 7.35742C9.16675 6.25285 8.27132 5.35742 7.16675 5.35742C6.06218 5.35742 5.16675 6.25285 5.16675 7.35742C5.16675 8.46199 6.06218 9.35743 7.16675 9.35743ZM6.50008 7.35742C6.50008 6.98923 6.79856 6.69076 7.16675 6.69076C7.53494 6.69076 7.83342 6.98923 7.83342 7.35742C7.83342 7.72561 7.53494 8.02409 7.16675 8.02409C6.79856 8.02409 6.50008 7.72561 6.50008 7.35742Z" fill="#51AF4E"/>
<path d="M15.5 3.35759C15.5 3.72578 15.7985 4.02425 16.1667 4.02425H18.5C19.9728 4.02425 21.1667 5.21816 21.1667 6.69092V8.69092C21.1667 9.05911 21.4651 9.35759 21.8333 9.35759C22.2015 9.35759 22.5 9.05911 22.5 8.69092V6.02425C22.5 4.1833 21.0076 2.69092 19.1667 2.69092H16.1667C15.7985 2.69092 15.5 2.98939 15.5 3.35759Z" fill="#51AF4E"/>
<path d="M17.8333 9.35743C18.9378 9.35743 19.8333 8.46199 19.8333 7.35742C19.8333 6.25285 18.9378 5.35742 17.8333 5.35742C16.7287 5.35742 15.8333 6.25285 15.8333 7.35742C15.8333 8.46199 16.7287 9.35743 17.8333 9.35743ZM17.1666 7.35742C17.1666 6.98923 17.4651 6.69076 17.8333 6.69076C18.2014 6.69076 18.4999 6.98923 18.4999 7.35742C18.4999 7.72561 18.2014 8.02409 17.8333 8.02409C17.4651 8.02409 17.1666 7.72561 17.1666 7.35742Z" fill="#51AF4E"/>
<path d="M9.16667 22.0244C9.16667 21.6562 8.8682 21.3578 8.50001 21.3578H6.5C5.02724 21.3578 3.83333 20.1638 3.83333 18.6911V16.6911C3.83333 16.3229 3.53486 16.0244 3.16667 16.0244C2.79848 16.0244 2.5 16.3229 2.5 16.6911V19.3577C2.5 21.1987 3.99239 22.6911 5.83334 22.6911H8.50001C8.8682 22.6911 9.16667 22.3926 9.16667 22.0244Z" fill="#51AF4E"/>
<path d="M9.16675 18.0244C9.16675 16.9198 8.27132 16.0244 7.16675 16.0244C6.06218 16.0244 5.16675 16.9198 5.16675 18.0244C5.16675 19.129 6.06218 20.0244 7.16675 20.0244C8.27132 20.0244 9.16675 19.129 9.16675 18.0244ZM7.83342 18.0244C7.83342 18.3926 7.53494 18.6911 7.16675 18.6911C6.79856 18.6911 6.50008 18.3926 6.50008 18.0244C6.50008 17.6562 6.79856 17.3577 7.16675 17.3577C7.53494 17.3577 7.83342 17.6562 7.83342 18.0244Z" fill="#51AF4E"/>
<path d="M21.1667 18.6911C21.1667 20.1638 19.9728 21.3578 18.5 21.3578H16.1667C15.7985 21.3578 15.5 21.6562 15.5 22.0244C15.5 22.3926 15.7985 22.6911 16.1667 22.6911H19.1667C21.0076 22.6911 22.5 21.1987 22.5 19.3577V16.6911C22.5 16.3229 22.2015 16.0244 21.8333 16.0244C21.4651 16.0244 21.1667 16.3229 21.1667 16.6911V18.6911Z" fill="#51AF4E"/>
<path d="M13.1667 14.6908H18.5001V17.3574H19.8334V13.3574H13.1667V14.6908Z" fill="#51AF4E"/>
<path d="M19.8334 20.0241V18.6908H11.8334V13.3574H5.16675V14.6908H10.5001V20.0241H19.8334Z" fill="#51AF4E"/>
<path d="M10.5 5.35742H11.8333V9.35743H10.5V5.35742Z" fill="#51AF4E"/>
<path d="M5.16675 12.0241H14.5001V5.35742H13.1668V10.6908H5.16675V12.0241Z" fill="#51AF4E"/>
<path d="M15.8333 10.6909H19.8333V12.0243H15.8333V10.6909Z" fill="#51AF4E"/>
<path d="M15.8333 16.0244H17.1666V17.3577H15.8333V16.0244Z" fill="#51AF4E"/>
<path d="M13.1667 16.0244H14.5001V17.3577H13.1667V16.0244Z" fill="#51AF4E"/>
</svg>
