<svg width="29" height="28" viewBox="0 0 29 28" fill="none" xmlns="http://www.w3.org/2000/svg">
<rect x="0.5" width="28" height="28" rx="14" fill="#51AF4E" fill-opacity="0.2"/>
<path fill-rule="evenodd" clip-rule="evenodd" d="M9.25 14C9.25 13.5858 9.58579 13.25 10 13.25H19C19.4142 13.25 19.75 13.5858 19.75 14C19.75 14.4142 19.4142 14.75 19 14.75H10C9.58579 14.75 9.25 14.4142 9.25 14Z" fill="#51AF4E"/>
<path fill-rule="evenodd" clip-rule="evenodd" d="M14.5 8.75C14.9142 8.75 15.25 9.08579 15.25 9.5L15.25 18.5C15.25 18.9142 14.9142 19.25 14.5 19.25C14.0858 19.25 13.75 18.9142 13.75 18.5L13.75 9.5C13.75 9.08579 14.0858 8.75 14.5 8.75Z" fill="#51AF4E"/>
</svg>
