<svg width="30" height="31" viewBox="0 0 30 31" fill="none" xmlns="http://www.w3.org/2000/svg">
<path fill-rule="evenodd" clip-rule="evenodd" d="M14.25 16.25C14.25 15.4216 14.9216 14.75 15.75 14.75H20.25C21.0784 14.75 21.75 15.4216 21.75 16.25V20.75C21.75 21.5784 21.0784 22.25 20.25 22.25H15C14.5858 22.25 14.25 21.9142 14.25 21.5V16.25ZM20.25 16.25H15.75V20.75H20.25V16.25Z" fill="#FFDE17"/>
<path fill-rule="evenodd" clip-rule="evenodd" d="M8.25 16.25C8.25 15.4216 8.92157 14.75 9.75 14.75H14.25C15.0784 14.75 15.75 15.4216 15.75 16.25V21.5C15.75 21.9142 15.4142 22.25 15 22.25H9.75C8.92157 22.25 8.25 21.5784 8.25 20.75V16.25ZM14.25 16.25H9.75V20.75H14.25V16.25Z" fill="#FFDE17"/>
<path fill-rule="evenodd" clip-rule="evenodd" d="M14.25 13.25C14.25 12.4216 14.9216 11.75 15.75 11.75H21C21.8284 11.75 22.5 12.4216 22.5 13.25V14.75C22.5 15.5784 21.8284 16.25 21 16.25H15.75C14.9216 16.25 14.25 15.5784 14.25 14.75V13.25ZM21 13.25H15.75V14.75H21V13.25Z" fill="#FFDE17"/>
<path fill-rule="evenodd" clip-rule="evenodd" d="M7.5 13.25C7.5 12.4216 8.17157 11.75 9 11.75H14.25C15.0784 11.75 15.75 12.4216 15.75 13.25V14.75C15.75 15.5784 15.0784 16.25 14.25 16.25H9C8.17157 16.25 7.5 15.5784 7.5 14.75V13.25ZM14.25 13.25H9V14.75H14.25V13.25Z" fill="#FFDE17"/>
<path fill-rule="evenodd" clip-rule="evenodd" d="M14.25 10.625C14.25 9.17525 15.4253 8 16.875 8C18.3247 8 19.5 9.17525 19.5 10.625C19.5 12.0747 18.3247 13.25 16.875 13.25H15C14.5858 13.25 14.25 12.9142 14.25 12.5V10.625ZM16.875 9.5C16.2537 9.5 15.75 10.0037 15.75 10.625V11.75H16.875C17.4963 11.75 18 11.2463 18 10.625C18 10.0037 17.4963 9.5 16.875 9.5Z" fill="#FFDE17"/>
<path fill-rule="evenodd" clip-rule="evenodd" d="M10.5 10.625C10.5 9.17525 11.6753 8 13.125 8C14.5747 8 15.75 9.17525 15.75 10.625V12.5C15.75 12.9142 15.4142 13.25 15 13.25H13.125C11.6753 13.25 10.5 12.0747 10.5 10.625ZM13.125 9.5C12.5037 9.5 12 10.0037 12 10.625C12 11.2463 12.5037 11.75 13.125 11.75H14.25V10.625C14.25 10.0037 13.7463 9.5 13.125 9.5Z" fill="#FFDE17"/>
<rect x="0.5" y="1" width="29" height="29" rx="14.5" stroke="#FFDE17" stroke-opacity="0.2"/>
</svg>
