<svg width="30" height="31" viewBox="0 0 30 31" fill="none" xmlns="http://www.w3.org/2000/svg">
<rect y="0.19043" width="30" height="30" rx="15" fill="#51AF4E" fill-opacity="0.2"/>
<path d="M14.0657 8.78452C14.6041 8.32573 15.3959 8.32573 15.9343 8.78452L16.85 9.5649C17.0807 9.7615 17.3676 9.88032 17.6697 9.90443L18.869 10.0001C19.5741 10.0564 20.134 10.6163 20.1903 11.3214L20.286 12.5207C20.3101 12.8229 20.4289 13.1097 20.6255 13.3404L21.4059 14.2561C21.8647 14.7945 21.8647 15.5863 21.4059 16.1247L20.6255 17.0404C20.4289 17.2711 20.3101 17.558 20.286 17.8601L20.1903 19.0595C20.134 19.7646 19.5741 20.3245 18.869 20.3807L17.6697 20.4764C17.3676 20.5005 17.0807 20.6194 16.85 20.816L15.9343 21.5963C15.3959 22.0551 14.6041 22.0551 14.0657 21.5963L13.15 20.816C12.9193 20.6194 12.6324 20.5005 12.3303 20.4764L11.131 20.3807C10.4259 20.3245 9.86597 19.7646 9.8097 19.0595L9.714 17.8601C9.68989 17.558 9.57107 17.2711 9.37447 17.0404L8.59409 16.1247C8.1353 15.5863 8.1353 14.7945 8.59409 14.2561L9.37447 13.3404C9.57107 13.1097 9.68989 12.8229 9.714 12.5207L9.8097 11.3214C9.86597 10.6163 10.4259 10.0564 11.131 10.0001L12.3303 9.90443C12.6324 9.88032 12.9193 9.7615 13.15 9.5649L14.0657 8.78452Z" stroke="#51AF4E" stroke-width="2" stroke-linecap="round" stroke-linejoin="round"/>
<path d="M17.25 13.6904L14.25 16.6904L12.75 15.1904" stroke="#51AF4E" stroke-width="2" stroke-linecap="round" stroke-linejoin="round"/>
</svg>
