<svg width="30" height="31" viewBox="0 0 30 31" fill="none" xmlns="http://www.w3.org/2000/svg">
<rect y="0.5" width="30" height="30" rx="15" fill="#211F42" fill-opacity="0.2"/>
<path fill-rule="evenodd" clip-rule="evenodd" d="M9.41545 18.5486C9.41458 18.3217 9.46531 18.0977 9.56381 17.8933C9.87289 17.2751 10.7445 16.9475 11.4678 16.7992C11.9894 16.6878 12.5182 16.6135 13.0503 16.5766C14.0354 16.4901 15.0262 16.4901 16.0113 16.5766C16.5433 16.6139 17.0721 16.6883 17.5938 16.7992C18.3171 16.9475 19.1887 17.2442 19.4978 17.8933C19.6959 18.3099 19.6959 18.7935 19.4978 19.21C19.1887 19.8591 18.3171 20.1558 17.5938 20.298C17.0728 20.4139 16.5438 20.4904 16.0113 20.5267C15.2095 20.5947 14.404 20.6071 13.6004 20.5638C13.415 20.5638 13.2357 20.5638 13.0503 20.5267C12.5198 20.4908 11.9928 20.4144 11.4739 20.298C10.7445 20.1558 9.87907 19.8591 9.56381 19.21C9.46582 19.0033 9.41513 18.7773 9.41545 18.5486Z" fill="#211F42" fill-opacity="0.2" stroke="#211F42" stroke-width="1.5" stroke-linecap="round" stroke-linejoin="round"/>
<path d="M16.7491 10.8339C16.7491 12.0573 15.7573 13.0491 14.5339 13.0491C13.3105 13.0491 12.3187 12.0573 12.3187 10.8339C12.3187 9.61043 13.3105 8.61865 14.5339 8.61865C15.7573 8.61865 16.7491 9.61043 16.7491 10.8339Z" fill="#211F42" fill-opacity="0.2" stroke="#211F42" stroke-width="1.5"/>
</svg>
