<svg width="18" height="19" viewBox="0 0 18 19" fill="none" xmlns="http://www.w3.org/2000/svg">
<path d="M12.75 14C12.75 13.5858 13.0858 13.25 13.5 13.25C13.9142 13.25 14.25 13.5858 14.25 14C14.25 14.4142 13.9142 14.75 13.5 14.75C13.0858 14.75 12.75 14.4142 12.75 14Z" stroke="#51AF4E" stroke-width="2" stroke-linecap="round" stroke-linejoin="round"/>
<path d="M8.25 14C8.25 13.5858 8.58579 13.25 9 13.25C9.41421 13.25 9.75 13.5858 9.75 14C9.75 14.4142 9.41421 14.75 9 14.75C8.58579 14.75 8.25 14.4142 8.25 14Z" stroke="#51AF4E" stroke-width="2" stroke-linecap="round" stroke-linejoin="round"/>
<path d="M3.75 14C3.75 13.5858 4.08579 13.25 4.5 13.25C4.91421 13.25 5.25 13.5858 5.25 14C5.25 14.4142 4.91421 14.75 4.5 14.75C4.08579 14.75 3.75 14.4142 3.75 14Z" stroke="#51AF4E" stroke-width="2" stroke-linecap="round" stroke-linejoin="round"/>
<path d="M12.75 9.5C12.75 9.08579 13.0858 8.75 13.5 8.75C13.9142 8.75 14.25 9.08579 14.25 9.5C14.25 9.91421 13.9142 10.25 13.5 10.25C13.0858 10.25 12.75 9.91421 12.75 9.5Z" stroke="#51AF4E" stroke-width="2" stroke-linecap="round" stroke-linejoin="round"/>
<path d="M8.25 9.5C8.25 9.08579 8.58579 8.75 9 8.75C9.41421 8.75 9.75 9.08579 9.75 9.5C9.75 9.91421 9.41421 10.25 9 10.25C8.58579 10.25 8.25 9.91421 8.25 9.5Z" stroke="#51AF4E" stroke-width="2" stroke-linecap="round" stroke-linejoin="round"/>
<path d="M3.75 9.5C3.75 9.08579 4.08579 8.75 4.5 8.75C4.91421 8.75 5.25 9.08579 5.25 9.5C5.25 9.91421 4.91421 10.25 4.5 10.25C4.08579 10.25 3.75 9.91421 3.75 9.5Z" stroke="#51AF4E" stroke-width="2" stroke-linecap="round" stroke-linejoin="round"/>
<path d="M12.75 5C12.75 4.58579 13.0858 4.25 13.5 4.25C13.9142 4.25 14.25 4.58579 14.25 5C14.25 5.41421 13.9142 5.75 13.5 5.75C13.0858 5.75 12.75 5.41421 12.75 5Z" stroke="#51AF4E" stroke-width="2" stroke-linecap="round" stroke-linejoin="round"/>
<path d="M8.25 5C8.25 4.58579 8.58579 4.25 9 4.25C9.41421 4.25 9.75 4.58579 9.75 5C9.75 5.41421 9.41421 5.75 9 5.75C8.58579 5.75 8.25 5.41421 8.25 5Z" stroke="#51AF4E" stroke-width="2" stroke-linecap="round" stroke-linejoin="round"/>
<path d="M3.75 5C3.75 4.58579 4.08579 4.25 4.5 4.25C4.91421 4.25 5.25 4.58579 5.25 5C5.25 5.41421 4.91421 5.75 4.5 5.75C4.08579 5.75 3.75 5.41421 3.75 5Z" stroke="#51AF4E" stroke-width="2" stroke-linecap="round" stroke-linejoin="round"/>
</svg>
