<svg width="31" height="31" viewBox="0 0 31 31" fill="none" xmlns="http://www.w3.org/2000/svg">
<rect x="0.5" y="0.9375" width="30" height="30" rx="15" fill="#FFF8D1"/>
<path fill-rule="evenodd" clip-rule="evenodd" d="M14.75 16.6875C14.75 15.8591 15.4216 15.1875 16.25 15.1875H20.75C21.5784 15.1875 22.25 15.8591 22.25 16.6875V21.1875C22.25 22.0159 21.5784 22.6875 20.75 22.6875H15.5C15.0858 22.6875 14.75 22.3517 14.75 21.9375V16.6875ZM20.75 16.6875H16.25V21.1875H20.75V16.6875Z" fill="#FFDE17"/>
<path fill-rule="evenodd" clip-rule="evenodd" d="M8.75 16.6875C8.75 15.8591 9.42157 15.1875 10.25 15.1875H14.75C15.5784 15.1875 16.25 15.8591 16.25 16.6875V21.9375C16.25 22.3517 15.9142 22.6875 15.5 22.6875H10.25C9.42157 22.6875 8.75 22.0159 8.75 21.1875V16.6875ZM14.75 16.6875H10.25V21.1875H14.75V16.6875Z" fill="#FFDE17"/>
<path fill-rule="evenodd" clip-rule="evenodd" d="M14.75 13.6875C14.75 12.8591 15.4216 12.1875 16.25 12.1875H21.5C22.3284 12.1875 23 12.8591 23 13.6875V15.1875C23 16.0159 22.3284 16.6875 21.5 16.6875H16.25C15.4216 16.6875 14.75 16.0159 14.75 15.1875V13.6875ZM21.5 13.6875H16.25V15.1875H21.5V13.6875Z" fill="#FFDE17"/>
<path fill-rule="evenodd" clip-rule="evenodd" d="M8 13.6875C8 12.8591 8.67157 12.1875 9.5 12.1875H14.75C15.5784 12.1875 16.25 12.8591 16.25 13.6875V15.1875C16.25 16.0159 15.5784 16.6875 14.75 16.6875H9.5C8.67157 16.6875 8 16.0159 8 15.1875V13.6875ZM14.75 13.6875H9.5V15.1875H14.75V13.6875Z" fill="#FFDE17"/>
<path fill-rule="evenodd" clip-rule="evenodd" d="M14.75 11.0625C14.75 9.61275 15.9253 8.4375 17.375 8.4375C18.8247 8.4375 20 9.61275 20 11.0625C20 12.5122 18.8247 13.6875 17.375 13.6875H15.5C15.0858 13.6875 14.75 13.3517 14.75 12.9375V11.0625ZM17.375 9.9375C16.7537 9.9375 16.25 10.4412 16.25 11.0625V12.1875H17.375C17.9963 12.1875 18.5 11.6838 18.5 11.0625C18.5 10.4412 17.9963 9.9375 17.375 9.9375Z" fill="#FFDE17"/>
<path fill-rule="evenodd" clip-rule="evenodd" d="M11 11.0625C11 9.61275 12.1753 8.4375 13.625 8.4375C15.0747 8.4375 16.25 9.61275 16.25 11.0625V12.9375C16.25 13.3517 15.9142 13.6875 15.5 13.6875H13.625C12.1753 13.6875 11 12.5122 11 11.0625ZM13.625 9.9375C13.0037 9.9375 12.5 10.4412 12.5 11.0625C12.5 11.6838 13.0037 12.1875 13.625 12.1875H14.75V11.0625C14.75 10.4412 14.2463 9.9375 13.625 9.9375Z" fill="#FFDE17"/>
</svg>
