<svg width="18" height="19" viewBox="0 0 18 19" fill="none" xmlns="http://www.w3.org/2000/svg">
<path fill-rule="evenodd" clip-rule="evenodd" d="M8.25 10.25C8.25 9.42157 8.92157 8.75 9.75 8.75H14.25C15.0784 8.75 15.75 9.42157 15.75 10.25V14.75C15.75 15.5784 15.0784 16.25 14.25 16.25H9C8.58579 16.25 8.25 15.9142 8.25 15.5V10.25ZM14.25 10.25H9.75V14.75H14.25V10.25Z" fill="#FFDE17"/>
<path fill-rule="evenodd" clip-rule="evenodd" d="M2.25 10.25C2.25 9.42157 2.92157 8.75 3.75 8.75H8.25C9.07843 8.75 9.75 9.42157 9.75 10.25V15.5C9.75 15.9142 9.41421 16.25 9 16.25H3.75C2.92157 16.25 2.25 15.5784 2.25 14.75V10.25ZM8.25 10.25H3.75V14.75H8.25V10.25Z" fill="#FFDE17"/>
<path fill-rule="evenodd" clip-rule="evenodd" d="M8.25 7.25C8.25 6.42157 8.92157 5.75 9.75 5.75H15C15.8284 5.75 16.5 6.42157 16.5 7.25V8.75C16.5 9.57843 15.8284 10.25 15 10.25H9.75C8.92157 10.25 8.25 9.57843 8.25 8.75V7.25ZM15 7.25H9.75V8.75H15V7.25Z" fill="#FFDE17"/>
<path fill-rule="evenodd" clip-rule="evenodd" d="M1.5 7.25C1.5 6.42157 2.17157 5.75 3 5.75H8.25C9.07843 5.75 9.75 6.42157 9.75 7.25V8.75C9.75 9.57843 9.07843 10.25 8.25 10.25H3C2.17157 10.25 1.5 9.57843 1.5 8.75V7.25ZM8.25 7.25H3V8.75H8.25V7.25Z" fill="#FFDE17"/>
<path fill-rule="evenodd" clip-rule="evenodd" d="M8.25 4.625C8.25 3.17525 9.42525 2 10.875 2C12.3247 2 13.5 3.17525 13.5 4.625C13.5 6.07475 12.3247 7.25 10.875 7.25H9C8.58579 7.25 8.25 6.91421 8.25 6.5V4.625ZM10.875 3.5C10.2537 3.5 9.75 4.00368 9.75 4.625V5.75H10.875C11.4963 5.75 12 5.24632 12 4.625C12 4.00368 11.4963 3.5 10.875 3.5Z" fill="#FFDE17"/>
<path fill-rule="evenodd" clip-rule="evenodd" d="M4.5 4.625C4.5 3.17525 5.67525 2 7.125 2C8.57475 2 9.75 3.17525 9.75 4.625V6.5C9.75 6.91421 9.41421 7.25 9 7.25H7.125C5.67525 7.25 4.5 6.07475 4.5 4.625ZM7.125 3.5C6.50368 3.5 6 4.00368 6 4.625C6 5.24632 6.50368 5.75 7.125 5.75H8.25V4.625C8.25 4.00368 7.74632 3.5 7.125 3.5Z" fill="#FFDE17"/>
</svg>
