<svg width="18" height="19" viewBox="0 0 18 19" fill="none" xmlns="http://www.w3.org/2000/svg">
<path d="M8.06572 3.09409C8.60409 2.6353 9.39591 2.6353 9.93428 3.09409L10.85 3.87447C11.0807 4.07107 11.3676 4.18989 11.6697 4.214L12.869 4.3097C13.5741 4.36597 14.134 4.92588 14.1903 5.63098L14.286 6.8303C14.3101 7.13245 14.4289 7.41929 14.6255 7.65L15.4059 8.56572C15.8647 9.10409 15.8647 9.89591 15.4059 10.4343L14.6255 11.35C14.4289 11.5807 14.3101 11.8676 14.286 12.1697L14.1903 13.369C14.134 14.0741 13.5741 14.634 12.869 14.6903L11.6697 14.786C11.3676 14.8101 11.0807 14.9289 10.85 15.1255L9.93428 15.9059C9.39591 16.3647 8.60409 16.3647 8.06572 15.9059L7.15 15.1255C6.91929 14.9289 6.63245 14.8101 6.3303 14.786L5.13098 14.6903C4.42588 14.634 3.86597 14.0741 3.8097 13.369L3.714 12.1697C3.68989 11.8676 3.57107 11.5807 3.37447 11.35L2.59409 10.4343C2.1353 9.89591 2.1353 9.10409 2.59409 8.56572L3.37447 7.65C3.57107 7.41929 3.68989 7.13245 3.714 6.8303L3.8097 5.63098C3.86597 4.92588 4.42588 4.36597 5.13098 4.3097L6.3303 4.214C6.63245 4.18989 6.91929 4.07107 7.15 3.87447L8.06572 3.09409Z" stroke="#51AF4E" stroke-width="2" stroke-linecap="round" stroke-linejoin="round"/>
<path d="M11.9571 8.70711C12.3476 8.31658 12.3476 7.68342 11.9571 7.29289C11.5666 6.90237 10.9334 6.90237 10.5429 7.29289L11.9571 8.70711ZM8.25 11L7.54289 11.7071C7.93342 12.0976 8.56658 12.0976 8.95711 11.7071L8.25 11ZM7.45711 8.79289C7.06658 8.40237 6.43342 8.40237 6.04289 8.79289C5.65237 9.18342 5.65237 9.81658 6.04289 10.2071L7.45711 8.79289ZM10.5429 7.29289L7.54289 10.2929L8.95711 11.7071L11.9571 8.70711L10.5429 7.29289ZM8.95711 10.2929L7.45711 8.79289L6.04289 10.2071L7.54289 11.7071L8.95711 10.2929Z" fill="#51AF4E"/>
</svg>
