<svg width="31" height="31" viewBox="0 0 31 31" fill="none" xmlns="http://www.w3.org/2000/svg">
<rect x="0.5" y="0.9375" width="30" height="30" rx="15" fill="#DCEFDC"/>
<path d="M14.5657 9.53159C15.1041 9.0728 15.8959 9.0728 16.4343 9.53159L17.35 10.312C17.5807 10.5086 17.8676 10.6274 18.1697 10.6515L19.369 10.7472C20.0741 10.8035 20.634 11.3634 20.6903 12.0685L20.786 13.2678C20.8101 13.5699 20.9289 13.8568 21.1255 14.0875L21.9059 15.0032C22.3647 15.5416 22.3647 16.3334 21.9059 16.8718L21.1255 17.7875C20.9289 18.0182 20.8101 18.3051 20.786 18.6072L20.6903 19.8065C20.634 20.5116 20.0741 21.0715 19.369 21.1278L18.1697 21.2235C17.8676 21.2476 17.5807 21.3664 17.35 21.563L16.4343 22.3434C15.8959 22.8022 15.1041 22.8022 14.5657 22.3434L13.65 21.563C13.4193 21.3664 13.1324 21.2476 12.8303 21.2235L11.631 21.1278C10.9259 21.0715 10.366 20.5116 10.3097 19.8065L10.214 18.6072C10.1899 18.3051 10.0711 18.0182 9.87447 17.7875L9.09409 16.8718C8.6353 16.3334 8.6353 15.5416 9.09409 15.0032L9.87447 14.0875C10.0711 13.8568 10.1899 13.5699 10.214 13.2678L10.3097 12.0685C10.366 11.3634 10.9259 10.8035 11.631 10.7472L12.8303 10.6515C13.1324 10.6274 13.4193 10.5086 13.65 10.312L14.5657 9.53159Z" stroke="#51AF4E" stroke-width="2" stroke-linecap="round" stroke-linejoin="round"/>
<path d="M18.4571 15.1446C18.8476 14.7541 18.8476 14.1209 18.4571 13.7304C18.0666 13.3399 17.4334 13.3399 17.0429 13.7304L18.4571 15.1446ZM14.75 17.4375L14.0429 18.1446C14.4334 18.5351 15.0666 18.5351 15.4571 18.1446L14.75 17.4375ZM13.9571 15.2304C13.5666 14.8399 12.9334 14.8399 12.5429 15.2304C12.1524 15.6209 12.1524 16.2541 12.5429 16.6446L13.9571 15.2304ZM17.0429 13.7304L14.0429 16.7304L15.4571 18.1446L18.4571 15.1446L17.0429 13.7304ZM15.4571 16.7304L13.9571 15.2304L12.5429 16.6446L14.0429 18.1446L15.4571 16.7304Z" fill="#51AF4E"/>
</svg>
