<svg width="105" height="123" viewBox="0 0 105 123" fill="none" xmlns="http://www.w3.org/2000/svg">
<rect width="105" height="123" rx="5" fill="#424242" fill-opacity="0.2"/>
<path d="M67.3906 16.4896L67.3873 92.3338L34.5464 111.295L34.5497 35.4506L67.3906 16.4896Z" fill="#5A5A5A"/>
<path opacity="0.2" d="M67.3906 16.4896L67.3873 92.3338L34.5464 111.295L34.5497 35.4506L67.3906 16.4896Z" fill="#211F42"/>
<path opacity="0.2" d="M36.2734 108.301V36.4475L65.6602 19.4803V91.3202L36.2734 108.301ZM37.1402 106.804L64.7966 90.8368V20.9706L37.1436 36.9377L37.1402 106.804Z" fill="#211F42"/>
<g opacity="0.2">
<path d="M43.0783 57.9191C40.8411 61.7967 39.4374 66.2911 39.4374 70.3787C39.4374 74.3563 40.8011 77.427 43.1783 78.7973C45.3555 80.0576 48.1795 79.8142 51.1135 78.1305C57.3916 74.5063 62.4961 65.2142 62.4961 57.4157C62.4961 53.4381 61.1324 50.3674 58.7586 48.9971C56.5781 47.7401 53.7574 47.9802 50.8201 49.6639C47.8827 51.3476 45.1087 54.3983 43.0783 57.9191ZM58.3551 69.5885C56.3747 73.016 53.7274 75.9466 50.8201 77.6237C48.0694 79.2107 45.4588 79.4541 43.485 78.3072C41.2945 77.0402 40.0409 74.1562 40.0409 70.3954C40.0409 62.7836 45.012 53.7248 51.1268 50.1907C53.8774 48.6037 56.488 48.3603 58.4618 49.5239C60.6523 50.7875 61.9093 53.6715 61.9093 57.4324C61.9093 61.3966 60.539 65.7876 58.3551 69.5718V69.5885Z" fill="#211F42"/>
</g>
<g opacity="0.8">
<path d="M44.9222 58.9794C42.7951 62.6636 41.5881 66.8179 41.5881 70.3787C41.5881 73.5761 42.565 75.9734 44.2554 76.9569C45.7458 77.8171 47.8096 77.5771 50.0634 76.2734C52.634 74.7897 55.1113 72.1358 57.035 68.8017C59.1622 65.1175 60.3691 60.9632 60.3691 57.4057C60.3691 54.205 59.3956 51.8078 57.7019 50.8242C56.2082 49.964 54.1444 50.2074 51.8905 51.5077C49.3133 52.978 46.8394 55.6453 44.9222 58.9794Z" fill="#5A5A5A"/>
</g>
<path opacity="0.8" d="M38.4505 41.6954L38.5072 62.5769L39.0673 61.2432C39.5701 60.0422 40.148 58.8741 40.7978 57.7458C43.1616 53.6582 47.0925 50.1674 49.9432 48.5203C53.1373 46.6766 57.6116 45.5196 60.3956 47.1433C61.3615 47.7093 62.1939 48.4769 62.8362 49.3938L63.3696 50.1507L63.3163 27.2887L61.1458 28.539C61.0258 28.658 60.8699 28.7343 60.7023 28.756C60.5347 28.7776 60.3646 28.7436 60.2182 28.659C60.0718 28.5745 59.9574 28.4441 59.8924 28.2881C59.8275 28.132 59.8157 27.9589 59.8588 27.7955V25.2883L41.9213 35.7073V37.8712C41.8913 38.4204 41.7326 38.9548 41.4581 39.4315C41.1836 39.9081 40.8009 40.3135 40.341 40.6151L38.4505 41.6954Z" fill="#5A5A5A"/>
<g opacity="0.4">
<path d="M48.7731 38.478C48.2336 39.3799 47.934 40.4049 47.9029 41.4553C47.9029 42.4556 48.2563 43.2324 48.8764 43.5892C49.4966 43.9459 50.1801 43.8659 50.9269 43.4325C52.4339 42.5623 53.6609 40.3351 53.6609 38.4713C53.6609 37.4711 53.3075 36.6942 52.6873 36.3375C52.0672 35.9807 51.3837 36.0608 50.6335 36.4942C49.8539 36.9855 49.2134 37.6685 48.7731 38.478Z" fill="white"/>
</g>
<path d="M38.6072 77.6171L38.5806 100.389L40.7511 99.1354C40.8711 99.0164 41.0269 98.9401 41.1946 98.9184C41.3622 98.8967 41.5323 98.9308 41.6787 99.0154C41.825 99.0999 41.9395 99.2303 42.0044 99.3863C42.0694 99.5424 42.0812 99.7155 42.038 99.8789V102.386L59.8955 91.937V89.7732C59.9294 89.2258 60.0898 88.6938 60.364 88.2188C60.6382 87.7439 61.0188 87.339 61.4759 87.0359L63.353 85.9557L63.3796 65.1275L62.8128 66.4878C62.309 67.69 61.73 68.8593 61.0791 69.9886C58.9253 73.6928 55.2578 77.4704 51.9237 79.3908C47.766 81.7914 44.4819 82.3315 42.1647 80.9912C41.0013 80.3043 39.9712 79.4131 39.124 78.3606L38.6072 77.6171Z" fill="#5A5A5A"/>
<g opacity="0.4">
<path d="M48.6896 86.159C48.1516 87.0616 47.8521 88.0862 47.8194 89.1364C47.8194 90.1366 48.1728 90.9135 48.793 91.2702C49.4131 91.627 50.0966 91.5469 50.8468 91.1135C52.3538 90.2433 53.5774 88.0194 53.5774 86.1524C53.5774 85.1521 53.224 84.3753 52.6038 84.0185C51.9837 83.6618 51.3002 83.7418 50.55 84.1752C49.7712 84.6674 49.1309 85.3502 48.6896 86.159Z" fill="white"/>
</g>
<path opacity="0.15" d="M34.5497 68.0849C34.5497 68.0849 34.3597 43.5925 35.2865 35.9074C45.3455 29.846 55.3145 24.0447 66.5971 17.9366L67.3906 49.1271L34.5497 68.0849Z" fill="#211F42"/>
<path d="M67.3906 16.4896L59.102 11.7051L26.2611 30.6662L34.5497 35.4506L67.3906 16.4896Z" fill="#5A5A5A"/>
<path opacity="0.4" d="M67.3906 16.4896L59.102 11.7051L26.2611 30.6662L34.5497 35.4506L67.3906 16.4896Z" fill="white"/>
<g opacity="0.5">
<path d="M32.1857 34.0836L42.3647 27.9889L31.7656 33.8436L32.1857 34.0836Z" fill="#5A5A5A"/>
<path d="M63.283 14.119L59.6521 16.0128L62.9329 13.9156L63.283 14.119Z" fill="#5A5A5A"/>
<path d="M61.6326 13.1655L44.0985 22.9977L61.1258 12.8721L61.6326 13.1655Z" fill="#5A5A5A"/>
<path d="M30.5388 33.1368L47.5527 22.9977L29.9953 32.8233L30.5388 33.1368Z" fill="#5A5A5A"/>
</g>
<path d="M26.2612 30.6662V106.51L34.5465 111.295L34.5498 35.4506L26.2612 30.6662Z" fill="#5A5A5A"/>
<path opacity="0.2" d="M26.2612 30.6662V106.51L34.5465 111.295L34.5498 35.4506L26.2612 30.6662Z" fill="white"/>
<g opacity="0.8">
<path d="M32.1858 34.0837L31.9958 37.9713L31.7657 33.8436L32.1858 34.0837Z" fill="#5A5A5A"/>
<path d="M30.5388 33.1368L30.2621 53.0447L29.9954 32.8234L30.5388 33.1368Z" fill="#5A5A5A"/>
<path d="M30.4688 108.941L30.2654 94.8511L30.062 108.704L30.4688 108.941Z" fill="#5A5A5A"/>
<path d="M28.7317 107.937L28.5383 99.8422L28.3449 107.714L28.7317 107.937Z" fill="#5A5A5A"/>
</g>
<path d="M34.5497 68.0848C34.5497 68.0848 34.5497 67.9248 34.5797 63.6805C34.6631 57.7258 34.9432 43.9159 36.0501 36.3142C47.3378 29.2309 59.3596 23.391 71.905 18.8968C69.4545 28.8691 67.634 38.8781 67.3873 49.1371L34.5497 68.0848Z" fill="#5A5A5A"/>
<path opacity="0.1" d="M34.5497 68.0848C34.5497 68.0848 34.5497 67.9248 34.5797 63.6805C34.6631 57.7258 34.9432 43.9159 36.0501 36.3142C47.3378 29.2309 59.3596 23.391 71.905 18.8968C69.4545 28.8691 67.634 38.8781 67.3873 49.1371L34.5497 68.0848Z" fill="#211F42"/>
<path opacity="0.2" d="M36.2834 67.0846C36.2834 56.9923 36.3667 47.0033 37.7037 36.981C47.626 30.8196 58.7819 25.2349 69.3777 21.4207C66.7104 30.8029 65.6768 40.3984 65.6602 50.1307L64.7866 50.6075C64.8451 41.1724 65.9873 31.7753 68.1907 22.601C58.2584 26.6386 47.796 31.5864 38.4272 37.4478C37.1336 47.1533 37.1202 56.8189 37.1402 66.5912C36.8502 66.7545 36.5701 66.9246 36.2834 67.0846Z" fill="#211F42"/>
<g opacity="0.2">
<path d="M40.2078 64.8207C40.6145 62.9436 41.258 60.7998 43.3518 57.179C44.9761 54.2599 47.2951 51.7863 50.1034 49.9773C53.0341 48.1502 55.0045 47.6067 57.9519 48.587C59.7056 49.1704 60.9526 51.1576 61.6194 52.4545L61.1059 52.7479C60.5858 51.6977 59.5122 49.7239 57.7418 49.1404C54.9545 48.2202 52.7073 49.0671 50.2368 50.7108C46.0625 53.4881 42.735 58.4159 40.9246 64.3806L40.2078 64.8207Z" fill="#211F42"/>
</g>
<g opacity="0.5">
<path d="M42.9216 63.2504C43.4207 61.8279 44.0351 60.4486 44.7587 59.1261C46.9225 55.5119 48.923 53.5081 51.4502 51.9778C53.7407 50.5841 55.3811 49.9306 57.5783 50.7741C58.5052 51.1309 59.4887 52.5479 59.7688 53.5481L42.9216 63.2504Z" fill="#5A5A5A"/>
</g>
<path d="M38.4906 62.5569C38.2672 55.6786 38.0805 48.8304 38.9874 41.9821C39.6536 41.6982 40.2792 41.3271 40.8478 40.8785C41.7444 40.1696 42.4057 39.2061 42.7449 38.1146C42.9429 37.4486 43.0494 36.7588 43.0616 36.0641C49.5065 31.7631 55.8979 29.5092 62.1794 26.6152C61.996 27.3921 61.906 27.8422 61.8093 28.4823C61.7426 28.9158 61.6393 29.4159 61.9027 29.6559C62.2361 29.9527 62.6595 29.756 63.1129 29.5626C63.8509 29.243 64.572 28.8858 65.2734 28.4923C63.5664 35.9841 63.323 42.4222 63.343 50.0807C63.343 50.0807 63.173 49.8073 62.7295 49.2305C62.0439 48.404 61.1889 47.7344 60.2223 47.2667C56.5914 45.4563 53.0006 46.2664 49.2197 48.557C45.8456 50.5874 43.295 53.8215 40.9912 57.269C40.2421 58.3583 39.6086 59.5226 39.1007 60.7431C38.8566 61.3332 38.6527 61.9392 38.4906 62.5569Z" fill="#5A5A5A"/>
<g opacity="0.4">
<path d="M49.2063 43.4591C48.4295 43.0357 48.1528 42.4589 48.2461 41.5587C48.3545 40.5387 48.6968 39.5575 49.2463 38.6914C49.7831 37.9412 50.3032 37.2444 51.0568 36.8509C51.8103 36.4575 52.5938 36.1841 53.2939 36.6909C53.9941 37.1977 54.1008 38.3279 53.9608 39.2715C53.7307 40.7818 53.2073 41.7987 51.7769 42.939C51.0801 43.4958 49.8298 43.7959 49.2063 43.4591Z" fill="white"/>
</g>
<path d="M68.5376 48.467L34.5497 68.0848L34.5464 80.0576L68.5376 60.4398V48.467Z" fill="#FBFBFB"/>
<path d="M34.5465 80.0576L25.6544 74.9231V62.9503L34.5498 68.0848L34.5465 80.0576Z" fill="#AEAEAE"/>
<path d="M25.6544 62.9503L26.2612 62.6002V63.3004L25.6544 62.9503Z" fill="#FBFBFB"/>
<path d="M68.5376 48.467L67.4273 47.8268L67.3907 49.1305L68.5376 48.467Z" fill="#FBFBFB"/>
<g opacity="0.3">
<path d="M26.2646 62.6036L34.5465 67.3847L34.5498 68.0848L26.2646 63.3037V62.6036Z" fill="#211F42"/>
</g>
<g opacity="0.2">
<path d="M34.5463 67.3847L67.4072 48.4136L67.3906 49.1305L34.5496 68.0848L34.5463 67.3847Z" fill="#211F42"/>
</g>
<path d="M68.5376 49.7573L34.5498 69.3818V70.3754L68.5343 50.7542L68.5376 49.7573Z" fill="#211F42"/>
<path d="M68.5342 58.1425L34.5463 77.7671V78.7639L68.5308 59.1394L68.5342 58.1425Z" fill="#211F42"/>
<path d="M34.5498 69.3818L25.6544 64.244V65.2409L34.5498 70.3754V69.3818Z" fill="#211F42"/>
<path d="M34.5464 77.7671L25.6543 72.6326V73.6328L34.5464 78.764V77.7671Z" fill="#211F42"/>
<rect x="0.5" y="0.5" width="104" height="122" rx="4.5" stroke="#424242" stroke-opacity="0.2"/>
</svg>
