<svg width="106" height="124" viewBox="0 0 106 124" fill="none" xmlns="http://www.w3.org/2000/svg">
<rect x="0.5" y="0.690918" width="105" height="123" rx="5" fill="#51AF4E" fill-opacity="0.2"/>
<path d="M67.8906 17.1807L67.8873 93.0249L35.0464 111.986L35.0497 36.1417L67.8906 17.1807Z" fill="#51AF4E"/>
<path opacity="0.2" d="M67.8906 17.1807L67.8873 93.0249L35.0464 111.986L35.0497 36.1417L67.8906 17.1807Z" fill="#211F42"/>
<path opacity="0.2" d="M36.7734 108.991V37.1382L66.1602 20.1709V92.0108L36.7734 108.991ZM37.6402 107.494L65.2966 91.5274V21.6612L37.6436 37.6283L37.6402 107.494Z" fill="#211F42"/>
<g opacity="0.2">
<path d="M43.5783 58.6102C41.3411 62.4877 39.9374 66.9821 39.9374 71.0697C39.9374 75.0473 41.3011 78.118 43.6783 79.4883C45.8555 80.7486 48.6795 80.5052 51.6135 78.8215C57.8916 75.1974 62.9961 65.9052 62.9961 58.1067C62.9961 54.1291 61.6324 51.0584 59.2586 49.6881C57.0781 48.4312 54.2574 48.6712 51.3201 50.3549C48.3827 52.0387 45.6087 55.0894 43.5783 58.6102ZM58.8551 70.2795C56.8747 73.707 54.2274 76.6377 51.3201 78.3147C48.5694 79.9018 45.9588 80.1452 43.985 78.9982C41.7945 77.7313 40.5409 74.8473 40.5409 71.0864C40.5409 63.4746 45.512 54.4159 51.6268 50.8817C54.3774 49.2947 56.988 49.0513 58.9618 50.2149C61.1523 51.4785 62.4093 54.3625 62.4093 58.1234C62.4093 62.0877 61.039 66.4787 58.8551 70.2629V70.2795Z" fill="#211F42"/>
</g>
<g opacity="0.8">
<path d="M45.4222 59.6702C43.2951 63.3543 42.0881 67.5086 42.0881 71.0695C42.0881 74.2669 43.065 76.6641 44.7554 77.6477C46.2458 78.5079 48.3096 78.2678 50.5634 76.9642C53.134 75.4805 55.6113 72.8265 57.535 69.4924C59.6622 65.8083 60.8691 61.654 60.8691 58.0965C60.8691 54.8957 59.8956 52.4985 58.2019 51.5149C56.7082 50.6547 54.6444 50.8981 52.3905 52.1984C49.8133 53.6688 47.3394 56.3361 45.4222 59.6702Z" fill="#51AF4E"/>
</g>
<path opacity="0.8" d="M38.9505 42.3861L39.0072 63.2676L39.5673 61.934C40.0701 60.7329 40.648 59.5648 41.2978 58.4365C43.6616 54.3489 47.5925 50.8581 50.4432 49.211C53.6373 47.3673 58.1116 46.2104 60.8956 47.8341C61.8615 48.4 62.6939 49.1677 63.3362 50.0846L63.8696 50.8414L63.8163 27.9795L61.6458 29.2298C61.5258 29.3488 61.3699 29.425 61.2023 29.4467C61.0347 29.4684 60.8646 29.4343 60.7182 29.3498C60.5718 29.2652 60.4574 29.1349 60.3924 28.9788C60.3275 28.8228 60.3157 28.6497 60.3588 28.4863V25.979L42.4213 36.3981V38.5619C42.3913 39.1111 42.2326 39.6456 41.9581 40.1222C41.6836 40.5988 41.3009 41.0043 40.841 41.3059L38.9505 42.3861Z" fill="#51AF4E"/>
<g opacity="0.4">
<path d="M49.2731 39.1688C48.7336 40.0707 48.434 41.0957 48.4029 42.1461C48.4029 43.1464 48.7563 43.9232 49.3764 44.28C49.9966 44.6367 50.6801 44.5567 51.4269 44.1233C52.9339 43.2531 54.1609 41.0259 54.1609 39.1621C54.1609 38.1619 53.8075 37.385 53.1873 37.0283C52.5672 36.6715 51.8837 36.7516 51.1335 37.185C50.3539 37.6763 49.7134 38.3593 49.2731 39.1688Z" fill="white"/>
</g>
<path d="M39.1072 78.3079L39.0806 101.08L41.2511 99.8262C41.3711 99.7072 41.5269 99.631 41.6946 99.6093C41.8622 99.5876 42.0323 99.6217 42.1787 99.7062C42.325 99.7908 42.4395 99.9211 42.5044 100.077C42.5694 100.233 42.5812 100.406 42.538 100.57V103.077L60.3955 92.6279V90.4641C60.4294 89.9167 60.5898 89.3846 60.864 88.9097C61.1382 88.4347 61.5188 88.0298 61.9759 87.7268L63.853 86.6465L63.8796 65.8184L63.3128 67.1787C62.809 68.3809 62.23 69.5501 61.5791 70.6795C59.4253 74.3837 55.7578 78.1612 52.4237 80.0817C48.266 82.4822 44.9819 83.0223 42.6647 81.682C41.5013 80.9951 40.4712 80.104 39.624 79.0514L39.1072 78.3079Z" fill="#51AF4E"/>
<g opacity="0.4">
<path d="M49.1896 86.8499C48.6516 87.7525 48.3521 88.7771 48.3194 89.8273C48.3194 90.8275 48.6728 91.6044 49.293 91.9611C49.9131 92.3179 50.5966 92.2379 51.3468 91.8044C52.8538 90.9342 54.0774 88.7104 54.0774 86.8433C54.0774 85.843 53.724 85.0662 53.1038 84.7094C52.4837 84.3527 51.8002 84.4327 51.05 84.8661C50.2712 85.3584 49.6309 86.0412 49.1896 86.8499Z" fill="white"/>
</g>
<path opacity="0.15" d="M35.0497 68.7757C35.0497 68.7757 34.8597 44.2834 35.7865 36.5983C45.8455 30.5369 55.8145 24.7355 67.0971 18.6274L67.8906 49.818L35.0497 68.7757Z" fill="#211F42"/>
<path d="M67.8906 17.1804L59.602 12.396L26.7611 31.357L35.0497 36.1415L67.8906 17.1804Z" fill="#51AF4E"/>
<path opacity="0.4" d="M67.8906 17.1804L59.602 12.396L26.7611 31.357L35.0497 36.1415L67.8906 17.1804Z" fill="white"/>
<g opacity="0.5">
<path d="M32.6857 34.7744L42.8647 28.6797L32.2656 34.5344L32.6857 34.7744Z" fill="#51AF4E"/>
<path d="M63.783 14.8098L60.1521 16.7036L63.4329 14.6064L63.783 14.8098Z" fill="#51AF4E"/>
<path d="M62.1326 13.8564L44.5985 23.6887L61.6258 13.563L62.1326 13.8564Z" fill="#51AF4E"/>
<path d="M31.0388 33.8275L48.0527 23.6885L30.4953 33.5141L31.0388 33.8275Z" fill="#51AF4E"/>
</g>
<path d="M26.7612 31.3569V107.201L35.0465 111.986L35.0498 36.1414L26.7612 31.3569Z" fill="#51AF4E"/>
<path opacity="0.2" d="M26.7612 31.3569V107.201L35.0465 111.986L35.0498 36.1414L26.7612 31.3569Z" fill="white"/>
<g opacity="0.8">
<path d="M32.6858 34.7742L32.4958 38.6618L32.2657 34.5342L32.6858 34.7742Z" fill="#51AF4E"/>
<path d="M31.0388 33.8276L30.7621 53.7355L30.4954 33.5142L31.0388 33.8276Z" fill="#51AF4E"/>
<path d="M30.9688 109.632L30.7654 95.542L30.562 109.395L30.9688 109.632Z" fill="#51AF4E"/>
<path d="M29.2317 108.628L29.0383 100.533L28.8449 108.405L29.2317 108.628Z" fill="#51AF4E"/>
</g>
<path d="M35.0497 68.7759C35.0497 68.7759 35.0497 68.6159 35.0797 64.3716C35.1631 58.4169 35.4432 44.607 36.5501 37.0053C47.8378 29.922 59.8596 24.0821 72.405 19.5879C69.9545 29.5602 68.134 39.5692 67.8873 49.8282L35.0497 68.7759Z" fill="#51AF4E"/>
<path opacity="0.1" d="M35.0497 68.7759C35.0497 68.7759 35.0497 68.6159 35.0797 64.3716C35.1631 58.4169 35.4432 44.607 36.5501 37.0053C47.8378 29.922 59.8596 24.0821 72.405 19.5879C69.9545 29.5602 68.134 39.5692 67.8873 49.8282L35.0497 68.7759Z" fill="#211F42"/>
<path opacity="0.2" d="M36.7834 67.7757C36.7834 57.6834 36.8667 47.6944 38.2037 37.6721C48.126 31.5107 59.2819 25.926 69.8777 22.1118C67.2104 31.494 66.1768 41.0895 66.1602 50.8218L65.2866 51.2986C65.3451 41.8635 66.4873 32.4664 68.6907 23.2921C58.7584 27.3297 48.296 32.2775 38.9272 38.1389C37.6336 47.8444 37.6202 57.51 37.6402 67.2823C37.3502 67.4456 37.0701 67.6157 36.7834 67.7757Z" fill="#211F42"/>
<g opacity="0.2">
<path d="M40.7078 65.5114C41.1145 63.6343 41.758 61.4905 43.8518 57.8696C45.4761 54.9506 47.7951 52.477 50.6034 50.668C53.5341 48.8409 55.5045 48.2974 58.4519 49.2777C60.2056 49.8611 61.4526 51.8482 62.1194 53.1452L61.6059 53.4386C61.0858 52.3884 60.0122 50.4146 58.2418 49.8311C55.4545 48.9109 53.2073 49.7578 50.7368 51.4015C46.5625 54.1788 43.235 59.1066 41.4246 65.0713L40.7078 65.5114Z" fill="#211F42"/>
</g>
<g opacity="0.5">
<path d="M43.4216 63.9411C43.9207 62.5187 44.5351 61.1393 45.2587 59.8168C47.4225 56.2026 49.423 54.1988 51.9502 52.6685C54.2407 51.2748 55.8811 50.6214 58.0783 51.4649C59.0052 51.8216 59.9887 53.2386 60.2688 54.2389L43.4216 63.9411Z" fill="#51AF4E"/>
</g>
<path d="M38.9906 63.2478C38.7672 56.3695 38.5805 49.5213 39.4874 42.673C40.1536 42.3891 40.7792 42.018 41.3478 41.5695C42.2444 40.8605 42.9057 39.897 43.2449 38.8055C43.4429 38.1395 43.5494 37.4497 43.5616 36.755C50.0065 32.454 56.3979 30.2002 62.6794 27.3062C62.496 28.083 62.406 28.5331 62.3093 29.1733C62.2426 29.6067 62.1393 30.1068 62.4027 30.3469C62.7361 30.6436 63.1595 30.4469 63.6129 30.2535C64.3509 29.9339 65.072 29.5767 65.7734 29.1833C64.0664 36.675 63.823 43.1131 63.843 50.7716C63.843 50.7716 63.673 50.4982 63.2295 49.9214C62.5439 49.095 61.6889 48.4253 60.7223 47.9576C57.0914 46.1472 53.5006 46.9574 49.7197 49.2479C46.3456 51.2784 43.795 54.5124 41.4912 57.9599C40.7421 59.0492 40.1086 60.2135 39.6007 61.434C39.3566 62.0241 39.1527 62.6301 38.9906 63.2478Z" fill="#51AF4E"/>
<g opacity="0.4">
<path d="M49.7063 44.1498C48.9295 43.7264 48.6528 43.1496 48.7461 42.2494C48.8545 41.2294 49.1968 40.2482 49.7463 39.382C50.2831 38.6319 50.8032 37.935 51.5568 37.5416C52.3103 37.1482 53.0938 36.8748 53.7939 37.3816C54.4941 37.8884 54.6008 39.0186 54.4608 39.9622C54.2307 41.4725 53.7073 42.4894 52.2769 43.6297C51.5801 44.1865 50.3298 44.4865 49.7063 44.1498Z" fill="white"/>
</g>
<path d="M69.0376 49.1577L35.0498 68.7756L35.0464 80.7484L69.0376 61.1305V49.1577Z" fill="#FBFBFB"/>
<path d="M35.0465 80.7484L26.1544 75.6139V63.6411L35.0498 68.7756L35.0465 80.7484Z" fill="#AEAEAE"/>
<path d="M26.1544 63.6411L26.7612 63.291V63.9912L26.1544 63.6411Z" fill="#FBFBFB"/>
<path d="M69.0376 49.1577L67.9273 48.5176L67.8907 49.8212L69.0376 49.1577Z" fill="#FBFBFB"/>
<g opacity="0.3">
<path d="M26.7646 63.2944L35.0465 68.0755L35.0498 68.7757L26.7646 63.9946V63.2944Z" fill="#211F42"/>
</g>
<g opacity="0.2">
<path d="M35.0463 68.0755L67.9072 49.1045L67.8906 49.8213L35.0496 68.7757L35.0463 68.0755Z" fill="#211F42"/>
</g>
<path d="M69.0376 50.4482L35.0498 70.0728V71.0663L69.0343 51.4451L69.0376 50.4482Z" fill="#211F42"/>
<path d="M69.0342 58.8335L35.0463 78.458V79.4549L69.0308 59.8304L69.0342 58.8335Z" fill="#211F42"/>
<path d="M35.0498 70.0724L26.1544 64.9346V65.9315L35.0498 71.066V70.0724Z" fill="#211F42"/>
<path d="M35.0464 78.4578L26.1543 73.3232V74.3235L35.0464 79.4547V78.4578Z" fill="#211F42"/>
<rect x="1" y="1.19092" width="104" height="122" rx="4.5" stroke="#51AF4E" stroke-opacity="0.2"/>
</svg>
