<svg width="60" height="9" viewBox="0 0 60 9" fill="none" xmlns="http://www.w3.org/2000/svg">
<path d="M6.01352 0.6H0.483516V1.23H2.87352V8H3.63352V1.23H6.01352V0.6ZM8.88469 8.1C10.4947 8.1 11.5747 7 11.5747 5.36C11.5747 3.71 10.4947 2.61 8.88469 2.61C7.26469 2.61 6.17469 3.71 6.17469 5.36C6.17469 7 7.26469 8.1 8.88469 8.1ZM8.88469 7.48C7.71469 7.48 6.93469 6.63 6.93469 5.36C6.93469 4.08 7.71469 3.24 8.88469 3.24C10.0447 3.24 10.8147 4.08 10.8147 5.36C10.8147 6.63 10.0447 7.48 8.88469 7.48ZM15.1142 7.48C14.5642 7.48 14.1842 7.08 14.1842 6.5V3.31H16.0942V2.71H14.1842V1.16H13.4642V2.71H12.5442V3.31H13.4642V6.64C13.4642 7.51 14.0442 8.1 14.8942 8.1C15.3942 8.1 15.8242 8.03 16.1742 7.88V7.29C15.8342 7.42 15.4842 7.48 15.1142 7.48ZM19.3502 2.61C18.5002 2.61 17.8802 2.87 17.4002 3.34L17.7302 3.78C18.1002 3.4 18.5502 3.19 19.1802 3.19C20.1502 3.19 20.7602 3.8 20.7602 4.76V5.13C20.2602 5.01 19.7102 4.95 19.2202 4.95C17.9202 4.95 17.0602 5.6 17.0602 6.56C17.0602 7.49 17.7602 8.1 18.8002 8.1C19.6402 8.1 20.3902 7.66 20.7602 6.89L20.7802 8H21.4802V4.67C21.4802 3.43 20.6402 2.61 19.3502 2.61ZM19.0002 7.56C18.2602 7.56 17.8102 7.16 17.8102 6.54C17.8102 5.9 18.4102 5.47 19.3102 5.47C19.7702 5.47 20.2902 5.53 20.7602 5.64C20.7602 6.87 19.8402 7.56 19.0002 7.56ZM23.4673 8H24.1873V0.2H23.4673V8ZM33.6759 1.23V0.6H29.4959V8H30.2559V4.74H33.3059V4.11H30.2559V1.23H33.6759ZM39.0837 2.71V5.91C39.0837 6.85 38.4437 7.48 37.4737 7.48C36.5037 7.48 35.8637 6.85 35.8637 5.91V2.71H35.1437V6.05C35.1437 7.27 35.9837 8.1 37.2437 8.1C38.1337 8.1 38.7537 7.74 39.0937 7.12L39.1137 8H39.8037V2.71H39.0837ZM44.4642 2.61C43.5442 2.61 42.9042 2.98 42.5542 3.6L42.5442 2.71H41.8442V8H42.5642V4.81C42.5642 3.86 43.2342 3.24 44.2442 3.24C45.2442 3.24 45.9142 3.86 45.9142 4.81V8H46.6342V4.67C46.6342 3.43 45.7642 2.61 44.4642 2.61ZM52.9016 0.2V3.85C52.5416 3.1 51.8416 2.61 50.7916 2.61C49.3116 2.61 48.2516 3.72 48.2516 5.37C48.2516 7.01 49.3116 8.1 50.7916 8.1C51.8416 8.1 52.5416 7.61 52.9016 6.86L52.9216 8H53.6216V0.2H52.9016ZM50.9616 7.48C49.7916 7.48 49.0116 6.63 49.0116 5.37C49.0116 4.09 49.7916 3.24 50.9616 3.24C52.1216 3.24 52.9016 4.09 52.9016 5.36C52.9016 6.63 52.1216 7.48 50.9616 7.48ZM57.1818 8.1C58.4018 8.1 59.1718 7.49 59.1718 6.57C59.1718 5.7 58.4418 5.3 57.6418 5.08L57.0718 4.91C56.5018 4.75 56.0918 4.53 56.0918 4.04C56.0918 3.52 56.5618 3.19 57.2618 3.19C57.7718 3.19 58.2518 3.3 58.7018 3.58L59.0118 3.09C58.5018 2.76 57.9218 2.61 57.2118 2.61C56.0918 2.61 55.3518 3.22 55.3518 4.15C55.3518 4.94 55.9218 5.27 56.7518 5.5L57.3218 5.67C57.9618 5.85 58.4318 6.13 58.4318 6.63C58.4318 7.17 57.9318 7.52 57.1818 7.52C56.6318 7.52 56.1018 7.41 55.6618 7.09L55.3618 7.54C55.7718 7.91 56.4318 8.1 57.1818 8.1Z" fill="#FBFBFB"/>
</svg>
