<svg width="92" height="9" viewBox="0 0 92 9" fill="none" xmlns="http://www.w3.org/2000/svg">
<path d="M5.70609 0.6H0.176093V1.23H2.56609V8H3.32609V1.23H5.70609V0.6ZM8.57727 8.1C10.1873 8.1 11.2673 7 11.2673 5.36C11.2673 3.71 10.1873 2.61 8.57727 2.61C6.95726 2.61 5.86726 3.71 5.86726 5.36C5.86726 7 6.95726 8.1 8.57727 8.1ZM8.57727 7.48C7.40727 7.48 6.62726 6.63 6.62726 5.36C6.62726 4.08 7.40727 3.24 8.57727 3.24C9.73727 3.24 10.5073 4.08 10.5073 5.36C10.5073 6.63 9.73727 7.48 8.57727 7.48ZM14.8068 7.48C14.2568 7.48 13.8768 7.08 13.8768 6.5V3.31H15.7868V2.71H13.8768V1.16H13.1568V2.71H12.2368V3.31H13.1568V6.64C13.1568 7.51 13.7368 8.1 14.5868 8.1C15.0868 8.1 15.5168 8.03 15.8668 7.88V7.29C15.5268 7.42 15.1768 7.48 14.8068 7.48ZM19.0428 2.61C18.1928 2.61 17.5728 2.87 17.0928 3.34L17.4228 3.78C17.7928 3.4 18.2428 3.19 18.8728 3.19C19.8428 3.19 20.4528 3.8 20.4528 4.76V5.13C19.9528 5.01 19.4028 4.95 18.9128 4.95C17.6128 4.95 16.7528 5.6 16.7528 6.56C16.7528 7.49 17.4528 8.1 18.4928 8.1C19.3328 8.1 20.0828 7.66 20.4528 6.89L20.4728 8H21.1728V4.67C21.1728 3.43 20.3328 2.61 19.0428 2.61ZM18.6928 7.56C17.9528 7.56 17.5028 7.16 17.5028 6.54C17.5028 5.9 18.1028 5.47 19.0028 5.47C19.4628 5.47 19.9828 5.53 20.4528 5.64C20.4528 6.87 19.5328 7.56 18.6928 7.56ZM23.1599 8H23.8799V0.2H23.1599V8ZM29.1885 8H29.9485V0.6H29.1885V8ZM34.8017 2.61C33.8817 2.61 33.2417 2.98 32.8917 3.6L32.8817 2.71H32.1817V8H32.9017V4.81C32.9017 3.86 33.5717 3.24 34.5817 3.24C35.5817 3.24 36.2517 3.86 36.2517 4.81V8H36.9717V4.67C36.9717 3.43 36.1017 2.61 34.8017 2.61ZM40.4722 8H41.2022L43.5522 2.71H42.7622L40.8322 7.17L38.9022 2.71H38.1122L40.4722 8ZM49.4191 5.29C49.4191 3.68 48.4191 2.61 46.9291 2.61C45.4191 2.61 44.4191 3.71 44.4191 5.35C44.4191 7 45.4391 8.1 46.9491 8.1C47.8891 8.1 48.6991 7.69 49.2091 6.93L48.6591 6.62C48.2491 7.17 47.6591 7.52 46.9491 7.52C45.8991 7.52 45.2791 6.77 45.1891 5.62H49.4091C49.4191 5.54 49.4191 5.38 49.4191 5.29ZM46.9291 3.19C47.9491 3.19 48.6091 3.93 48.6691 5.11H45.1891C45.2591 3.93 45.9091 3.19 46.9291 3.19ZM52.5873 8.1C53.8073 8.1 54.5773 7.49 54.5773 6.57C54.5773 5.7 53.8473 5.3 53.0473 5.08L52.4773 4.91C51.9073 4.75 51.4973 4.53 51.4973 4.04C51.4973 3.52 51.9673 3.19 52.6673 3.19C53.1773 3.19 53.6573 3.3 54.1073 3.58L54.4173 3.09C53.9073 2.76 53.3273 2.61 52.6173 2.61C51.4973 2.61 50.7573 3.22 50.7573 4.15C50.7573 4.94 51.3273 5.27 52.1573 5.5L52.7273 5.67C53.3673 5.85 53.8373 6.13 53.8373 6.63C53.8373 7.17 53.3373 7.52 52.5873 7.52C52.0373 7.52 51.5073 7.41 51.0673 7.09L50.7673 7.54C51.1773 7.91 51.8373 8.1 52.5873 8.1ZM58.1431 7.48C57.5931 7.48 57.2131 7.08 57.2131 6.5V3.31H59.1231V2.71H57.2131V1.16H56.4931V2.71H55.5731V3.31H56.4931V6.64C56.4931 7.51 57.0731 8.1 57.9231 8.1C58.4231 8.1 58.8531 8.03 59.2031 7.88V7.29C58.8631 7.42 58.5131 7.48 58.1431 7.48ZM66.6091 2.61C65.7191 2.61 65.0891 3.03 64.7691 3.69C64.4591 3.02 63.8191 2.61 62.9791 2.61C62.1591 2.61 61.5691 2.96 61.2491 3.55L61.2391 2.71H60.5391V8H61.2591V4.81C61.2591 3.86 61.8591 3.24 62.7591 3.24C63.6491 3.24 64.2491 3.86 64.2491 4.81V8H64.9691V4.81C64.9691 3.86 65.5691 3.24 66.4691 3.24C67.3691 3.24 67.9691 3.86 67.9691 4.81V8H68.6891V4.67C68.6891 3.43 67.8591 2.61 66.6091 2.61ZM75.3257 5.29C75.3257 3.68 74.3257 2.61 72.8357 2.61C71.3257 2.61 70.3257 3.71 70.3257 5.35C70.3257 7 71.3457 8.1 72.8557 8.1C73.7957 8.1 74.6057 7.69 75.1157 6.93L74.5657 6.62C74.1557 7.17 73.5657 7.52 72.8557 7.52C71.8057 7.52 71.1857 6.77 71.0957 5.62H75.3157C75.3257 5.54 75.3257 5.38 75.3257 5.29ZM72.8357 3.19C73.8557 3.19 74.5157 3.93 74.5757 5.11H71.0957C71.1657 3.93 71.8157 3.19 72.8357 3.19ZM79.5939 2.61C78.6739 2.61 78.0339 2.98 77.6839 3.6L77.6739 2.71H76.9739V8H77.6939V4.81C77.6939 3.86 78.3639 3.24 79.3739 3.24C80.3739 3.24 81.0439 3.86 81.0439 4.81V8H81.7639V4.67C81.7639 3.43 80.8939 2.61 79.5939 2.61ZM85.5732 7.48C85.0232 7.48 84.6432 7.08 84.6432 6.5V3.31H86.5532V2.71H84.6432V1.16H83.9232V2.71H83.0032V3.31H83.9232V6.64C83.9232 7.51 84.5032 8.1 85.3532 8.1C85.8532 8.1 86.2832 8.03 86.6332 7.88V7.29C86.2932 7.42 85.9432 7.48 85.5732 7.48ZM89.4892 8.1C90.7092 8.1 91.4792 7.49 91.4792 6.57C91.4792 5.7 90.7492 5.3 89.9492 5.08L89.3792 4.91C88.8092 4.75 88.3992 4.53 88.3992 4.04C88.3992 3.52 88.8692 3.19 89.5692 3.19C90.0792 3.19 90.5592 3.3 91.0092 3.58L91.3192 3.09C90.8092 2.76 90.2292 2.61 89.5192 2.61C88.3992 2.61 87.6592 3.22 87.6592 4.15C87.6592 4.94 88.2292 5.27 89.0592 5.5L89.6292 5.67C90.2692 5.85 90.7392 6.13 90.7392 6.63C90.7392 7.17 90.2392 7.52 89.4892 7.52C88.9392 7.52 88.4092 7.41 87.9692 7.09L87.6692 7.54C88.0792 7.91 88.7392 8.1 89.4892 8.1Z" fill="#211F42"/>
</svg>
