<svg width="61" height="58" viewBox="0 0 61 58" fill="none" xmlns="http://www.w3.org/2000/svg">
<path d="M28.0295 24.174C28.8989 24.174 29.6045 24.8787 29.6045 25.749V28.8972C29.6045 29.3149 29.4386 29.7156 29.1432 30.0109C28.8478 30.3063 28.4472 30.4722 28.0295 30.4722H23.075C22.6573 30.4722 22.2567 30.3063 21.9613 30.0109C21.6659 29.7156 21.5 29.3149 21.5 28.8972V25.749C21.5 24.8787 22.2056 24.174 23.075 24.174H28.0295ZM37.925 24.174C38.7944 24.174 39.5 24.8787 39.5 25.749V28.8972C39.5 29.3149 39.3341 29.7156 39.0387 30.0109C38.7433 30.3063 38.3427 30.4722 37.925 30.4722H32.9705C32.5528 30.4722 32.1522 30.3063 31.8568 30.0109C31.5614 29.7156 31.3955 29.3149 31.3955 28.8972V25.749C31.3955 24.8787 32.1011 24.174 32.9705 24.174H37.925ZM28.0295 25.524H23.075C23.0153 25.524 22.9581 25.5477 22.9159 25.5899C22.8737 25.6321 22.85 25.6894 22.85 25.749V28.8972C22.85 29.0223 22.9508 29.1222 23.075 29.1222H28.0295C28.0892 29.1222 28.1464 29.0985 28.1886 29.0563C28.2308 29.0141 28.2545 28.9569 28.2545 28.8972V25.749C28.2545 25.6894 28.2308 25.6321 28.1886 25.5899C28.1464 25.5477 28.0892 25.524 28.0295 25.524ZM37.925 25.524H32.9705C32.9108 25.524 32.8536 25.5477 32.8114 25.5899C32.7692 25.6321 32.7455 25.6894 32.7455 25.749V28.8972C32.7455 29.0223 32.8463 29.1222 32.9705 29.1222H37.925C37.9847 29.1222 38.0419 29.0985 38.0841 29.0563C38.1263 29.0141 38.15 28.9569 38.15 28.8972V25.749C38.15 25.6894 38.1263 25.6321 38.0841 25.5899C38.0419 25.5477 37.9847 25.524 37.925 25.524ZM37.925 14.2695C38.7944 14.2695 39.5 14.9751 39.5 15.8445V20.7945C39.5 21.2122 39.3341 21.6129 39.0387 21.9082C38.7433 22.2036 38.3427 22.3695 37.925 22.3695H23.075C22.6573 22.3695 22.2567 22.2036 21.9613 21.9082C21.6659 21.6129 21.5 21.2122 21.5 20.7945V15.8445C21.5 15.4493 21.6487 15.0684 21.9164 14.7777C22.1842 14.4869 22.5515 14.3075 22.9454 14.2749L23.075 14.2695H37.925ZM37.925 15.6195H23.075L23.0237 15.6258C22.9743 15.6374 22.9303 15.6653 22.8988 15.705C22.8673 15.7447 22.8501 15.7938 22.85 15.8445V20.7945C22.85 20.9187 22.9508 21.0195 23.075 21.0195H37.925C37.9847 21.0195 38.0419 20.9958 38.0841 20.9536C38.1263 20.9114 38.15 20.8542 38.15 20.7945V15.8445C38.15 15.7849 38.1263 15.7276 38.0841 15.6854C38.0419 15.6432 37.9847 15.6195 37.925 15.6195Z" fill="#51AF4E"/>
<path fill-rule="evenodd" clip-rule="evenodd" d="M23.075 14.0195H37.925C38.9325 14.0195 39.75 14.8371 39.75 15.8445V20.7945C39.75 21.2786 39.5577 21.7427 39.2155 22.085C38.8732 22.4273 38.409 22.6195 37.925 22.6195H23.075C22.591 22.6195 22.1268 22.4273 21.7845 22.085C21.4423 21.7427 21.25 21.2786 21.25 20.7945V15.8445C21.25 15.3865 21.4222 14.9452 21.7325 14.6083C22.0428 14.2714 22.4684 14.0635 22.9248 14.0258L22.935 14.0249L23.075 14.0195ZM23.0802 14.5195L22.9611 14.5245C22.6316 14.5529 22.3245 14.7036 22.1003 14.947C21.8751 15.1916 21.75 15.512 21.75 15.8445C21.75 15.8445 21.75 15.8445 21.75 15.8445V20.7945C21.75 21.1459 21.8896 21.483 22.1381 21.7314C22.3866 21.9799 22.7236 22.1195 23.075 22.1195H37.925C38.2764 22.1195 38.6134 21.9799 38.8619 21.7314C39.1104 21.483 39.25 21.1459 39.25 20.7945V15.8445C39.25 15.1132 38.6563 14.5195 37.925 14.5195H23.0802ZM23.0597 15.3695H37.925C38.051 15.3695 38.1718 15.4196 38.2609 15.5087C38.35 15.5977 38.4 15.7186 38.4 15.8445V20.7945C38.4 20.9205 38.35 21.0413 38.2609 21.1304C38.1718 21.2195 38.051 21.2695 37.925 21.2695H23.075C22.8127 21.2695 22.6 21.0568 22.6 20.7945V15.8445C22.6002 15.7375 22.6365 15.6333 22.703 15.5495C22.7696 15.4657 22.8625 15.4068 22.9667 15.3824L22.9798 15.3793L23.0597 15.3695ZM23.1 15.8695V20.7695H37.9V15.8695H23.1ZM23.075 24.424C22.3436 24.424 21.75 25.0169 21.75 25.749V28.8972C21.75 29.2486 21.8896 29.5857 22.1381 29.8341C22.3866 30.0826 22.7236 30.2222 23.075 30.2222H28.0295C28.3809 30.2222 28.7179 30.0826 28.9664 29.8341C29.2149 29.5857 29.3545 29.2486 29.3545 28.8972V25.749C29.3545 25.0169 28.7609 24.424 28.0295 24.424H23.075ZM21.25 25.749C21.25 24.7406 22.0676 23.924 23.075 23.924H28.0295C29.0369 23.924 29.8545 24.7406 29.8545 25.749V28.8972C29.8545 29.3813 29.6622 29.8454 29.32 30.1877C28.9777 30.53 28.5135 30.7222 28.0295 30.7222H23.075C22.591 30.7222 22.1268 30.53 21.7845 30.1877C21.4423 29.8454 21.25 29.3813 21.25 28.8972V25.749ZM32.9705 24.424C32.2391 24.424 31.6455 25.0169 31.6455 25.749V28.8972C31.6455 29.2486 31.7851 29.5857 32.0336 29.8341C32.2821 30.0826 32.6191 30.2222 32.9705 30.2222H37.925C38.2764 30.2222 38.6134 30.0826 38.8619 29.8341C39.1104 29.5857 39.25 29.2486 39.25 28.8972V25.749C39.25 25.0169 38.6564 24.424 37.925 24.424H32.9705ZM31.1455 25.749C31.1455 24.7406 31.9631 23.924 32.9705 23.924H37.925C38.9324 23.924 39.75 24.7406 39.75 25.749V28.8972C39.75 29.3813 39.5577 29.8454 39.2155 30.1877C38.8732 30.53 38.409 30.7222 37.925 30.7222H32.9705C32.4865 30.7222 32.0223 30.53 31.68 30.1877C31.3378 29.8454 31.1455 29.3813 31.1455 28.8972V25.749ZM22.7391 25.4132C22.8282 25.3241 22.949 25.274 23.075 25.274H28.0295C28.1555 25.274 28.2763 25.3241 28.3654 25.4132C28.4545 25.5022 28.5045 25.6231 28.5045 25.749V28.8972C28.5045 29.0232 28.4545 29.144 28.3654 29.2331C28.2763 29.3222 28.1555 29.3722 28.0295 29.3722H23.075C22.8134 29.3722 22.6 29.1611 22.6 28.8972V25.749C22.6 25.6231 22.65 25.5022 22.7391 25.4132ZM23.1 25.774V28.8722H28.0045V25.774H23.1ZM32.6346 25.4132C32.7237 25.3241 32.8445 25.274 32.9705 25.274H37.925C38.051 25.274 38.1718 25.3241 38.2609 25.4132C38.35 25.5022 38.4 25.6231 38.4 25.749V28.8972C38.4 29.0232 38.35 29.144 38.2609 29.2331C38.1718 29.3222 38.051 29.3722 37.925 29.3722H32.9705C32.7089 29.3722 32.4955 29.1611 32.4955 28.8972V25.749C32.4955 25.6231 32.5455 25.5022 32.6346 25.4132ZM32.9955 25.774V28.8722H37.9V25.774H32.9955Z" fill="#51AF4E"/>
<path d="M12.3957 45.2011H16.0957V46.3711H10.9857V38.9711H16.0157V40.1411H12.3957V42.0411H15.6957V43.2011H12.3957V45.2011ZM22.7996 46.3711H21.1796L19.9296 44.6011L18.6796 46.3711H17.0596L19.1196 43.6111L17.1796 40.9811H18.7996L19.9296 42.6111L21.0596 40.9811H22.6796L20.7396 43.6111L22.7996 46.3711ZM27.0796 40.8811C28.5296 40.8811 29.6596 41.9811 29.6596 43.6511C29.6596 45.3411 28.5296 46.4711 27.0796 46.4711C26.2596 46.4711 25.6696 46.1411 25.2896 45.5911V48.5711H23.9296V40.9811H25.2396L25.2696 41.7911C25.6496 41.2211 26.2496 40.8811 27.0796 40.8811ZM26.7696 45.3011C27.6496 45.3011 28.2496 44.6511 28.2496 43.6611C28.2496 42.6911 27.6496 42.0411 26.7696 42.0411C25.8796 42.0411 25.2896 42.6911 25.2896 43.6711C25.2896 44.6511 25.8796 45.3011 26.7696 45.3011ZM31.1365 46.3711V38.5711H32.4965V46.3711H31.1365ZM36.8702 46.4711C35.1402 46.4711 33.9802 45.3511 33.9802 43.6711C33.9802 42.0011 35.1402 40.8811 36.8702 40.8811C38.5902 40.8811 39.7502 42.0011 39.7502 43.6711C39.7502 45.3511 38.5902 46.4711 36.8702 46.4711ZM36.8702 45.3011C37.7502 45.3011 38.3402 44.6511 38.3402 43.6711C38.3402 42.6911 37.7502 42.0411 36.8702 42.0411C35.9802 42.0411 35.3902 42.6911 35.3902 43.6711C35.3902 44.6511 35.9802 45.3011 36.8702 45.3011ZM42.5534 41.7011C42.9834 41.1711 43.6634 40.8811 44.5334 40.8811L44.4434 42.1311C43.3234 42.1311 42.5834 42.6711 42.5834 43.4811V46.3711H41.2234V40.9811H42.5334L42.5534 41.7011ZM50.5413 43.5911C50.5413 43.7811 50.5213 44.0011 50.5013 44.1611H46.6013C46.7013 44.9211 47.1013 45.4011 47.8913 45.4011C48.4413 45.4011 48.8913 45.1511 49.2113 44.7611L50.2613 45.2911C49.7813 46.0111 48.9313 46.4711 47.9113 46.4711C46.2613 46.4711 45.1613 45.3711 45.1613 43.7111C45.1613 42.0111 46.2313 40.8811 47.8513 40.8811C49.4613 40.8811 50.5413 41.9611 50.5413 43.5911ZM47.8513 41.9511C47.1313 41.9511 46.7113 42.4211 46.6013 43.2411H49.1113C49.0113 42.4211 48.5813 41.9511 47.8513 41.9511Z" fill="#211F42"/>
</svg>
