<svg width="59" height="58" viewBox="0 0 59 58" fill="none" xmlns="http://www.w3.org/2000/svg">
<g opacity="0.5">
<path d="M27.0295 24.0061C27.8989 24.0061 28.6045 24.7108 28.6045 25.5811V28.7293C28.6045 29.147 28.4386 29.5476 28.1432 29.843C27.8478 30.1383 27.4472 30.3043 27.0295 30.3043H22.075C21.6573 30.3043 21.2567 30.1383 20.9613 29.843C20.6659 29.5476 20.5 29.147 20.5 28.7293V25.5811C20.5 24.7108 21.2056 24.0061 22.075 24.0061H27.0295ZM36.925 24.0061C37.7944 24.0061 38.5 24.7108 38.5 25.5811V28.7293C38.5 29.147 38.3341 29.5476 38.0387 29.843C37.7433 30.1383 37.3427 30.3043 36.925 30.3043H31.9705C31.5528 30.3043 31.1522 30.1383 30.8568 29.843C30.5614 29.5476 30.3955 29.147 30.3955 28.7293V25.5811C30.3955 24.7108 31.1011 24.0061 31.9705 24.0061H36.925ZM27.0295 25.3561H22.075C22.0153 25.3561 21.9581 25.3798 21.9159 25.422C21.8737 25.4642 21.85 25.5214 21.85 25.5811V28.7293C21.85 28.8544 21.9508 28.9543 22.075 28.9543H27.0295C27.0892 28.9543 27.1464 28.9306 27.1886 28.8884C27.2308 28.8462 27.2545 28.7889 27.2545 28.7293V25.5811C27.2545 25.5214 27.2308 25.4642 27.1886 25.422C27.1464 25.3798 27.0892 25.3561 27.0295 25.3561ZM36.925 25.3561H31.9705C31.9108 25.3561 31.8536 25.3798 31.8114 25.422C31.7692 25.4642 31.7455 25.5214 31.7455 25.5811V28.7293C31.7455 28.8544 31.8463 28.9543 31.9705 28.9543H36.925C36.9847 28.9543 37.0419 28.9306 37.0841 28.8884C37.1263 28.8462 37.15 28.7889 37.15 28.7293V25.5811C37.15 25.5214 37.1263 25.4642 37.0841 25.422C37.0419 25.3798 36.9847 25.3561 36.925 25.3561ZM36.925 14.1016C37.7944 14.1016 38.5 14.8072 38.5 15.6766V20.6266C38.5 21.0443 38.3341 21.4449 38.0387 21.7403C37.7433 22.0356 37.3427 22.2016 36.925 22.2016H22.075C21.6573 22.2016 21.2567 22.0356 20.9613 21.7403C20.6659 21.4449 20.5 21.0443 20.5 20.6266V15.6766C20.5 15.2813 20.6487 14.9005 20.9164 14.6097C21.1842 14.3189 21.5515 14.1395 21.9454 14.107L22.075 14.1016H36.925ZM36.925 15.4516H22.075L22.0237 15.4579C21.9743 15.4694 21.9303 15.4973 21.8988 15.537C21.8673 15.5767 21.8501 15.6259 21.85 15.6766V20.6266C21.85 20.7508 21.9508 20.8516 22.075 20.8516H36.925C36.9847 20.8516 37.0419 20.8279 37.0841 20.7857C37.1263 20.7435 37.15 20.6862 37.15 20.6266V15.6766C37.15 15.6169 37.1263 15.5597 37.0841 15.5175C37.0419 15.4753 36.9847 15.4516 36.925 15.4516Z" fill="#51AF4E"/>
<path fill-rule="evenodd" clip-rule="evenodd" d="M22.075 13.8516H36.925C37.9325 13.8516 38.75 14.6691 38.75 15.6766V20.6266C38.75 21.1106 38.5577 21.5748 38.2155 21.917C37.8732 22.2593 37.409 22.4516 36.925 22.4516H22.075C21.591 22.4516 21.1268 22.2593 20.7845 21.917C20.4423 21.5748 20.25 21.1106 20.25 20.6266V15.6766C20.25 15.2186 20.4222 14.7773 20.7325 14.4404C21.0428 14.1034 21.4684 13.8955 21.9248 13.8578L21.935 13.857L22.075 13.8516ZM22.0802 14.3516L21.9611 14.3565C21.6316 14.385 21.3245 14.5356 21.1003 14.7791C20.8751 15.0237 20.75 15.344 20.75 15.6766C20.75 15.6766 20.75 15.6766 20.75 15.6766V20.6266C20.75 20.978 20.8896 21.315 21.1381 21.5635C21.3866 21.812 21.7236 21.9516 22.075 21.9516H36.925C37.2764 21.9516 37.6134 21.812 37.8619 21.5635C38.1104 21.315 38.25 20.978 38.25 20.6266V15.6766C38.25 14.9452 37.6563 14.3516 36.925 14.3516H22.0802ZM22.0597 15.2016H36.925C37.051 15.2016 37.1718 15.2516 37.2609 15.3407C37.35 15.4298 37.4 15.5506 37.4 15.6766V20.6266C37.4 20.7525 37.35 20.8734 37.2609 20.9624C37.1718 21.0515 37.051 21.1016 36.925 21.1016H22.075C21.8127 21.1016 21.6 20.8888 21.6 20.6266V15.6766C21.6002 15.5695 21.6365 15.4653 21.703 15.3815C21.7696 15.2977 21.8625 15.2388 21.9667 15.2144L21.9798 15.2114L22.0597 15.2016ZM22.1 15.7016V20.6016H36.9V15.7016H22.1ZM22.075 24.2561C21.3436 24.2561 20.75 24.8489 20.75 25.5811V28.7293C20.75 29.0807 20.8896 29.4177 21.1381 29.6662C21.3866 29.9147 21.7236 30.0543 22.075 30.0543H27.0295C27.3809 30.0543 27.7179 29.9147 27.9664 29.6662C28.2149 29.4177 28.3545 29.0807 28.3545 28.7293V25.5811C28.3545 24.8489 27.7609 24.2561 27.0295 24.2561H22.075ZM20.25 25.5811C20.25 24.5726 21.0676 23.7561 22.075 23.7561H27.0295C28.0369 23.7561 28.8545 24.5726 28.8545 25.5811V28.7293C28.8545 29.2133 28.6622 29.6775 28.32 30.0197C27.9777 30.362 27.5135 30.5543 27.0295 30.5543H22.075C21.591 30.5543 21.1268 30.362 20.7845 30.0197C20.4423 29.6775 20.25 29.2133 20.25 28.7293V25.5811ZM31.9705 24.2561C31.2391 24.2561 30.6455 24.8489 30.6455 25.5811V28.7293C30.6455 29.0807 30.7851 29.4177 31.0336 29.6662C31.2821 29.9147 31.6191 30.0543 31.9705 30.0543H36.925C37.2764 30.0543 37.6134 29.9147 37.8619 29.6662C38.1104 29.4177 38.25 29.0807 38.25 28.7293V25.5811C38.25 24.8489 37.6564 24.2561 36.925 24.2561H31.9705ZM30.1455 25.5811C30.1455 24.5726 30.9631 23.7561 31.9705 23.7561H36.925C37.9324 23.7561 38.75 24.5726 38.75 25.5811V28.7293C38.75 29.2133 38.5577 29.6775 38.2155 30.0197C37.8732 30.362 37.409 30.5543 36.925 30.5543H31.9705C31.4865 30.5543 31.0223 30.362 30.68 30.0197C30.3378 29.6775 30.1455 29.2133 30.1455 28.7293V25.5811ZM21.7391 25.2452C21.8282 25.1561 21.949 25.1061 22.075 25.1061H27.0295C27.1555 25.1061 27.2763 25.1561 27.3654 25.2452C27.4545 25.3343 27.5045 25.4551 27.5045 25.5811V28.7293C27.5045 28.8552 27.4545 28.9761 27.3654 29.0651C27.2763 29.1542 27.1555 29.2043 27.0295 29.2043H22.075C21.8134 29.2043 21.6 28.9931 21.6 28.7293V25.5811C21.6 25.4551 21.65 25.3343 21.7391 25.2452ZM22.1 25.6061V28.7043H27.0045V25.6061H22.1ZM31.6346 25.2452C31.7237 25.1561 31.8445 25.1061 31.9705 25.1061H36.925C37.051 25.1061 37.1718 25.1561 37.2609 25.2452C37.35 25.3343 37.4 25.4551 37.4 25.5811V28.7293C37.4 28.8552 37.35 28.9761 37.2609 29.0651C37.1718 29.1542 37.051 29.2043 36.925 29.2043H31.9705C31.7089 29.2043 31.4955 28.9931 31.4955 28.7293V25.5811C31.4955 25.4551 31.5455 25.3343 31.6346 25.2452ZM31.9955 25.6061V28.7043H36.9V25.6061H31.9955Z" fill="#51AF4E"/>
<path d="M11.8913 45.5731H15.7813V46.2031H11.1313V38.8031H15.6913V39.4331H11.8913V42.1131H15.4413V42.7431H11.8913V45.5731ZM22.0913 46.2031H21.2113L19.4913 43.9831L17.7813 46.2031H16.9013L19.0513 43.4931L17.0213 40.9131H17.8913L19.4913 43.0031L21.0913 40.9131H21.9613L19.9313 43.4931L22.0913 46.2031ZM26.2607 40.8131C27.7407 40.8131 28.7907 41.9031 28.7907 43.5431C28.7907 45.2031 27.7407 46.3031 26.2607 46.3031C25.2107 46.3031 24.5107 45.8131 24.1507 45.0631V48.4031H23.4307V40.9131H24.1307L24.1507 42.0531C24.5107 41.3031 25.2107 40.8131 26.2607 40.8131ZM26.0907 45.6831C27.2607 45.6831 28.0407 44.8331 28.0407 43.5531C28.0407 42.2831 27.2607 41.4431 26.0907 41.4431C24.9307 41.4431 24.1507 42.2831 24.1507 43.5631C24.1507 44.8331 24.9307 45.6831 26.0907 45.6831ZM30.5109 46.2031V38.4031H31.2309V46.2031H30.5109ZM35.663 46.3031C34.043 46.3031 32.953 45.2031 32.953 43.5631C32.953 41.9131 34.043 40.8131 35.663 40.8131C37.273 40.8131 38.353 41.9131 38.353 43.5631C38.353 45.2031 37.273 46.3031 35.663 46.3031ZM35.663 45.6831C36.823 45.6831 37.593 44.8331 37.593 43.5631C37.593 42.2831 36.823 41.4431 35.663 41.4431C34.493 41.4431 33.713 42.2831 33.713 43.5631C33.713 44.8331 34.493 45.6831 35.663 45.6831ZM40.7509 41.8031C41.1309 41.1431 41.8409 40.8131 42.8509 40.8131L42.7909 41.4731C41.5009 41.4731 40.7609 42.1231 40.7609 43.1331V46.2031H40.0409V40.9131H40.7409L40.7509 41.8031ZM48.4505 43.4931C48.4505 43.5831 48.4505 43.7431 48.4405 43.8231H44.2205C44.3105 44.9731 44.9305 45.7231 45.9805 45.7231C46.6905 45.7231 47.2805 45.3731 47.6905 44.8231L48.2405 45.1331C47.7305 45.8931 46.9205 46.3031 45.9805 46.3031C44.4705 46.3031 43.4505 45.2031 43.4505 43.5531C43.4505 41.9131 44.4505 40.8131 45.9605 40.8131C47.4505 40.8131 48.4505 41.8831 48.4505 43.4931ZM45.9605 41.3931C44.9405 41.3931 44.2905 42.1331 44.2205 43.3131H47.7005C47.6405 42.1331 46.9805 41.3931 45.9605 41.3931Z" fill="#211F42"/>
</g>
</svg>
