<svg width="46" height="58" viewBox="0 0 46 58" fill="none" xmlns="http://www.w3.org/2000/svg">
<path d="M20.5295 24.2111C21.3989 24.2111 22.1045 24.9158 22.1045 25.7861V28.9343C22.1045 29.3521 21.9386 29.7527 21.6432 30.048C21.3478 30.3434 20.9472 30.5093 20.5295 30.5093H15.575C15.1573 30.5093 14.7567 30.3434 14.4613 30.048C14.1659 29.7527 14 29.3521 14 28.9343V25.7861C14 24.9158 14.7056 24.2111 15.575 24.2111H20.5295ZM30.425 24.2111C31.2944 24.2111 32 24.9158 32 25.7861V28.9343C32 29.3521 31.8341 29.7527 31.5387 30.048C31.2433 30.3434 30.8427 30.5093 30.425 30.5093H25.4705C25.0528 30.5093 24.6522 30.3434 24.3568 30.048C24.0614 29.7527 23.8955 29.3521 23.8955 28.9343V25.7861C23.8955 24.9158 24.6011 24.2111 25.4705 24.2111H30.425ZM20.5295 25.5611H15.575C15.5153 25.5611 15.4581 25.5848 15.4159 25.627C15.3737 25.6692 15.35 25.7265 15.35 25.7861V28.9343C15.35 29.0594 15.4508 29.1593 15.575 29.1593H20.5295C20.5892 29.1593 20.6464 29.1356 20.6886 29.0934C20.7308 29.0512 20.7545 28.994 20.7545 28.9343V25.7861C20.7545 25.7265 20.7308 25.6692 20.6886 25.627C20.6464 25.5848 20.5892 25.5611 20.5295 25.5611ZM30.425 25.5611H25.4705C25.4108 25.5611 25.3536 25.5848 25.3114 25.627C25.2692 25.6692 25.2455 25.7265 25.2455 25.7861V28.9343C25.2455 29.0594 25.3463 29.1593 25.4705 29.1593H30.425C30.4847 29.1593 30.5419 29.1356 30.5841 29.0934C30.6263 29.0512 30.65 28.994 30.65 28.9343V25.7861C30.65 25.7265 30.6263 25.6692 30.5841 25.627C30.5419 25.5848 30.4847 25.5611 30.425 25.5611ZM30.425 14.3066C31.2944 14.3066 32 15.0122 32 15.8816V20.8316C32 21.2494 31.8341 21.65 31.5387 21.9453C31.2433 22.2407 30.8427 22.4066 30.425 22.4066H15.575C15.1573 22.4066 14.7567 22.2407 14.4613 21.9453C14.1659 21.65 14 21.2494 14 20.8316V15.8816C14 15.4864 14.1487 15.1056 14.4164 14.8148C14.6842 14.524 15.0515 14.3446 15.4454 14.312L15.575 14.3066H30.425ZM30.425 15.6566H15.575L15.5237 15.6629C15.4743 15.6745 15.4303 15.7024 15.3988 15.7421C15.3673 15.7818 15.3501 15.8309 15.35 15.8816V20.8316C15.35 20.9558 15.4508 21.0566 15.575 21.0566H30.425C30.4847 21.0566 30.5419 21.0329 30.5841 20.9907C30.6263 20.9485 30.65 20.8913 30.65 20.8316V15.8816C30.65 15.822 30.6263 15.7647 30.5841 15.7225C30.5419 15.6803 30.4847 15.6566 30.425 15.6566Z" fill="#51AF4E"/>
<path fill-rule="evenodd" clip-rule="evenodd" d="M15.575 14.0566H30.425C31.4325 14.0566 32.25 14.8742 32.25 15.8816V20.8316C32.25 21.3157 32.0577 21.7799 31.7155 22.1221C31.3732 22.4644 30.909 22.6566 30.425 22.6566H15.575C15.091 22.6566 14.6268 22.4644 14.2845 22.1221C13.9423 21.7799 13.75 21.3157 13.75 20.8316V15.8816C13.75 15.4236 13.9222 14.9824 14.2325 14.6454C14.5428 14.3085 14.9684 14.1006 15.4248 14.0629L15.435 14.062L15.575 14.0566ZM15.5802 14.5566L15.4611 14.5616C15.1316 14.59 14.8245 14.7407 14.6003 14.9841C14.3751 15.2287 14.25 15.5491 14.25 15.8816C14.25 15.8816 14.25 15.8816 14.25 15.8816V20.8316C14.25 21.1831 14.3896 21.5201 14.6381 21.7686C14.8866 22.017 15.2236 22.1566 15.575 22.1566H30.425C30.7764 22.1566 31.1134 22.017 31.3619 21.7686C31.6104 21.5201 31.75 21.1831 31.75 20.8316V15.8816C31.75 15.1503 31.1563 14.5566 30.425 14.5566H15.5802ZM15.5597 15.4066H30.425C30.551 15.4066 30.6718 15.4567 30.7609 15.5458C30.85 15.6348 30.9 15.7557 30.9 15.8816V20.8316C30.9 20.9576 30.85 21.0784 30.7609 21.1675C30.6718 21.2566 30.551 21.3066 30.425 21.3066H15.575C15.3127 21.3066 15.1 21.0939 15.1 20.8316V15.8816C15.1002 15.7746 15.1365 15.6704 15.203 15.5866C15.2696 15.5028 15.3625 15.4439 15.4667 15.4195L15.4798 15.4164L15.5597 15.4066ZM15.6 15.9066V20.8066H30.4V15.9066H15.6ZM15.575 24.4611C14.8436 24.4611 14.25 25.054 14.25 25.7861V28.9343C14.25 29.2858 14.3896 29.6228 14.6381 29.8713C14.8866 30.1197 15.2236 30.2593 15.575 30.2593H20.5295C20.8809 30.2593 21.2179 30.1197 21.4664 29.8713C21.7149 29.6228 21.8545 29.2858 21.8545 28.9343V25.7861C21.8545 25.054 21.2609 24.4611 20.5295 24.4611H15.575ZM13.75 25.7861C13.75 24.7777 14.5676 23.9611 15.575 23.9611H20.5295C21.5369 23.9611 22.3545 24.7777 22.3545 25.7861V28.9343C22.3545 29.4184 22.1622 29.8826 21.82 30.2248C21.4777 30.5671 21.0135 30.7593 20.5295 30.7593H15.575C15.091 30.7593 14.6268 30.5671 14.2845 30.2248C13.9423 29.8826 13.75 29.4184 13.75 28.9343V25.7861ZM25.4705 24.4611C24.7391 24.4611 24.1455 25.054 24.1455 25.7861V28.9343C24.1455 29.2858 24.2851 29.6228 24.5336 29.8713C24.7821 30.1197 25.1191 30.2593 25.4705 30.2593H30.425C30.7764 30.2593 31.1134 30.1197 31.3619 29.8713C31.6104 29.6228 31.75 29.2858 31.75 28.9343V25.7861C31.75 25.054 31.1564 24.4611 30.425 24.4611H25.4705ZM23.6455 25.7861C23.6455 24.7777 24.4631 23.9611 25.4705 23.9611H30.425C31.4324 23.9611 32.25 24.7777 32.25 25.7861V28.9343C32.25 29.4184 32.0577 29.8826 31.7155 30.2248C31.3732 30.5671 30.909 30.7593 30.425 30.7593H25.4705C24.9865 30.7593 24.5223 30.5671 24.18 30.2248C23.8378 29.8826 23.6455 29.4184 23.6455 28.9343V25.7861ZM15.2391 25.4503C15.3282 25.3612 15.449 25.3111 15.575 25.3111H20.5295C20.6555 25.3111 20.7763 25.3612 20.8654 25.4503C20.9545 25.5393 21.0045 25.6602 21.0045 25.7861V28.9343C21.0045 29.0603 20.9545 29.1811 20.8654 29.2702C20.7763 29.3593 20.6555 29.4093 20.5295 29.4093H15.575C15.3134 29.4093 15.1 29.1982 15.1 28.9343V25.7861C15.1 25.6602 15.15 25.5393 15.2391 25.4503ZM15.6 25.8111V28.9093H20.5045V25.8111H15.6ZM25.1346 25.4503C25.2237 25.3612 25.3445 25.3111 25.4705 25.3111H30.425C30.551 25.3111 30.6718 25.3612 30.7609 25.4503C30.85 25.5393 30.9 25.6602 30.9 25.7861V28.9343C30.9 29.0603 30.85 29.1811 30.7609 29.2702C30.6718 29.3593 30.551 29.4093 30.425 29.4093H25.4705C25.2089 29.4093 24.9955 29.1982 24.9955 28.9343V25.7861C24.9955 25.6602 25.0455 25.5393 25.1346 25.4503ZM25.4955 25.8111V28.9093H30.4V25.8111H25.4955Z" fill="#51AF4E"/>
<path d="M15.6173 39.6382V39.0082H11.4373V46.4082H12.1973V43.1482H15.2473V42.5182H12.1973V39.6382H15.6173ZM21.7761 43.6982C21.7761 42.0882 20.7761 41.0182 19.2861 41.0182C17.7761 41.0182 16.7761 42.1182 16.7761 43.7582C16.7761 45.4082 17.7961 46.5082 19.3061 46.5082C20.2461 46.5082 21.0561 46.0982 21.5661 45.3382L21.0161 45.0282C20.6061 45.5782 20.0161 45.9282 19.3061 45.9282C18.2561 45.9282 17.6361 45.1782 17.5461 44.0282H21.7661C21.7761 43.9482 21.7761 43.7882 21.7761 43.6982ZM19.2861 41.5982C20.3061 41.5982 20.9661 42.3382 21.0261 43.5182H17.5461C17.6161 42.3382 18.2661 41.5982 19.2861 41.5982ZM28.0843 43.6982C28.0843 42.0882 27.0843 41.0182 25.5943 41.0182C24.0843 41.0182 23.0843 42.1182 23.0843 43.7582C23.0843 45.4082 24.1043 46.5082 25.6143 46.5082C26.5543 46.5082 27.3643 46.0982 27.8743 45.3382L27.3243 45.0282C26.9143 45.5782 26.3243 45.9282 25.6143 45.9282C24.5643 45.9282 23.9443 45.1782 23.8543 44.0282H28.0743C28.0843 43.9482 28.0843 43.7882 28.0843 43.6982ZM25.5943 41.5982C26.6143 41.5982 27.2743 42.3382 27.3343 43.5182H23.8543C23.9243 42.3382 24.5743 41.5982 25.5943 41.5982ZM34.0325 38.6082V42.2582C33.6725 41.5082 32.9725 41.0182 31.9225 41.0182C30.4425 41.0182 29.3825 42.1282 29.3825 43.7782C29.3825 45.4182 30.4425 46.5082 31.9225 46.5082C32.9725 46.5082 33.6725 46.0182 34.0325 45.2682L34.0525 46.4082H34.7525V38.6082H34.0325ZM32.0925 45.8882C30.9225 45.8882 30.1425 45.0382 30.1425 43.7782C30.1425 42.4982 30.9225 41.6482 32.0925 41.6482C33.2525 41.6482 34.0325 42.4982 34.0325 43.7682C34.0325 45.0382 33.2525 45.8882 32.0925 45.8882Z" fill="#211F42"/>
</svg>
