<svg width="60" height="58" viewBox="0 0 60 58" fill="none" xmlns="http://www.w3.org/2000/svg">
<path d="M26.6 21.3438H21.6C21.0477 21.3438 20.6 21.7915 20.6 22.3437V30.3438H26.6V21.3438Z" fill="#FBFBFB" stroke="#51AF4E" stroke-width="2" stroke-linecap="round" stroke-linejoin="round"/>
<path d="M37.6 18.3438H32.6V30.3438H38.6V19.3438C38.6 18.7915 38.1523 18.3438 37.6 18.3438Z" fill="#FBFBFB" stroke="#51AF4E" stroke-width="2" stroke-linecap="round" stroke-linejoin="round"/>
<path d="M31.6 14.3438H27.6C27.0477 14.3438 26.6 14.7915 26.6 15.3438V30.3438H32.6V15.3438C32.6 14.7915 32.1523 14.3438 31.6 14.3438Z" fill="#FBFBFB" stroke="#51AF4E" stroke-width="2" stroke-linecap="round" stroke-linejoin="round"/>
<path d="M16.4025 38.9437H17.8125V46.3438H16.4025V43.1537H12.4425V46.3438H11.0325V38.9437H12.4425V41.9937H16.4025V38.9437ZM20.4677 40.0737C19.9977 40.0737 19.6577 39.7437 19.6577 39.2737C19.6577 38.8037 19.9977 38.4637 20.4677 38.4637C20.9377 38.4637 21.2677 38.8037 21.2677 39.2737C21.2677 39.7437 20.9377 40.0737 20.4677 40.0737ZM19.7877 46.3438V40.9537H21.1477V46.3438H19.7877ZM24.7216 46.4438C23.9016 46.4438 23.1716 46.2337 22.6816 45.8037L23.1916 44.9837C23.7016 45.2837 24.2116 45.3837 24.7416 45.3837C25.2416 45.3837 25.5816 45.1737 25.5816 44.8437C25.5816 44.5137 25.2016 44.3337 24.6616 44.1937L24.2116 44.0737C23.3016 43.8337 22.6816 43.4837 22.6816 42.6337C22.6816 41.5637 23.5216 40.8537 24.8016 40.8537C25.6116 40.8537 26.3016 41.0237 26.8316 41.3837L26.2616 42.2737C25.8316 42.0337 25.3716 41.9237 24.8916 41.9237C24.4016 41.9237 24.0616 42.1037 24.0616 42.4137C24.0616 42.7337 24.4016 42.8837 24.8716 43.0037L25.3216 43.1337C26.2416 43.3737 26.9716 43.7937 26.9716 44.7437C26.9716 45.7637 26.0716 46.4438 24.7216 46.4438ZM30.9093 45.2737C31.2193 45.2737 31.5293 45.2237 31.8393 45.0938V46.1937C31.4293 46.3638 30.9493 46.4438 30.4693 46.4438C29.4793 46.4438 28.8093 45.7637 28.8093 44.7437V42.0637H27.9193V40.9537H28.8093V39.3737H30.1693V40.9537H31.7593V42.0637H30.1693V44.4637C30.1693 44.9537 30.4693 45.2737 30.9093 45.2737ZM35.6768 46.4438C33.9468 46.4438 32.7868 45.3237 32.7868 43.6437C32.7868 41.9737 33.9468 40.8537 35.6768 40.8537C37.3968 40.8537 38.5568 41.9737 38.5568 43.6437C38.5568 45.3237 37.3968 46.4438 35.6768 46.4438ZM35.6768 45.2737C36.5568 45.2737 37.1468 44.6237 37.1468 43.6437C37.1468 42.6637 36.5568 42.0137 35.6768 42.0137C34.7868 42.0137 34.1968 42.6637 34.1968 43.6437C34.1968 44.6237 34.7868 45.2737 35.6768 45.2737ZM41.36 41.6737C41.79 41.1437 42.47 40.8537 43.34 40.8537L43.25 42.1037C42.13 42.1037 41.39 42.6437 41.39 43.4537V46.3438H40.03V40.9537H41.34L41.36 41.6737ZM45.3321 48.6438C45.0221 48.6438 44.7321 48.5838 44.5321 48.4938L44.6721 47.3838C44.7921 47.4438 44.9321 47.4738 45.1021 47.4738C45.5421 47.4738 45.7221 47.2038 45.9321 46.7938L46.2021 46.2237L43.8921 40.9537H45.3821L46.9021 44.7537L48.3221 40.9537H49.8021L47.2621 46.9638C46.8321 48.0038 46.3721 48.6438 45.3321 48.6438Z" fill="#211F42"/>
</svg>
