<svg width="58" height="58" viewBox="0 0 58 58" fill="none" xmlns="http://www.w3.org/2000/svg">
<g opacity="0.5">
<path d="M25.6 21.2041H20.6C20.0477 21.2041 19.6 21.6518 19.6 22.2041V30.2041H25.6V21.2041Z" fill="#DCEFDC"/>
<path d="M25.6 21.2041H26.6C26.6 20.6518 26.1523 20.2041 25.6 20.2041V21.2041ZM25.6 30.2041V31.2041C26.1523 31.2041 26.6 30.7564 26.6 30.2041H25.6ZM19.6 30.2041H18.6C18.6 30.7564 19.0477 31.2041 19.6 31.2041V30.2041ZM20.6 22.2041H25.6V20.2041H20.6V22.2041ZM24.6 21.2041V30.2041H26.6V21.2041H24.6ZM25.6 29.2041H19.6V31.2041H25.6V29.2041ZM20.6 30.2041V22.2041H18.6V30.2041H20.6ZM20.6 20.2041C19.4954 20.2041 18.6 21.0995 18.6 22.2041H20.6V22.2041V20.2041Z" fill="#51AF4E"/>
<path d="M36.6 18.2041H31.6V30.2041H37.6V19.2041C37.6 18.6518 37.1523 18.2041 36.6 18.2041Z" fill="#DCEFDC"/>
<path d="M31.6 18.2041V17.2041C31.0477 17.2041 30.6 17.6518 30.6 18.2041H31.6ZM37.6 30.2041V31.2041C38.1523 31.2041 38.6 30.7564 38.6 30.2041H37.6ZM31.6 30.2041H30.6C30.6 30.7564 31.0477 31.2041 31.6 31.2041V30.2041ZM31.6 19.2041H36.6V17.2041H31.6V19.2041ZM36.6 19.2041V30.2041H38.6V19.2041H36.6ZM37.6 29.2041H31.6V31.2041H37.6V29.2041ZM32.6 30.2041V18.2041H30.6V30.2041H32.6ZM36.6 19.2041H38.6C38.6 18.0995 37.7045 17.2041 36.6 17.2041V19.2041Z" fill="#51AF4E"/>
<path d="M30.6 14.2041H26.6C26.0477 14.2041 25.6 14.6518 25.6 15.2041V30.2041H31.6V15.2041C31.6 14.6518 31.1523 14.2041 30.6 14.2041Z" fill="#DCEFDC"/>
<path d="M31.6 30.2041V31.2041C32.1523 31.2041 32.6 30.7564 32.6 30.2041H31.6ZM25.6 30.2041H24.6C24.6 30.7564 25.0477 31.2041 25.6 31.2041V30.2041ZM26.6 15.2041H30.6V13.2041H26.6V15.2041ZM30.6 15.2041V30.2041H32.6V15.2041H30.6ZM31.6 29.2041H25.6V31.2041H31.6V29.2041ZM26.6 30.2041V15.2041H24.6V30.2041H26.6ZM30.6 15.2041H32.6C32.6 14.0995 31.7045 13.2041 30.6 13.2041V15.2041ZM26.6 13.2041C25.4954 13.2041 24.6 14.0995 24.6 15.2041H26.6V13.2041Z" fill="#51AF4E"/>
<path d="M16.723 38.8041V42.1241H12.153V38.8041H11.393V46.2041H12.153V42.7641H16.723V46.2041H17.483V38.8041H16.723ZM20.0785 39.5841C20.3485 39.5841 20.5585 39.3741 20.5585 39.1041C20.5585 38.8241 20.3485 38.6141 20.0785 38.6141C19.7985 38.6141 19.5885 38.8241 19.5885 39.1041C19.5885 39.3741 19.7985 39.5841 20.0785 39.5841ZM19.7185 46.2041H20.4385V40.9141H19.7185V46.2041ZM24.0113 46.3041C25.2313 46.3041 26.0013 45.6941 26.0013 44.7741C26.0013 43.9041 25.2713 43.5041 24.4713 43.2841L23.9013 43.1141C23.3313 42.9541 22.9213 42.7341 22.9213 42.2441C22.9213 41.7241 23.3913 41.3941 24.0913 41.3941C24.6013 41.3941 25.0813 41.5041 25.5313 41.7841L25.8413 41.2941C25.3313 40.9641 24.7513 40.8141 24.0413 40.8141C22.9213 40.8141 22.1813 41.4241 22.1813 42.3541C22.1813 43.1441 22.7513 43.4741 23.5813 43.7041L24.1513 43.8741C24.7913 44.0541 25.2613 44.3341 25.2613 44.8341C25.2613 45.3741 24.7613 45.7241 24.0113 45.7241C23.4613 45.7241 22.9313 45.6141 22.4913 45.2941L22.1913 45.7441C22.6013 46.1141 23.2613 46.3041 24.0113 46.3041ZM29.5671 45.6841C29.0171 45.6841 28.6371 45.2841 28.6371 44.7041V41.5141H30.5471V40.9141H28.6371V39.3641H27.9171V40.9141H26.9971V41.5141H27.9171V44.8441C27.9171 45.7141 28.4971 46.3041 29.3471 46.3041C29.8471 46.3041 30.2771 46.2341 30.6271 46.0841V45.4941C30.2871 45.6241 29.9371 45.6841 29.5671 45.6841ZM34.2743 46.3041C35.8843 46.3041 36.9643 45.2041 36.9643 43.5641C36.9643 41.9141 35.8843 40.8141 34.2743 40.8141C32.6543 40.8141 31.5643 41.9141 31.5643 43.5641C31.5643 45.2041 32.6543 46.3041 34.2743 46.3041ZM34.2743 45.6841C33.1043 45.6841 32.3243 44.8341 32.3243 43.5641C32.3243 42.2841 33.1043 41.4441 34.2743 41.4441C35.4343 41.4441 36.2043 42.2841 36.2043 43.5641C36.2043 44.8341 35.4343 45.6841 34.2743 45.6841ZM39.3622 41.8041L39.3522 40.9141H38.6522V46.2041H39.3722V43.1341C39.3722 42.1241 40.1122 41.4741 41.4022 41.4741L41.4622 40.8141C40.4522 40.8141 39.7422 41.1441 39.3622 41.8041ZM43.2334 48.5041C44.0234 48.5041 44.3534 48.0041 44.6834 47.2341L47.5134 40.9141H46.7234L44.8234 45.3441L42.8634 40.9141H42.0734L44.4434 46.1341L43.9734 47.1341C43.7634 47.5841 43.5734 47.8841 43.1234 47.8841C42.9534 47.8841 42.7934 47.8541 42.6734 47.7941L42.5934 48.3841C42.7634 48.4641 43.0034 48.5041 43.2334 48.5041Z" fill="#211F42"/>
</g>
</svg>
