<svg width="52" height="58" viewBox="0 0 52 58" fill="none" xmlns="http://www.w3.org/2000/svg">
<circle cx="26" cy="22.7041" r="9" fill="#DCEFDC"/>
<path fill-rule="evenodd" clip-rule="evenodd" d="M26 14.4541C21.4437 14.4541 17.75 18.1478 17.75 22.7041C17.75 27.2605 21.4437 30.9541 26 30.9541C30.5563 30.9541 34.25 27.2605 34.25 22.7041C34.25 18.1478 30.5563 14.4541 26 14.4541ZM16.25 22.7041C16.25 17.3193 20.6152 12.9541 26 12.9541C31.3848 12.9541 35.75 17.3193 35.75 22.7041C35.75 28.0889 31.3848 32.4541 26 32.4541C20.6152 32.4541 16.25 28.0889 16.25 22.7041ZM25.1696 17.9541H26.8304C27.3646 17.9541 27.8104 17.9541 28.1747 17.9838C28.5546 18.0149 28.9112 18.082 29.2485 18.2538C29.7659 18.5175 30.1866 18.9382 30.4503 19.4556C30.6221 19.7929 30.6892 20.1495 30.7203 20.5294C30.75 20.8937 30.75 21.3395 30.75 21.8736V23.5346C30.75 24.0687 30.75 24.5145 30.7203 24.8788C30.6892 25.2587 30.6221 25.6153 30.4503 25.9526C30.1866 26.47 29.7659 26.8907 29.2485 27.1544C28.9112 27.3262 28.5546 27.3933 28.1747 27.4244C27.8104 27.4541 27.3646 27.4541 26.8305 27.4541H25.1695C24.6354 27.4541 24.1896 27.4541 23.8253 27.4244C23.4454 27.3933 23.0888 27.3262 22.7515 27.1544C22.2341 26.8907 21.8134 26.47 21.5497 25.9526C21.3779 25.6153 21.3108 25.2587 21.2797 24.8788C21.25 24.5145 21.25 24.0687 21.25 23.5345V21.8737C21.25 21.3395 21.25 20.8937 21.2797 20.5294C21.3108 20.1495 21.3779 19.7929 21.5497 19.4556C21.8134 18.9382 22.2341 18.5175 22.7515 18.2538C23.0888 18.082 23.4454 18.0149 23.8253 17.9838C24.1896 17.9541 24.6354 17.9541 25.1696 17.9541ZM23.9475 19.4789C23.6604 19.5023 23.5231 19.5442 23.4325 19.5903C23.1973 19.7102 23.0061 19.9014 22.8862 20.1366C22.8401 20.2272 22.7982 20.3645 22.7748 20.6516C22.7506 20.9475 22.75 21.3317 22.75 21.9041V23.5041C22.75 24.0765 22.7506 24.4607 22.7748 24.7566C22.7982 25.0437 22.8401 25.181 22.8862 25.2716C23.0061 25.5068 23.1973 25.698 23.4325 25.8179C23.5231 25.864 23.6604 25.9059 23.9475 25.9293C24.2434 25.9535 24.6276 25.9541 25.2 25.9541H26.8C27.3724 25.9541 27.7566 25.9535 28.0525 25.9293C28.3396 25.9059 28.4769 25.864 28.5675 25.8179C28.8027 25.698 28.9939 25.5068 29.1138 25.2716C29.1599 25.181 29.2018 25.0437 29.2252 24.7566C29.2494 24.4607 29.25 24.0765 29.25 23.5041V21.9041C29.25 21.3317 29.2494 20.9475 29.2252 20.6516C29.2018 20.3645 29.1599 20.2272 29.1138 20.1366C28.9939 19.9014 28.8027 19.7102 28.5675 19.5903C28.4769 19.5442 28.3396 19.5023 28.0525 19.4789C27.7566 19.4547 27.3724 19.4541 26.8 19.4541H25.2C24.6276 19.4541 24.2434 19.4547 23.9475 19.4789Z" fill="#51AF4E"/>
<path fill-rule="evenodd" clip-rule="evenodd" d="M16.1 22.7042C16.1 17.2366 20.5324 12.8042 26 12.8042C31.4676 12.8042 35.9 17.2366 35.9 22.7042C35.9 28.1718 31.4676 32.6042 26 32.6042C20.5324 32.6042 16.1 28.1718 16.1 22.7042ZM26 13.1042C20.6981 13.1042 16.4 17.4023 16.4 22.7042C16.4 28.0061 20.6981 32.3042 26 32.3042C31.3019 32.3042 35.6 28.0061 35.6 22.7042C35.6 17.4023 31.3019 13.1042 26 13.1042ZM26 14.6042C21.5265 14.6042 17.9 18.2307 17.9 22.7042C17.9 27.1777 21.5265 30.8042 26 30.8042C30.4735 30.8042 34.1 27.1777 34.1 22.7042C34.1 18.2307 30.4735 14.6042 26 14.6042ZM17.6 22.7042C17.6 18.065 21.3608 14.3042 26 14.3042C30.6392 14.3042 34.4 18.065 34.4 22.7042C34.4 27.3434 30.6392 31.1042 26 31.1042C21.3608 31.1042 17.6 27.3434 17.6 22.7042ZM25.1638 17.8042H26.8362C27.3657 17.8042 27.8165 17.8042 28.1869 17.8344C28.5761 17.8662 28.9547 17.9359 29.3166 18.1203C29.8622 18.3983 30.3059 18.842 30.5839 19.3876C30.7683 19.7495 30.838 20.1281 30.8698 20.5173C30.9 20.8876 30.9 21.3385 30.9 21.8679V23.5405C30.9 24.0699 30.9 24.5208 30.8698 24.8911C30.838 25.2803 30.7683 25.6589 30.5839 26.0208C30.3059 26.5664 29.8622 27.0101 29.3166 27.2881C28.9547 27.4725 28.5761 27.5422 28.1869 27.574C27.8166 27.6042 27.3657 27.6042 26.8363 27.6042H25.1637C24.6343 27.6042 24.1834 27.6042 23.8131 27.574C23.4239 27.5422 23.0453 27.4725 22.6834 27.2881C22.1378 27.0101 21.6941 26.5664 21.4161 26.0208C21.2317 25.6589 21.162 25.2803 21.1302 24.8911C21.1 24.5207 21.1 24.0699 21.1 23.5404V21.868C21.1 21.3385 21.1 20.8877 21.1302 20.5173C21.162 20.1281 21.2317 19.7495 21.4161 19.3876C21.6941 18.842 22.1378 18.3983 22.6834 18.1203C23.0453 17.9359 23.4239 17.8662 23.8131 17.8344C24.1835 17.8042 24.6343 17.8042 25.1638 17.8042ZM25.1696 18.1042C24.6332 18.1042 24.1943 18.1043 23.8376 18.1334C23.467 18.1637 23.1322 18.2283 22.8196 18.3876C22.3304 18.6369 21.9327 19.0346 21.6834 19.5238C21.5241 19.8364 21.4595 20.1712 21.4292 20.5417C21.4001 20.8985 21.4 21.3374 21.4 21.8738V23.5346C21.4 24.071 21.4001 24.5099 21.4292 24.8667C21.4595 25.2372 21.5241 25.572 21.6834 25.8846C21.9327 26.3738 22.3304 26.7715 22.8196 27.0208C23.1322 27.1801 23.467 27.2447 23.8376 27.275C24.1943 27.3041 24.6332 27.3042 25.1695 27.3042H26.8305C27.3668 27.3042 27.8057 27.3041 28.1625 27.275C28.533 27.2447 28.8678 27.1801 29.1804 27.0208C29.6696 26.7715 30.0674 26.3738 30.3166 25.8846C30.4759 25.572 30.5405 25.2372 30.5708 24.8667C30.5999 24.5099 30.6 24.071 30.6 23.5347V21.8737C30.6 21.3374 30.5999 20.8985 30.5708 20.5417C30.5405 20.1712 30.4759 19.8364 30.3166 19.5238C30.0674 19.0346 29.6696 18.6369 29.1804 18.3876C28.8678 18.2283 28.533 18.1637 28.1625 18.1334C27.8057 18.1043 27.3668 18.1042 26.8304 18.1042H25.1696ZM25.2 19.6042C24.625 19.6042 24.248 19.6049 23.9597 19.6285C23.6818 19.6512 23.5665 19.6905 23.5006 19.7241C23.2936 19.8296 23.1254 19.9978 23.0199 20.2048C22.9864 20.2707 22.947 20.386 22.9243 20.6639C22.9007 20.9522 22.9 21.3292 22.9 21.9042V23.5042C22.9 24.0792 22.9007 24.4562 22.9243 24.7445C22.947 25.0224 22.9864 25.1377 23.0199 25.2036C23.1254 25.4106 23.2936 25.5788 23.5006 25.6843C23.5665 25.7179 23.6818 25.7572 23.9597 25.7799C24.248 25.8035 24.625 25.8042 25.2 25.8042H26.8C27.375 25.8042 27.752 25.8035 28.0403 25.7799C28.3182 25.7572 28.4336 25.7179 28.4994 25.6843C28.7064 25.5788 28.8747 25.4106 28.9801 25.2036C29.0137 25.1377 29.053 25.0224 29.0757 24.7445C29.0993 24.4562 29.1 24.0792 29.1 23.5042V21.9042C29.1 21.3292 29.0993 20.9522 29.0757 20.6639C29.053 20.386 29.0137 20.2707 28.9801 20.2048C28.8747 19.9978 28.7064 19.8296 28.4994 19.7241C28.4336 19.6905 28.3182 19.6512 28.0403 19.6285C27.752 19.6049 27.375 19.6042 26.8 19.6042H25.2ZM23.9353 19.3295C24.2387 19.3047 24.6301 19.3042 25.2 19.3042H26.8C27.3699 19.3042 27.7613 19.3047 28.0647 19.3295C28.3611 19.3537 28.5203 19.3981 28.6356 19.4568C28.899 19.591 29.1132 19.8052 29.2474 20.0686C29.3062 20.1839 29.3505 20.3431 29.3748 20.6395C29.3995 20.9429 29.4 21.3343 29.4 21.9042V23.5042C29.4 24.0741 29.3995 24.4655 29.3748 24.7689C29.3505 25.0653 29.3062 25.2245 29.2474 25.3398C29.1132 25.6032 28.899 25.8174 28.6356 25.9516C28.5203 26.0103 28.3611 26.0547 28.0647 26.0789C27.7613 26.1037 27.3699 26.1042 26.8 26.1042H25.2C24.6301 26.1042 24.2387 26.1037 23.9353 26.0789C23.639 26.0547 23.4797 26.0103 23.3644 25.9516C23.101 25.8174 22.8868 25.6032 22.7526 25.3398C22.6939 25.2245 22.6495 25.0653 22.6253 24.7689C22.6005 24.4655 22.6 24.0741 22.6 23.5042V21.9042C22.6 21.3343 22.6005 20.9429 22.6253 20.6395C22.6495 20.3431 22.6939 20.1839 22.7526 20.0686C22.8868 19.8052 23.101 19.591 23.3644 19.4568C23.4797 19.3981 23.639 19.3537 23.9353 19.3295Z" fill="#51AF4E"/>
<path d="M16.7058 39.3041V42.6241H12.1358V39.3041H11.3758V46.7041H12.1358V43.2641H16.7058V46.7041H17.4658V39.3041H16.7058ZM22.0415 46.8041C23.6515 46.8041 24.7315 45.7041 24.7315 44.0641C24.7315 42.4141 23.6515 41.3141 22.0415 41.3141C20.4215 41.3141 19.3315 42.4141 19.3315 44.0641C19.3315 45.7041 20.4215 46.8041 22.0415 46.8041ZM22.0415 46.1841C20.8715 46.1841 20.0915 45.3341 20.0915 44.0641C20.0915 42.7841 20.8715 41.9441 22.0415 41.9441C23.2015 41.9441 23.9715 42.7841 23.9715 44.0641C23.9715 45.3341 23.2015 46.1841 22.0415 46.1841ZM32.4894 41.3141C31.5994 41.3141 30.9694 41.7341 30.6494 42.3941C30.3394 41.7241 29.6994 41.3141 28.8594 41.3141C28.0394 41.3141 27.4494 41.6641 27.1294 42.2541L27.1194 41.4141H26.4194V46.7041H27.1394V43.5141C27.1394 42.5641 27.7394 41.9441 28.6394 41.9441C29.5294 41.9441 30.1294 42.5641 30.1294 43.5141V46.7041H30.8494V43.5141C30.8494 42.5641 31.4494 41.9441 32.3494 41.9441C33.2494 41.9441 33.8494 42.5641 33.8494 43.5141V46.7041H34.5694V43.3741C34.5694 42.1341 33.7394 41.3141 32.4894 41.3141ZM41.206 43.9941C41.206 42.3841 40.206 41.3141 38.716 41.3141C37.206 41.3141 36.206 42.4141 36.206 44.0541C36.206 45.7041 37.226 46.8041 38.736 46.8041C39.676 46.8041 40.486 46.3941 40.996 45.6341L40.446 45.3241C40.036 45.8741 39.446 46.2241 38.736 46.2241C37.686 46.2241 37.066 45.4741 36.976 44.3241H41.196C41.206 44.2441 41.206 44.0841 41.206 43.9941ZM38.716 41.8941C39.736 41.8941 40.396 42.6341 40.456 43.8141H36.976C37.046 42.6341 37.696 41.8941 38.716 41.8941Z" fill="#211F42"/>
</svg>
