<svg width="52" height="58" viewBox="0 0 52 58" fill="none" xmlns="http://www.w3.org/2000/svg">
<g opacity="0.5">
<circle cx="26" cy="22.2041" r="9" fill="#DCEFDC"/>
<path fill-rule="evenodd" clip-rule="evenodd" d="M26 13.9541C21.4437 13.9541 17.75 17.6478 17.75 22.2041C17.75 26.7605 21.4437 30.4541 26 30.4541C30.5563 30.4541 34.25 26.7605 34.25 22.2041C34.25 17.6478 30.5563 13.9541 26 13.9541ZM16.25 22.2041C16.25 16.8193 20.6152 12.4541 26 12.4541C31.3848 12.4541 35.75 16.8193 35.75 22.2041C35.75 27.5889 31.3848 31.9541 26 31.9541C20.6152 31.9541 16.25 27.5889 16.25 22.2041ZM25.1696 17.4541H26.8304C27.3646 17.4541 27.8104 17.4541 28.1747 17.4838C28.5546 17.5149 28.9112 17.582 29.2485 17.7538C29.7659 18.0175 30.1866 18.4382 30.4503 18.9556C30.6221 19.2929 30.6892 19.6495 30.7203 20.0294C30.75 20.3937 30.75 20.8395 30.75 21.3736V23.0346C30.75 23.5687 30.75 24.0145 30.7203 24.3788C30.6892 24.7587 30.6221 25.1153 30.4503 25.4526C30.1866 25.97 29.7659 26.3907 29.2485 26.6544C28.9112 26.8262 28.5546 26.8933 28.1747 26.9244C27.8104 26.9541 27.3646 26.9541 26.8305 26.9541H25.1695C24.6354 26.9541 24.1896 26.9541 23.8253 26.9244C23.4454 26.8933 23.0888 26.8262 22.7515 26.6544C22.2341 26.3907 21.8134 25.97 21.5497 25.4526C21.3779 25.1153 21.3108 24.7587 21.2797 24.3788C21.25 24.0145 21.25 23.5687 21.25 23.0345V21.3737C21.25 20.8395 21.25 20.3937 21.2797 20.0294C21.3108 19.6495 21.3779 19.2929 21.5497 18.9556C21.8134 18.4382 22.2341 18.0175 22.7515 17.7538C23.0888 17.582 23.4454 17.5149 23.8253 17.4838C24.1896 17.4541 24.6354 17.4541 25.1696 17.4541ZM23.9475 18.9789C23.6604 19.0023 23.5231 19.0442 23.4325 19.0903C23.1973 19.2102 23.0061 19.4014 22.8862 19.6366C22.8401 19.7272 22.7982 19.8645 22.7748 20.1516C22.7506 20.4475 22.75 20.8317 22.75 21.4041V23.0041C22.75 23.5765 22.7506 23.9607 22.7748 24.2566C22.7982 24.5437 22.8401 24.681 22.8862 24.7716C23.0061 25.0068 23.1973 25.198 23.4325 25.3179C23.5231 25.364 23.6604 25.4059 23.9475 25.4293C24.2434 25.4535 24.6276 25.4541 25.2 25.4541H26.8C27.3724 25.4541 27.7566 25.4535 28.0525 25.4293C28.3396 25.4059 28.4769 25.364 28.5675 25.3179C28.8027 25.198 28.9939 25.0068 29.1138 24.7716C29.1599 24.681 29.2018 24.5437 29.2252 24.2566C29.2494 23.9607 29.25 23.5765 29.25 23.0041V21.4041C29.25 20.8317 29.2494 20.4475 29.2252 20.1516C29.2018 19.8645 29.1599 19.7272 29.1138 19.6366C28.9939 19.4014 28.8027 19.2102 28.5675 19.0903C28.4769 19.0442 28.3396 19.0023 28.0525 18.9789C27.7566 18.9547 27.3724 18.9541 26.8 18.9541H25.2C24.6276 18.9541 24.2434 18.9547 23.9475 18.9789Z" fill="#51AF4E"/>
<path fill-rule="evenodd" clip-rule="evenodd" d="M16.1 22.2042C16.1 16.7366 20.5324 12.3042 26 12.3042C31.4676 12.3042 35.9 16.7366 35.9 22.2042C35.9 27.6718 31.4676 32.1042 26 32.1042C20.5324 32.1042 16.1 27.6718 16.1 22.2042ZM26 12.6042C20.6981 12.6042 16.4 16.9023 16.4 22.2042C16.4 27.5061 20.6981 31.8042 26 31.8042C31.3019 31.8042 35.6 27.5061 35.6 22.2042C35.6 16.9023 31.3019 12.6042 26 12.6042ZM26 14.1042C21.5265 14.1042 17.9 17.7307 17.9 22.2042C17.9 26.6777 21.5265 30.3042 26 30.3042C30.4735 30.3042 34.1 26.6777 34.1 22.2042C34.1 17.7307 30.4735 14.1042 26 14.1042ZM17.6 22.2042C17.6 17.565 21.3608 13.8042 26 13.8042C30.6392 13.8042 34.4 17.565 34.4 22.2042C34.4 26.8434 30.6392 30.6042 26 30.6042C21.3608 30.6042 17.6 26.8434 17.6 22.2042ZM25.1638 17.3042H26.8362C27.3657 17.3042 27.8165 17.3042 28.1869 17.3344C28.5761 17.3662 28.9547 17.4359 29.3166 17.6203C29.8622 17.8983 30.3059 18.342 30.5839 18.8876C30.7683 19.2495 30.838 19.6281 30.8698 20.0173C30.9 20.3876 30.9 20.8385 30.9 21.3679V23.0405C30.9 23.5699 30.9 24.0208 30.8698 24.3911C30.838 24.7803 30.7683 25.1589 30.5839 25.5208C30.3059 26.0664 29.8622 26.5101 29.3166 26.7881C28.9547 26.9725 28.5761 27.0422 28.1869 27.074C27.8166 27.1042 27.3657 27.1042 26.8363 27.1042H25.1637C24.6343 27.1042 24.1834 27.1042 23.8131 27.074C23.4239 27.0422 23.0453 26.9725 22.6834 26.7881C22.1378 26.5101 21.6941 26.0664 21.4161 25.5208C21.2317 25.1589 21.162 24.7803 21.1302 24.3911C21.1 24.0207 21.1 23.5699 21.1 23.0404V21.368C21.1 20.8385 21.1 20.3877 21.1302 20.0173C21.162 19.6281 21.2317 19.2495 21.4161 18.8876C21.6941 18.342 22.1378 17.8983 22.6834 17.6203C23.0453 17.4359 23.4239 17.3662 23.8131 17.3344C24.1835 17.3042 24.6343 17.3042 25.1638 17.3042ZM25.1696 17.6042C24.6332 17.6042 24.1943 17.6043 23.8376 17.6334C23.467 17.6637 23.1322 17.7283 22.8196 17.8876C22.3304 18.1369 21.9327 18.5346 21.6834 19.0238C21.5241 19.3364 21.4595 19.6712 21.4292 20.0417C21.4001 20.3985 21.4 20.8374 21.4 21.3738V23.0346C21.4 23.571 21.4001 24.0099 21.4292 24.3667C21.4595 24.7372 21.5241 25.072 21.6834 25.3846C21.9327 25.8738 22.3304 26.2715 22.8196 26.5208C23.1322 26.6801 23.467 26.7447 23.8376 26.775C24.1943 26.8041 24.6332 26.8042 25.1695 26.8042H26.8305C27.3668 26.8042 27.8057 26.8041 28.1625 26.775C28.533 26.7447 28.8678 26.6801 29.1804 26.5208C29.6696 26.2715 30.0674 25.8738 30.3166 25.3846C30.4759 25.072 30.5405 24.7372 30.5708 24.3667C30.5999 24.0099 30.6 23.571 30.6 23.0347V21.3737C30.6 20.8374 30.5999 20.3985 30.5708 20.0417C30.5405 19.6712 30.4759 19.3364 30.3166 19.0238C30.0674 18.5346 29.6696 18.1369 29.1804 17.8876C28.8678 17.7283 28.533 17.6637 28.1625 17.6334C27.8057 17.6043 27.3668 17.6042 26.8304 17.6042H25.1696ZM25.2 19.1042C24.625 19.1042 24.248 19.1049 23.9597 19.1285C23.6818 19.1512 23.5665 19.1905 23.5006 19.2241C23.2936 19.3296 23.1254 19.4978 23.0199 19.7048C22.9864 19.7707 22.947 19.886 22.9243 20.1639C22.9007 20.4522 22.9 20.8292 22.9 21.4042V23.0042C22.9 23.5792 22.9007 23.9562 22.9243 24.2445C22.947 24.5224 22.9864 24.6377 23.0199 24.7036C23.1254 24.9106 23.2936 25.0788 23.5006 25.1843C23.5665 25.2179 23.6818 25.2572 23.9597 25.2799C24.248 25.3035 24.625 25.3042 25.2 25.3042H26.8C27.375 25.3042 27.752 25.3035 28.0403 25.2799C28.3182 25.2572 28.4336 25.2179 28.4994 25.1843C28.7064 25.0788 28.8747 24.9106 28.9801 24.7036C29.0137 24.6377 29.053 24.5224 29.0757 24.2445C29.0993 23.9562 29.1 23.5792 29.1 23.0042V21.4042C29.1 20.8292 29.0993 20.4522 29.0757 20.1639C29.053 19.886 29.0137 19.7707 28.9801 19.7048C28.8747 19.4978 28.7064 19.3296 28.4994 19.2241C28.4336 19.1905 28.3182 19.1512 28.0403 19.1285C27.752 19.1049 27.375 19.1042 26.8 19.1042H25.2ZM23.9353 18.8295C24.2387 18.8047 24.6301 18.8042 25.2 18.8042H26.8C27.3699 18.8042 27.7613 18.8047 28.0647 18.8295C28.3611 18.8537 28.5203 18.8981 28.6356 18.9568C28.899 19.091 29.1132 19.3052 29.2474 19.5686C29.3062 19.6839 29.3505 19.8431 29.3748 20.1395C29.3995 20.4429 29.4 20.8343 29.4 21.4042V23.0042C29.4 23.5741 29.3995 23.9655 29.3748 24.2689C29.3505 24.5653 29.3062 24.7245 29.2474 24.8398C29.1132 25.1032 28.899 25.3174 28.6356 25.4516C28.5203 25.5103 28.3611 25.5547 28.0647 25.5789C27.7613 25.6037 27.3699 25.6042 26.8 25.6042H25.2C24.6301 25.6042 24.2387 25.6037 23.9353 25.5789C23.639 25.5547 23.4797 25.5103 23.3644 25.4516C23.101 25.3174 22.8868 25.1032 22.7526 24.8398C22.6939 24.7245 22.6495 24.5653 22.6253 24.2689C22.6005 23.9655 22.6 23.5741 22.6 23.0042V21.4042C22.6 20.8343 22.6005 20.4429 22.6253 20.1395C22.6495 19.8431 22.6939 19.6839 22.7526 19.5686C22.8868 19.3052 23.101 19.091 23.3644 18.9568C23.4797 18.8981 23.639 18.8537 23.9353 18.8295Z" fill="#51AF4E"/>
<path d="M16.7058 38.8041V42.1241H12.1358V38.8041H11.3758V46.2041H12.1358V42.7641H16.7058V46.2041H17.4658V38.8041H16.7058ZM22.0415 46.3041C23.6515 46.3041 24.7315 45.2041 24.7315 43.5641C24.7315 41.9141 23.6515 40.8141 22.0415 40.8141C20.4215 40.8141 19.3315 41.9141 19.3315 43.5641C19.3315 45.2041 20.4215 46.3041 22.0415 46.3041ZM22.0415 45.6841C20.8715 45.6841 20.0915 44.8341 20.0915 43.5641C20.0915 42.2841 20.8715 41.4441 22.0415 41.4441C23.2015 41.4441 23.9715 42.2841 23.9715 43.5641C23.9715 44.8341 23.2015 45.6841 22.0415 45.6841ZM32.4894 40.8141C31.5994 40.8141 30.9694 41.2341 30.6494 41.8941C30.3394 41.2241 29.6994 40.8141 28.8594 40.8141C28.0394 40.8141 27.4494 41.1641 27.1294 41.7541L27.1194 40.9141H26.4194V46.2041H27.1394V43.0141C27.1394 42.0641 27.7394 41.4441 28.6394 41.4441C29.5294 41.4441 30.1294 42.0641 30.1294 43.0141V46.2041H30.8494V43.0141C30.8494 42.0641 31.4494 41.4441 32.3494 41.4441C33.2494 41.4441 33.8494 42.0641 33.8494 43.0141V46.2041H34.5694V42.8741C34.5694 41.6341 33.7394 40.8141 32.4894 40.8141ZM41.206 43.4941C41.206 41.8841 40.206 40.8141 38.716 40.8141C37.206 40.8141 36.206 41.9141 36.206 43.5541C36.206 45.2041 37.226 46.3041 38.736 46.3041C39.676 46.3041 40.486 45.8941 40.996 45.1341L40.446 44.8241C40.036 45.3741 39.446 45.7241 38.736 45.7241C37.686 45.7241 37.066 44.9741 36.976 43.8241H41.196C41.206 43.7441 41.206 43.5841 41.206 43.4941ZM38.716 41.3941C39.736 41.3941 40.396 42.1341 40.456 43.3141H36.976C37.046 42.1341 37.696 41.3941 38.716 41.3941Z" fill="#211F42"/>
</g>
</svg>
