<svg width="53" height="58" viewBox="0 0 53 58" fill="none" xmlns="http://www.w3.org/2000/svg">
<circle cx="26.5" cy="22.9531" r="9" fill="#FBFBFB"/>
<path fill-rule="evenodd" clip-rule="evenodd" d="M26.5 14.7031C21.9437 14.7031 18.25 18.3968 18.25 22.9531C18.25 27.5095 21.9437 31.2031 26.5 31.2031C31.0563 31.2031 34.75 27.5095 34.75 22.9531C34.75 18.3968 31.0563 14.7031 26.5 14.7031ZM16.75 22.9531C16.75 17.5683 21.1152 13.2031 26.5 13.2031C31.8848 13.2031 36.25 17.5683 36.25 22.9531C36.25 28.3379 31.8848 32.7031 26.5 32.7031C21.1152 32.7031 16.75 28.3379 16.75 22.9531ZM25.6696 18.2031H27.3304C27.8646 18.2031 28.3104 18.2031 28.6747 18.2329C29.0546 18.2639 29.4112 18.331 29.7485 18.5029C30.2659 18.7665 30.6866 19.1872 30.9503 19.7047C31.1221 20.0419 31.1892 20.3986 31.2203 20.7785C31.25 21.1427 31.25 21.5885 31.25 22.1227V23.7836C31.25 24.3177 31.25 24.7636 31.2203 25.1278C31.1892 25.5077 31.1221 25.8643 30.9503 26.2016C30.6866 26.719 30.2659 27.1397 29.7485 27.4034C29.4112 27.5752 29.0546 27.6423 28.6747 27.6734C28.3104 27.7031 27.8646 27.7031 27.3305 27.7031H25.6695C25.1354 27.7031 24.6896 27.7031 24.3253 27.6734C23.9454 27.6423 23.5888 27.5752 23.2515 27.4034C22.7341 27.1397 22.3134 26.719 22.0497 26.2016C21.8779 25.8643 21.8108 25.5077 21.7797 25.1278C21.75 24.7636 21.75 24.3177 21.75 23.7836V22.1227C21.75 21.5885 21.75 21.1427 21.7797 20.7785C21.8108 20.3986 21.8779 20.0419 22.0497 19.7047C22.3134 19.1872 22.7341 18.7665 23.2515 18.5029C23.5888 18.331 23.9454 18.2639 24.3253 18.2329C24.6896 18.2031 25.1354 18.2031 25.6696 18.2031ZM24.4475 19.7279C24.1604 19.7513 24.0231 19.7932 23.9325 19.8394C23.6973 19.9592 23.5061 20.1504 23.3862 20.3856C23.3401 20.4762 23.2982 20.6135 23.2748 20.9006C23.2506 21.1965 23.25 21.5807 23.25 22.1531V23.7531C23.25 24.3256 23.2506 24.7098 23.2748 25.0056C23.2982 25.2928 23.3401 25.4301 23.3862 25.5206C23.5061 25.7558 23.6973 25.947 23.9325 26.0669C24.0231 26.113 24.1604 26.1549 24.4475 26.1784C24.7434 26.2025 25.1276 26.2031 25.7 26.2031H27.3C27.8724 26.2031 28.2566 26.2025 28.5525 26.1784C28.8396 26.1549 28.9769 26.113 29.0675 26.0669C29.3027 25.947 29.4939 25.7558 29.6138 25.5206C29.6599 25.4301 29.7018 25.2928 29.7252 25.0056C29.7494 24.7098 29.75 24.3256 29.75 23.7531V22.1531C29.75 21.5807 29.7494 21.1965 29.7252 20.9006C29.7018 20.6135 29.6599 20.4762 29.6138 20.3856C29.4939 20.1504 29.3027 19.9592 29.0675 19.8394C28.9769 19.7932 28.8396 19.7513 28.5525 19.7279C28.2566 19.7037 27.8724 19.7031 27.3 19.7031H25.7C25.1276 19.7031 24.7434 19.7037 24.4475 19.7279Z" fill="#51AF4E"/>
<path fill-rule="evenodd" clip-rule="evenodd" d="M16.6 22.9527C16.6 17.4851 21.0324 13.0527 26.5 13.0527C31.9676 13.0527 36.4 17.4851 36.4 22.9527C36.4 28.4204 31.9676 32.8527 26.5 32.8527C21.0324 32.8527 16.6 28.4204 16.6 22.9527ZM26.5 13.3527C21.1981 13.3527 16.9 17.6508 16.9 22.9527C16.9 28.2547 21.1981 32.5527 26.5 32.5527C31.8019 32.5527 36.1 28.2547 36.1 22.9527C36.1 17.6508 31.8019 13.3527 26.5 13.3527ZM26.5 14.8527C22.0265 14.8527 18.4 18.4792 18.4 22.9527C18.4 27.4262 22.0265 31.0527 26.5 31.0527C30.9735 31.0527 34.6 27.4262 34.6 22.9527C34.6 18.4792 30.9735 14.8527 26.5 14.8527ZM18.1 22.9527C18.1 18.3135 21.8608 14.5527 26.5 14.5527C31.1392 14.5527 34.9 18.3135 34.9 22.9527C34.9 27.5919 31.1392 31.3527 26.5 31.3527C21.8608 31.3527 18.1 27.5919 18.1 22.9527ZM25.6638 18.0527H27.3362C27.8657 18.0527 28.3165 18.0527 28.6869 18.083C29.0761 18.1148 29.4547 18.1844 29.8166 18.3688C30.3622 18.6468 30.8059 19.0905 31.0839 19.6362C31.2683 19.9981 31.338 20.3766 31.3698 20.7658C31.4 21.1362 31.4 21.587 31.4 22.1164V23.789C31.4 24.3185 31.4 24.7693 31.3698 25.1396C31.338 25.5288 31.2683 25.9074 31.0839 26.2693C30.8059 26.815 30.3622 27.2586 29.8166 27.5367C29.4547 27.7211 29.0761 27.7907 28.6869 27.8225C28.3166 27.8528 27.8657 27.8527 27.3363 27.8527H25.6637C25.1343 27.8527 24.6834 27.8528 24.3131 27.8225C23.9239 27.7907 23.5453 27.7211 23.1834 27.5367C22.6378 27.2586 22.1941 26.815 21.9161 26.2693C21.7317 25.9074 21.662 25.5288 21.6302 25.1396C21.6 24.7693 21.6 24.3184 21.6 23.7889V22.1166C21.6 21.5871 21.6 21.1362 21.6302 20.7658C21.662 20.3766 21.7317 19.9981 21.9161 19.6362C22.1941 19.0905 22.6378 18.6468 23.1834 18.3688C23.5453 18.1844 23.9239 18.1148 24.3131 18.083C24.6835 18.0527 25.1343 18.0527 25.6638 18.0527ZM25.6696 18.3527C25.1332 18.3527 24.6943 18.3528 24.3376 18.382C23.967 18.4123 23.6322 18.4768 23.3196 18.6361C22.8304 18.8854 22.4327 19.2831 22.1834 19.7724C22.0241 20.085 21.9595 20.4197 21.9292 20.7903C21.9001 21.1471 21.9 21.586 21.9 22.1223V23.7832C21.9 24.3195 21.9001 24.7584 21.9292 25.1152C21.9595 25.4858 22.0241 25.8205 22.1834 26.1331C22.4327 26.6223 22.8304 27.0201 23.3196 27.2694C23.6322 27.4286 23.967 27.4932 24.3376 27.5235C24.6943 27.5526 25.1332 27.5527 25.6695 27.5527H27.3305C27.8668 27.5527 28.3057 27.5526 28.6625 27.5235C29.033 27.4932 29.3678 27.4286 29.6804 27.2694C30.1696 27.0201 30.5674 26.6223 30.8166 26.1331C30.9759 25.8205 31.0405 25.4858 31.0708 25.1152C31.0999 24.7584 31.1 24.3195 31.1 23.7832V22.1223C31.1 21.5859 31.0999 21.1471 31.0708 20.7903C31.0405 20.4197 30.9759 20.085 30.8166 19.7724C30.5674 19.2831 30.1696 18.8854 29.6804 18.6361C29.3678 18.4768 29.033 18.4123 28.6625 18.382C28.3057 18.3528 27.8668 18.3527 27.3304 18.3527H25.6696ZM25.7 19.8527C25.125 19.8527 24.748 19.8534 24.4597 19.877C24.1818 19.8997 24.0665 19.9391 24.0006 19.9726C23.7936 20.0781 23.6254 20.2464 23.5199 20.4533C23.4864 20.5192 23.447 20.6345 23.4243 20.9124C23.4007 21.2008 23.4 21.5778 23.4 22.1527V23.7527C23.4 24.3277 23.4007 24.7047 23.4243 24.993C23.447 25.271 23.4864 25.3863 23.5199 25.4521C23.6254 25.6591 23.7936 25.8274 24.0006 25.9328C24.0665 25.9664 24.1818 26.0058 24.4597 26.0285C24.748 26.052 25.125 26.0527 25.7 26.0527H27.3C27.875 26.0527 28.252 26.052 28.5403 26.0285C28.8182 26.0058 28.9336 25.9664 28.9994 25.9328C29.2064 25.8274 29.3747 25.6591 29.4801 25.4521C29.5137 25.3863 29.553 25.271 29.5757 24.993C29.5993 24.7047 29.6 24.3277 29.6 23.7527V22.1527C29.6 21.5778 29.5993 21.2008 29.5757 20.9124C29.553 20.6345 29.5137 20.5192 29.4801 20.4533C29.3747 20.2464 29.2064 20.0781 28.9994 19.9726C28.9336 19.9391 28.8182 19.8997 28.5403 19.877C28.252 19.8534 27.875 19.8527 27.3 19.8527H25.7ZM24.4353 19.578C24.7387 19.5532 25.1301 19.5527 25.7 19.5527H27.3C27.8699 19.5527 28.2613 19.5532 28.5647 19.578C28.8611 19.6022 29.0203 19.6466 29.1356 19.7053C29.399 19.8395 29.6132 20.0537 29.7474 20.3171C29.8062 20.4324 29.8505 20.5917 29.8748 20.888C29.8995 21.1914 29.9 21.5829 29.9 22.1527V23.7527C29.9 24.3226 29.8995 24.714 29.8748 25.0175C29.8505 25.3138 29.8062 25.473 29.7474 25.5883C29.6132 25.8517 29.399 26.0659 29.1356 26.2001C29.0203 26.2589 28.8611 26.3033 28.5647 26.3275C28.2613 26.3523 27.8699 26.3527 27.3 26.3527H25.7C25.1301 26.3527 24.7387 26.3523 24.4353 26.3275C24.139 26.3033 23.9797 26.2589 23.8644 26.2001C23.601 26.0659 23.3868 25.8517 23.2526 25.5883C23.1939 25.473 23.1495 25.3138 23.1253 25.0175C23.1005 24.714 23.1 24.3226 23.1 23.7527V22.1527C23.1 21.5829 23.1005 21.1914 23.1253 20.888C23.1495 20.5917 23.1939 20.4324 23.2526 20.3171C23.3868 20.0537 23.601 19.8395 23.8644 19.7053C23.9797 19.6466 24.139 19.6022 24.4353 19.578Z" fill="#51AF4E"/>
<path d="M16.6568 39.5531H18.0668V46.9531H16.6568V43.7631H12.6968V46.9531H11.2868V39.5531H12.6968V42.6031H16.6568V39.5531ZM22.5827 47.0531C20.8527 47.0531 19.6927 45.9331 19.6927 44.2531C19.6927 42.5831 20.8527 41.4631 22.5827 41.4631C24.3027 41.4631 25.4627 42.5831 25.4627 44.2531C25.4627 45.9331 24.3027 47.0531 22.5827 47.0531ZM22.5827 45.8831C23.4627 45.8831 24.0527 45.2331 24.0527 44.2531C24.0527 43.2731 23.4627 42.6231 22.5827 42.6231C21.6927 42.6231 21.1027 43.2731 21.1027 44.2531C21.1027 45.2331 21.6927 45.8831 22.5827 45.8831ZM33.2459 41.4631C34.5559 41.4631 35.4359 42.3031 35.4359 43.5631V46.9531H34.0759V43.7831C34.0759 43.0831 33.6359 42.6231 32.9659 42.6231C32.3059 42.6231 31.8659 43.0831 31.8659 43.7831V46.9531H30.5059V43.7831C30.5059 43.0831 30.0659 42.6231 29.3959 42.6231C28.7359 42.6231 28.2959 43.0831 28.2959 43.7831V46.9531H26.9359V41.5631H28.2459L28.2659 42.2031C28.6459 41.7131 29.2159 41.4631 29.8759 41.4631C30.5859 41.4631 31.1559 41.7631 31.5059 42.2731C31.8959 41.7431 32.5259 41.4631 33.2459 41.4631ZM42.2401 44.1731C42.2401 44.3631 42.2201 44.5831 42.2001 44.7431H38.3001C38.4001 45.5031 38.8001 45.9831 39.5901 45.9831C40.1401 45.9831 40.5901 45.7331 40.9101 45.3431L41.9601 45.8731C41.4801 46.5931 40.6301 47.0531 39.6101 47.0531C37.9601 47.0531 36.8601 45.9531 36.8601 44.2931C36.8601 42.5931 37.9301 41.4631 39.5501 41.4631C41.1601 41.4631 42.2401 42.5431 42.2401 44.1731ZM39.5501 42.5331C38.8301 42.5331 38.4101 43.0031 38.3001 43.8231H40.8101C40.7101 43.0031 40.2801 42.5331 39.5501 42.5331Z" fill="#211F42"/>
</svg>
