<svg width="65" height="58" viewBox="0 0 65 58" fill="none" xmlns="http://www.w3.org/2000/svg">
<path d="M30.6528 15.7594C30.7037 15.8631 30.7373 15.9741 30.7524 16.0883L31.0308 20.2282L31.169 22.309C31.1705 22.523 31.204 22.7356 31.2687 22.94C31.4356 23.3365 31.8372 23.5885 32.2741 23.5709L38.9313 23.1355C39.2196 23.1307 39.498 23.2385 39.7052 23.4352C39.8779 23.5991 39.9894 23.8135 40.0246 24.0441L40.0364 24.1841C39.7609 27.9988 36.9592 31.1806 33.1524 32.0019C29.3456 32.8232 25.4419 31.0882 23.5607 27.7388C23.0184 26.7657 22.6797 25.6962 22.5644 24.5929C22.5162 24.2663 22.495 23.9364 22.501 23.6065C22.495 19.5167 25.4075 15.9809 29.4843 15.1285C29.975 15.0521 30.456 15.3118 30.6528 15.7594Z" fill="#DCEFDC" stroke="#51AF4E" stroke-width="2"/>
<path d="M34.6654 12.9547C38.1652 13.0438 41.1067 15.5605 41.6729 18.9502L41.6675 18.9753L41.652 19.0116L41.6542 19.1115C41.6461 19.2438 41.5951 19.371 41.5071 19.4738C41.4154 19.5809 41.2901 19.6539 41.1522 19.6822L41.0681 19.6937L35.1729 20.0757C34.9768 20.095 34.7815 20.0318 34.6357 19.9017C34.5142 19.7933 34.4365 19.647 34.4145 19.4893L34.0188 13.6027C34.012 13.5828 34.012 13.5612 34.0188 13.5413C34.0242 13.3791 34.0957 13.2257 34.2172 13.1155C34.3386 13.0052 34.5001 12.9473 34.6654 12.9547Z" fill="#DCEFDC" stroke="#51AF4E" stroke-width="2"/>
<path d="M13.9555 38.8041H11.2655V46.2041H12.0255V43.3641H13.9555C15.4055 43.3641 16.3755 42.4441 16.3755 41.0541C16.3755 39.7041 15.4155 38.8041 13.9555 38.8041ZM13.8555 42.7341H12.0255V39.4341H13.8555C14.8955 39.4341 15.5855 40.0941 15.5855 41.0841C15.5855 42.0741 14.9055 42.7341 13.8555 42.7341ZM20.2027 46.3041C21.8127 46.3041 22.8927 45.2041 22.8927 43.5641C22.8927 41.9141 21.8127 40.8141 20.2027 40.8141C18.5827 40.8141 17.4927 41.9141 17.4927 43.5641C17.4927 45.2041 18.5827 46.3041 20.2027 46.3041ZM20.2027 45.6841C19.0327 45.6841 18.2527 44.8341 18.2527 43.5641C18.2527 42.2841 19.0327 41.4441 20.2027 41.4441C21.3627 41.4441 22.1327 42.2841 22.1327 43.5641C22.1327 44.8341 21.3627 45.6841 20.2027 45.6841ZM25.2905 41.8041L25.2805 40.9141H24.5805V46.2041H25.3005V43.1341C25.3005 42.1241 26.0405 41.4741 27.3305 41.4741L27.3905 40.8141C26.3805 40.8141 25.6705 41.1441 25.2905 41.8041ZM30.6017 45.6841C30.0517 45.6841 29.6717 45.2841 29.6717 44.7041V41.5141H31.5817V40.9141H29.6717V39.3641H28.9517V40.9141H28.0317V41.5141H28.9517V44.8441C28.9517 45.7141 29.5317 46.3041 30.3817 46.3041C30.8817 46.3041 31.3117 46.2341 31.6617 46.0841V45.4941C31.3217 45.6241 30.9717 45.6841 30.6017 45.6841ZM35.0377 38.9241C35.3577 38.9241 35.6277 38.9741 35.8577 39.0841L35.9177 38.5141C35.6277 38.3641 35.2577 38.3041 34.8377 38.3041C33.9277 38.3041 33.3077 38.8941 33.3077 39.7841V40.9141H32.3877V41.5141H33.3077V46.2041H34.0277V41.5141H35.8277V40.9141H34.0277V39.8941C34.0277 39.3141 34.4377 38.9241 35.0377 38.9241ZM39.2538 46.3041C40.8638 46.3041 41.9438 45.2041 41.9438 43.5641C41.9438 41.9141 40.8638 40.8141 39.2538 40.8141C37.6338 40.8141 36.5438 41.9141 36.5438 43.5641C36.5438 45.2041 37.6338 46.3041 39.2538 46.3041ZM39.2538 45.6841C38.0838 45.6841 37.3038 44.8341 37.3038 43.5641C37.3038 42.2841 38.0838 41.4441 39.2538 41.4441C40.4138 41.4441 41.1838 42.2841 41.1838 43.5641C41.1838 44.8341 40.4138 45.6841 39.2538 45.6841ZM43.6517 46.2041H44.3717V38.4041H43.6517V46.2041ZM46.8138 39.5841C47.0838 39.5841 47.2938 39.3741 47.2938 39.1041C47.2938 38.8241 47.0838 38.6141 46.8138 38.6141C46.5338 38.6141 46.3238 38.8241 46.3238 39.1041C46.3238 39.3741 46.5338 39.5841 46.8138 39.5841ZM46.4538 46.2041H47.1738V40.9141H46.4538V46.2041ZM51.5866 46.3041C53.1966 46.3041 54.2766 45.2041 54.2766 43.5641C54.2766 41.9141 53.1966 40.8141 51.5866 40.8141C49.9666 40.8141 48.8766 41.9141 48.8766 43.5641C48.8766 45.2041 49.9666 46.3041 51.5866 46.3041ZM51.5866 45.6841C50.4166 45.6841 49.6366 44.8341 49.6366 43.5641C49.6366 42.2841 50.4166 41.4441 51.5866 41.4441C52.7466 41.4441 53.5166 42.2841 53.5166 43.5641C53.5166 44.8341 52.7466 45.6841 51.5866 45.6841Z" fill="#211F42"/>
</svg>
