<svg width="65" height="58" viewBox="0 0 65 58" fill="none" xmlns="http://www.w3.org/2000/svg">
<g opacity="0.5">
<path d="M30.6528 16.2597C30.7037 16.3634 30.7373 16.4744 30.7524 16.5885L31.0308 20.7284L31.169 22.8092C31.1705 23.0232 31.204 23.2358 31.2687 23.4402C31.4356 23.8367 31.8372 24.0887 32.2741 24.0712L38.9313 23.6357C39.2196 23.631 39.498 23.7388 39.7052 23.9354C39.8779 24.0993 39.9894 24.3137 40.0246 24.5443L40.0364 24.6843C39.7609 28.4991 36.9592 31.6808 33.1524 32.5022C29.3456 33.3235 25.4419 31.5885 23.5607 28.2391C23.0184 27.266 22.6797 26.1964 22.5644 25.0931C22.5162 24.7665 22.495 24.4367 22.501 24.1067C22.495 20.0169 25.4075 16.4811 29.4843 15.6287C29.975 15.5523 30.456 15.8121 30.6528 16.2597Z" fill="#DCEFDC" stroke="#51AF4E" stroke-width="2"/>
<path d="M34.6654 13.4547C38.1652 13.5438 41.1067 16.0605 41.6729 19.4502L41.6675 19.4753L41.652 19.5116L41.6542 19.6115C41.6461 19.7438 41.5951 19.871 41.5071 19.9738C41.4154 20.0809 41.2901 20.1539 41.1522 20.1822L41.0681 20.1937L35.1729 20.5757C34.9768 20.595 34.7815 20.5318 34.6357 20.4017C34.5142 20.2933 34.4365 20.147 34.4145 19.9893L34.0188 14.1027C34.012 14.0828 34.012 14.0612 34.0188 14.0413C34.0242 13.8791 34.0957 13.7257 34.2172 13.6155C34.3386 13.5052 34.5001 13.4473 34.6654 13.4547Z" fill="#DCEFDC" stroke="#51AF4E" stroke-width="2"/>
<path d="M13.9555 39.3041H11.2655V46.7041H12.0255V43.8641H13.9555C15.4055 43.8641 16.3755 42.9441 16.3755 41.5541C16.3755 40.2041 15.4155 39.3041 13.9555 39.3041ZM13.8555 43.2341H12.0255V39.9341H13.8555C14.8955 39.9341 15.5855 40.5941 15.5855 41.5841C15.5855 42.5741 14.9055 43.2341 13.8555 43.2341ZM20.2027 46.8041C21.8127 46.8041 22.8927 45.7041 22.8927 44.0641C22.8927 42.4141 21.8127 41.3141 20.2027 41.3141C18.5827 41.3141 17.4927 42.4141 17.4927 44.0641C17.4927 45.7041 18.5827 46.8041 20.2027 46.8041ZM20.2027 46.1841C19.0327 46.1841 18.2527 45.3341 18.2527 44.0641C18.2527 42.7841 19.0327 41.9441 20.2027 41.9441C21.3627 41.9441 22.1327 42.7841 22.1327 44.0641C22.1327 45.3341 21.3627 46.1841 20.2027 46.1841ZM25.2905 42.3041L25.2805 41.4141H24.5805V46.7041H25.3005V43.6341C25.3005 42.6241 26.0405 41.9741 27.3305 41.9741L27.3905 41.3141C26.3805 41.3141 25.6705 41.6441 25.2905 42.3041ZM30.6017 46.1841C30.0517 46.1841 29.6717 45.7841 29.6717 45.2041V42.0141H31.5817V41.4141H29.6717V39.8641H28.9517V41.4141H28.0317V42.0141H28.9517V45.3441C28.9517 46.2141 29.5317 46.8041 30.3817 46.8041C30.8817 46.8041 31.3117 46.7341 31.6617 46.5841V45.9941C31.3217 46.1241 30.9717 46.1841 30.6017 46.1841ZM35.0377 39.4241C35.3577 39.4241 35.6277 39.4741 35.8577 39.5841L35.9177 39.0141C35.6277 38.8641 35.2577 38.8041 34.8377 38.8041C33.9277 38.8041 33.3077 39.3941 33.3077 40.2841V41.4141H32.3877V42.0141H33.3077V46.7041H34.0277V42.0141H35.8277V41.4141H34.0277V40.3941C34.0277 39.8141 34.4377 39.4241 35.0377 39.4241ZM39.2538 46.8041C40.8638 46.8041 41.9438 45.7041 41.9438 44.0641C41.9438 42.4141 40.8638 41.3141 39.2538 41.3141C37.6338 41.3141 36.5438 42.4141 36.5438 44.0641C36.5438 45.7041 37.6338 46.8041 39.2538 46.8041ZM39.2538 46.1841C38.0838 46.1841 37.3038 45.3341 37.3038 44.0641C37.3038 42.7841 38.0838 41.9441 39.2538 41.9441C40.4138 41.9441 41.1838 42.7841 41.1838 44.0641C41.1838 45.3341 40.4138 46.1841 39.2538 46.1841ZM43.6517 46.7041H44.3717V38.9041H43.6517V46.7041ZM46.8138 40.0841C47.0838 40.0841 47.2938 39.8741 47.2938 39.6041C47.2938 39.3241 47.0838 39.1141 46.8138 39.1141C46.5338 39.1141 46.3238 39.3241 46.3238 39.6041C46.3238 39.8741 46.5338 40.0841 46.8138 40.0841ZM46.4538 46.7041H47.1738V41.4141H46.4538V46.7041ZM51.5866 46.8041C53.1966 46.8041 54.2766 45.7041 54.2766 44.0641C54.2766 42.4141 53.1966 41.3141 51.5866 41.3141C49.9666 41.3141 48.8766 42.4141 48.8766 44.0641C48.8766 45.7041 49.9666 46.8041 51.5866 46.8041ZM51.5866 46.1841C50.4166 46.1841 49.6366 45.3341 49.6366 44.0641C49.6366 42.7841 50.4166 41.9441 51.5866 41.9441C52.7466 41.9441 53.5166 42.7841 53.5166 44.0641C53.5166 45.3341 52.7466 46.1841 51.5866 46.1841Z" fill="#211F42"/>
</g>
</svg>
