<svg width="53" height="58" viewBox="0 0 53 58" fill="none" xmlns="http://www.w3.org/2000/svg">
<g opacity="0.5">
<path fill-rule="evenodd" clip-rule="evenodd" d="M18.3 28.9057C18.2987 28.5698 18.3738 28.238 18.5197 27.9354C18.9773 27.0201 20.268 26.5349 21.3389 26.3153C22.1113 26.1504 22.8943 26.0403 23.6822 25.9857C25.1408 25.8576 26.6079 25.8576 28.0666 25.9857C28.8544 26.041 29.6374 26.1511 30.4098 26.3153C31.4808 26.5349 32.7714 26.9743 33.2291 27.9354C33.5224 28.5522 33.5224 29.2683 33.2291 29.8851C32.7714 30.8462 31.4808 31.2855 30.4098 31.496C29.6384 31.6677 28.8551 31.7809 28.0666 31.8347C26.8794 31.9354 25.6866 31.9537 24.4968 31.8896C24.2222 31.8896 23.9568 31.8896 23.6822 31.8347C22.8966 31.7816 22.1163 31.6683 21.3481 31.496C20.268 31.2855 18.9865 30.8462 18.5197 29.8851C18.3746 29.579 18.2995 29.2444 18.3 28.9057Z" fill="#DCEFDC" stroke="#51AF4E" stroke-width="1.5" stroke-linecap="round" stroke-linejoin="round"/>
<path d="M29.5196 17.4824C29.5196 19.4931 27.8896 21.123 25.879 21.123C23.8683 21.123 22.2383 19.4931 22.2383 17.4824C22.2383 15.4718 23.8683 13.8418 25.879 13.8418C27.8896 13.8418 29.5196 15.4718 29.5196 17.4824Z" fill="#DCEFDC" stroke="#51AF4E" stroke-width="1.5"/>
<path d="M13.9314 38.8041H11.2414V46.2041H12.0014V43.3641H13.9314C15.3814 43.3641 16.3514 42.4441 16.3514 41.0541C16.3514 39.7041 15.3914 38.8041 13.9314 38.8041ZM13.8314 42.7341H12.0014V39.4341H13.8314C14.8714 39.4341 15.5614 40.0941 15.5614 41.0841C15.5614 42.0741 14.8814 42.7341 13.8314 42.7341ZM18.6263 41.8041L18.6163 40.9141H17.9163V46.2041H18.6363V43.1341C18.6363 42.1241 19.3763 41.4741 20.6663 41.4741L20.7263 40.8141C19.7163 40.8141 19.0063 41.1441 18.6263 41.8041ZM24.0259 46.3041C25.6359 46.3041 26.7159 45.2041 26.7159 43.5641C26.7159 41.9141 25.6359 40.8141 24.0259 40.8141C22.4059 40.8141 21.3159 41.9141 21.3159 43.5641C21.3159 45.2041 22.4059 46.3041 24.0259 46.3041ZM24.0259 45.6841C22.8559 45.6841 22.0759 44.8341 22.0759 43.5641C22.0759 42.2841 22.8559 41.4441 24.0259 41.4441C25.1859 41.4441 25.9559 42.2841 25.9559 43.5641C25.9559 44.8341 25.1859 45.6841 24.0259 45.6841ZM28.6357 39.7841V40.9141H27.7157V41.5141H28.6357V46.2041H29.3557V41.5141H31.1557V40.9141H29.3557V39.8941C29.3557 39.3141 29.7657 38.9241 30.3657 38.9241C30.6857 38.9241 30.9557 38.9741 31.1857 39.0841L31.2457 38.5141C30.9557 38.3641 30.5857 38.3041 30.1657 38.3041C29.2557 38.3041 28.6357 38.8941 28.6357 39.7841ZM32.4557 39.5841C32.7257 39.5841 32.9357 39.3741 32.9357 39.1041C32.9357 38.8241 32.7257 38.6141 32.4557 38.6141C32.1757 38.6141 31.9657 38.8241 31.9657 39.1041C31.9657 39.3741 32.1757 39.5841 32.4557 39.5841ZM32.0957 46.2041H32.8157V40.9141H32.0957V46.2041ZM34.8882 46.2041H35.6082V38.4041H34.8882V46.2041ZM42.3404 43.4941C42.3404 41.8841 41.3404 40.8141 39.8504 40.8141C38.3404 40.8141 37.3404 41.9141 37.3404 43.5541C37.3404 45.2041 38.3604 46.3041 39.8704 46.3041C40.8104 46.3041 41.6204 45.8941 42.1304 45.1341L41.5804 44.8241C41.1704 45.3741 40.5804 45.7241 39.8704 45.7241C38.8204 45.7241 38.2004 44.9741 38.1104 43.8241H42.3304C42.3404 43.7441 42.3404 43.5841 42.3404 43.4941ZM39.8504 41.3941C40.8704 41.3941 41.5304 42.1341 41.5904 43.3141H38.1104C38.1804 42.1341 38.8304 41.3941 39.8504 41.3941Z" fill="#211F42"/>
</g>
</svg>
